%TF.GenerationSoftware,KiCad,Pcbnew,6.0.0+dfsg1-2*%
%TF.CreationDate,2022-01-11T21:45:24+02:00*%
%TF.ProjectId,gota-de-limon,676f7461-2d64-4652-9d6c-696d6f6e2e6b,rev?*%
%TF.SameCoordinates,Original*%
%TF.FileFunction,Soldermask,Top*%
%TF.FilePolarity,Negative*%
%FSLAX46Y46*%
G04 Gerber Fmt 4.6, Leading zero omitted, Abs format (unit mm)*
G04 Created by KiCad (PCBNEW 6.0.0+dfsg1-2) date 2022-01-11 21:45:24*
%MOMM*%
%LPD*%
G01*
G04 APERTURE LIST*
%ADD10C,1.600000*%
%ADD11O,1.600000X1.600000*%
%ADD12R,2.200000X2.200000*%
%ADD13O,2.200000X2.200000*%
%ADD14R,1.930400X1.930400*%
%ADD15O,1.930400X1.930400*%
%ADD16R,1.600000X1.600000*%
%ADD17R,2.540000X2.540000*%
%ADD18O,2.540000X2.540000*%
%ADD19R,1.900000X0.800000*%
%ADD20R,1.800000X1.800000*%
%ADD21C,1.800000*%
G04 APERTURE END LIST*
D10*
%TO.C,R2*%
X52500000Y-48725000D03*
D11*
X44880000Y-48725000D03*
%TD*%
D10*
%TO.C,C7*%
X39170000Y-51830000D03*
X39170000Y-56830000D03*
%TD*%
D12*
%TO.C,D2*%
X55360000Y-58110000D03*
D13*
X55360000Y-50490000D03*
%TD*%
D14*
%TO.C,J3*%
X84680000Y-69720000D03*
D15*
X87220000Y-69720000D03*
%TD*%
D10*
%TO.C,C9*%
X42250000Y-56825000D03*
X42250000Y-51825000D03*
%TD*%
%TO.C,R5*%
X44900000Y-51850000D03*
D11*
X52520000Y-51850000D03*
%TD*%
D10*
%TO.C,C6*%
X58750000Y-61000000D03*
X53750000Y-61000000D03*
%TD*%
D16*
%TO.C,C1*%
X41920000Y-47570000D03*
D10*
X39420000Y-47570000D03*
%TD*%
%TO.C,C10*%
X70200000Y-66290000D03*
X65200000Y-66290000D03*
%TD*%
D14*
%TO.C,J2*%
X59480000Y-46470000D03*
D15*
X56940000Y-46470000D03*
%TD*%
D16*
%TO.C,C4*%
X59670000Y-65210000D03*
D10*
X62170000Y-65210000D03*
%TD*%
D17*
%TO.C,RV2*%
X50800000Y-63627000D03*
D18*
X45720000Y-63627000D03*
X40640000Y-63627000D03*
%TD*%
D17*
%TO.C,RV1*%
X58674000Y-50800000D03*
D18*
X63754000Y-50800000D03*
X68834000Y-50800000D03*
%TD*%
D10*
%TO.C,R1*%
X58674000Y-53975000D03*
D11*
X66294000Y-53975000D03*
%TD*%
D10*
%TO.C,R6*%
X57000000Y-69930000D03*
D11*
X49380000Y-69930000D03*
%TD*%
D14*
%TO.C,J1*%
X73910000Y-69720000D03*
D15*
X76450000Y-69720000D03*
X78990000Y-69720000D03*
X81530000Y-69720000D03*
%TD*%
D10*
%TO.C,R10*%
X46630000Y-66830000D03*
D11*
X39010000Y-66830000D03*
%TD*%
D10*
%TO.C,R11*%
X49370000Y-66870000D03*
D11*
X56990000Y-66870000D03*
%TD*%
D10*
%TO.C,C5*%
X70200000Y-60150000D03*
X65200000Y-60150000D03*
%TD*%
%TO.C,R7*%
X46630000Y-69900000D03*
D11*
X39010000Y-69900000D03*
%TD*%
D16*
%TO.C,C8*%
X45350000Y-59275000D03*
D10*
X47850000Y-59275000D03*
%TD*%
%TO.C,R8*%
X67250000Y-47000000D03*
D11*
X74870000Y-47000000D03*
%TD*%
D10*
%TO.C,R9*%
X52525000Y-54950000D03*
D11*
X44905000Y-54950000D03*
%TD*%
D17*
%TO.C,RV3*%
X86995000Y-63627000D03*
D18*
X81915000Y-63627000D03*
X76835000Y-63627000D03*
%TD*%
D10*
%TO.C,R3*%
X58670000Y-57050000D03*
D11*
X66290000Y-57050000D03*
%TD*%
D10*
%TO.C,C2*%
X65200000Y-63225000D03*
X70200000Y-63225000D03*
%TD*%
%TO.C,R4*%
X71600000Y-50800000D03*
D11*
X79220000Y-50800000D03*
%TD*%
D19*
%TO.C,Q2*%
X42550000Y-61050000D03*
X39550000Y-60100000D03*
X42550000Y-59150000D03*
%TD*%
D16*
%TO.C,C3*%
X70231000Y-56642000D03*
D10*
X70231000Y-54142000D03*
%TD*%
D20*
%TO.C,D1*%
X62500000Y-47000000D03*
D21*
X65040000Y-47000000D03*
%TD*%
M02*
