%TF.GenerationSoftware,KiCad,Pcbnew,6.0.0+dfsg1-2*%
%TF.CreationDate,2022-01-11T21:45:24+02:00*%
%TF.ProjectId,gota-de-limon,676f7461-2d64-4652-9d6c-696d6f6e2e6b,rev?*%
%TF.SameCoordinates,Original*%
%TF.FileFunction,Legend,Bot*%
%TF.FilePolarity,Positive*%
%FSLAX46Y46*%
G04 Gerber Fmt 4.6, Leading zero omitted, Abs format (unit mm)*
G04 Created by KiCad (PCBNEW 6.0.0+dfsg1-2) date 2022-01-11 21:45:24*
%MOMM*%
%LPD*%
G01*
G04 APERTURE LIST*
%ADD10C,0.150000*%
%ADD11C,0.100000*%
%ADD12C,0.127000*%
%ADD13C,0.120000*%
%ADD14C,1.600000*%
%ADD15O,1.600000X1.600000*%
%ADD16R,2.200000X2.200000*%
%ADD17O,2.200000X2.200000*%
%ADD18R,1.930400X1.930400*%
%ADD19O,1.930400X1.930400*%
%ADD20R,1.600000X1.600000*%
%ADD21R,2.540000X2.540000*%
%ADD22O,2.540000X2.540000*%
%ADD23R,1.800000X1.800000*%
%ADD24C,1.800000*%
%ADD25R,0.800000X0.900000*%
G04 APERTURE END LIST*
D10*
%TO.C,J3*%
X87702523Y-67415000D02*
X87778714Y-67376904D01*
X87893000Y-67376904D01*
X88007285Y-67415000D01*
X88083476Y-67491190D01*
X88121571Y-67567380D01*
X88159666Y-67719761D01*
X88159666Y-67834047D01*
X88121571Y-67986428D01*
X88083476Y-68062619D01*
X88007285Y-68138809D01*
X87893000Y-68176904D01*
X87816809Y-68176904D01*
X87702523Y-68138809D01*
X87664428Y-68100714D01*
X87664428Y-67834047D01*
X87816809Y-67834047D01*
X87321571Y-68176904D02*
X87321571Y-67376904D01*
X86864428Y-68176904D01*
X86864428Y-67376904D01*
X86483476Y-68176904D02*
X86483476Y-67376904D01*
X86293000Y-67376904D01*
X86178714Y-67415000D01*
X86102523Y-67491190D01*
X86064428Y-67567380D01*
X86026333Y-67719761D01*
X86026333Y-67834047D01*
X86064428Y-67986428D01*
X86102523Y-68062619D01*
X86178714Y-68138809D01*
X86293000Y-68176904D01*
X86483476Y-68176904D01*
X85314904Y-67376904D02*
X85048238Y-68176904D01*
X84781571Y-67376904D01*
X84514904Y-67872142D02*
X83905380Y-67872142D01*
X84210142Y-68176904D02*
X84210142Y-67567380D01*
%TO.C,J2*%
X58845095Y-48813095D02*
X59111761Y-48013095D01*
X59378428Y-48813095D01*
X59645095Y-48317857D02*
X60254619Y-48317857D01*
X59949857Y-48013095D02*
X59949857Y-48622619D01*
X56457476Y-48775000D02*
X56381285Y-48813095D01*
X56267000Y-48813095D01*
X56152714Y-48775000D01*
X56076523Y-48698809D01*
X56038428Y-48622619D01*
X56000333Y-48470238D01*
X56000333Y-48355952D01*
X56038428Y-48203571D01*
X56076523Y-48127380D01*
X56152714Y-48051190D01*
X56267000Y-48013095D01*
X56343190Y-48013095D01*
X56457476Y-48051190D01*
X56495571Y-48089285D01*
X56495571Y-48355952D01*
X56343190Y-48355952D01*
X56838428Y-48013095D02*
X56838428Y-48813095D01*
X57295571Y-48013095D01*
X57295571Y-48813095D01*
X57676523Y-48013095D02*
X57676523Y-48813095D01*
X57867000Y-48813095D01*
X57981285Y-48775000D01*
X58057476Y-48698809D01*
X58095571Y-48622619D01*
X58133666Y-48470238D01*
X58133666Y-48355952D01*
X58095571Y-48203571D01*
X58057476Y-48127380D01*
X57981285Y-48051190D01*
X57867000Y-48013095D01*
X57676523Y-48013095D01*
%TO.C,RV2*%
X51773809Y-60650000D02*
X51869047Y-60602380D01*
X52011904Y-60602380D01*
X52154761Y-60650000D01*
X52250000Y-60745238D01*
X52297619Y-60840476D01*
X52345238Y-61030952D01*
X52345238Y-61173809D01*
X52297619Y-61364285D01*
X52250000Y-61459523D01*
X52154761Y-61554761D01*
X52011904Y-61602380D01*
X51916666Y-61602380D01*
X51773809Y-61554761D01*
X51726190Y-61507142D01*
X51726190Y-61173809D01*
X51916666Y-61173809D01*
X50869047Y-61602380D02*
X50869047Y-61078571D01*
X50916666Y-60983333D01*
X51011904Y-60935714D01*
X51202380Y-60935714D01*
X51297619Y-60983333D01*
X50869047Y-61554761D02*
X50964285Y-61602380D01*
X51202380Y-61602380D01*
X51297619Y-61554761D01*
X51345238Y-61459523D01*
X51345238Y-61364285D01*
X51297619Y-61269047D01*
X51202380Y-61221428D01*
X50964285Y-61221428D01*
X50869047Y-61173809D01*
X50392857Y-61602380D02*
X50392857Y-60935714D01*
X50392857Y-60602380D02*
X50440476Y-60650000D01*
X50392857Y-60697619D01*
X50345238Y-60650000D01*
X50392857Y-60602380D01*
X50392857Y-60697619D01*
X49916666Y-60935714D02*
X49916666Y-61602380D01*
X49916666Y-61030952D02*
X49869047Y-60983333D01*
X49773809Y-60935714D01*
X49630952Y-60935714D01*
X49535714Y-60983333D01*
X49488095Y-61078571D01*
X49488095Y-61602380D01*
X48297619Y-61316666D02*
X47821428Y-61316666D01*
X48392857Y-61602380D02*
X48059523Y-60602380D01*
X47726190Y-61602380D01*
X46869047Y-61602380D02*
X47440476Y-61602380D01*
X47154761Y-61602380D02*
X47154761Y-60602380D01*
X47250000Y-60745238D01*
X47345238Y-60840476D01*
X47440476Y-60888095D01*
X46250000Y-60602380D02*
X46154761Y-60602380D01*
X46059523Y-60650000D01*
X46011904Y-60697619D01*
X45964285Y-60792857D01*
X45916666Y-60983333D01*
X45916666Y-61221428D01*
X45964285Y-61411904D01*
X46011904Y-61507142D01*
X46059523Y-61554761D01*
X46154761Y-61602380D01*
X46250000Y-61602380D01*
X46345238Y-61554761D01*
X46392857Y-61507142D01*
X46440476Y-61411904D01*
X46488095Y-61221428D01*
X46488095Y-60983333D01*
X46440476Y-60792857D01*
X46392857Y-60697619D01*
X46345238Y-60650000D01*
X46250000Y-60602380D01*
X45297619Y-60602380D02*
X45202380Y-60602380D01*
X45107142Y-60650000D01*
X45059523Y-60697619D01*
X45011904Y-60792857D01*
X44964285Y-60983333D01*
X44964285Y-61221428D01*
X45011904Y-61411904D01*
X45059523Y-61507142D01*
X45107142Y-61554761D01*
X45202380Y-61602380D01*
X45297619Y-61602380D01*
X45392857Y-61554761D01*
X45440476Y-61507142D01*
X45488095Y-61411904D01*
X45535714Y-61221428D01*
X45535714Y-60983333D01*
X45488095Y-60792857D01*
X45440476Y-60697619D01*
X45392857Y-60650000D01*
X45297619Y-60602380D01*
X44535714Y-61602380D02*
X44535714Y-60602380D01*
X44440476Y-61221428D02*
X44154761Y-61602380D01*
X44154761Y-60935714D02*
X44535714Y-61316666D01*
D11*
X45434285Y-64079380D02*
X46005714Y-64079380D01*
X45720000Y-64079380D02*
X45720000Y-63079380D01*
X45815238Y-63222238D01*
X45910476Y-63317476D01*
X46005714Y-63365095D01*
D10*
%TO.C,RV1*%
X68653809Y-55378571D02*
X68987142Y-55378571D01*
X68987142Y-55902380D02*
X68987142Y-54902380D01*
X68510952Y-54902380D01*
X68130000Y-55902380D02*
X68130000Y-55235714D01*
X68130000Y-54902380D02*
X68177619Y-54950000D01*
X68130000Y-54997619D01*
X68082380Y-54950000D01*
X68130000Y-54902380D01*
X68130000Y-54997619D01*
X67510952Y-55902380D02*
X67606190Y-55854761D01*
X67653809Y-55759523D01*
X67653809Y-54902380D01*
X67272857Y-55235714D02*
X66891904Y-55235714D01*
X67130000Y-54902380D02*
X67130000Y-55759523D01*
X67082380Y-55854761D01*
X66987142Y-55902380D01*
X66891904Y-55902380D01*
X66177619Y-55854761D02*
X66272857Y-55902380D01*
X66463333Y-55902380D01*
X66558571Y-55854761D01*
X66606190Y-55759523D01*
X66606190Y-55378571D01*
X66558571Y-55283333D01*
X66463333Y-55235714D01*
X66272857Y-55235714D01*
X66177619Y-55283333D01*
X66130000Y-55378571D01*
X66130000Y-55473809D01*
X66606190Y-55569047D01*
X65701428Y-55902380D02*
X65701428Y-55235714D01*
X65701428Y-55426190D02*
X65653809Y-55330952D01*
X65606190Y-55283333D01*
X65510952Y-55235714D01*
X65415714Y-55235714D01*
X64368095Y-55616666D02*
X63891904Y-55616666D01*
X64463333Y-55902380D02*
X64130000Y-54902380D01*
X63796666Y-55902380D01*
X62939523Y-55902380D02*
X63510952Y-55902380D01*
X63225238Y-55902380D02*
X63225238Y-54902380D01*
X63320476Y-55045238D01*
X63415714Y-55140476D01*
X63510952Y-55188095D01*
X62320476Y-54902380D02*
X62225238Y-54902380D01*
X62130000Y-54950000D01*
X62082380Y-54997619D01*
X62034761Y-55092857D01*
X61987142Y-55283333D01*
X61987142Y-55521428D01*
X62034761Y-55711904D01*
X62082380Y-55807142D01*
X62130000Y-55854761D01*
X62225238Y-55902380D01*
X62320476Y-55902380D01*
X62415714Y-55854761D01*
X62463333Y-55807142D01*
X62510952Y-55711904D01*
X62558571Y-55521428D01*
X62558571Y-55283333D01*
X62510952Y-55092857D01*
X62463333Y-54997619D01*
X62415714Y-54950000D01*
X62320476Y-54902380D01*
X61368095Y-54902380D02*
X61272857Y-54902380D01*
X61177619Y-54950000D01*
X61130000Y-54997619D01*
X61082380Y-55092857D01*
X61034761Y-55283333D01*
X61034761Y-55521428D01*
X61082380Y-55711904D01*
X61130000Y-55807142D01*
X61177619Y-55854761D01*
X61272857Y-55902380D01*
X61368095Y-55902380D01*
X61463333Y-55854761D01*
X61510952Y-55807142D01*
X61558571Y-55711904D01*
X61606190Y-55521428D01*
X61606190Y-55283333D01*
X61558571Y-55092857D01*
X61510952Y-54997619D01*
X61463333Y-54950000D01*
X61368095Y-54902380D01*
X60606190Y-55902380D02*
X60606190Y-54902380D01*
X60510952Y-55521428D02*
X60225238Y-55902380D01*
X60225238Y-55235714D02*
X60606190Y-55616666D01*
D11*
X63468285Y-51252380D02*
X64039714Y-51252380D01*
X63754000Y-51252380D02*
X63754000Y-50252380D01*
X63849238Y-50395238D01*
X63944476Y-50490476D01*
X64039714Y-50538095D01*
D10*
%TO.C,J1*%
X79675714Y-68138809D02*
X79561428Y-68176904D01*
X79370952Y-68176904D01*
X79294761Y-68138809D01*
X79256666Y-68100714D01*
X79218571Y-68024523D01*
X79218571Y-67948333D01*
X79256666Y-67872142D01*
X79294761Y-67834047D01*
X79370952Y-67795952D01*
X79523333Y-67757857D01*
X79599523Y-67719761D01*
X79637619Y-67681666D01*
X79675714Y-67605476D01*
X79675714Y-67529285D01*
X79637619Y-67453095D01*
X79599523Y-67415000D01*
X79523333Y-67376904D01*
X79332857Y-67376904D01*
X79218571Y-67415000D01*
X78951904Y-67376904D02*
X78761428Y-68176904D01*
X78609047Y-67605476D01*
X78456666Y-68176904D01*
X78266190Y-67376904D01*
X77059523Y-67415000D02*
X77135714Y-67376904D01*
X77250000Y-67376904D01*
X77364285Y-67415000D01*
X77440476Y-67491190D01*
X77478571Y-67567380D01*
X77516666Y-67719761D01*
X77516666Y-67834047D01*
X77478571Y-67986428D01*
X77440476Y-68062619D01*
X77364285Y-68138809D01*
X77250000Y-68176904D01*
X77173809Y-68176904D01*
X77059523Y-68138809D01*
X77021428Y-68100714D01*
X77021428Y-67834047D01*
X77173809Y-67834047D01*
X76678571Y-68176904D02*
X76678571Y-67376904D01*
X76221428Y-68176904D01*
X76221428Y-67376904D01*
X75840476Y-68176904D02*
X75840476Y-67376904D01*
X75650000Y-67376904D01*
X75535714Y-67415000D01*
X75459523Y-67491190D01*
X75421428Y-67567380D01*
X75383333Y-67719761D01*
X75383333Y-67834047D01*
X75421428Y-67986428D01*
X75459523Y-68062619D01*
X75535714Y-68138809D01*
X75650000Y-68176904D01*
X75840476Y-68176904D01*
X82330000Y-67376904D02*
X82177619Y-67376904D01*
X82101428Y-67415000D01*
X82025238Y-67491190D01*
X81987142Y-67643571D01*
X81987142Y-67910238D01*
X82025238Y-68062619D01*
X82101428Y-68138809D01*
X82177619Y-68176904D01*
X82330000Y-68176904D01*
X82406190Y-68138809D01*
X82482380Y-68062619D01*
X82520476Y-67910238D01*
X82520476Y-67643571D01*
X82482380Y-67491190D01*
X82406190Y-67415000D01*
X82330000Y-67376904D01*
X81644285Y-67376904D02*
X81644285Y-68024523D01*
X81606190Y-68100714D01*
X81568095Y-68138809D01*
X81491904Y-68176904D01*
X81339523Y-68176904D01*
X81263333Y-68138809D01*
X81225238Y-68100714D01*
X81187142Y-68024523D01*
X81187142Y-67376904D01*
X80920476Y-67376904D02*
X80463333Y-67376904D01*
X80691904Y-68176904D02*
X80691904Y-67376904D01*
X74329047Y-68176904D02*
X74329047Y-67376904D01*
X73948095Y-68176904D02*
X73948095Y-67376904D01*
X73490952Y-68176904D01*
X73490952Y-67376904D01*
%TO.C,RV3*%
X85541976Y-60539380D02*
X85208642Y-61539380D01*
X84875309Y-60539380D01*
X84399119Y-61539380D02*
X84494357Y-61491761D01*
X84541976Y-61444142D01*
X84589595Y-61348904D01*
X84589595Y-61063190D01*
X84541976Y-60967952D01*
X84494357Y-60920333D01*
X84399119Y-60872714D01*
X84256261Y-60872714D01*
X84161023Y-60920333D01*
X84113404Y-60967952D01*
X84065785Y-61063190D01*
X84065785Y-61348904D01*
X84113404Y-61444142D01*
X84161023Y-61491761D01*
X84256261Y-61539380D01*
X84399119Y-61539380D01*
X83494357Y-61539380D02*
X83589595Y-61491761D01*
X83637214Y-61396523D01*
X83637214Y-60539380D01*
X82399119Y-61253666D02*
X81922928Y-61253666D01*
X82494357Y-61539380D02*
X82161023Y-60539380D01*
X81827690Y-61539380D01*
X80970547Y-61539380D02*
X81541976Y-61539380D01*
X81256261Y-61539380D02*
X81256261Y-60539380D01*
X81351500Y-60682238D01*
X81446738Y-60777476D01*
X81541976Y-60825095D01*
X80351500Y-60539380D02*
X80256261Y-60539380D01*
X80161023Y-60587000D01*
X80113404Y-60634619D01*
X80065785Y-60729857D01*
X80018166Y-60920333D01*
X80018166Y-61158428D01*
X80065785Y-61348904D01*
X80113404Y-61444142D01*
X80161023Y-61491761D01*
X80256261Y-61539380D01*
X80351500Y-61539380D01*
X80446738Y-61491761D01*
X80494357Y-61444142D01*
X80541976Y-61348904D01*
X80589595Y-61158428D01*
X80589595Y-60920333D01*
X80541976Y-60729857D01*
X80494357Y-60634619D01*
X80446738Y-60587000D01*
X80351500Y-60539380D01*
X79399119Y-60539380D02*
X79303880Y-60539380D01*
X79208642Y-60587000D01*
X79161023Y-60634619D01*
X79113404Y-60729857D01*
X79065785Y-60920333D01*
X79065785Y-61158428D01*
X79113404Y-61348904D01*
X79161023Y-61444142D01*
X79208642Y-61491761D01*
X79303880Y-61539380D01*
X79399119Y-61539380D01*
X79494357Y-61491761D01*
X79541976Y-61444142D01*
X79589595Y-61348904D01*
X79637214Y-61158428D01*
X79637214Y-60920333D01*
X79589595Y-60729857D01*
X79541976Y-60634619D01*
X79494357Y-60587000D01*
X79399119Y-60539380D01*
X78637214Y-61539380D02*
X78637214Y-60539380D01*
X78541976Y-61158428D02*
X78256261Y-61539380D01*
X78256261Y-60872714D02*
X78637214Y-61253666D01*
D11*
X81629285Y-64079380D02*
X82200714Y-64079380D01*
X81915000Y-64079380D02*
X81915000Y-63079380D01*
X82010238Y-63222238D01*
X82105476Y-63317476D01*
X82200714Y-63365095D01*
D10*
%TO.C,D1*%
X62080476Y-49161904D02*
X62080476Y-48361904D01*
X61890000Y-48361904D01*
X61775714Y-48400000D01*
X61699523Y-48476190D01*
X61661428Y-48552380D01*
X61623333Y-48704761D01*
X61623333Y-48819047D01*
X61661428Y-48971428D01*
X61699523Y-49047619D01*
X61775714Y-49123809D01*
X61890000Y-49161904D01*
X62080476Y-49161904D01*
X60861428Y-49161904D02*
X61318571Y-49161904D01*
X61090000Y-49161904D02*
X61090000Y-48361904D01*
X61166190Y-48476190D01*
X61242380Y-48552380D01*
X61318571Y-48590476D01*
%TO.C,Q1*%
X61905238Y-63068095D02*
X62000476Y-63030000D01*
X62095714Y-62953809D01*
X62238571Y-62839523D01*
X62333809Y-62801428D01*
X62429047Y-62801428D01*
X62381428Y-62991904D02*
X62476666Y-62953809D01*
X62571904Y-62877619D01*
X62619523Y-62725238D01*
X62619523Y-62458571D01*
X62571904Y-62306190D01*
X62476666Y-62230000D01*
X62381428Y-62191904D01*
X62190952Y-62191904D01*
X62095714Y-62230000D01*
X62000476Y-62306190D01*
X61952857Y-62458571D01*
X61952857Y-62725238D01*
X62000476Y-62877619D01*
X62095714Y-62953809D01*
X62190952Y-62991904D01*
X62381428Y-62991904D01*
X61000476Y-62991904D02*
X61571904Y-62991904D01*
X61286190Y-62991904D02*
X61286190Y-62191904D01*
X61381428Y-62306190D01*
X61476666Y-62382380D01*
X61571904Y-62420476D01*
D12*
%TO.C,J3*%
X83410000Y-68450000D02*
X83410000Y-67180000D01*
X83410000Y-70990000D02*
X83410000Y-68450000D01*
X83410000Y-70990000D02*
X88490000Y-70990000D01*
X88490000Y-68450000D02*
X88490000Y-67180000D01*
X88490000Y-68450000D02*
X83410000Y-68450000D01*
X88490000Y-70990000D02*
X88490000Y-68450000D01*
X83410000Y-67180000D02*
X88490000Y-67180000D01*
%TO.C,J2*%
X60750000Y-45200000D02*
X60750000Y-47740000D01*
X55670000Y-45200000D02*
X55670000Y-47740000D01*
X60750000Y-47740000D02*
X60750000Y-49010000D01*
X60750000Y-45200000D02*
X55670000Y-45200000D01*
X60750000Y-49010000D02*
X55670000Y-49010000D01*
X55670000Y-47740000D02*
X60750000Y-47740000D01*
X55670000Y-47740000D02*
X55670000Y-49010000D01*
%TO.C,RV2*%
X39116000Y-65151000D02*
X42164000Y-65151000D01*
X39116000Y-62103000D02*
X42164000Y-62103000D01*
X49276000Y-62103000D02*
X52324000Y-62103000D01*
X42164000Y-65151000D02*
X42164000Y-62103000D01*
X47244000Y-65151000D02*
X47244000Y-62103000D01*
X36830000Y-49022000D02*
X54610000Y-49022000D01*
X44196000Y-62103000D02*
X44196000Y-65151000D01*
X53340000Y-61976000D02*
X53340000Y-53467000D01*
X44196000Y-62103000D02*
X47244000Y-62103000D01*
X49276000Y-65151000D02*
X52324000Y-65151000D01*
X38100000Y-53467000D02*
X38100000Y-61976000D01*
X38100000Y-61976000D02*
X53340000Y-61976000D01*
X39116000Y-62103000D02*
X39116000Y-65151000D01*
X45720000Y-57912000D02*
X45720000Y-40132000D01*
X52324000Y-65151000D02*
X52324000Y-62103000D01*
X49276000Y-62103000D02*
X49276000Y-65151000D01*
X44196000Y-65151000D02*
X47244000Y-65151000D01*
X36830000Y-49022000D02*
G75*
G03*
X45720000Y-57912000I8890000J0D01*
G01*
X45720002Y-40132000D02*
G75*
G03*
X36830000Y-49022000I-101J-8889901D01*
G01*
X45720000Y-57912000D02*
G75*
G03*
X54610000Y-49022000I0J8890000D01*
G01*
X54610000Y-49022002D02*
G75*
G03*
X45720000Y-40132000I-8889901J101D01*
G01*
X46618000Y-49022000D02*
G75*
G03*
X46618000Y-49022000I-898000J0D01*
G01*
%TO.C,RV1*%
X60198000Y-49276000D02*
X57150000Y-49276000D01*
X70358000Y-52324000D02*
X70358000Y-49276000D01*
X67310000Y-49276000D02*
X67310000Y-52324000D01*
X71374000Y-52451000D02*
X56134000Y-52451000D01*
X70358000Y-52324000D02*
X67310000Y-52324000D01*
X71374000Y-60960000D02*
X71374000Y-52451000D01*
X65278000Y-52324000D02*
X65278000Y-49276000D01*
X60198000Y-52324000D02*
X60198000Y-49276000D01*
X65278000Y-49276000D02*
X62230000Y-49276000D01*
X62230000Y-49276000D02*
X62230000Y-52324000D01*
X70358000Y-49276000D02*
X67310000Y-49276000D01*
X57150000Y-49276000D02*
X57150000Y-52324000D01*
X63754000Y-56515000D02*
X63754000Y-74295000D01*
X56134000Y-52451000D02*
X56134000Y-60960000D01*
X60198000Y-52324000D02*
X57150000Y-52324000D01*
X65278000Y-52324000D02*
X62230000Y-52324000D01*
X72644000Y-65405000D02*
X54864000Y-65405000D01*
X63753998Y-74295000D02*
G75*
G03*
X72644000Y-65405000I101J8889901D01*
G01*
X72644000Y-65405000D02*
G75*
G03*
X63754000Y-56515000I-8890000J0D01*
G01*
X54864000Y-65404998D02*
G75*
G03*
X63754000Y-74295000I8889901J-101D01*
G01*
X63754000Y-56515000D02*
G75*
G03*
X54864000Y-65405000I0J-8890000D01*
G01*
X64652000Y-65405000D02*
G75*
G03*
X64652000Y-65405000I-898000J0D01*
G01*
%TO.C,J1*%
X72640000Y-67180000D02*
X82800000Y-67180000D01*
X82800000Y-70990000D02*
X82800000Y-68450000D01*
X72640000Y-68450000D02*
X72640000Y-67180000D01*
X72640000Y-70990000D02*
X72640000Y-68450000D01*
X82800000Y-68450000D02*
X82800000Y-67180000D01*
X82800000Y-68450000D02*
X72640000Y-68450000D01*
X72640000Y-70990000D02*
X82800000Y-70990000D01*
%TO.C,RV3*%
X74295000Y-53467000D02*
X74295000Y-61976000D01*
X74295000Y-61976000D02*
X89535000Y-61976000D01*
X85471000Y-65151000D02*
X88519000Y-65151000D01*
X88519000Y-65151000D02*
X88519000Y-62103000D01*
X80391000Y-62103000D02*
X83439000Y-62103000D01*
X85471000Y-62103000D02*
X88519000Y-62103000D01*
X80391000Y-65151000D02*
X83439000Y-65151000D01*
X83439000Y-65151000D02*
X83439000Y-62103000D01*
X85471000Y-62103000D02*
X85471000Y-65151000D01*
X81915000Y-57912000D02*
X81915000Y-40132000D01*
X75311000Y-65151000D02*
X78359000Y-65151000D01*
X80391000Y-62103000D02*
X80391000Y-65151000D01*
X73025000Y-49022000D02*
X90805000Y-49022000D01*
X75311000Y-62103000D02*
X75311000Y-65151000D01*
X89535000Y-61976000D02*
X89535000Y-53467000D01*
X78359000Y-65151000D02*
X78359000Y-62103000D01*
X75311000Y-62103000D02*
X78359000Y-62103000D01*
X81915000Y-57912000D02*
G75*
G03*
X90805000Y-49022000I0J8890000D01*
G01*
X90805000Y-49022002D02*
G75*
G03*
X81915000Y-40132000I-8889901J101D01*
G01*
X81915002Y-40132000D02*
G75*
G03*
X73025000Y-49022000I-101J-8889901D01*
G01*
X73025000Y-49022000D02*
G75*
G03*
X81915000Y-57912000I8890000J0D01*
G01*
X82813000Y-49022000D02*
G75*
G03*
X82813000Y-49022000I-898000J0D01*
G01*
D13*
%TO.C,D1*%
X62210000Y-45920000D02*
X62210000Y-45764000D01*
X62210000Y-48236000D02*
X62210000Y-48080000D01*
X64811130Y-45920163D02*
G75*
G03*
X62729039Y-45920000I-1041130J-1079837D01*
G01*
X65442335Y-45921392D02*
G75*
G03*
X62210000Y-45764484I-1672335J-1078608D01*
G01*
X62729039Y-48080000D02*
G75*
G03*
X64811130Y-48079837I1040961J1080000D01*
G01*
X62210000Y-48235516D02*
G75*
G03*
X65442335Y-48078608I1560000J1235516D01*
G01*
%TO.C,Q1*%
X60396000Y-59692000D02*
X61326000Y-59692000D01*
X60396000Y-59692000D02*
X60396000Y-61152000D01*
X63556000Y-59692000D02*
X62626000Y-59692000D01*
X63556000Y-59692000D02*
X63556000Y-61852000D01*
%TD*%
%LPC*%
D14*
%TO.C,R2*%
X52500000Y-48725000D03*
D15*
X44880000Y-48725000D03*
%TD*%
D14*
%TO.C,C7*%
X39170000Y-51830000D03*
X39170000Y-56830000D03*
%TD*%
D16*
%TO.C,D2*%
X55360000Y-58110000D03*
D17*
X55360000Y-50490000D03*
%TD*%
D18*
%TO.C,J3*%
X84680000Y-69720000D03*
D19*
X87220000Y-69720000D03*
%TD*%
D14*
%TO.C,C9*%
X42250000Y-56825000D03*
X42250000Y-51825000D03*
%TD*%
%TO.C,R5*%
X44900000Y-51850000D03*
D15*
X52520000Y-51850000D03*
%TD*%
D14*
%TO.C,C6*%
X58750000Y-61000000D03*
X53750000Y-61000000D03*
%TD*%
D20*
%TO.C,C1*%
X41920000Y-47570000D03*
D14*
X39420000Y-47570000D03*
%TD*%
%TO.C,C10*%
X70200000Y-66290000D03*
X65200000Y-66290000D03*
%TD*%
D18*
%TO.C,J2*%
X59480000Y-46470000D03*
D19*
X56940000Y-46470000D03*
%TD*%
D20*
%TO.C,C4*%
X59670000Y-65210000D03*
D14*
X62170000Y-65210000D03*
%TD*%
D21*
%TO.C,RV2*%
X50800000Y-63627000D03*
D22*
X45720000Y-63627000D03*
X40640000Y-63627000D03*
%TD*%
D21*
%TO.C,RV1*%
X58674000Y-50800000D03*
D22*
X63754000Y-50800000D03*
X68834000Y-50800000D03*
%TD*%
D14*
%TO.C,R1*%
X58674000Y-53975000D03*
D15*
X66294000Y-53975000D03*
%TD*%
D14*
%TO.C,R6*%
X57000000Y-69930000D03*
D15*
X49380000Y-69930000D03*
%TD*%
D18*
%TO.C,J1*%
X73910000Y-69720000D03*
D19*
X76450000Y-69720000D03*
X78990000Y-69720000D03*
X81530000Y-69720000D03*
%TD*%
D14*
%TO.C,R10*%
X46630000Y-66830000D03*
D15*
X39010000Y-66830000D03*
%TD*%
D14*
%TO.C,R11*%
X49370000Y-66870000D03*
D15*
X56990000Y-66870000D03*
%TD*%
D14*
%TO.C,C5*%
X70200000Y-60150000D03*
X65200000Y-60150000D03*
%TD*%
%TO.C,R7*%
X46630000Y-69900000D03*
D15*
X39010000Y-69900000D03*
%TD*%
D20*
%TO.C,C8*%
X45350000Y-59275000D03*
D14*
X47850000Y-59275000D03*
%TD*%
%TO.C,R8*%
X67250000Y-47000000D03*
D15*
X74870000Y-47000000D03*
%TD*%
D14*
%TO.C,R9*%
X52525000Y-54950000D03*
D15*
X44905000Y-54950000D03*
%TD*%
D21*
%TO.C,RV3*%
X86995000Y-63627000D03*
D22*
X81915000Y-63627000D03*
X76835000Y-63627000D03*
%TD*%
D14*
%TO.C,R3*%
X58670000Y-57050000D03*
D15*
X66290000Y-57050000D03*
%TD*%
D14*
%TO.C,C2*%
X65200000Y-63225000D03*
X70200000Y-63225000D03*
%TD*%
%TO.C,R4*%
X71600000Y-50800000D03*
D15*
X79220000Y-50800000D03*
%TD*%
D20*
%TO.C,C3*%
X70231000Y-56642000D03*
D14*
X70231000Y-54142000D03*
%TD*%
D23*
%TO.C,D1*%
X62500000Y-47000000D03*
D24*
X65040000Y-47000000D03*
%TD*%
D25*
%TO.C,Q1*%
X62926000Y-61452000D03*
X61026000Y-61452000D03*
X61976000Y-59452000D03*
%TD*%
M02*
