M48
; DRILL file {KiCad (5.99.0-7175-gc07a38b91b)} date Tue Nov 24 09:55:24 2020
; FORMAT={-:-/ absolute / inch / decimal}
; #@! TF.CreationDate,2020-11-24T09:55:24+02:00
; #@! TF.GenerationSoftware,Kicad,Pcbnew,(5.99.0-7175-gc07a38b91b)
; #@! TF.FileFunction,Plated,1,2,PTH
FMAT,2
INCH
T1C0.0315
T2C0.0354
T3C0.0433
T4C0.0551
%
G90
G05
T1
X1.9437Y-2.6327
X1.7854Y-2.3337
X1.5358Y-2.6311
X2.7638Y-2.4892
X1.7669Y-1.9183
X2.0669Y-1.9183
X1.7679Y-2.1634
X2.0679Y-2.1634
X2.0677Y-2.0413
X2.3492Y-2.5673
X2.4476Y-2.5673
X2.3098Y-2.2461
X2.6098Y-2.2461
X1.8358Y-2.6311
X1.7677Y-2.0413
X2.2437Y-2.6327
X2.5669Y-2.3681
X2.7638Y-2.3681
X1.5358Y-2.752
X1.8358Y-2.752
X1.8839Y-2.3337
X2.5669Y-2.4892
X2.8189Y-2.0
X3.1189Y-2.0
X1.5421Y-2.0406
X1.5421Y-2.2374
X1.6634Y-2.0404
X1.6634Y-2.2372
X2.6476Y-1.8504
X2.1161Y-2.4016
X2.313Y-2.4016
X1.6504Y-1.8728
X2.9476Y-1.8504
X1.9441Y-2.7531
X2.2441Y-2.7531
X1.552Y-1.8728
X2.765Y-2.1316
X2.765Y-2.23
X2.5669Y-2.6098
X2.7638Y-2.6098
X2.31Y-2.125
X2.61Y-2.125
T2
X2.4606Y-1.8504
X2.5606Y-1.8504
T3
X2.2417Y-1.8295
X2.3417Y-1.8295
X2.9098Y-2.7449
X3.0098Y-2.7449
X3.1098Y-2.7449
X3.2098Y-2.7449
X3.3339Y-2.7449
X3.4339Y-2.7449
X2.1795Y-1.9878
X2.1795Y-2.2878
T4
X2.31Y-2.0
X1.6Y-2.505
X1.8Y-2.505
X2.0Y-2.505
X2.51Y-2.0
X2.71Y-2.0
X3.025Y-2.505
X3.225Y-2.505
X3.425Y-2.505
T0
M30
