%TF.GenerationSoftware,KiCad,Pcbnew,(5.99.0-7175-gc07a38b91b)*%
%TF.CreationDate,2020-11-24T09:55:21+02:00*%
%TF.ProjectId,gota-de-limon,676f7461-2d64-4652-9d6c-696d6f6e2e6b,rev?*%
%TF.SameCoordinates,Original*%
%TF.FileFunction,Copper,L2,Bot*%
%TF.FilePolarity,Positive*%
%FSLAX46Y46*%
G04 Gerber Fmt 4.6, Leading zero omitted, Abs format (unit mm)*
G04 Created by KiCad (PCBNEW (5.99.0-7175-gc07a38b91b)) date 2020-11-24 09:55:21*
%MOMM*%
%LPD*%
G01*
G04 APERTURE LIST*
%TA.AperFunction,ComponentPad*%
%ADD10O,1.930400X1.930400*%
%TD*%
%TA.AperFunction,ComponentPad*%
%ADD11R,1.930400X1.930400*%
%TD*%
%TA.AperFunction,ComponentPad*%
%ADD12C,1.600000*%
%TD*%
%TA.AperFunction,ComponentPad*%
%ADD13O,1.600000X1.600000*%
%TD*%
%TA.AperFunction,ComponentPad*%
%ADD14R,2.200000X2.200000*%
%TD*%
%TA.AperFunction,ComponentPad*%
%ADD15O,2.200000X2.200000*%
%TD*%
%TA.AperFunction,ComponentPad*%
%ADD16R,1.600000X1.600000*%
%TD*%
%TA.AperFunction,ComponentPad*%
%ADD17R,2.540000X2.540000*%
%TD*%
%TA.AperFunction,ComponentPad*%
%ADD18O,2.540000X2.540000*%
%TD*%
%TA.AperFunction,SMDPad,CuDef*%
%ADD19R,0.800000X0.900000*%
%TD*%
%TA.AperFunction,ComponentPad*%
%ADD20R,1.800000X1.800000*%
%TD*%
%TA.AperFunction,ComponentPad*%
%ADD21C,1.800000*%
%TD*%
%TA.AperFunction,Conductor*%
%ADD22C,0.381000*%
%TD*%
G04 APERTURE END LIST*
D10*
%TO.P,J3,2,GND*%
%TO.N,GND*%
X87220000Y-69720000D03*
D11*
%TO.P,J3,1,PWR*%
%TO.N,+9V*%
X84680000Y-69720000D03*
%TD*%
D12*
%TO.P,R2,1*%
%TO.N,VCC*%
X52500000Y-48725000D03*
D13*
%TO.P,R2,2*%
%TO.N,Net-(R2-Pad2)*%
X44880000Y-48725000D03*
%TD*%
D12*
%TO.P,C7,1*%
%TO.N,Net-(C6-Pad2)*%
X39170000Y-51830000D03*
%TO.P,C7,2*%
%TO.N,Net-(C7-Pad2)*%
X39170000Y-56830000D03*
%TD*%
D14*
%TO.P,D2,1,K*%
%TO.N,VCC*%
X55360000Y-58110000D03*
D15*
%TO.P,D2,2,A*%
%TO.N,+9V*%
X55360000Y-50490000D03*
%TD*%
D12*
%TO.P,C9,1*%
%TO.N,Net-(C9-Pad1)*%
X42250000Y-56825000D03*
%TO.P,C9,2*%
%TO.N,Net-(C9-Pad2)*%
X42250000Y-51825000D03*
%TD*%
%TO.P,R5,1*%
%TO.N,Net-(R2-Pad2)*%
X44900000Y-51850000D03*
D13*
%TO.P,R5,2*%
%TO.N,Net-(C5-Pad2)*%
X52520000Y-51850000D03*
%TD*%
D12*
%TO.P,C6,1*%
%TO.N,Net-(C5-Pad2)*%
X58750000Y-61000000D03*
%TO.P,C6,2*%
%TO.N,Net-(C6-Pad2)*%
X53750000Y-61000000D03*
%TD*%
D16*
%TO.P,C1,1*%
%TO.N,VCC*%
X41920000Y-47570000D03*
D12*
%TO.P,C1,2*%
%TO.N,GND*%
X39420000Y-47570000D03*
%TD*%
%TO.P,C10,1*%
%TO.N,Net-(C10-Pad1)*%
X70200000Y-66290000D03*
%TO.P,C10,2*%
%TO.N,GND*%
X65200000Y-66290000D03*
%TD*%
D11*
%TO.P,J2,1,PWR*%
%TO.N,+9V*%
X59480000Y-46470000D03*
D10*
%TO.P,J2,2,GND*%
%TO.N,GND*%
X56940000Y-46470000D03*
%TD*%
D16*
%TO.P,C4,1*%
%TO.N,Net-(C4-Pad1)*%
X59670000Y-65210000D03*
D12*
%TO.P,C4,2*%
%TO.N,GND*%
X62170000Y-65210000D03*
%TD*%
D17*
%TO.P,RV2,1,1*%
%TO.N,Net-(R7-Pad1)*%
X50800000Y-63627000D03*
D18*
%TO.P,RV2,2,2*%
%TO.N,Net-(C7-Pad2)*%
X45720000Y-63627000D03*
%TO.P,RV2,3,3*%
%TO.N,Net-(C6-Pad2)*%
X40640000Y-63627000D03*
%TD*%
D19*
%TO.P,Q1,1,B*%
%TO.N,Net-(C2-Pad2)*%
X62926000Y-61452000D03*
%TO.P,Q1,2,E*%
%TO.N,Net-(C4-Pad1)*%
X61026000Y-61452000D03*
%TO.P,Q1,3,C*%
%TO.N,Net-(C5-Pad2)*%
X61976000Y-59452000D03*
%TD*%
D17*
%TO.P,RV1,1,1*%
%TO.N,IN*%
X58674000Y-50800000D03*
D18*
%TO.P,RV1,2,2*%
%TO.N,Net-(C3-Pad2)*%
X63754000Y-50800000D03*
%TO.P,RV1,3,3*%
X68834000Y-50800000D03*
%TD*%
D12*
%TO.P,R1,1*%
%TO.N,IN*%
X58674000Y-53975000D03*
D13*
%TO.P,R1,2*%
%TO.N,GND*%
X66294000Y-53975000D03*
%TD*%
D12*
%TO.P,R6,1*%
%TO.N,Net-(C4-Pad1)*%
X57000000Y-69930000D03*
D13*
%TO.P,R6,2*%
%TO.N,GND*%
X49380000Y-69930000D03*
%TD*%
D11*
%TO.P,J1,1,IN*%
%TO.N,IN*%
X73910000Y-69720000D03*
D10*
%TO.P,J1,2,GND*%
%TO.N,GND*%
X76450000Y-69720000D03*
%TO.P,J1,3,SW*%
%TO.N,LED-*%
X78990000Y-69720000D03*
%TO.P,J1,4,OUT*%
%TO.N,OUT*%
X81530000Y-69720000D03*
%TD*%
D12*
%TO.P,R10,1*%
%TO.N,Net-(C8-Pad1)*%
X46630000Y-66830000D03*
D13*
%TO.P,R10,2*%
%TO.N,GND*%
X39010000Y-66830000D03*
%TD*%
D12*
%TO.P,R11,1*%
%TO.N,Net-(C9-Pad2)*%
X49370000Y-66870000D03*
D13*
%TO.P,R11,2*%
%TO.N,Net-(C10-Pad1)*%
X56990000Y-66870000D03*
%TD*%
D12*
%TO.P,C5,1*%
%TO.N,Net-(C2-Pad2)*%
X70200000Y-60150000D03*
%TO.P,C5,2*%
%TO.N,Net-(C5-Pad2)*%
X65200000Y-60150000D03*
%TD*%
%TO.P,R7,1*%
%TO.N,Net-(R7-Pad1)*%
X46630000Y-69900000D03*
D13*
%TO.P,R7,2*%
%TO.N,GND*%
X39010000Y-69900000D03*
%TD*%
D16*
%TO.P,C8,1*%
%TO.N,Net-(C8-Pad1)*%
X45350000Y-59275000D03*
D12*
%TO.P,C8,2*%
%TO.N,GND*%
X47850000Y-59275000D03*
%TD*%
%TO.P,R8,1*%
%TO.N,Net-(D1-Pad2)*%
X67250000Y-47000000D03*
D13*
%TO.P,R8,2*%
%TO.N,+9V*%
X74870000Y-47000000D03*
%TD*%
D12*
%TO.P,R9,1*%
%TO.N,Net-(R2-Pad2)*%
X52525000Y-54950000D03*
D13*
%TO.P,R9,2*%
%TO.N,Net-(C9-Pad1)*%
X44905000Y-54950000D03*
%TD*%
D17*
%TO.P,RV3,1,1*%
%TO.N,GND*%
X86995000Y-63627000D03*
D18*
%TO.P,RV3,2,2*%
%TO.N,OUT*%
X81915000Y-63627000D03*
%TO.P,RV3,3,3*%
%TO.N,Net-(C10-Pad1)*%
X76835000Y-63627000D03*
%TD*%
D12*
%TO.P,R3,1*%
%TO.N,Net-(R2-Pad2)*%
X58670000Y-57050000D03*
D13*
%TO.P,R3,2*%
%TO.N,Net-(C2-Pad2)*%
X66290000Y-57050000D03*
%TD*%
D12*
%TO.P,C2,1*%
%TO.N,IN*%
X65200000Y-63225000D03*
%TO.P,C2,2*%
%TO.N,Net-(C2-Pad2)*%
X70200000Y-63225000D03*
%TD*%
%TO.P,R4,1*%
%TO.N,Net-(C2-Pad2)*%
X71600000Y-50800000D03*
D13*
%TO.P,R4,2*%
%TO.N,GND*%
X79220000Y-50800000D03*
%TD*%
D16*
%TO.P,C3,1*%
%TO.N,Net-(C2-Pad2)*%
X70231000Y-56642000D03*
D12*
%TO.P,C3,2*%
%TO.N,Net-(C3-Pad2)*%
X70231000Y-54142000D03*
%TD*%
D20*
%TO.P,D1,1,K*%
%TO.N,LED-*%
X62500000Y-47000000D03*
D21*
%TO.P,D1,2,A*%
%TO.N,Net-(D1-Pad2)*%
X65040000Y-47000000D03*
%TD*%
D22*
%TO.N,Net-(C4-Pad1)*%
X59670000Y-65210000D02*
X59670000Y-62808000D01*
X59670000Y-62808000D02*
X61026000Y-61452000D01*
%TO.N,Net-(C5-Pad2)*%
X61976000Y-59452000D02*
X64502000Y-59452000D01*
X64502000Y-59452000D02*
X65200000Y-60150000D01*
%TO.N,Net-(C2-Pad2)*%
X62926000Y-61452000D02*
X65659942Y-61452000D01*
X65659942Y-61452000D02*
X67020000Y-60091942D01*
X67020000Y-60091942D02*
X67020000Y-57780000D01*
X67020000Y-57780000D02*
X66290000Y-57050000D01*
%TO.N,Net-(C5-Pad2)*%
X58750000Y-61000000D02*
X60298000Y-59452000D01*
X60298000Y-59452000D02*
X61976000Y-59452000D01*
X52520000Y-51850000D02*
X51334499Y-53035501D01*
X51334499Y-53035501D02*
X51334499Y-56836765D01*
X51334499Y-56836765D02*
X55497734Y-61000000D01*
X55497734Y-61000000D02*
X58750000Y-61000000D01*
%TO.N,Net-(C6-Pad2)*%
X40640000Y-63627000D02*
X43267000Y-61000000D01*
X43267000Y-61000000D02*
X53750000Y-61000000D01*
%TO.N,VCC*%
X55360000Y-52928058D02*
X52500000Y-50068058D01*
X52500000Y-50068058D02*
X52500000Y-48725000D01*
X55360000Y-58110000D02*
X55360000Y-52928058D01*
%TO.N,IN*%
X73910000Y-69720000D02*
X71868058Y-69720000D01*
X71868058Y-69720000D02*
X65373058Y-63225000D01*
X65373058Y-63225000D02*
X65200000Y-63225000D01*
%TD*%
%TA.AperFunction,Conductor*%
%TO.N,GND*%
G36*
X55710735Y-45428002D02*
G01*
X55757228Y-45481658D01*
X55767332Y-45551932D01*
X55746702Y-45605004D01*
X55657630Y-45735579D01*
X55652537Y-45744543D01*
X55554895Y-45954895D01*
X55551338Y-45964563D01*
X55489366Y-46188026D01*
X55487458Y-46198026D01*
X55490098Y-46212608D01*
X55502478Y-46216000D01*
X56685998Y-46216001D01*
X56686004Y-46216000D01*
X57068000Y-46216001D01*
X57136121Y-46236003D01*
X57182614Y-46289659D01*
X57194000Y-46342001D01*
X57193999Y-47904615D01*
X57198063Y-47918457D01*
X57211477Y-47920491D01*
X57242205Y-47916555D01*
X57252288Y-47914412D01*
X57474418Y-47847770D01*
X57483995Y-47844017D01*
X57692264Y-47741987D01*
X57701109Y-47736714D01*
X57869960Y-47616273D01*
X57937033Y-47592999D01*
X58006042Y-47609682D01*
X58049127Y-47650730D01*
X58062837Y-47672063D01*
X58121851Y-47763891D01*
X58121853Y-47763894D01*
X58126723Y-47771471D01*
X58133533Y-47777372D01*
X58230369Y-47861282D01*
X58230372Y-47861284D01*
X58237181Y-47867184D01*
X58245379Y-47870928D01*
X58353907Y-47920491D01*
X58370130Y-47927900D01*
X58379045Y-47929182D01*
X58379046Y-47929182D01*
X58510352Y-47948061D01*
X58510359Y-47948062D01*
X58514800Y-47948700D01*
X60445200Y-47948700D01*
X60518279Y-47943473D01*
X60609954Y-47916555D01*
X60649870Y-47904835D01*
X60649872Y-47904834D01*
X60658516Y-47902296D01*
X60742692Y-47848199D01*
X60773891Y-47828149D01*
X60773894Y-47828147D01*
X60781471Y-47823277D01*
X60865277Y-47726560D01*
X60925002Y-47688178D01*
X60995998Y-47688178D01*
X61055724Y-47726562D01*
X61085218Y-47791142D01*
X61086500Y-47809074D01*
X61086500Y-47900000D01*
X61091727Y-47973079D01*
X61112748Y-48044670D01*
X61122987Y-48079540D01*
X61132904Y-48113316D01*
X61137775Y-48120895D01*
X61207051Y-48228691D01*
X61207053Y-48228694D01*
X61211923Y-48236271D01*
X61218733Y-48242172D01*
X61315569Y-48326082D01*
X61315572Y-48326084D01*
X61322381Y-48331984D01*
X61330579Y-48335728D01*
X61442188Y-48386698D01*
X61455330Y-48392700D01*
X61464245Y-48393982D01*
X61464246Y-48393982D01*
X61595552Y-48412861D01*
X61595559Y-48412862D01*
X61600000Y-48413500D01*
X63400000Y-48413500D01*
X63473079Y-48408273D01*
X63553645Y-48384617D01*
X63604670Y-48369635D01*
X63604672Y-48369634D01*
X63613316Y-48367096D01*
X63690817Y-48317289D01*
X63728691Y-48292949D01*
X63728694Y-48292947D01*
X63736271Y-48288077D01*
X63742345Y-48281067D01*
X63826082Y-48184431D01*
X63826084Y-48184428D01*
X63831984Y-48177619D01*
X63880430Y-48071536D01*
X63926923Y-48017881D01*
X63995044Y-47997879D01*
X64063165Y-48017881D01*
X64079428Y-48030310D01*
X64185399Y-48125895D01*
X64189912Y-48128754D01*
X64189914Y-48128755D01*
X64207431Y-48139850D01*
X64387318Y-48253790D01*
X64477511Y-48291426D01*
X64574707Y-48331984D01*
X64607900Y-48345835D01*
X64732333Y-48374448D01*
X64835629Y-48398201D01*
X64835633Y-48398202D01*
X64840836Y-48399398D01*
X64846169Y-48399701D01*
X64846170Y-48399701D01*
X64960151Y-48406173D01*
X65079467Y-48412949D01*
X65084774Y-48412349D01*
X65084776Y-48412349D01*
X65209921Y-48398201D01*
X65316970Y-48386099D01*
X65322085Y-48384618D01*
X65322089Y-48384617D01*
X65541430Y-48321100D01*
X65541435Y-48321098D01*
X65546553Y-48319616D01*
X65761652Y-48215401D01*
X65886903Y-48125895D01*
X65951771Y-48079540D01*
X65951773Y-48079538D01*
X65956117Y-48076434D01*
X66124388Y-47906689D01*
X66125840Y-47908128D01*
X66177532Y-47873602D01*
X66248518Y-47872348D01*
X66304256Y-47904757D01*
X66405698Y-48006199D01*
X66410206Y-48009356D01*
X66410209Y-48009358D01*
X66588741Y-48134367D01*
X66593250Y-48137524D01*
X66598232Y-48139847D01*
X66598237Y-48139850D01*
X66765250Y-48217729D01*
X66800757Y-48234286D01*
X66806065Y-48235708D01*
X66806067Y-48235709D01*
X67016598Y-48292121D01*
X67016600Y-48292121D01*
X67021913Y-48293545D01*
X67250000Y-48313500D01*
X67478087Y-48293545D01*
X67483400Y-48292121D01*
X67483402Y-48292121D01*
X67693933Y-48235709D01*
X67693935Y-48235708D01*
X67699243Y-48234286D01*
X67734750Y-48217729D01*
X67901763Y-48139850D01*
X67901768Y-48139847D01*
X67906750Y-48137524D01*
X67911259Y-48134367D01*
X68089791Y-48009358D01*
X68089794Y-48009356D01*
X68094302Y-48006199D01*
X68256199Y-47844302D01*
X68267510Y-47828149D01*
X68384367Y-47661259D01*
X68384368Y-47661257D01*
X68387524Y-47656750D01*
X68389847Y-47651768D01*
X68389850Y-47651763D01*
X68481963Y-47454225D01*
X68481964Y-47454224D01*
X68484286Y-47449243D01*
X68513925Y-47338632D01*
X68542121Y-47233402D01*
X68542121Y-47233400D01*
X68543545Y-47228087D01*
X68563500Y-47000000D01*
X73556500Y-47000000D01*
X73576455Y-47228087D01*
X73577879Y-47233400D01*
X73577879Y-47233402D01*
X73606076Y-47338632D01*
X73635714Y-47449243D01*
X73638036Y-47454224D01*
X73638037Y-47454225D01*
X73730150Y-47651763D01*
X73730153Y-47651768D01*
X73732476Y-47656750D01*
X73735632Y-47661257D01*
X73735633Y-47661259D01*
X73852491Y-47828149D01*
X73863801Y-47844302D01*
X74025698Y-48006199D01*
X74030206Y-48009356D01*
X74030209Y-48009358D01*
X74208741Y-48134367D01*
X74213250Y-48137524D01*
X74218232Y-48139847D01*
X74218237Y-48139850D01*
X74385250Y-48217729D01*
X74420757Y-48234286D01*
X74426065Y-48235708D01*
X74426067Y-48235709D01*
X74636598Y-48292121D01*
X74636600Y-48292121D01*
X74641913Y-48293545D01*
X74870000Y-48313500D01*
X75098087Y-48293545D01*
X75103400Y-48292121D01*
X75103402Y-48292121D01*
X75313933Y-48235709D01*
X75313935Y-48235708D01*
X75319243Y-48234286D01*
X75354750Y-48217729D01*
X75521763Y-48139850D01*
X75521768Y-48139847D01*
X75526750Y-48137524D01*
X75531259Y-48134367D01*
X75709791Y-48009358D01*
X75709794Y-48009356D01*
X75714302Y-48006199D01*
X75876199Y-47844302D01*
X75887510Y-47828149D01*
X76004367Y-47661259D01*
X76004368Y-47661257D01*
X76007524Y-47656750D01*
X76009847Y-47651768D01*
X76009850Y-47651763D01*
X76101963Y-47454225D01*
X76101964Y-47454224D01*
X76104286Y-47449243D01*
X76133925Y-47338632D01*
X76162121Y-47233402D01*
X76162121Y-47233400D01*
X76163545Y-47228087D01*
X76183500Y-47000000D01*
X76163545Y-46771913D01*
X76154449Y-46737965D01*
X76105709Y-46556067D01*
X76105708Y-46556065D01*
X76104286Y-46550757D01*
X76078953Y-46496430D01*
X76009850Y-46348237D01*
X76009847Y-46348232D01*
X76007524Y-46343250D01*
X76004367Y-46338741D01*
X75879358Y-46160209D01*
X75879356Y-46160206D01*
X75876199Y-46155698D01*
X75714302Y-45993801D01*
X75709794Y-45990644D01*
X75709791Y-45990642D01*
X75531259Y-45865633D01*
X75531257Y-45865632D01*
X75526750Y-45862476D01*
X75521768Y-45860153D01*
X75521763Y-45860150D01*
X75324225Y-45768037D01*
X75324224Y-45768036D01*
X75319243Y-45765714D01*
X75313935Y-45764292D01*
X75313933Y-45764291D01*
X75103402Y-45707879D01*
X75103400Y-45707879D01*
X75098087Y-45706455D01*
X74870000Y-45686500D01*
X74641913Y-45706455D01*
X74636600Y-45707879D01*
X74636598Y-45707879D01*
X74426067Y-45764291D01*
X74426065Y-45764292D01*
X74420757Y-45765714D01*
X74415776Y-45768036D01*
X74415775Y-45768037D01*
X74218237Y-45860150D01*
X74218232Y-45860153D01*
X74213250Y-45862476D01*
X74208743Y-45865632D01*
X74208741Y-45865633D01*
X74030209Y-45990642D01*
X74030206Y-45990644D01*
X74025698Y-45993801D01*
X73863801Y-46155698D01*
X73860644Y-46160206D01*
X73860642Y-46160209D01*
X73735633Y-46338741D01*
X73732476Y-46343250D01*
X73730153Y-46348232D01*
X73730150Y-46348237D01*
X73661047Y-46496430D01*
X73635714Y-46550757D01*
X73634292Y-46556065D01*
X73634291Y-46556067D01*
X73585551Y-46737965D01*
X73576455Y-46771913D01*
X73556500Y-47000000D01*
X68563500Y-47000000D01*
X68543545Y-46771913D01*
X68534449Y-46737965D01*
X68485709Y-46556067D01*
X68485708Y-46556065D01*
X68484286Y-46550757D01*
X68458953Y-46496430D01*
X68389850Y-46348237D01*
X68389847Y-46348232D01*
X68387524Y-46343250D01*
X68384367Y-46338741D01*
X68259358Y-46160209D01*
X68259356Y-46160206D01*
X68256199Y-46155698D01*
X68094302Y-45993801D01*
X68089794Y-45990644D01*
X68089791Y-45990642D01*
X67911259Y-45865633D01*
X67911257Y-45865632D01*
X67906750Y-45862476D01*
X67901768Y-45860153D01*
X67901763Y-45860150D01*
X67704225Y-45768037D01*
X67704224Y-45768036D01*
X67699243Y-45765714D01*
X67693935Y-45764292D01*
X67693933Y-45764291D01*
X67483402Y-45707879D01*
X67483400Y-45707879D01*
X67478087Y-45706455D01*
X67250000Y-45686500D01*
X67021913Y-45706455D01*
X67016600Y-45707879D01*
X67016598Y-45707879D01*
X66806067Y-45764291D01*
X66806065Y-45764292D01*
X66800757Y-45765714D01*
X66795776Y-45768036D01*
X66795775Y-45768037D01*
X66598237Y-45860150D01*
X66598232Y-45860153D01*
X66593250Y-45862476D01*
X66588743Y-45865632D01*
X66588741Y-45865633D01*
X66410209Y-45990642D01*
X66410206Y-45990644D01*
X66405698Y-45993801D01*
X66302926Y-46096573D01*
X66240614Y-46130599D01*
X66169799Y-46125534D01*
X66122661Y-46094449D01*
X65980298Y-45945213D01*
X65980293Y-45945208D01*
X65976613Y-45941351D01*
X65914759Y-45895330D01*
X65789134Y-45801863D01*
X65784852Y-45798677D01*
X65780101Y-45796261D01*
X65780097Y-45796259D01*
X65576549Y-45692770D01*
X65576548Y-45692770D01*
X65571793Y-45690352D01*
X65455793Y-45654333D01*
X65396668Y-45615029D01*
X65368177Y-45550000D01*
X65379367Y-45479891D01*
X65426684Y-45426961D01*
X65493157Y-45408000D01*
X88366000Y-45408000D01*
X88434121Y-45428002D01*
X88480614Y-45481658D01*
X88492000Y-45534000D01*
X88492000Y-61731225D01*
X88471998Y-61799346D01*
X88418342Y-61845839D01*
X88348069Y-61855943D01*
X88269448Y-61844639D01*
X88260505Y-61844000D01*
X87267115Y-61844000D01*
X87251876Y-61848475D01*
X87250671Y-61849865D01*
X87249000Y-61857548D01*
X87248999Y-63372998D01*
X87249000Y-63373004D01*
X87248999Y-65391885D01*
X87253474Y-65407124D01*
X87254864Y-65408329D01*
X87262547Y-65410000D01*
X88262743Y-65410000D01*
X88267250Y-65409839D01*
X88331274Y-65405260D01*
X88343625Y-65403031D01*
X88414215Y-65410618D01*
X88469497Y-65455165D01*
X88492000Y-65527028D01*
X88492000Y-68603212D01*
X88471998Y-68671333D01*
X88418342Y-68717826D01*
X88348068Y-68727930D01*
X88283488Y-68698436D01*
X88272807Y-68688012D01*
X88231608Y-68642735D01*
X88224075Y-68635710D01*
X88042081Y-68491981D01*
X88033494Y-68486276D01*
X87830482Y-68374207D01*
X87821070Y-68369977D01*
X87602469Y-68292566D01*
X87592512Y-68289936D01*
X87491836Y-68272002D01*
X87478541Y-68273461D01*
X87474000Y-68288019D01*
X87474000Y-69848000D01*
X87453998Y-69916121D01*
X87400342Y-69962614D01*
X87348000Y-69974000D01*
X87092000Y-69974000D01*
X87023879Y-69953998D01*
X86977386Y-69900342D01*
X86966000Y-69848000D01*
X86966000Y-68286605D01*
X86962082Y-68273261D01*
X86947806Y-68271274D01*
X86882542Y-68281261D01*
X86872515Y-68283650D01*
X86652092Y-68355695D01*
X86642582Y-68359692D01*
X86436891Y-68466768D01*
X86428166Y-68472262D01*
X86293476Y-68573391D01*
X86226991Y-68598297D01*
X86157596Y-68583305D01*
X86111826Y-68540753D01*
X86033277Y-68418529D01*
X85982127Y-68374207D01*
X85929631Y-68328718D01*
X85929628Y-68328716D01*
X85922819Y-68322816D01*
X85849758Y-68289450D01*
X85798064Y-68265842D01*
X85798063Y-68265842D01*
X85789870Y-68262100D01*
X85780955Y-68260818D01*
X85780954Y-68260818D01*
X85649648Y-68241939D01*
X85649641Y-68241938D01*
X85645200Y-68241300D01*
X83714800Y-68241300D01*
X83641721Y-68246527D01*
X83588684Y-68262100D01*
X83510130Y-68285165D01*
X83510128Y-68285166D01*
X83501484Y-68287704D01*
X83493905Y-68292575D01*
X83386109Y-68361851D01*
X83386106Y-68361853D01*
X83378529Y-68366723D01*
X83372628Y-68373533D01*
X83288718Y-68470369D01*
X83288716Y-68470372D01*
X83282816Y-68477181D01*
X83279072Y-68485379D01*
X83278852Y-68485862D01*
X83222100Y-68610130D01*
X83220818Y-68619045D01*
X83220818Y-68619046D01*
X83201939Y-68750352D01*
X83201938Y-68750359D01*
X83201300Y-68754800D01*
X83201300Y-69305475D01*
X83181298Y-69373596D01*
X83127642Y-69420089D01*
X83057368Y-69430193D01*
X82992788Y-69400699D01*
X82953096Y-69336171D01*
X82931069Y-69248478D01*
X82931069Y-69248477D01*
X82929810Y-69243466D01*
X82859516Y-69081801D01*
X82835243Y-69025976D01*
X82835241Y-69025973D01*
X82833183Y-69021239D01*
X82701559Y-68817778D01*
X82696959Y-68812722D01*
X82541949Y-68642369D01*
X82541947Y-68642368D01*
X82538471Y-68638547D01*
X82534420Y-68635348D01*
X82534416Y-68635344D01*
X82352355Y-68491561D01*
X82352351Y-68491559D01*
X82348300Y-68488359D01*
X82136153Y-68371248D01*
X82131284Y-68369524D01*
X82131280Y-68369522D01*
X81912603Y-68292084D01*
X81912599Y-68292083D01*
X81907728Y-68290358D01*
X81902638Y-68289451D01*
X81902633Y-68289450D01*
X81770093Y-68265842D01*
X81669158Y-68247863D01*
X81578181Y-68246751D01*
X81432021Y-68244965D01*
X81432019Y-68244965D01*
X81426851Y-68244902D01*
X81187314Y-68281556D01*
X80956981Y-68356841D01*
X80952393Y-68359229D01*
X80952389Y-68359231D01*
X80838479Y-68418529D01*
X80742036Y-68468734D01*
X80737903Y-68471837D01*
X80737900Y-68471839D01*
X80556712Y-68607879D01*
X80548252Y-68614231D01*
X80525015Y-68638547D01*
X80449255Y-68717826D01*
X80380834Y-68789424D01*
X80365237Y-68812289D01*
X80310325Y-68857291D01*
X80239800Y-68865462D01*
X80176053Y-68834207D01*
X80162969Y-68819958D01*
X80161559Y-68817778D01*
X80111238Y-68762476D01*
X80001949Y-68642369D01*
X80001947Y-68642368D01*
X79998471Y-68638547D01*
X79994420Y-68635348D01*
X79994416Y-68635344D01*
X79812355Y-68491561D01*
X79812351Y-68491559D01*
X79808300Y-68488359D01*
X79596153Y-68371248D01*
X79591284Y-68369524D01*
X79591280Y-68369522D01*
X79372603Y-68292084D01*
X79372599Y-68292083D01*
X79367728Y-68290358D01*
X79362638Y-68289451D01*
X79362633Y-68289450D01*
X79230093Y-68265842D01*
X79129158Y-68247863D01*
X79038181Y-68246751D01*
X78892021Y-68244965D01*
X78892019Y-68244965D01*
X78886851Y-68244902D01*
X78647314Y-68281556D01*
X78416981Y-68356841D01*
X78412393Y-68359229D01*
X78412389Y-68359231D01*
X78298479Y-68418529D01*
X78202036Y-68468734D01*
X78197903Y-68471837D01*
X78197900Y-68471839D01*
X78016712Y-68607879D01*
X78008252Y-68614231D01*
X77985015Y-68638547D01*
X77909255Y-68717826D01*
X77840834Y-68789424D01*
X77824940Y-68812723D01*
X77770032Y-68857725D01*
X77699507Y-68865898D01*
X77635759Y-68834644D01*
X77621027Y-68818600D01*
X77617686Y-68814262D01*
X77461608Y-68642735D01*
X77454075Y-68635710D01*
X77272081Y-68491981D01*
X77263494Y-68486276D01*
X77060482Y-68374207D01*
X77051070Y-68369977D01*
X76832469Y-68292566D01*
X76822512Y-68289936D01*
X76721836Y-68272002D01*
X76708541Y-68273461D01*
X76704000Y-68288019D01*
X76704000Y-69848000D01*
X76683998Y-69916121D01*
X76630342Y-69962614D01*
X76578000Y-69974000D01*
X76322000Y-69974000D01*
X76253879Y-69953998D01*
X76207386Y-69900342D01*
X76196000Y-69848000D01*
X76196000Y-68286605D01*
X76192082Y-68273261D01*
X76177806Y-68271274D01*
X76112542Y-68281261D01*
X76102515Y-68283650D01*
X75882092Y-68355695D01*
X75872582Y-68359692D01*
X75666891Y-68466768D01*
X75658166Y-68472262D01*
X75523476Y-68573391D01*
X75456991Y-68598297D01*
X75387596Y-68583305D01*
X75341826Y-68540753D01*
X75263277Y-68418529D01*
X75212127Y-68374207D01*
X75159631Y-68328718D01*
X75159628Y-68328716D01*
X75152819Y-68322816D01*
X75079758Y-68289450D01*
X75028064Y-68265842D01*
X75028063Y-68265842D01*
X75019870Y-68262100D01*
X75010955Y-68260818D01*
X75010954Y-68260818D01*
X74879648Y-68241939D01*
X74879641Y-68241938D01*
X74875200Y-68241300D01*
X72944800Y-68241300D01*
X72871721Y-68246527D01*
X72818684Y-68262100D01*
X72740130Y-68285165D01*
X72740128Y-68285166D01*
X72731484Y-68287704D01*
X72723905Y-68292575D01*
X72616109Y-68361851D01*
X72616106Y-68361853D01*
X72608529Y-68366723D01*
X72602628Y-68373533D01*
X72518718Y-68470369D01*
X72518716Y-68470372D01*
X72512816Y-68477181D01*
X72509072Y-68485379D01*
X72508852Y-68485862D01*
X72452100Y-68610130D01*
X72450818Y-68619045D01*
X72450818Y-68619046D01*
X72431939Y-68750352D01*
X72431938Y-68750359D01*
X72431300Y-68754800D01*
X72431300Y-68895000D01*
X72411298Y-68963121D01*
X72357642Y-69009614D01*
X72305300Y-69021000D01*
X72209783Y-69021000D01*
X72141662Y-69000998D01*
X72120688Y-68984095D01*
X70784420Y-67647827D01*
X70750394Y-67585515D01*
X70755459Y-67514700D01*
X70798006Y-67457864D01*
X70820266Y-67444537D01*
X70851759Y-67429852D01*
X70851765Y-67429849D01*
X70856750Y-67427524D01*
X71018971Y-67313936D01*
X71039791Y-67299358D01*
X71039794Y-67299356D01*
X71044302Y-67296199D01*
X71206199Y-67134302D01*
X71227836Y-67103402D01*
X71334367Y-66951259D01*
X71334368Y-66951257D01*
X71337524Y-66946750D01*
X71339847Y-66941768D01*
X71339850Y-66941763D01*
X71431963Y-66744225D01*
X71431964Y-66744224D01*
X71434286Y-66739243D01*
X71455844Y-66658790D01*
X71492121Y-66523402D01*
X71492121Y-66523400D01*
X71493545Y-66518087D01*
X71513500Y-66290000D01*
X71493545Y-66061913D01*
X71479030Y-66007743D01*
X71435709Y-65846067D01*
X71435708Y-65846065D01*
X71434286Y-65840757D01*
X71428375Y-65828081D01*
X71339850Y-65638237D01*
X71339847Y-65638232D01*
X71337524Y-65633250D01*
X71298753Y-65577879D01*
X71209358Y-65450209D01*
X71209356Y-65450206D01*
X71206199Y-65445698D01*
X71044302Y-65283801D01*
X71039794Y-65280644D01*
X71039791Y-65280642D01*
X70861259Y-65155633D01*
X70861257Y-65155632D01*
X70856750Y-65152476D01*
X70851768Y-65150153D01*
X70851763Y-65150150D01*
X70654225Y-65058037D01*
X70654224Y-65058036D01*
X70649243Y-65055714D01*
X70643935Y-65054292D01*
X70643933Y-65054291D01*
X70433402Y-64997879D01*
X70433400Y-64997879D01*
X70428087Y-64996455D01*
X70200000Y-64976500D01*
X69971913Y-64996455D01*
X69966600Y-64997879D01*
X69966598Y-64997879D01*
X69756067Y-65054291D01*
X69756065Y-65054292D01*
X69750757Y-65055714D01*
X69745776Y-65058036D01*
X69745775Y-65058037D01*
X69548237Y-65150150D01*
X69548232Y-65150153D01*
X69543250Y-65152476D01*
X69538743Y-65155632D01*
X69538741Y-65155633D01*
X69360209Y-65280642D01*
X69360206Y-65280644D01*
X69355698Y-65283801D01*
X69193801Y-65445698D01*
X69190644Y-65450206D01*
X69190642Y-65450209D01*
X69101247Y-65577879D01*
X69062476Y-65633250D01*
X69045462Y-65669736D01*
X68998547Y-65723020D01*
X68930270Y-65742482D01*
X68862310Y-65721941D01*
X68842173Y-65705581D01*
X66542826Y-63406234D01*
X66508800Y-63343922D01*
X66506400Y-63306158D01*
X66513021Y-63230476D01*
X66513021Y-63230475D01*
X66513500Y-63225000D01*
X68886500Y-63225000D01*
X68906455Y-63453087D01*
X68965714Y-63674243D01*
X68968036Y-63679224D01*
X68968037Y-63679225D01*
X69060150Y-63876763D01*
X69060153Y-63876768D01*
X69062476Y-63881750D01*
X69065632Y-63886257D01*
X69065633Y-63886259D01*
X69157215Y-64017051D01*
X69193801Y-64069302D01*
X69355698Y-64231199D01*
X69360206Y-64234356D01*
X69360209Y-64234358D01*
X69538741Y-64359367D01*
X69543250Y-64362524D01*
X69548232Y-64364847D01*
X69548237Y-64364850D01*
X69654704Y-64414496D01*
X69750757Y-64459286D01*
X69756065Y-64460708D01*
X69756067Y-64460709D01*
X69966598Y-64517121D01*
X69966600Y-64517121D01*
X69971913Y-64518545D01*
X70200000Y-64538500D01*
X70428087Y-64518545D01*
X70433400Y-64517121D01*
X70433402Y-64517121D01*
X70643933Y-64460709D01*
X70643935Y-64460708D01*
X70649243Y-64459286D01*
X70745296Y-64414496D01*
X70851763Y-64364850D01*
X70851768Y-64364847D01*
X70856750Y-64362524D01*
X70861259Y-64359367D01*
X71039791Y-64234358D01*
X71039794Y-64234356D01*
X71044302Y-64231199D01*
X71206199Y-64069302D01*
X71242786Y-64017051D01*
X71334367Y-63886259D01*
X71334368Y-63886257D01*
X71337524Y-63881750D01*
X71339847Y-63876768D01*
X71339850Y-63876763D01*
X71431963Y-63679225D01*
X71431964Y-63679224D01*
X71434286Y-63674243D01*
X71459454Y-63580313D01*
X75052111Y-63580313D01*
X75052335Y-63584979D01*
X75052335Y-63584984D01*
X75054505Y-63630160D01*
X75064794Y-63844354D01*
X75116365Y-64103620D01*
X75205692Y-64352415D01*
X75211124Y-64362524D01*
X75305679Y-64538500D01*
X75330811Y-64585274D01*
X75333606Y-64589017D01*
X75333608Y-64589020D01*
X75486183Y-64793343D01*
X75486188Y-64793349D01*
X75488975Y-64797081D01*
X75492284Y-64800361D01*
X75492289Y-64800367D01*
X75670954Y-64977479D01*
X75676709Y-64983184D01*
X75680471Y-64985942D01*
X75680474Y-64985945D01*
X75886115Y-65136727D01*
X75889889Y-65139494D01*
X75894032Y-65141674D01*
X75894034Y-65141675D01*
X76119681Y-65260394D01*
X76119686Y-65260396D01*
X76123831Y-65262577D01*
X76128254Y-65264122D01*
X76128255Y-65264122D01*
X76346184Y-65340226D01*
X76373396Y-65349729D01*
X76377989Y-65350601D01*
X76628513Y-65398164D01*
X76628516Y-65398164D01*
X76633102Y-65399035D01*
X76762895Y-65404135D01*
X76892575Y-65409231D01*
X76892581Y-65409231D01*
X76897243Y-65409414D01*
X77015596Y-65396452D01*
X77155364Y-65381145D01*
X77155369Y-65381144D01*
X77160017Y-65380635D01*
X77164944Y-65379338D01*
X77411131Y-65314522D01*
X77415651Y-65313332D01*
X77589021Y-65238847D01*
X77654226Y-65210833D01*
X77654232Y-65210830D01*
X77658529Y-65208984D01*
X77662509Y-65206521D01*
X77662513Y-65206519D01*
X77879342Y-65072341D01*
X77879346Y-65072338D01*
X77883315Y-65069882D01*
X78085072Y-64899082D01*
X78259366Y-64700337D01*
X78402370Y-64478013D01*
X78510942Y-64236993D01*
X78542367Y-64125569D01*
X78581426Y-63987077D01*
X78581427Y-63987074D01*
X78582696Y-63982573D01*
X78600280Y-63844354D01*
X78615658Y-63723472D01*
X78615658Y-63723466D01*
X78616056Y-63720341D01*
X78618500Y-63627000D01*
X78615031Y-63580313D01*
X80132111Y-63580313D01*
X80132335Y-63584979D01*
X80132335Y-63584984D01*
X80134505Y-63630160D01*
X80144794Y-63844354D01*
X80196365Y-64103620D01*
X80285692Y-64352415D01*
X80291124Y-64362524D01*
X80385679Y-64538500D01*
X80410811Y-64585274D01*
X80413606Y-64589017D01*
X80413608Y-64589020D01*
X80566183Y-64793343D01*
X80566188Y-64793349D01*
X80568975Y-64797081D01*
X80572284Y-64800361D01*
X80572289Y-64800367D01*
X80750954Y-64977479D01*
X80756709Y-64983184D01*
X80760471Y-64985942D01*
X80760474Y-64985945D01*
X80966115Y-65136727D01*
X80969889Y-65139494D01*
X80974032Y-65141674D01*
X80974034Y-65141675D01*
X81199681Y-65260394D01*
X81199686Y-65260396D01*
X81203831Y-65262577D01*
X81208254Y-65264122D01*
X81208255Y-65264122D01*
X81426184Y-65340226D01*
X81453396Y-65349729D01*
X81457989Y-65350601D01*
X81708513Y-65398164D01*
X81708516Y-65398164D01*
X81713102Y-65399035D01*
X81842895Y-65404135D01*
X81972575Y-65409231D01*
X81972581Y-65409231D01*
X81977243Y-65409414D01*
X82095596Y-65396452D01*
X82235364Y-65381145D01*
X82235369Y-65381144D01*
X82240017Y-65380635D01*
X82244944Y-65379338D01*
X82491131Y-65314522D01*
X82495651Y-65313332D01*
X82669021Y-65238847D01*
X82734226Y-65210833D01*
X82734232Y-65210830D01*
X82738529Y-65208984D01*
X82742509Y-65206521D01*
X82742513Y-65206519D01*
X82959342Y-65072341D01*
X82959346Y-65072338D01*
X82963315Y-65069882D01*
X83165072Y-64899082D01*
X83339366Y-64700337D01*
X83482370Y-64478013D01*
X83590942Y-64236993D01*
X83622367Y-64125569D01*
X83661426Y-63987077D01*
X83661427Y-63987074D01*
X83662696Y-63982573D01*
X83673894Y-63894547D01*
X85212000Y-63894547D01*
X85212000Y-64894743D01*
X85212161Y-64899250D01*
X85216740Y-64963269D01*
X85219126Y-64976491D01*
X85255819Y-65101458D01*
X85263233Y-65117692D01*
X85332426Y-65225360D01*
X85344112Y-65238847D01*
X85440840Y-65322662D01*
X85455848Y-65332307D01*
X85572275Y-65385477D01*
X85589388Y-65390502D01*
X85720554Y-65409361D01*
X85729495Y-65410000D01*
X86722885Y-65410000D01*
X86738124Y-65405525D01*
X86739329Y-65404135D01*
X86741000Y-65396452D01*
X86741001Y-63899115D01*
X86736526Y-63883876D01*
X86735136Y-63882671D01*
X86727453Y-63881000D01*
X85230115Y-63880999D01*
X85214876Y-63885474D01*
X85213671Y-63886864D01*
X85212000Y-63894547D01*
X83673894Y-63894547D01*
X83680280Y-63844354D01*
X83695658Y-63723472D01*
X83695658Y-63723466D01*
X83696056Y-63720341D01*
X83698500Y-63627000D01*
X83685169Y-63447607D01*
X83679256Y-63368034D01*
X83679255Y-63368030D01*
X83678910Y-63363382D01*
X83620570Y-63105555D01*
X83595604Y-63041355D01*
X83526454Y-62863536D01*
X83526453Y-62863534D01*
X83524761Y-62859183D01*
X83393589Y-62629679D01*
X83246666Y-62443309D01*
X83232826Y-62425753D01*
X83232823Y-62425750D01*
X83229934Y-62422085D01*
X83165526Y-62361495D01*
X85212000Y-62361495D01*
X85212000Y-63354885D01*
X85216475Y-63370124D01*
X85217865Y-63371329D01*
X85225548Y-63373000D01*
X86722885Y-63373001D01*
X86738124Y-63368526D01*
X86739329Y-63367136D01*
X86741000Y-63359453D01*
X86741001Y-61862115D01*
X86736526Y-61846876D01*
X86735136Y-61845671D01*
X86727453Y-61844000D01*
X85727257Y-61844000D01*
X85722750Y-61844161D01*
X85658731Y-61848740D01*
X85645509Y-61851126D01*
X85520542Y-61887819D01*
X85504308Y-61895233D01*
X85396640Y-61964426D01*
X85383153Y-61976112D01*
X85299338Y-62072840D01*
X85289693Y-62087848D01*
X85236523Y-62204275D01*
X85231498Y-62221388D01*
X85212639Y-62352554D01*
X85212000Y-62361495D01*
X83165526Y-62361495D01*
X83037393Y-62240960D01*
X82856555Y-62115508D01*
X82824037Y-62092949D01*
X82824034Y-62092947D01*
X82820195Y-62090284D01*
X82816005Y-62088218D01*
X82816002Y-62088216D01*
X82587299Y-61975433D01*
X82587296Y-61975432D01*
X82583111Y-61973368D01*
X82555177Y-61964426D01*
X82389837Y-61911500D01*
X82331350Y-61892778D01*
X82075594Y-61851126D01*
X82075054Y-61851038D01*
X82075053Y-61851038D01*
X82070442Y-61850287D01*
X81938281Y-61848557D01*
X81810797Y-61846888D01*
X81810794Y-61846888D01*
X81806120Y-61846827D01*
X81544189Y-61882474D01*
X81539703Y-61883782D01*
X81539701Y-61883782D01*
X81477198Y-61902000D01*
X81290405Y-61956445D01*
X81050342Y-62067116D01*
X81046437Y-62069676D01*
X81046432Y-62069679D01*
X80833187Y-62209488D01*
X80833182Y-62209492D01*
X80829274Y-62212054D01*
X80749487Y-62283267D01*
X80644691Y-62376801D01*
X80632057Y-62388077D01*
X80463025Y-62591316D01*
X80325890Y-62817308D01*
X80324081Y-62821622D01*
X80324080Y-62821624D01*
X80288450Y-62906593D01*
X80223665Y-63061087D01*
X80158595Y-63317298D01*
X80158127Y-63321949D01*
X80158126Y-63321953D01*
X80153486Y-63368034D01*
X80132111Y-63580313D01*
X78615031Y-63580313D01*
X78605169Y-63447607D01*
X78599256Y-63368034D01*
X78599255Y-63368030D01*
X78598910Y-63363382D01*
X78540570Y-63105555D01*
X78515604Y-63041355D01*
X78446454Y-62863536D01*
X78446453Y-62863534D01*
X78444761Y-62859183D01*
X78313589Y-62629679D01*
X78166666Y-62443309D01*
X78152826Y-62425753D01*
X78152823Y-62425750D01*
X78149934Y-62422085D01*
X77957393Y-62240960D01*
X77776555Y-62115508D01*
X77744037Y-62092949D01*
X77744034Y-62092947D01*
X77740195Y-62090284D01*
X77736005Y-62088218D01*
X77736002Y-62088216D01*
X77507299Y-61975433D01*
X77507296Y-61975432D01*
X77503111Y-61973368D01*
X77475177Y-61964426D01*
X77309837Y-61911500D01*
X77251350Y-61892778D01*
X76995594Y-61851126D01*
X76995054Y-61851038D01*
X76995053Y-61851038D01*
X76990442Y-61850287D01*
X76858281Y-61848557D01*
X76730797Y-61846888D01*
X76730794Y-61846888D01*
X76726120Y-61846827D01*
X76464189Y-61882474D01*
X76459703Y-61883782D01*
X76459701Y-61883782D01*
X76397198Y-61902000D01*
X76210405Y-61956445D01*
X75970342Y-62067116D01*
X75966437Y-62069676D01*
X75966432Y-62069679D01*
X75753187Y-62209488D01*
X75753182Y-62209492D01*
X75749274Y-62212054D01*
X75669487Y-62283267D01*
X75564691Y-62376801D01*
X75552057Y-62388077D01*
X75383025Y-62591316D01*
X75245890Y-62817308D01*
X75244081Y-62821622D01*
X75244080Y-62821624D01*
X75208450Y-62906593D01*
X75143665Y-63061087D01*
X75078595Y-63317298D01*
X75078127Y-63321949D01*
X75078126Y-63321953D01*
X75073486Y-63368034D01*
X75052111Y-63580313D01*
X71459454Y-63580313D01*
X71493545Y-63453087D01*
X71513500Y-63225000D01*
X71493545Y-62996913D01*
X71469344Y-62906593D01*
X71435709Y-62781067D01*
X71435708Y-62781065D01*
X71434286Y-62775757D01*
X71398323Y-62698634D01*
X71339850Y-62573237D01*
X71339847Y-62573232D01*
X71337524Y-62568250D01*
X71315696Y-62537076D01*
X71209358Y-62385209D01*
X71209356Y-62385206D01*
X71206199Y-62380698D01*
X71044302Y-62218801D01*
X71039794Y-62215644D01*
X71039791Y-62215642D01*
X70861259Y-62090633D01*
X70861257Y-62090632D01*
X70856750Y-62087476D01*
X70851768Y-62085153D01*
X70851763Y-62085150D01*
X70654225Y-61993037D01*
X70654224Y-61993036D01*
X70649243Y-61990714D01*
X70643935Y-61989292D01*
X70643933Y-61989291D01*
X70433402Y-61932879D01*
X70433400Y-61932879D01*
X70428087Y-61931455D01*
X70200000Y-61911500D01*
X69971913Y-61931455D01*
X69966600Y-61932879D01*
X69966598Y-61932879D01*
X69756067Y-61989291D01*
X69756065Y-61989292D01*
X69750757Y-61990714D01*
X69745776Y-61993036D01*
X69745775Y-61993037D01*
X69548237Y-62085150D01*
X69548232Y-62085153D01*
X69543250Y-62087476D01*
X69538743Y-62090632D01*
X69538741Y-62090633D01*
X69360209Y-62215642D01*
X69360206Y-62215644D01*
X69355698Y-62218801D01*
X69193801Y-62380698D01*
X69190644Y-62385206D01*
X69190642Y-62385209D01*
X69084304Y-62537076D01*
X69062476Y-62568250D01*
X69060153Y-62573232D01*
X69060150Y-62573237D01*
X69001677Y-62698634D01*
X68965714Y-62775757D01*
X68964292Y-62781065D01*
X68964291Y-62781067D01*
X68930656Y-62906593D01*
X68906455Y-62996913D01*
X68886500Y-63225000D01*
X66513500Y-63225000D01*
X66493545Y-62996913D01*
X66469344Y-62906593D01*
X66435709Y-62781067D01*
X66435708Y-62781065D01*
X66434286Y-62775757D01*
X66398323Y-62698634D01*
X66339850Y-62573237D01*
X66339847Y-62573232D01*
X66337524Y-62568250D01*
X66315696Y-62537076D01*
X66209358Y-62385209D01*
X66209356Y-62385206D01*
X66206199Y-62380698D01*
X66044302Y-62218801D01*
X66046001Y-62217102D01*
X66012318Y-62166498D01*
X66011177Y-62095510D01*
X66048596Y-62035175D01*
X66055920Y-62029102D01*
X66068267Y-62019627D01*
X66073609Y-62015746D01*
X66119244Y-61984383D01*
X66119250Y-61984377D01*
X66125506Y-61980078D01*
X66139786Y-61964051D01*
X66164834Y-61935937D01*
X66169816Y-61930661D01*
X67495435Y-60605043D01*
X67501701Y-60599189D01*
X67537447Y-60568006D01*
X67543174Y-60563010D01*
X67579386Y-60511486D01*
X67583312Y-60506200D01*
X67605744Y-60477591D01*
X67622176Y-60456634D01*
X67625302Y-60449711D01*
X67627145Y-60446668D01*
X67634373Y-60433996D01*
X67636065Y-60430840D01*
X67640438Y-60424618D01*
X67663322Y-60365924D01*
X67665870Y-60359861D01*
X67691784Y-60302468D01*
X67693169Y-60294992D01*
X67694249Y-60291547D01*
X67698236Y-60277554D01*
X67699123Y-60274097D01*
X67701883Y-60267020D01*
X67710106Y-60204561D01*
X67711138Y-60198047D01*
X67720042Y-60150000D01*
X68886500Y-60150000D01*
X68906455Y-60378087D01*
X68907879Y-60383400D01*
X68907879Y-60383402D01*
X68957883Y-60570016D01*
X68965714Y-60599243D01*
X68968036Y-60604224D01*
X68968037Y-60604225D01*
X69060150Y-60801763D01*
X69060153Y-60801768D01*
X69062476Y-60806750D01*
X69193801Y-60994302D01*
X69355698Y-61156199D01*
X69360206Y-61159356D01*
X69360209Y-61159358D01*
X69458365Y-61228087D01*
X69543250Y-61287524D01*
X69548232Y-61289847D01*
X69548237Y-61289850D01*
X69735057Y-61376965D01*
X69750757Y-61384286D01*
X69756065Y-61385708D01*
X69756067Y-61385709D01*
X69966598Y-61442121D01*
X69966600Y-61442121D01*
X69971913Y-61443545D01*
X70200000Y-61463500D01*
X70428087Y-61443545D01*
X70433400Y-61442121D01*
X70433402Y-61442121D01*
X70643933Y-61385709D01*
X70643935Y-61385708D01*
X70649243Y-61384286D01*
X70664943Y-61376965D01*
X70851763Y-61289850D01*
X70851768Y-61289847D01*
X70856750Y-61287524D01*
X70941635Y-61228087D01*
X71039791Y-61159358D01*
X71039794Y-61159356D01*
X71044302Y-61156199D01*
X71206199Y-60994302D01*
X71337524Y-60806750D01*
X71339847Y-60801768D01*
X71339850Y-60801763D01*
X71431963Y-60604225D01*
X71431964Y-60604224D01*
X71434286Y-60599243D01*
X71442118Y-60570016D01*
X71492121Y-60383402D01*
X71492121Y-60383400D01*
X71493545Y-60378087D01*
X71513500Y-60150000D01*
X71493545Y-59921913D01*
X71492121Y-59916598D01*
X71435709Y-59706067D01*
X71435708Y-59706065D01*
X71434286Y-59700757D01*
X71423253Y-59677096D01*
X71339850Y-59498237D01*
X71339847Y-59498232D01*
X71337524Y-59493250D01*
X71246227Y-59362864D01*
X71209358Y-59310209D01*
X71209356Y-59310206D01*
X71206199Y-59305698D01*
X71044302Y-59143801D01*
X71039794Y-59140644D01*
X71039791Y-59140642D01*
X70861259Y-59015633D01*
X70861257Y-59015632D01*
X70856750Y-59012476D01*
X70851768Y-59010153D01*
X70851763Y-59010150D01*
X70654225Y-58918037D01*
X70654224Y-58918036D01*
X70649243Y-58915714D01*
X70643935Y-58914292D01*
X70643933Y-58914291D01*
X70433402Y-58857879D01*
X70433400Y-58857879D01*
X70428087Y-58856455D01*
X70200000Y-58836500D01*
X69971913Y-58856455D01*
X69966600Y-58857879D01*
X69966598Y-58857879D01*
X69756067Y-58914291D01*
X69756065Y-58914292D01*
X69750757Y-58915714D01*
X69745776Y-58918036D01*
X69745775Y-58918037D01*
X69548237Y-59010150D01*
X69548232Y-59010153D01*
X69543250Y-59012476D01*
X69538743Y-59015632D01*
X69538741Y-59015633D01*
X69360209Y-59140642D01*
X69360206Y-59140644D01*
X69355698Y-59143801D01*
X69193801Y-59305698D01*
X69190644Y-59310206D01*
X69190642Y-59310209D01*
X69153773Y-59362864D01*
X69062476Y-59493250D01*
X69060153Y-59498232D01*
X69060150Y-59498237D01*
X68976747Y-59677096D01*
X68965714Y-59700757D01*
X68964292Y-59706065D01*
X68964291Y-59706067D01*
X68907879Y-59916598D01*
X68906455Y-59921913D01*
X68886500Y-60150000D01*
X67720042Y-60150000D01*
X67721226Y-60143615D01*
X67721226Y-60143614D01*
X67722610Y-60136147D01*
X67719209Y-60077162D01*
X67719000Y-60069910D01*
X67719000Y-57806629D01*
X67719292Y-57798059D01*
X67720641Y-57778271D01*
X67723035Y-57743155D01*
X67720117Y-57726431D01*
X67712208Y-57681116D01*
X67711245Y-57674592D01*
X67704592Y-57619615D01*
X67704592Y-57619614D01*
X67703679Y-57612072D01*
X67700993Y-57604965D01*
X67700139Y-57601487D01*
X67696300Y-57587451D01*
X67695258Y-57584000D01*
X67693953Y-57576521D01*
X67668637Y-57518849D01*
X67666145Y-57512743D01*
X67646572Y-57460944D01*
X67646570Y-57460940D01*
X67643887Y-57453840D01*
X67639584Y-57447579D01*
X67637906Y-57444370D01*
X67630832Y-57431661D01*
X67629018Y-57428593D01*
X67625963Y-57421634D01*
X67603841Y-57392804D01*
X67578241Y-57326584D01*
X67581613Y-57288893D01*
X67581166Y-57288814D01*
X67582087Y-57283595D01*
X67582095Y-57283500D01*
X67582119Y-57283410D01*
X67582120Y-57283406D01*
X67583545Y-57278087D01*
X67603500Y-57050000D01*
X67583545Y-56821913D01*
X67574754Y-56789105D01*
X67525709Y-56606067D01*
X67525708Y-56606065D01*
X67524286Y-56600757D01*
X67499580Y-56547775D01*
X67429850Y-56398237D01*
X67429847Y-56398232D01*
X67427524Y-56393250D01*
X67424367Y-56388741D01*
X67299358Y-56210209D01*
X67299356Y-56210206D01*
X67296199Y-56205698D01*
X67134302Y-56043801D01*
X67129794Y-56040644D01*
X67129791Y-56040642D01*
X66951259Y-55915633D01*
X66951257Y-55915632D01*
X66946750Y-55912476D01*
X66941768Y-55910153D01*
X66941763Y-55910150D01*
X66744225Y-55818037D01*
X66744224Y-55818036D01*
X66739243Y-55815714D01*
X66733935Y-55814292D01*
X66733933Y-55814291D01*
X66523402Y-55757879D01*
X66523400Y-55757879D01*
X66518087Y-55756455D01*
X66290000Y-55736500D01*
X66061913Y-55756455D01*
X66056600Y-55757879D01*
X66056598Y-55757879D01*
X65846067Y-55814291D01*
X65846065Y-55814292D01*
X65840757Y-55815714D01*
X65835776Y-55818036D01*
X65835775Y-55818037D01*
X65638237Y-55910150D01*
X65638232Y-55910153D01*
X65633250Y-55912476D01*
X65628743Y-55915632D01*
X65628741Y-55915633D01*
X65450209Y-56040642D01*
X65450206Y-56040644D01*
X65445698Y-56043801D01*
X65283801Y-56205698D01*
X65280644Y-56210206D01*
X65280642Y-56210209D01*
X65155633Y-56388741D01*
X65152476Y-56393250D01*
X65150153Y-56398232D01*
X65150150Y-56398237D01*
X65080420Y-56547775D01*
X65055714Y-56600757D01*
X65054292Y-56606065D01*
X65054291Y-56606067D01*
X65005246Y-56789105D01*
X64996455Y-56821913D01*
X64976500Y-57050000D01*
X64996455Y-57278087D01*
X64997879Y-57283400D01*
X64997879Y-57283402D01*
X65053575Y-57491259D01*
X65055714Y-57499243D01*
X65058036Y-57504224D01*
X65058037Y-57504225D01*
X65150150Y-57701763D01*
X65150153Y-57701768D01*
X65152476Y-57706750D01*
X65155632Y-57711257D01*
X65155633Y-57711259D01*
X65272196Y-57877728D01*
X65283801Y-57894302D01*
X65445698Y-58056199D01*
X65450206Y-58059356D01*
X65450209Y-58059358D01*
X65628741Y-58184367D01*
X65633250Y-58187524D01*
X65638232Y-58189847D01*
X65638237Y-58189850D01*
X65810828Y-58270330D01*
X65840757Y-58284286D01*
X65846065Y-58285708D01*
X65846067Y-58285709D01*
X66056598Y-58342121D01*
X66056600Y-58342121D01*
X66061913Y-58343545D01*
X66067389Y-58344024D01*
X66067394Y-58344025D01*
X66143752Y-58350705D01*
X66205983Y-58356149D01*
X66272101Y-58382012D01*
X66313740Y-58439516D01*
X66321001Y-58481670D01*
X66321000Y-59116309D01*
X66300998Y-59184430D01*
X66247342Y-59230923D01*
X66177068Y-59241026D01*
X66112487Y-59211533D01*
X66105905Y-59205404D01*
X66044302Y-59143801D01*
X66039794Y-59140644D01*
X66039791Y-59140642D01*
X65861259Y-59015633D01*
X65861257Y-59015632D01*
X65856750Y-59012476D01*
X65851768Y-59010153D01*
X65851763Y-59010150D01*
X65654225Y-58918037D01*
X65654224Y-58918036D01*
X65649243Y-58915714D01*
X65643935Y-58914292D01*
X65643933Y-58914291D01*
X65433402Y-58857879D01*
X65433400Y-58857879D01*
X65428087Y-58856455D01*
X65200000Y-58836500D01*
X64971913Y-58856455D01*
X64957250Y-58860384D01*
X64886276Y-58858696D01*
X64866702Y-58849791D01*
X64866688Y-58849822D01*
X64860671Y-58847105D01*
X64860175Y-58846822D01*
X64859364Y-58846453D01*
X64856709Y-58844845D01*
X64844051Y-58837625D01*
X64840895Y-58835933D01*
X64834676Y-58831562D01*
X64775941Y-58808662D01*
X64769928Y-58806135D01*
X64712524Y-58780216D01*
X64705059Y-58778832D01*
X64701609Y-58777751D01*
X64687613Y-58773764D01*
X64684156Y-58772876D01*
X64677078Y-58770117D01*
X64669548Y-58769126D01*
X64669545Y-58769125D01*
X64635878Y-58764693D01*
X64614619Y-58761895D01*
X64608120Y-58760866D01*
X64546204Y-58749390D01*
X64538624Y-58749827D01*
X64538623Y-58749827D01*
X64487220Y-58752791D01*
X64479967Y-58753000D01*
X62888964Y-58753000D01*
X62820843Y-58732998D01*
X62782966Y-58695121D01*
X62768948Y-58673309D01*
X62764077Y-58665729D01*
X62757267Y-58659828D01*
X62660431Y-58575918D01*
X62660428Y-58575916D01*
X62653619Y-58570016D01*
X62520670Y-58509300D01*
X62511755Y-58508018D01*
X62511754Y-58508018D01*
X62380448Y-58489139D01*
X62380441Y-58489138D01*
X62376000Y-58488500D01*
X61576000Y-58488500D01*
X61502921Y-58493727D01*
X61449884Y-58509300D01*
X61371330Y-58532365D01*
X61371328Y-58532366D01*
X61362684Y-58534904D01*
X61355105Y-58539775D01*
X61247309Y-58609051D01*
X61247306Y-58609053D01*
X61239729Y-58613923D01*
X61233828Y-58620733D01*
X61156899Y-58709513D01*
X61097173Y-58747896D01*
X61061675Y-58753000D01*
X60324629Y-58753000D01*
X60316059Y-58752708D01*
X60314999Y-58752636D01*
X60261155Y-58748965D01*
X60253678Y-58750270D01*
X60253675Y-58750270D01*
X60199116Y-58759792D01*
X60192592Y-58760755D01*
X60137615Y-58767408D01*
X60137614Y-58767408D01*
X60130072Y-58768321D01*
X60122965Y-58771007D01*
X60119487Y-58771861D01*
X60105451Y-58775700D01*
X60102001Y-58776742D01*
X60094521Y-58778047D01*
X60036844Y-58803365D01*
X60030754Y-58805851D01*
X60026443Y-58807480D01*
X59978945Y-58825428D01*
X59978944Y-58825429D01*
X59971840Y-58828113D01*
X59965575Y-58832419D01*
X59962379Y-58834090D01*
X59949653Y-58841173D01*
X59946592Y-58842983D01*
X59939635Y-58846037D01*
X59933607Y-58850662D01*
X59933606Y-58850663D01*
X59889676Y-58884372D01*
X59884339Y-58888250D01*
X59840999Y-58918037D01*
X59832436Y-58923922D01*
X59827386Y-58929590D01*
X59827385Y-58929591D01*
X59793116Y-58968054D01*
X59788135Y-58973330D01*
X59415712Y-59345754D01*
X59089447Y-59672019D01*
X59027134Y-59706044D01*
X58980035Y-59706977D01*
X58978087Y-59706455D01*
X58972616Y-59705976D01*
X58972614Y-59705976D01*
X58755475Y-59686979D01*
X58750000Y-59686500D01*
X58521913Y-59706455D01*
X58516600Y-59707879D01*
X58516598Y-59707879D01*
X58306067Y-59764291D01*
X58306065Y-59764292D01*
X58300757Y-59765714D01*
X58295776Y-59768036D01*
X58295775Y-59768037D01*
X58098237Y-59860150D01*
X58098232Y-59860153D01*
X58093250Y-59862476D01*
X58088743Y-59865632D01*
X58088741Y-59865633D01*
X57910209Y-59990642D01*
X57910206Y-59990644D01*
X57905698Y-59993801D01*
X57743801Y-60155698D01*
X57699008Y-60219670D01*
X57679682Y-60247270D01*
X57624225Y-60291599D01*
X57576469Y-60301000D01*
X55839459Y-60301000D01*
X55771338Y-60280998D01*
X55750364Y-60264095D01*
X55424864Y-59938595D01*
X55390838Y-59876283D01*
X55395903Y-59805468D01*
X55438450Y-59748632D01*
X55504970Y-59723821D01*
X55513959Y-59723500D01*
X56460000Y-59723500D01*
X56533079Y-59718273D01*
X56611165Y-59695345D01*
X56664670Y-59679635D01*
X56664672Y-59679634D01*
X56673316Y-59677096D01*
X56720627Y-59646691D01*
X56788691Y-59602949D01*
X56788694Y-59602947D01*
X56796271Y-59598077D01*
X56817068Y-59574076D01*
X56886082Y-59494431D01*
X56886084Y-59494428D01*
X56891984Y-59487619D01*
X56952700Y-59354670D01*
X56953982Y-59345754D01*
X56972861Y-59214448D01*
X56972862Y-59214441D01*
X56973500Y-59210000D01*
X56973500Y-57050000D01*
X57356500Y-57050000D01*
X57376455Y-57278087D01*
X57377879Y-57283400D01*
X57377879Y-57283402D01*
X57433575Y-57491259D01*
X57435714Y-57499243D01*
X57438036Y-57504224D01*
X57438037Y-57504225D01*
X57530150Y-57701763D01*
X57530153Y-57701768D01*
X57532476Y-57706750D01*
X57535632Y-57711257D01*
X57535633Y-57711259D01*
X57652196Y-57877728D01*
X57663801Y-57894302D01*
X57825698Y-58056199D01*
X57830206Y-58059356D01*
X57830209Y-58059358D01*
X58008741Y-58184367D01*
X58013250Y-58187524D01*
X58018232Y-58189847D01*
X58018237Y-58189850D01*
X58190828Y-58270330D01*
X58220757Y-58284286D01*
X58226065Y-58285708D01*
X58226067Y-58285709D01*
X58436598Y-58342121D01*
X58436600Y-58342121D01*
X58441913Y-58343545D01*
X58670000Y-58363500D01*
X58898087Y-58343545D01*
X58903400Y-58342121D01*
X58903402Y-58342121D01*
X59113933Y-58285709D01*
X59113935Y-58285708D01*
X59119243Y-58284286D01*
X59149172Y-58270330D01*
X59321763Y-58189850D01*
X59321768Y-58189847D01*
X59326750Y-58187524D01*
X59331259Y-58184367D01*
X59509791Y-58059358D01*
X59509794Y-58059356D01*
X59514302Y-58056199D01*
X59676199Y-57894302D01*
X59687805Y-57877728D01*
X59804367Y-57711259D01*
X59804368Y-57711257D01*
X59807524Y-57706750D01*
X59809847Y-57701768D01*
X59809850Y-57701763D01*
X59901963Y-57504225D01*
X59901964Y-57504224D01*
X59904286Y-57499243D01*
X59906426Y-57491259D01*
X59962121Y-57283402D01*
X59962121Y-57283400D01*
X59963545Y-57278087D01*
X59983500Y-57050000D01*
X59963545Y-56821913D01*
X59954754Y-56789105D01*
X59905709Y-56606067D01*
X59905708Y-56606065D01*
X59904286Y-56600757D01*
X59879580Y-56547775D01*
X59809850Y-56398237D01*
X59809847Y-56398232D01*
X59807524Y-56393250D01*
X59804367Y-56388741D01*
X59679358Y-56210209D01*
X59679356Y-56210206D01*
X59676199Y-56205698D01*
X59514302Y-56043801D01*
X59509794Y-56040644D01*
X59509791Y-56040642D01*
X59331259Y-55915633D01*
X59331257Y-55915632D01*
X59326750Y-55912476D01*
X59321768Y-55910153D01*
X59321763Y-55910150D01*
X59124225Y-55818037D01*
X59124224Y-55818036D01*
X59119243Y-55815714D01*
X59113935Y-55814292D01*
X59113933Y-55814291D01*
X58903402Y-55757879D01*
X58903400Y-55757879D01*
X58898087Y-55756455D01*
X58670000Y-55736500D01*
X58441913Y-55756455D01*
X58436600Y-55757879D01*
X58436598Y-55757879D01*
X58226067Y-55814291D01*
X58226065Y-55814292D01*
X58220757Y-55815714D01*
X58215776Y-55818036D01*
X58215775Y-55818037D01*
X58018237Y-55910150D01*
X58018232Y-55910153D01*
X58013250Y-55912476D01*
X58008743Y-55915632D01*
X58008741Y-55915633D01*
X57830209Y-56040642D01*
X57830206Y-56040644D01*
X57825698Y-56043801D01*
X57663801Y-56205698D01*
X57660644Y-56210206D01*
X57660642Y-56210209D01*
X57535633Y-56388741D01*
X57532476Y-56393250D01*
X57530153Y-56398232D01*
X57530150Y-56398237D01*
X57460420Y-56547775D01*
X57435714Y-56600757D01*
X57434292Y-56606065D01*
X57434291Y-56606067D01*
X57385246Y-56789105D01*
X57376455Y-56821913D01*
X57356500Y-57050000D01*
X56973500Y-57050000D01*
X56973500Y-57010000D01*
X56968273Y-56936921D01*
X56937018Y-56830475D01*
X56929635Y-56805330D01*
X56929634Y-56805328D01*
X56927096Y-56796684D01*
X56881393Y-56725569D01*
X56852949Y-56681309D01*
X56852947Y-56681306D01*
X56848077Y-56673729D01*
X56841267Y-56667828D01*
X56744431Y-56583918D01*
X56744428Y-56583916D01*
X56737619Y-56578016D01*
X56604670Y-56517300D01*
X56595755Y-56516018D01*
X56595754Y-56516018D01*
X56464448Y-56497139D01*
X56464441Y-56497138D01*
X56460000Y-56496500D01*
X56185000Y-56496500D01*
X56116879Y-56476498D01*
X56070386Y-56422842D01*
X56059000Y-56370500D01*
X56059000Y-52954687D01*
X56059292Y-52946117D01*
X56060876Y-52922884D01*
X56063035Y-52891213D01*
X56058976Y-52867952D01*
X56052208Y-52829174D01*
X56051245Y-52822650D01*
X56044592Y-52767673D01*
X56044592Y-52767672D01*
X56043679Y-52760130D01*
X56040993Y-52753023D01*
X56040139Y-52749545D01*
X56036300Y-52735509D01*
X56035258Y-52732058D01*
X56033953Y-52724579D01*
X56020663Y-52694302D01*
X56008637Y-52666907D01*
X56006145Y-52660801D01*
X55986572Y-52609002D01*
X55986570Y-52608998D01*
X55983887Y-52601898D01*
X55979584Y-52595637D01*
X55977906Y-52592428D01*
X55970832Y-52579719D01*
X55969018Y-52576652D01*
X55965963Y-52569692D01*
X55927608Y-52519708D01*
X55923744Y-52514389D01*
X55918494Y-52506750D01*
X55888078Y-52462494D01*
X55875371Y-52451172D01*
X55843946Y-52423174D01*
X55838670Y-52418192D01*
X55684170Y-52263692D01*
X55650144Y-52201380D01*
X55655209Y-52130565D01*
X55697756Y-52073729D01*
X55743850Y-52052079D01*
X55858599Y-52024530D01*
X55863172Y-52022636D01*
X56087940Y-51929534D01*
X56087944Y-51929532D01*
X56092514Y-51927639D01*
X56308392Y-51795349D01*
X56312152Y-51792138D01*
X56312157Y-51792134D01*
X56497155Y-51634130D01*
X56500917Y-51630917D01*
X56587502Y-51529539D01*
X56662134Y-51442157D01*
X56662137Y-51442152D01*
X56665349Y-51438392D01*
X56665979Y-51438930D01*
X56718788Y-51398210D01*
X56789524Y-51392135D01*
X56852315Y-51425267D01*
X56887226Y-51487088D01*
X56890500Y-51515625D01*
X56890500Y-52070000D01*
X56895727Y-52143079D01*
X56897631Y-52149562D01*
X56931336Y-52264352D01*
X56936904Y-52283316D01*
X56955656Y-52312494D01*
X57011051Y-52398691D01*
X57011053Y-52398694D01*
X57015923Y-52406271D01*
X57022733Y-52412172D01*
X57119569Y-52496082D01*
X57119572Y-52496084D01*
X57126381Y-52501984D01*
X57134579Y-52505728D01*
X57236873Y-52552444D01*
X57259330Y-52562700D01*
X57268245Y-52563982D01*
X57268246Y-52563982D01*
X57399552Y-52582861D01*
X57399559Y-52582862D01*
X57404000Y-52583500D01*
X57993553Y-52583500D01*
X58061674Y-52603502D01*
X58108167Y-52657158D01*
X58118271Y-52727432D01*
X58088777Y-52792012D01*
X58046804Y-52823694D01*
X58022242Y-52835147D01*
X58022231Y-52835153D01*
X58017250Y-52837476D01*
X58012743Y-52840632D01*
X58012741Y-52840633D01*
X57834209Y-52965642D01*
X57834206Y-52965644D01*
X57829698Y-52968801D01*
X57667801Y-53130698D01*
X57664644Y-53135206D01*
X57664642Y-53135209D01*
X57547708Y-53302209D01*
X57536476Y-53318250D01*
X57534153Y-53323232D01*
X57534150Y-53323237D01*
X57456277Y-53490237D01*
X57439714Y-53525757D01*
X57438292Y-53531065D01*
X57438291Y-53531067D01*
X57390754Y-53708478D01*
X57380455Y-53746913D01*
X57360500Y-53975000D01*
X57380455Y-54203087D01*
X57381879Y-54208400D01*
X57381879Y-54208402D01*
X57405951Y-54298237D01*
X57439714Y-54424243D01*
X57442036Y-54429224D01*
X57442037Y-54429225D01*
X57534150Y-54626763D01*
X57534153Y-54626768D01*
X57536476Y-54631750D01*
X57539632Y-54636257D01*
X57539633Y-54636259D01*
X57656568Y-54803259D01*
X57667801Y-54819302D01*
X57829698Y-54981199D01*
X57834206Y-54984356D01*
X57834209Y-54984358D01*
X57842551Y-54990199D01*
X58017250Y-55112524D01*
X58022232Y-55114847D01*
X58022237Y-55114850D01*
X58176990Y-55187012D01*
X58224757Y-55209286D01*
X58230065Y-55210708D01*
X58230067Y-55210709D01*
X58440598Y-55267121D01*
X58440600Y-55267121D01*
X58445913Y-55268545D01*
X58674000Y-55288500D01*
X58902087Y-55268545D01*
X58907400Y-55267121D01*
X58907402Y-55267121D01*
X59117933Y-55210709D01*
X59117935Y-55210708D01*
X59123243Y-55209286D01*
X59171010Y-55187012D01*
X59325763Y-55114850D01*
X59325768Y-55114847D01*
X59330750Y-55112524D01*
X59505449Y-54990199D01*
X59513791Y-54984358D01*
X59513794Y-54984356D01*
X59518302Y-54981199D01*
X59680199Y-54819302D01*
X59691433Y-54803259D01*
X59808367Y-54636259D01*
X59808368Y-54636257D01*
X59811524Y-54631750D01*
X59813847Y-54626768D01*
X59813850Y-54626763D01*
X59905963Y-54429225D01*
X59905964Y-54429224D01*
X59908286Y-54424243D01*
X59942050Y-54298237D01*
X59957246Y-54241522D01*
X65011269Y-54241522D01*
X65058761Y-54418761D01*
X65062509Y-54429057D01*
X65154583Y-54626513D01*
X65160066Y-54636009D01*
X65285025Y-54814469D01*
X65292081Y-54822877D01*
X65446123Y-54976919D01*
X65454531Y-54983975D01*
X65632991Y-55108934D01*
X65642487Y-55114417D01*
X65839943Y-55206491D01*
X65850239Y-55210239D01*
X66022503Y-55256398D01*
X66036599Y-55256062D01*
X66040000Y-55248120D01*
X66040000Y-54247115D01*
X66038659Y-54242548D01*
X66548000Y-54242548D01*
X66548000Y-55242971D01*
X66551973Y-55256502D01*
X66560522Y-55257731D01*
X66737761Y-55210239D01*
X66748057Y-55206491D01*
X66945513Y-55114417D01*
X66955009Y-55108934D01*
X67133469Y-54983975D01*
X67141877Y-54976919D01*
X67295919Y-54822877D01*
X67302975Y-54814469D01*
X67427934Y-54636009D01*
X67433417Y-54626513D01*
X67525491Y-54429057D01*
X67529239Y-54418761D01*
X67575398Y-54246497D01*
X67575062Y-54232401D01*
X67567120Y-54229000D01*
X66566115Y-54229000D01*
X66550876Y-54233475D01*
X66549671Y-54234865D01*
X66548000Y-54242548D01*
X66038659Y-54242548D01*
X66035525Y-54231876D01*
X66034135Y-54230671D01*
X66026452Y-54229000D01*
X65026029Y-54229000D01*
X65012498Y-54232973D01*
X65011269Y-54241522D01*
X59957246Y-54241522D01*
X59966121Y-54208402D01*
X59966121Y-54208400D01*
X59967545Y-54203087D01*
X59972889Y-54142000D01*
X68917500Y-54142000D01*
X68937455Y-54370087D01*
X68996714Y-54591243D01*
X68999036Y-54596224D01*
X68999037Y-54596225D01*
X69091150Y-54793763D01*
X69091153Y-54793768D01*
X69093476Y-54798750D01*
X69096632Y-54803257D01*
X69096633Y-54803259D01*
X69221228Y-54981199D01*
X69224801Y-54986302D01*
X69373421Y-55134922D01*
X69407447Y-55197234D01*
X69402382Y-55268049D01*
X69359835Y-55324885D01*
X69319824Y-55344913D01*
X69226330Y-55372365D01*
X69226328Y-55372366D01*
X69217684Y-55374904D01*
X69210105Y-55379775D01*
X69102309Y-55449051D01*
X69102306Y-55449053D01*
X69094729Y-55453923D01*
X69088828Y-55460733D01*
X69004918Y-55557569D01*
X69004916Y-55557572D01*
X68999016Y-55564381D01*
X68995272Y-55572579D01*
X68985357Y-55594291D01*
X68938300Y-55697330D01*
X68937018Y-55706245D01*
X68937018Y-55706246D01*
X68918139Y-55837552D01*
X68918138Y-55837559D01*
X68917500Y-55842000D01*
X68917500Y-57442000D01*
X68922727Y-57515079D01*
X68924631Y-57521562D01*
X68951207Y-57612072D01*
X68963904Y-57655316D01*
X68973207Y-57669791D01*
X69038051Y-57770691D01*
X69038053Y-57770694D01*
X69042923Y-57778271D01*
X69049733Y-57784172D01*
X69146569Y-57868082D01*
X69146572Y-57868084D01*
X69153381Y-57873984D01*
X69286330Y-57934700D01*
X69295245Y-57935982D01*
X69295246Y-57935982D01*
X69426552Y-57954861D01*
X69426559Y-57954862D01*
X69431000Y-57955500D01*
X71031000Y-57955500D01*
X71104079Y-57950273D01*
X71182165Y-57927345D01*
X71235670Y-57911635D01*
X71235672Y-57911634D01*
X71244316Y-57909096D01*
X71352830Y-57839358D01*
X71359691Y-57834949D01*
X71359694Y-57834947D01*
X71367271Y-57830077D01*
X71407048Y-57784172D01*
X71457082Y-57726431D01*
X71457084Y-57726428D01*
X71462984Y-57719619D01*
X71496299Y-57646670D01*
X71519958Y-57594864D01*
X71519958Y-57594863D01*
X71523700Y-57586670D01*
X71536497Y-57497665D01*
X71543861Y-57446448D01*
X71543862Y-57446441D01*
X71544500Y-57442000D01*
X71544500Y-55842000D01*
X71539273Y-55768921D01*
X71498096Y-55628684D01*
X71438516Y-55535976D01*
X71423949Y-55513309D01*
X71423947Y-55513306D01*
X71419077Y-55505729D01*
X71412267Y-55499828D01*
X71315431Y-55415918D01*
X71315428Y-55415916D01*
X71308619Y-55410016D01*
X71175670Y-55349300D01*
X71161252Y-55347227D01*
X71096670Y-55317734D01*
X71058286Y-55258008D01*
X71058286Y-55187012D01*
X71090087Y-55133414D01*
X71237199Y-54986302D01*
X71240773Y-54981199D01*
X71365367Y-54803259D01*
X71365368Y-54803257D01*
X71368524Y-54798750D01*
X71370847Y-54793768D01*
X71370850Y-54793763D01*
X71462963Y-54596225D01*
X71462964Y-54596224D01*
X71465286Y-54591243D01*
X71524545Y-54370087D01*
X71544500Y-54142000D01*
X71524545Y-53913913D01*
X71478373Y-53741598D01*
X71466709Y-53698067D01*
X71466708Y-53698065D01*
X71465286Y-53692757D01*
X71442109Y-53643053D01*
X71370850Y-53490237D01*
X71370847Y-53490232D01*
X71368524Y-53485250D01*
X71292885Y-53377226D01*
X71240358Y-53302209D01*
X71240356Y-53302206D01*
X71237199Y-53297698D01*
X71075302Y-53135801D01*
X71070794Y-53132644D01*
X71070791Y-53132642D01*
X70892259Y-53007633D01*
X70892257Y-53007632D01*
X70887750Y-53004476D01*
X70882768Y-53002153D01*
X70882763Y-53002150D01*
X70685225Y-52910037D01*
X70685224Y-52910036D01*
X70680243Y-52907714D01*
X70674935Y-52906292D01*
X70674933Y-52906291D01*
X70464402Y-52849879D01*
X70464400Y-52849879D01*
X70459087Y-52848455D01*
X70231000Y-52828500D01*
X70002913Y-52848455D01*
X69997600Y-52849879D01*
X69997598Y-52849879D01*
X69787067Y-52906291D01*
X69787065Y-52906292D01*
X69781757Y-52907714D01*
X69776776Y-52910036D01*
X69776775Y-52910037D01*
X69579237Y-53002150D01*
X69579232Y-53002153D01*
X69574250Y-53004476D01*
X69569743Y-53007632D01*
X69569741Y-53007633D01*
X69391209Y-53132642D01*
X69391206Y-53132644D01*
X69386698Y-53135801D01*
X69224801Y-53297698D01*
X69221644Y-53302206D01*
X69221642Y-53302209D01*
X69169115Y-53377226D01*
X69093476Y-53485250D01*
X69091153Y-53490232D01*
X69091150Y-53490237D01*
X69019891Y-53643053D01*
X68996714Y-53692757D01*
X68995292Y-53698065D01*
X68995291Y-53698067D01*
X68983627Y-53741598D01*
X68937455Y-53913913D01*
X68917500Y-54142000D01*
X59972889Y-54142000D01*
X59987500Y-53975000D01*
X59967545Y-53746913D01*
X59957246Y-53708478D01*
X59955913Y-53703503D01*
X65012602Y-53703503D01*
X65012938Y-53717599D01*
X65020880Y-53721000D01*
X66021885Y-53721000D01*
X66037124Y-53716525D01*
X66038329Y-53715135D01*
X66040000Y-53707452D01*
X66040000Y-52707029D01*
X66038489Y-52701880D01*
X66548000Y-52701880D01*
X66548000Y-53702885D01*
X66552475Y-53718124D01*
X66553865Y-53719329D01*
X66561548Y-53721000D01*
X67561971Y-53721000D01*
X67575502Y-53717027D01*
X67576731Y-53708478D01*
X67529239Y-53531239D01*
X67525491Y-53520943D01*
X67433417Y-53323487D01*
X67427934Y-53313991D01*
X67302975Y-53135531D01*
X67295919Y-53127123D01*
X67141877Y-52973081D01*
X67133469Y-52966025D01*
X66955009Y-52841066D01*
X66945513Y-52835583D01*
X66748057Y-52743509D01*
X66737761Y-52739761D01*
X66565497Y-52693602D01*
X66551401Y-52693938D01*
X66548000Y-52701880D01*
X66038489Y-52701880D01*
X66036027Y-52693498D01*
X66027478Y-52692269D01*
X65850239Y-52739761D01*
X65839943Y-52743509D01*
X65642487Y-52835583D01*
X65632991Y-52841066D01*
X65454531Y-52966025D01*
X65446123Y-52973081D01*
X65292081Y-53127123D01*
X65285025Y-53135531D01*
X65160066Y-53313991D01*
X65154583Y-53323487D01*
X65062509Y-53520943D01*
X65058761Y-53531239D01*
X65012602Y-53703503D01*
X59955913Y-53703503D01*
X59909709Y-53531067D01*
X59909708Y-53531065D01*
X59908286Y-53525757D01*
X59891723Y-53490237D01*
X59813850Y-53323237D01*
X59813847Y-53323232D01*
X59811524Y-53318250D01*
X59800292Y-53302209D01*
X59683358Y-53135209D01*
X59683356Y-53135206D01*
X59680199Y-53130698D01*
X59518302Y-52968801D01*
X59513794Y-52965644D01*
X59513791Y-52965642D01*
X59335259Y-52840633D01*
X59335257Y-52840632D01*
X59330750Y-52837476D01*
X59325769Y-52835153D01*
X59325758Y-52835147D01*
X59301196Y-52823694D01*
X59247912Y-52776777D01*
X59228451Y-52708500D01*
X59248993Y-52640540D01*
X59303016Y-52594474D01*
X59354447Y-52583500D01*
X59944000Y-52583500D01*
X60017079Y-52578273D01*
X60105045Y-52552444D01*
X60148670Y-52539635D01*
X60148672Y-52539634D01*
X60157316Y-52537096D01*
X60212301Y-52501759D01*
X60272691Y-52462949D01*
X60272694Y-52462947D01*
X60280271Y-52458077D01*
X60286254Y-52451172D01*
X60370082Y-52354431D01*
X60370084Y-52354428D01*
X60375984Y-52347619D01*
X60394452Y-52307179D01*
X60432958Y-52222864D01*
X60432958Y-52222863D01*
X60436700Y-52214670D01*
X60438611Y-52201380D01*
X60456861Y-52074448D01*
X60456862Y-52074441D01*
X60457500Y-52070000D01*
X60457500Y-50753313D01*
X61971111Y-50753313D01*
X61971335Y-50757979D01*
X61971335Y-50757984D01*
X61975645Y-50847698D01*
X61983794Y-51017354D01*
X62035365Y-51276620D01*
X62124692Y-51525415D01*
X62126908Y-51529539D01*
X62194290Y-51654943D01*
X62249811Y-51758274D01*
X62252606Y-51762017D01*
X62252608Y-51762020D01*
X62405183Y-51966343D01*
X62405188Y-51966349D01*
X62407975Y-51970081D01*
X62411284Y-51973361D01*
X62411289Y-51973367D01*
X62552651Y-52113500D01*
X62595709Y-52156184D01*
X62599471Y-52158942D01*
X62599474Y-52158945D01*
X62801640Y-52307179D01*
X62808889Y-52312494D01*
X62813032Y-52314674D01*
X62813034Y-52314675D01*
X63038681Y-52433394D01*
X63038686Y-52433396D01*
X63042831Y-52435577D01*
X63047254Y-52437122D01*
X63047255Y-52437122D01*
X63283794Y-52519725D01*
X63292396Y-52522729D01*
X63296989Y-52523601D01*
X63547513Y-52571164D01*
X63547516Y-52571164D01*
X63552102Y-52572035D01*
X63684173Y-52577225D01*
X63811575Y-52582231D01*
X63811581Y-52582231D01*
X63816243Y-52582414D01*
X63924658Y-52570540D01*
X64074364Y-52554145D01*
X64074369Y-52554144D01*
X64079017Y-52553635D01*
X64141837Y-52537096D01*
X64330131Y-52487522D01*
X64334651Y-52486332D01*
X64493252Y-52418192D01*
X64573226Y-52383833D01*
X64573229Y-52383831D01*
X64577529Y-52381984D01*
X64581509Y-52379521D01*
X64581513Y-52379519D01*
X64798342Y-52245341D01*
X64798346Y-52245338D01*
X64802315Y-52242882D01*
X65004072Y-52072082D01*
X65178366Y-51873337D01*
X65189856Y-51855475D01*
X65318842Y-51654943D01*
X65321370Y-51651013D01*
X65429942Y-51409993D01*
X65433952Y-51395775D01*
X65500426Y-51160077D01*
X65500427Y-51160074D01*
X65501696Y-51155573D01*
X65520189Y-51010209D01*
X65534658Y-50896472D01*
X65534658Y-50896466D01*
X65535056Y-50893341D01*
X65537500Y-50800000D01*
X65534031Y-50753313D01*
X67051111Y-50753313D01*
X67051335Y-50757979D01*
X67051335Y-50757984D01*
X67055645Y-50847698D01*
X67063794Y-51017354D01*
X67115365Y-51276620D01*
X67204692Y-51525415D01*
X67206908Y-51529539D01*
X67274290Y-51654943D01*
X67329811Y-51758274D01*
X67332606Y-51762017D01*
X67332608Y-51762020D01*
X67485183Y-51966343D01*
X67485188Y-51966349D01*
X67487975Y-51970081D01*
X67491284Y-51973361D01*
X67491289Y-51973367D01*
X67632651Y-52113500D01*
X67675709Y-52156184D01*
X67679471Y-52158942D01*
X67679474Y-52158945D01*
X67881640Y-52307179D01*
X67888889Y-52312494D01*
X67893032Y-52314674D01*
X67893034Y-52314675D01*
X68118681Y-52433394D01*
X68118686Y-52433396D01*
X68122831Y-52435577D01*
X68127254Y-52437122D01*
X68127255Y-52437122D01*
X68363794Y-52519725D01*
X68372396Y-52522729D01*
X68376989Y-52523601D01*
X68627513Y-52571164D01*
X68627516Y-52571164D01*
X68632102Y-52572035D01*
X68764173Y-52577225D01*
X68891575Y-52582231D01*
X68891581Y-52582231D01*
X68896243Y-52582414D01*
X69004658Y-52570540D01*
X69154364Y-52554145D01*
X69154369Y-52554144D01*
X69159017Y-52553635D01*
X69221837Y-52537096D01*
X69410131Y-52487522D01*
X69414651Y-52486332D01*
X69573252Y-52418192D01*
X69653226Y-52383833D01*
X69653229Y-52383831D01*
X69657529Y-52381984D01*
X69661509Y-52379521D01*
X69661513Y-52379519D01*
X69878342Y-52245341D01*
X69878346Y-52245338D01*
X69882315Y-52242882D01*
X70084072Y-52072082D01*
X70258366Y-51873337D01*
X70260893Y-51869409D01*
X70395049Y-51660841D01*
X70448724Y-51614369D01*
X70519002Y-51604294D01*
X70583571Y-51633813D01*
X70593581Y-51643988D01*
X70593801Y-51644302D01*
X70755698Y-51806199D01*
X70760206Y-51809356D01*
X70760209Y-51809358D01*
X70931839Y-51929534D01*
X70943250Y-51937524D01*
X70948232Y-51939847D01*
X70948237Y-51939850D01*
X71125773Y-52022636D01*
X71150757Y-52034286D01*
X71156065Y-52035708D01*
X71156067Y-52035709D01*
X71366598Y-52092121D01*
X71366600Y-52092121D01*
X71371913Y-52093545D01*
X71600000Y-52113500D01*
X71828087Y-52093545D01*
X71833400Y-52092121D01*
X71833402Y-52092121D01*
X72043933Y-52035709D01*
X72043935Y-52035708D01*
X72049243Y-52034286D01*
X72074227Y-52022636D01*
X72251763Y-51939850D01*
X72251768Y-51939847D01*
X72256750Y-51937524D01*
X72268161Y-51929534D01*
X72439791Y-51809358D01*
X72439794Y-51809356D01*
X72444302Y-51806199D01*
X72606199Y-51644302D01*
X72613322Y-51634130D01*
X72734367Y-51461259D01*
X72734368Y-51461257D01*
X72737524Y-51456750D01*
X72739847Y-51451768D01*
X72739850Y-51451763D01*
X72831963Y-51254225D01*
X72831964Y-51254224D01*
X72834286Y-51249243D01*
X72844584Y-51210813D01*
X72883246Y-51066522D01*
X77937269Y-51066522D01*
X77984761Y-51243761D01*
X77988509Y-51254057D01*
X78080583Y-51451513D01*
X78086066Y-51461009D01*
X78211025Y-51639469D01*
X78218081Y-51647877D01*
X78372123Y-51801919D01*
X78380531Y-51808975D01*
X78558991Y-51933934D01*
X78568487Y-51939417D01*
X78765943Y-52031491D01*
X78776239Y-52035239D01*
X78948503Y-52081398D01*
X78962599Y-52081062D01*
X78966000Y-52073120D01*
X78966000Y-51072115D01*
X78964659Y-51067548D01*
X79474000Y-51067548D01*
X79474000Y-52067971D01*
X79477973Y-52081502D01*
X79486522Y-52082731D01*
X79663761Y-52035239D01*
X79674057Y-52031491D01*
X79871513Y-51939417D01*
X79881009Y-51933934D01*
X80059469Y-51808975D01*
X80067877Y-51801919D01*
X80221919Y-51647877D01*
X80228975Y-51639469D01*
X80353934Y-51461009D01*
X80359417Y-51451513D01*
X80451491Y-51254057D01*
X80455239Y-51243761D01*
X80501398Y-51071497D01*
X80501062Y-51057401D01*
X80493120Y-51054000D01*
X79492115Y-51054000D01*
X79476876Y-51058475D01*
X79475671Y-51059865D01*
X79474000Y-51067548D01*
X78964659Y-51067548D01*
X78961525Y-51056876D01*
X78960135Y-51055671D01*
X78952452Y-51054000D01*
X77952029Y-51054000D01*
X77938498Y-51057973D01*
X77937269Y-51066522D01*
X72883246Y-51066522D01*
X72892121Y-51033402D01*
X72892121Y-51033400D01*
X72893545Y-51028087D01*
X72913500Y-50800000D01*
X72893545Y-50571913D01*
X72884426Y-50537879D01*
X72881914Y-50528503D01*
X77938602Y-50528503D01*
X77938938Y-50542599D01*
X77946880Y-50546000D01*
X78947885Y-50546000D01*
X78963124Y-50541525D01*
X78964329Y-50540135D01*
X78966000Y-50532452D01*
X78966000Y-49532029D01*
X78964489Y-49526880D01*
X79474000Y-49526880D01*
X79474000Y-50527885D01*
X79478475Y-50543124D01*
X79479865Y-50544329D01*
X79487548Y-50546000D01*
X80487971Y-50546000D01*
X80501502Y-50542027D01*
X80502731Y-50533478D01*
X80455239Y-50356239D01*
X80451491Y-50345943D01*
X80359417Y-50148487D01*
X80353934Y-50138991D01*
X80228975Y-49960531D01*
X80221919Y-49952123D01*
X80067877Y-49798081D01*
X80059469Y-49791025D01*
X79881009Y-49666066D01*
X79871513Y-49660583D01*
X79674057Y-49568509D01*
X79663761Y-49564761D01*
X79491497Y-49518602D01*
X79477401Y-49518938D01*
X79474000Y-49526880D01*
X78964489Y-49526880D01*
X78962027Y-49518498D01*
X78953478Y-49517269D01*
X78776239Y-49564761D01*
X78765943Y-49568509D01*
X78568487Y-49660583D01*
X78558991Y-49666066D01*
X78380531Y-49791025D01*
X78372123Y-49798081D01*
X78218081Y-49952123D01*
X78211025Y-49960531D01*
X78086066Y-50138991D01*
X78080583Y-50148487D01*
X77988509Y-50345943D01*
X77984761Y-50356239D01*
X77938602Y-50528503D01*
X72881914Y-50528503D01*
X72835709Y-50356067D01*
X72835708Y-50356065D01*
X72834286Y-50350757D01*
X72827081Y-50335305D01*
X72739850Y-50148237D01*
X72739847Y-50148232D01*
X72737524Y-50143250D01*
X72666227Y-50041427D01*
X72609358Y-49960209D01*
X72609356Y-49960206D01*
X72606199Y-49955698D01*
X72444302Y-49793801D01*
X72439794Y-49790644D01*
X72439791Y-49790642D01*
X72261259Y-49665633D01*
X72261257Y-49665632D01*
X72256750Y-49662476D01*
X72251768Y-49660153D01*
X72251763Y-49660150D01*
X72054225Y-49568037D01*
X72054224Y-49568036D01*
X72049243Y-49565714D01*
X72043935Y-49564292D01*
X72043933Y-49564291D01*
X71833402Y-49507879D01*
X71833400Y-49507879D01*
X71828087Y-49506455D01*
X71600000Y-49486500D01*
X71371913Y-49506455D01*
X71366600Y-49507879D01*
X71366598Y-49507879D01*
X71156067Y-49564291D01*
X71156065Y-49564292D01*
X71150757Y-49565714D01*
X71145776Y-49568036D01*
X71145775Y-49568037D01*
X70948237Y-49660150D01*
X70948232Y-49660153D01*
X70943250Y-49662476D01*
X70938743Y-49665632D01*
X70938741Y-49665633D01*
X70760209Y-49790642D01*
X70760206Y-49790644D01*
X70755698Y-49793801D01*
X70593801Y-49955698D01*
X70593656Y-49955906D01*
X70535897Y-49994331D01*
X70464910Y-49995456D01*
X70404583Y-49958024D01*
X70389095Y-49936537D01*
X70367373Y-49898531D01*
X70312589Y-49802679D01*
X70200569Y-49660583D01*
X70151826Y-49598753D01*
X70151823Y-49598750D01*
X70148934Y-49595085D01*
X69956393Y-49413960D01*
X69739195Y-49263284D01*
X69735005Y-49261218D01*
X69735002Y-49261216D01*
X69506299Y-49148433D01*
X69506296Y-49148432D01*
X69502111Y-49146368D01*
X69445149Y-49128134D01*
X69339364Y-49094272D01*
X69250350Y-49065778D01*
X69075486Y-49037300D01*
X68994054Y-49024038D01*
X68994053Y-49024038D01*
X68989442Y-49023287D01*
X68857281Y-49021557D01*
X68729797Y-49019888D01*
X68729794Y-49019888D01*
X68725120Y-49019827D01*
X68463189Y-49055474D01*
X68458703Y-49056782D01*
X68458701Y-49056782D01*
X68427837Y-49065778D01*
X68209405Y-49129445D01*
X67969342Y-49240116D01*
X67965437Y-49242676D01*
X67965432Y-49242679D01*
X67752187Y-49382488D01*
X67752182Y-49382492D01*
X67748274Y-49385054D01*
X67667754Y-49456921D01*
X67556478Y-49556239D01*
X67551057Y-49561077D01*
X67382025Y-49764316D01*
X67244890Y-49990308D01*
X67243081Y-49994622D01*
X67243080Y-49994624D01*
X67156791Y-50200401D01*
X67142665Y-50234087D01*
X67077595Y-50490298D01*
X67077127Y-50494949D01*
X67077126Y-50494953D01*
X67072276Y-50543124D01*
X67051111Y-50753313D01*
X65534031Y-50753313D01*
X65523978Y-50618037D01*
X65518256Y-50541034D01*
X65518255Y-50541030D01*
X65517910Y-50536382D01*
X65459570Y-50278555D01*
X65457877Y-50274201D01*
X65365454Y-50036536D01*
X65365453Y-50036534D01*
X65363761Y-50032183D01*
X65355153Y-50017121D01*
X65287373Y-49898531D01*
X65232589Y-49802679D01*
X65120569Y-49660583D01*
X65071826Y-49598753D01*
X65071823Y-49598750D01*
X65068934Y-49595085D01*
X64876393Y-49413960D01*
X64659195Y-49263284D01*
X64655005Y-49261218D01*
X64655002Y-49261216D01*
X64426299Y-49148433D01*
X64426296Y-49148432D01*
X64422111Y-49146368D01*
X64365149Y-49128134D01*
X64259364Y-49094272D01*
X64170350Y-49065778D01*
X63995486Y-49037300D01*
X63914054Y-49024038D01*
X63914053Y-49024038D01*
X63909442Y-49023287D01*
X63777281Y-49021557D01*
X63649797Y-49019888D01*
X63649794Y-49019888D01*
X63645120Y-49019827D01*
X63383189Y-49055474D01*
X63378703Y-49056782D01*
X63378701Y-49056782D01*
X63347837Y-49065778D01*
X63129405Y-49129445D01*
X62889342Y-49240116D01*
X62885437Y-49242676D01*
X62885432Y-49242679D01*
X62672187Y-49382488D01*
X62672182Y-49382492D01*
X62668274Y-49385054D01*
X62587754Y-49456921D01*
X62476478Y-49556239D01*
X62471057Y-49561077D01*
X62302025Y-49764316D01*
X62164890Y-49990308D01*
X62163081Y-49994622D01*
X62163080Y-49994624D01*
X62076791Y-50200401D01*
X62062665Y-50234087D01*
X61997595Y-50490298D01*
X61997127Y-50494949D01*
X61997126Y-50494953D01*
X61992276Y-50543124D01*
X61971111Y-50753313D01*
X60457500Y-50753313D01*
X60457500Y-49530000D01*
X60452273Y-49456921D01*
X60411096Y-49316684D01*
X60363536Y-49242679D01*
X60336949Y-49201309D01*
X60336947Y-49201306D01*
X60332077Y-49193729D01*
X60325267Y-49187828D01*
X60228431Y-49103918D01*
X60228428Y-49103916D01*
X60221619Y-49098016D01*
X60139175Y-49060365D01*
X60096864Y-49041042D01*
X60096863Y-49041042D01*
X60088670Y-49037300D01*
X60079755Y-49036018D01*
X60079754Y-49036018D01*
X59948448Y-49017139D01*
X59948441Y-49017138D01*
X59944000Y-49016500D01*
X57404000Y-49016500D01*
X57330921Y-49021727D01*
X57277884Y-49037300D01*
X57199330Y-49060365D01*
X57199328Y-49060366D01*
X57190684Y-49062904D01*
X57183105Y-49067775D01*
X57075309Y-49137051D01*
X57075306Y-49137053D01*
X57067729Y-49141923D01*
X57061828Y-49148733D01*
X56977918Y-49245569D01*
X56977916Y-49245572D01*
X56972016Y-49252381D01*
X56968272Y-49260579D01*
X56927854Y-49349083D01*
X56911300Y-49385330D01*
X56896686Y-49486979D01*
X56896013Y-49491657D01*
X56866520Y-49556238D01*
X56806794Y-49594622D01*
X56735797Y-49594622D01*
X56676071Y-49556239D01*
X56669363Y-49547793D01*
X56667933Y-49545825D01*
X56665349Y-49541608D01*
X56657363Y-49532257D01*
X56504130Y-49352845D01*
X56500917Y-49349083D01*
X56403580Y-49265949D01*
X56312157Y-49187866D01*
X56312152Y-49187862D01*
X56308392Y-49184651D01*
X56092514Y-49052361D01*
X56087944Y-49050468D01*
X56087940Y-49050466D01*
X55863172Y-48957364D01*
X55863170Y-48957363D01*
X55858599Y-48955470D01*
X55773894Y-48935134D01*
X55617220Y-48897520D01*
X55617214Y-48897519D01*
X55612407Y-48896365D01*
X55360000Y-48876500D01*
X55107593Y-48896365D01*
X55102786Y-48897519D01*
X55102780Y-48897520D01*
X54946106Y-48935134D01*
X54861401Y-48955470D01*
X54856830Y-48957363D01*
X54856828Y-48957364D01*
X54632060Y-49050466D01*
X54632056Y-49050468D01*
X54627486Y-49052361D01*
X54411608Y-49184651D01*
X54407848Y-49187862D01*
X54407843Y-49187866D01*
X54316420Y-49265949D01*
X54219083Y-49349083D01*
X54215870Y-49352845D01*
X54057866Y-49537843D01*
X54057862Y-49537848D01*
X54054651Y-49541608D01*
X53922361Y-49757486D01*
X53920468Y-49762056D01*
X53920466Y-49762060D01*
X53838390Y-49960209D01*
X53825470Y-49991401D01*
X53811403Y-50049997D01*
X53797922Y-50106149D01*
X53762570Y-50167718D01*
X53699544Y-50200401D01*
X53628853Y-50193821D01*
X53586308Y-50165831D01*
X53336453Y-49915977D01*
X53302428Y-49853664D01*
X53307492Y-49782849D01*
X53343628Y-49731671D01*
X53344302Y-49731199D01*
X53506199Y-49569302D01*
X53509439Y-49564676D01*
X53634367Y-49386259D01*
X53634368Y-49386257D01*
X53637524Y-49381750D01*
X53639847Y-49376768D01*
X53639850Y-49376763D01*
X53731963Y-49179225D01*
X53731964Y-49179224D01*
X53734286Y-49174243D01*
X53741122Y-49148733D01*
X53792121Y-48958402D01*
X53792121Y-48958400D01*
X53793545Y-48953087D01*
X53813500Y-48725000D01*
X53793545Y-48496913D01*
X53777315Y-48436341D01*
X53735709Y-48281067D01*
X53735708Y-48281065D01*
X53734286Y-48275757D01*
X53718625Y-48242172D01*
X53639850Y-48073237D01*
X53639847Y-48073232D01*
X53637524Y-48068250D01*
X53606580Y-48024057D01*
X53509358Y-47885209D01*
X53509356Y-47885206D01*
X53506199Y-47880698D01*
X53344302Y-47718801D01*
X53339794Y-47715644D01*
X53339791Y-47715642D01*
X53161259Y-47590633D01*
X53161257Y-47590632D01*
X53156750Y-47587476D01*
X53151768Y-47585153D01*
X53151763Y-47585150D01*
X52954225Y-47493037D01*
X52954224Y-47493036D01*
X52949243Y-47490714D01*
X52943935Y-47489292D01*
X52943933Y-47489291D01*
X52733402Y-47432879D01*
X52733400Y-47432879D01*
X52728087Y-47431455D01*
X52500000Y-47411500D01*
X52271913Y-47431455D01*
X52266600Y-47432879D01*
X52266598Y-47432879D01*
X52056067Y-47489291D01*
X52056065Y-47489292D01*
X52050757Y-47490714D01*
X52045776Y-47493036D01*
X52045775Y-47493037D01*
X51848237Y-47585150D01*
X51848232Y-47585153D01*
X51843250Y-47587476D01*
X51838743Y-47590632D01*
X51838741Y-47590633D01*
X51660209Y-47715642D01*
X51660206Y-47715644D01*
X51655698Y-47718801D01*
X51493801Y-47880698D01*
X51490644Y-47885206D01*
X51490642Y-47885209D01*
X51393420Y-48024057D01*
X51362476Y-48068250D01*
X51360153Y-48073232D01*
X51360150Y-48073237D01*
X51281375Y-48242172D01*
X51265714Y-48275757D01*
X51264292Y-48281065D01*
X51264291Y-48281067D01*
X51222685Y-48436341D01*
X51206455Y-48496913D01*
X51186500Y-48725000D01*
X51206455Y-48953087D01*
X51207879Y-48958400D01*
X51207879Y-48958402D01*
X51258879Y-49148733D01*
X51265714Y-49174243D01*
X51268036Y-49179224D01*
X51268037Y-49179225D01*
X51360150Y-49376763D01*
X51360153Y-49376768D01*
X51362476Y-49381750D01*
X51365632Y-49386257D01*
X51365633Y-49386259D01*
X51490562Y-49564676D01*
X51493801Y-49569302D01*
X51655698Y-49731199D01*
X51708703Y-49768313D01*
X51747270Y-49795318D01*
X51791599Y-49850775D01*
X51801000Y-49898531D01*
X51801000Y-50041427D01*
X51800708Y-50049997D01*
X51796965Y-50104902D01*
X51798270Y-50112379D01*
X51798270Y-50112382D01*
X51807792Y-50166941D01*
X51808755Y-50173465D01*
X51816321Y-50235985D01*
X51819007Y-50243092D01*
X51819861Y-50246570D01*
X51823700Y-50260606D01*
X51824742Y-50264057D01*
X51826047Y-50271536D01*
X51829099Y-50278488D01*
X51829100Y-50278492D01*
X51851359Y-50329198D01*
X51853850Y-50335300D01*
X51876113Y-50394217D01*
X51880415Y-50400476D01*
X51882072Y-50403646D01*
X51889165Y-50416390D01*
X51890984Y-50419466D01*
X51894038Y-50426423D01*
X51898663Y-50432450D01*
X51898665Y-50432454D01*
X51932383Y-50476396D01*
X51936252Y-50481721D01*
X51954335Y-50508031D01*
X51976435Y-50575501D01*
X51958549Y-50644207D01*
X51903745Y-50693593D01*
X51868237Y-50710150D01*
X51868232Y-50710153D01*
X51863250Y-50712476D01*
X51858743Y-50715632D01*
X51858741Y-50715633D01*
X51680209Y-50840642D01*
X51680206Y-50840644D01*
X51675698Y-50843801D01*
X51513801Y-51005698D01*
X51510644Y-51010206D01*
X51510642Y-51010209D01*
X51399981Y-51168250D01*
X51382476Y-51193250D01*
X51380153Y-51198232D01*
X51380150Y-51198237D01*
X51288037Y-51395775D01*
X51285714Y-51400757D01*
X51284292Y-51406065D01*
X51284291Y-51406067D01*
X51228476Y-51614369D01*
X51226455Y-51621913D01*
X51206500Y-51850000D01*
X51226455Y-52078087D01*
X51226876Y-52079659D01*
X51219143Y-52149026D01*
X51192019Y-52189447D01*
X50859076Y-52522390D01*
X50852811Y-52528243D01*
X50811325Y-52564434D01*
X50806957Y-52570649D01*
X50806956Y-52570650D01*
X50775108Y-52615964D01*
X50771183Y-52621249D01*
X50732322Y-52670810D01*
X50729196Y-52677733D01*
X50727348Y-52680785D01*
X50720119Y-52693460D01*
X50718431Y-52696609D01*
X50714061Y-52702826D01*
X50711301Y-52709906D01*
X50691184Y-52761503D01*
X50688628Y-52767584D01*
X50665840Y-52818054D01*
X50665838Y-52818060D01*
X50662715Y-52824977D01*
X50661331Y-52832444D01*
X50660261Y-52835859D01*
X50656252Y-52849931D01*
X50655374Y-52853349D01*
X50652616Y-52860424D01*
X50651625Y-52867952D01*
X50644393Y-52922884D01*
X50643361Y-52929398D01*
X50636644Y-52965642D01*
X50631889Y-52991297D01*
X50632326Y-52998877D01*
X50632326Y-52998878D01*
X50635290Y-53050281D01*
X50635499Y-53057534D01*
X50635500Y-56810121D01*
X50635208Y-56818691D01*
X50631464Y-56873609D01*
X50632769Y-56881085D01*
X50632769Y-56881091D01*
X50642294Y-56935668D01*
X50643257Y-56942191D01*
X50650821Y-57004693D01*
X50653506Y-57011799D01*
X50654368Y-57015308D01*
X50658200Y-57029315D01*
X50659240Y-57032759D01*
X50660546Y-57040243D01*
X50663599Y-57047198D01*
X50663600Y-57047201D01*
X50685857Y-57097903D01*
X50688349Y-57104007D01*
X50710613Y-57162925D01*
X50714918Y-57169188D01*
X50716589Y-57172385D01*
X50723672Y-57185110D01*
X50725483Y-57188172D01*
X50728537Y-57195130D01*
X50733162Y-57201157D01*
X50733164Y-57201161D01*
X50766885Y-57245107D01*
X50770763Y-57250445D01*
X50802117Y-57296067D01*
X50802123Y-57296073D01*
X50806422Y-57302329D01*
X50812090Y-57307379D01*
X50812091Y-57307380D01*
X50850554Y-57341649D01*
X50855830Y-57346631D01*
X53155890Y-59646691D01*
X53189916Y-59709003D01*
X53184851Y-59779818D01*
X53142304Y-59836654D01*
X53120046Y-59849980D01*
X53098243Y-59860147D01*
X53098238Y-59860150D01*
X53093250Y-59862476D01*
X53088743Y-59865632D01*
X53088741Y-59865633D01*
X52910209Y-59990642D01*
X52910206Y-59990644D01*
X52905698Y-59993801D01*
X52743801Y-60155698D01*
X52699008Y-60219670D01*
X52679682Y-60247270D01*
X52624225Y-60291599D01*
X52576469Y-60301000D01*
X48970408Y-60301000D01*
X48902287Y-60280998D01*
X48855794Y-60227342D01*
X48845690Y-60157068D01*
X48867195Y-60102729D01*
X48983934Y-59936009D01*
X48989417Y-59926513D01*
X49081491Y-59729057D01*
X49085239Y-59718761D01*
X49141630Y-59508310D01*
X49143532Y-59497523D01*
X49162521Y-59280475D01*
X49162521Y-59269525D01*
X49143532Y-59052477D01*
X49141630Y-59041690D01*
X49085239Y-58831239D01*
X49081491Y-58820943D01*
X48989417Y-58623487D01*
X48983934Y-58613992D01*
X48947494Y-58561950D01*
X48937015Y-58553574D01*
X48923570Y-58560641D01*
X48209210Y-59275000D01*
X47939095Y-59545116D01*
X47876783Y-59579141D01*
X47805967Y-59574076D01*
X47760905Y-59545115D01*
X47490790Y-59275000D01*
X46775710Y-58559921D01*
X46732376Y-58536258D01*
X46725818Y-58534832D01*
X46675610Y-58484636D01*
X46660512Y-58433227D01*
X46658755Y-58408659D01*
X46658755Y-58408658D01*
X46658273Y-58401921D01*
X46634846Y-58322136D01*
X46619635Y-58270330D01*
X46619634Y-58270328D01*
X46617096Y-58261684D01*
X46570931Y-58189850D01*
X46569733Y-58187985D01*
X47128574Y-58187985D01*
X47135641Y-58201430D01*
X47837189Y-58902979D01*
X47851132Y-58910592D01*
X47852966Y-58910461D01*
X47859580Y-58906210D01*
X48565083Y-58200706D01*
X48571510Y-58188936D01*
X48562216Y-58176922D01*
X48511008Y-58141066D01*
X48501513Y-58135583D01*
X48304057Y-58043509D01*
X48293761Y-58039761D01*
X48083310Y-57983370D01*
X48072523Y-57981468D01*
X47855475Y-57962479D01*
X47844525Y-57962479D01*
X47627477Y-57981468D01*
X47616690Y-57983370D01*
X47406239Y-58039761D01*
X47395943Y-58043509D01*
X47198487Y-58135583D01*
X47188992Y-58141066D01*
X47136950Y-58177506D01*
X47128574Y-58187985D01*
X46569733Y-58187985D01*
X46542949Y-58146309D01*
X46542947Y-58146306D01*
X46538077Y-58138729D01*
X46520554Y-58123545D01*
X46434431Y-58048918D01*
X46434428Y-58048916D01*
X46427619Y-58043016D01*
X46294670Y-57982300D01*
X46285755Y-57981018D01*
X46285754Y-57981018D01*
X46154448Y-57962139D01*
X46154441Y-57962138D01*
X46150000Y-57961500D01*
X44550000Y-57961500D01*
X44476921Y-57966727D01*
X44423884Y-57982300D01*
X44345330Y-58005365D01*
X44345328Y-58005366D01*
X44336684Y-58007904D01*
X44329105Y-58012775D01*
X44221309Y-58082051D01*
X44221306Y-58082053D01*
X44213729Y-58086923D01*
X44207828Y-58093733D01*
X44123918Y-58190569D01*
X44123916Y-58190572D01*
X44118016Y-58197381D01*
X44114272Y-58205579D01*
X44079389Y-58281963D01*
X44057300Y-58330330D01*
X44056018Y-58339245D01*
X44056018Y-58339246D01*
X44037139Y-58470552D01*
X44037138Y-58470559D01*
X44036500Y-58475000D01*
X44036500Y-60075000D01*
X44036661Y-60077250D01*
X44040874Y-60136147D01*
X44041727Y-60148079D01*
X44043223Y-60153173D01*
X44035691Y-60223220D01*
X43991142Y-60278500D01*
X43919283Y-60301000D01*
X43293629Y-60301000D01*
X43285059Y-60300708D01*
X43283999Y-60300636D01*
X43230155Y-60296965D01*
X43222678Y-60298270D01*
X43222675Y-60298270D01*
X43168116Y-60307792D01*
X43161592Y-60308755D01*
X43106615Y-60315408D01*
X43106614Y-60315408D01*
X43099072Y-60316321D01*
X43091965Y-60319007D01*
X43088487Y-60319861D01*
X43074451Y-60323700D01*
X43071000Y-60324742D01*
X43063521Y-60326047D01*
X43056569Y-60329099D01*
X43056565Y-60329100D01*
X43005859Y-60351359D01*
X42999757Y-60353850D01*
X42940840Y-60376113D01*
X42934581Y-60380415D01*
X42931411Y-60382072D01*
X42918667Y-60389165D01*
X42915591Y-60390984D01*
X42908634Y-60394038D01*
X42902607Y-60398663D01*
X42902603Y-60398665D01*
X42858661Y-60432383D01*
X42853323Y-60436261D01*
X42807698Y-60467617D01*
X42807691Y-60467623D01*
X42801436Y-60471922D01*
X42796386Y-60477590D01*
X42796385Y-60477591D01*
X42762116Y-60516054D01*
X42757134Y-60521330D01*
X42050378Y-61228087D01*
X41360159Y-61918306D01*
X41297847Y-61952331D01*
X41232652Y-61949213D01*
X41056350Y-61892778D01*
X40800594Y-61851126D01*
X40800054Y-61851038D01*
X40800053Y-61851038D01*
X40795442Y-61850287D01*
X40663281Y-61848557D01*
X40535797Y-61846888D01*
X40535794Y-61846888D01*
X40531120Y-61846827D01*
X40269189Y-61882474D01*
X40264703Y-61883782D01*
X40264701Y-61883782D01*
X40202198Y-61902000D01*
X40015405Y-61956445D01*
X39775342Y-62067116D01*
X39771437Y-62069676D01*
X39771432Y-62069679D01*
X39558187Y-62209488D01*
X39558182Y-62209492D01*
X39554274Y-62212054D01*
X39474487Y-62283267D01*
X39369691Y-62376801D01*
X39357057Y-62388077D01*
X39188025Y-62591316D01*
X39050890Y-62817308D01*
X39049081Y-62821622D01*
X39049080Y-62821624D01*
X39013450Y-62906593D01*
X38948665Y-63061087D01*
X38883595Y-63317298D01*
X38883127Y-63321949D01*
X38883126Y-63321953D01*
X38878486Y-63368034D01*
X38857111Y-63580313D01*
X38857335Y-63584979D01*
X38857335Y-63584984D01*
X38859505Y-63630160D01*
X38869794Y-63844354D01*
X38921365Y-64103620D01*
X39010692Y-64352415D01*
X39016124Y-64362524D01*
X39110679Y-64538500D01*
X39135811Y-64585274D01*
X39138606Y-64589017D01*
X39138608Y-64589020D01*
X39291183Y-64793343D01*
X39291188Y-64793349D01*
X39293975Y-64797081D01*
X39297284Y-64800361D01*
X39297289Y-64800367D01*
X39475954Y-64977479D01*
X39481709Y-64983184D01*
X39485471Y-64985942D01*
X39485474Y-64985945D01*
X39691115Y-65136727D01*
X39694889Y-65139494D01*
X39699032Y-65141674D01*
X39699034Y-65141675D01*
X39924681Y-65260394D01*
X39924686Y-65260396D01*
X39928831Y-65262577D01*
X39933254Y-65264122D01*
X39933255Y-65264122D01*
X40151184Y-65340226D01*
X40178396Y-65349729D01*
X40182989Y-65350601D01*
X40433513Y-65398164D01*
X40433516Y-65398164D01*
X40438102Y-65399035D01*
X40567895Y-65404135D01*
X40697575Y-65409231D01*
X40697581Y-65409231D01*
X40702243Y-65409414D01*
X40820596Y-65396452D01*
X40960364Y-65381145D01*
X40960369Y-65381144D01*
X40965017Y-65380635D01*
X40969944Y-65379338D01*
X41216131Y-65314522D01*
X41220651Y-65313332D01*
X41394021Y-65238847D01*
X41459226Y-65210833D01*
X41459232Y-65210830D01*
X41463529Y-65208984D01*
X41467509Y-65206521D01*
X41467513Y-65206519D01*
X41684342Y-65072341D01*
X41684346Y-65072338D01*
X41688315Y-65069882D01*
X41890072Y-64899082D01*
X42064366Y-64700337D01*
X42207370Y-64478013D01*
X42315942Y-64236993D01*
X42347367Y-64125569D01*
X42386426Y-63987077D01*
X42386427Y-63987074D01*
X42387696Y-63982573D01*
X42405280Y-63844354D01*
X42420658Y-63723472D01*
X42420658Y-63723466D01*
X42421056Y-63720341D01*
X42423500Y-63627000D01*
X42410169Y-63447607D01*
X42404256Y-63368034D01*
X42404255Y-63368030D01*
X42403910Y-63363382D01*
X42345570Y-63105555D01*
X42320604Y-63041355D01*
X42314557Y-62970617D01*
X42348942Y-62906593D01*
X43519630Y-61735905D01*
X43581942Y-61701879D01*
X43608725Y-61699000D01*
X45096099Y-61699000D01*
X45164220Y-61719002D01*
X45210713Y-61772658D01*
X45220817Y-61842932D01*
X45191323Y-61907512D01*
X45131357Y-61945966D01*
X45095405Y-61956445D01*
X44855342Y-62067116D01*
X44851437Y-62069676D01*
X44851432Y-62069679D01*
X44638187Y-62209488D01*
X44638182Y-62209492D01*
X44634274Y-62212054D01*
X44554487Y-62283267D01*
X44449691Y-62376801D01*
X44437057Y-62388077D01*
X44268025Y-62591316D01*
X44130890Y-62817308D01*
X44129081Y-62821622D01*
X44129080Y-62821624D01*
X44093450Y-62906593D01*
X44028665Y-63061087D01*
X43963595Y-63317298D01*
X43963127Y-63321949D01*
X43963126Y-63321953D01*
X43958486Y-63368034D01*
X43937111Y-63580313D01*
X43937335Y-63584979D01*
X43937335Y-63584984D01*
X43939505Y-63630160D01*
X43949794Y-63844354D01*
X44001365Y-64103620D01*
X44090692Y-64352415D01*
X44096124Y-64362524D01*
X44190679Y-64538500D01*
X44215811Y-64585274D01*
X44218606Y-64589017D01*
X44218608Y-64589020D01*
X44371183Y-64793343D01*
X44371188Y-64793349D01*
X44373975Y-64797081D01*
X44377284Y-64800361D01*
X44377289Y-64800367D01*
X44555954Y-64977479D01*
X44561709Y-64983184D01*
X44565471Y-64985942D01*
X44565474Y-64985945D01*
X44771115Y-65136727D01*
X44774889Y-65139494D01*
X44779032Y-65141674D01*
X44779034Y-65141675D01*
X45004681Y-65260394D01*
X45004686Y-65260396D01*
X45008831Y-65262577D01*
X45013254Y-65264122D01*
X45013255Y-65264122D01*
X45231184Y-65340226D01*
X45258396Y-65349729D01*
X45262989Y-65350601D01*
X45513513Y-65398164D01*
X45513516Y-65398164D01*
X45518102Y-65399035D01*
X45647895Y-65404135D01*
X45777575Y-65409231D01*
X45777581Y-65409231D01*
X45782243Y-65409414D01*
X45900596Y-65396452D01*
X46040364Y-65381145D01*
X46040369Y-65381144D01*
X46045017Y-65380635D01*
X46049944Y-65379338D01*
X46057540Y-65377338D01*
X46128509Y-65379338D01*
X46187130Y-65419388D01*
X46214793Y-65484774D01*
X46202714Y-65554735D01*
X46154729Y-65607060D01*
X46142870Y-65613381D01*
X45978237Y-65690150D01*
X45978232Y-65690153D01*
X45973250Y-65692476D01*
X45968743Y-65695632D01*
X45968741Y-65695633D01*
X45790209Y-65820642D01*
X45790206Y-65820644D01*
X45785698Y-65823801D01*
X45623801Y-65985698D01*
X45620644Y-65990206D01*
X45620642Y-65990209D01*
X45566539Y-66067477D01*
X45492476Y-66173250D01*
X45490153Y-66178232D01*
X45490150Y-66178237D01*
X45412885Y-66343934D01*
X45395714Y-66380757D01*
X45394292Y-66386064D01*
X45394291Y-66386067D01*
X45358916Y-66518087D01*
X45336455Y-66601913D01*
X45316500Y-66830000D01*
X45336455Y-67058087D01*
X45395714Y-67279243D01*
X45398036Y-67284224D01*
X45398037Y-67284225D01*
X45490150Y-67481763D01*
X45490153Y-67481768D01*
X45492476Y-67486750D01*
X45495632Y-67491257D01*
X45495633Y-67491259D01*
X45618949Y-67667372D01*
X45623801Y-67674302D01*
X45785698Y-67836199D01*
X45790206Y-67839356D01*
X45790209Y-67839358D01*
X45968123Y-67963934D01*
X45973250Y-67967524D01*
X45978232Y-67969847D01*
X45978237Y-67969850D01*
X46059030Y-68007524D01*
X46180757Y-68064286D01*
X46186065Y-68065708D01*
X46186067Y-68065709D01*
X46396598Y-68122121D01*
X46396600Y-68122121D01*
X46401913Y-68123545D01*
X46630000Y-68143500D01*
X46858087Y-68123545D01*
X46863400Y-68122121D01*
X46863402Y-68122121D01*
X47073933Y-68065709D01*
X47073935Y-68065708D01*
X47079243Y-68064286D01*
X47200970Y-68007524D01*
X47281763Y-67969850D01*
X47281768Y-67969847D01*
X47286750Y-67967524D01*
X47291877Y-67963934D01*
X47469791Y-67839358D01*
X47469794Y-67839356D01*
X47474302Y-67836199D01*
X47636199Y-67674302D01*
X47641052Y-67667372D01*
X47764367Y-67491259D01*
X47764368Y-67491257D01*
X47767524Y-67486750D01*
X47769847Y-67481768D01*
X47769850Y-67481763D01*
X47861963Y-67284225D01*
X47861964Y-67284224D01*
X47864286Y-67279243D01*
X47865709Y-67273933D01*
X47865712Y-67273925D01*
X47872935Y-67246968D01*
X47909886Y-67186346D01*
X47973747Y-67155324D01*
X48044242Y-67163753D01*
X48098988Y-67208957D01*
X48116348Y-67246967D01*
X48135714Y-67319243D01*
X48138036Y-67324224D01*
X48138037Y-67324225D01*
X48230150Y-67521763D01*
X48230153Y-67521768D01*
X48232476Y-67526750D01*
X48235632Y-67531257D01*
X48235633Y-67531259D01*
X48335793Y-67674302D01*
X48363801Y-67714302D01*
X48525698Y-67876199D01*
X48530206Y-67879356D01*
X48530209Y-67879358D01*
X48708741Y-68004367D01*
X48713250Y-68007524D01*
X48718232Y-68009847D01*
X48718237Y-68009850D01*
X48837020Y-68065239D01*
X48920757Y-68104286D01*
X48926065Y-68105708D01*
X48926067Y-68105709D01*
X49136598Y-68162121D01*
X49136600Y-68162121D01*
X49141913Y-68163545D01*
X49370000Y-68183500D01*
X49598087Y-68163545D01*
X49603400Y-68162121D01*
X49603402Y-68162121D01*
X49813933Y-68105709D01*
X49813935Y-68105708D01*
X49819243Y-68104286D01*
X49902980Y-68065239D01*
X50021763Y-68009850D01*
X50021768Y-68009847D01*
X50026750Y-68007524D01*
X50031259Y-68004367D01*
X50209791Y-67879358D01*
X50209794Y-67879356D01*
X50214302Y-67876199D01*
X50376199Y-67714302D01*
X50404208Y-67674302D01*
X50504367Y-67531259D01*
X50504368Y-67531257D01*
X50507524Y-67526750D01*
X50509847Y-67521768D01*
X50509850Y-67521763D01*
X50601963Y-67324225D01*
X50601964Y-67324224D01*
X50604286Y-67319243D01*
X50663545Y-67098087D01*
X50683500Y-66870000D01*
X55676500Y-66870000D01*
X55696455Y-67098087D01*
X55755714Y-67319243D01*
X55758036Y-67324224D01*
X55758037Y-67324225D01*
X55850150Y-67521763D01*
X55850153Y-67521768D01*
X55852476Y-67526750D01*
X55855632Y-67531257D01*
X55855633Y-67531259D01*
X55955793Y-67674302D01*
X55983801Y-67714302D01*
X56145698Y-67876199D01*
X56150206Y-67879356D01*
X56150209Y-67879358D01*
X56328741Y-68004367D01*
X56333250Y-68007524D01*
X56338232Y-68009847D01*
X56338237Y-68009850D01*
X56457020Y-68065239D01*
X56540757Y-68104286D01*
X56546065Y-68105708D01*
X56546067Y-68105709D01*
X56756598Y-68162121D01*
X56756600Y-68162121D01*
X56761913Y-68163545D01*
X56990000Y-68183500D01*
X57218087Y-68163545D01*
X57223400Y-68162121D01*
X57223402Y-68162121D01*
X57433933Y-68105709D01*
X57433935Y-68105708D01*
X57439243Y-68104286D01*
X57522980Y-68065239D01*
X57641763Y-68009850D01*
X57641768Y-68009847D01*
X57646750Y-68007524D01*
X57651259Y-68004367D01*
X57829791Y-67879358D01*
X57829794Y-67879356D01*
X57834302Y-67876199D01*
X57996199Y-67714302D01*
X58024208Y-67674302D01*
X58124367Y-67531259D01*
X58124368Y-67531257D01*
X58127524Y-67526750D01*
X58129847Y-67521768D01*
X58129850Y-67521763D01*
X58197790Y-67376064D01*
X64478490Y-67376064D01*
X64487784Y-67388078D01*
X64538992Y-67423934D01*
X64548487Y-67429417D01*
X64745943Y-67521491D01*
X64756239Y-67525239D01*
X64966690Y-67581630D01*
X64977477Y-67583532D01*
X65194525Y-67602521D01*
X65205475Y-67602521D01*
X65422523Y-67583532D01*
X65433310Y-67581630D01*
X65643761Y-67525239D01*
X65654057Y-67521491D01*
X65851513Y-67429417D01*
X65861008Y-67423934D01*
X65913050Y-67387494D01*
X65921426Y-67377015D01*
X65914359Y-67363570D01*
X65212811Y-66662021D01*
X65198868Y-66654408D01*
X65197034Y-66654539D01*
X65190420Y-66658790D01*
X64484917Y-67364294D01*
X64478490Y-67376064D01*
X58197790Y-67376064D01*
X58221963Y-67324225D01*
X58221964Y-67324224D01*
X58224286Y-67319243D01*
X58283545Y-67098087D01*
X58303500Y-66870000D01*
X58283545Y-66641913D01*
X58250366Y-66518087D01*
X58225709Y-66426067D01*
X58225708Y-66426065D01*
X58224286Y-66420757D01*
X58204951Y-66379293D01*
X58195808Y-66319097D01*
X58166167Y-66293412D01*
X58157970Y-66278542D01*
X58129850Y-66218237D01*
X58129847Y-66218232D01*
X58127524Y-66213250D01*
X58096359Y-66168741D01*
X57999358Y-66030209D01*
X57999356Y-66030206D01*
X57996199Y-66025698D01*
X57834302Y-65863801D01*
X57829794Y-65860644D01*
X57829791Y-65860642D01*
X57651259Y-65735633D01*
X57651257Y-65735632D01*
X57646750Y-65732476D01*
X57641768Y-65730153D01*
X57641763Y-65730150D01*
X57444225Y-65638037D01*
X57444224Y-65638036D01*
X57439243Y-65635714D01*
X57433935Y-65634292D01*
X57433933Y-65634291D01*
X57223402Y-65577879D01*
X57223400Y-65577879D01*
X57218087Y-65576455D01*
X56990000Y-65556500D01*
X56761913Y-65576455D01*
X56756600Y-65577879D01*
X56756598Y-65577879D01*
X56546067Y-65634291D01*
X56546065Y-65634292D01*
X56540757Y-65635714D01*
X56535776Y-65638036D01*
X56535775Y-65638037D01*
X56338237Y-65730150D01*
X56338232Y-65730153D01*
X56333250Y-65732476D01*
X56328743Y-65735632D01*
X56328741Y-65735633D01*
X56150209Y-65860642D01*
X56150206Y-65860644D01*
X56145698Y-65863801D01*
X55983801Y-66025698D01*
X55980644Y-66030206D01*
X55980642Y-66030209D01*
X55883641Y-66168741D01*
X55852476Y-66213250D01*
X55850153Y-66218232D01*
X55850150Y-66218237D01*
X55771890Y-66386067D01*
X55755714Y-66420757D01*
X55754292Y-66426065D01*
X55754291Y-66426067D01*
X55729634Y-66518087D01*
X55696455Y-66641913D01*
X55676500Y-66870000D01*
X50683500Y-66870000D01*
X50663545Y-66641913D01*
X50630366Y-66518087D01*
X50605709Y-66426067D01*
X50605708Y-66426065D01*
X50604286Y-66420757D01*
X50588110Y-66386067D01*
X50509850Y-66218237D01*
X50509847Y-66218232D01*
X50507524Y-66213250D01*
X50476359Y-66168741D01*
X50379358Y-66030209D01*
X50379356Y-66030206D01*
X50376199Y-66025698D01*
X50214302Y-65863801D01*
X50209794Y-65860644D01*
X50209791Y-65860642D01*
X50031259Y-65735633D01*
X50031257Y-65735632D01*
X50026750Y-65732476D01*
X50021768Y-65730153D01*
X50021763Y-65730150D01*
X49851370Y-65650695D01*
X49798085Y-65603778D01*
X49778624Y-65535500D01*
X49799166Y-65467541D01*
X49853189Y-65421475D01*
X49904620Y-65410500D01*
X52070000Y-65410500D01*
X52143079Y-65405273D01*
X52238218Y-65377338D01*
X52274670Y-65366635D01*
X52274672Y-65366634D01*
X52283316Y-65364096D01*
X52347788Y-65322662D01*
X52398691Y-65289949D01*
X52398694Y-65289947D01*
X52406271Y-65285077D01*
X52424429Y-65264122D01*
X52496082Y-65181431D01*
X52496084Y-65181428D01*
X52501984Y-65174619D01*
X52555010Y-65058509D01*
X52558958Y-65049864D01*
X52558958Y-65049863D01*
X52562700Y-65041670D01*
X52563982Y-65032754D01*
X52582861Y-64901448D01*
X52582862Y-64901441D01*
X52583500Y-64897000D01*
X52583500Y-62357000D01*
X52578273Y-62283921D01*
X52549348Y-62185412D01*
X52539635Y-62152330D01*
X52539634Y-62152328D01*
X52537096Y-62143684D01*
X52489536Y-62069679D01*
X52462949Y-62028309D01*
X52462947Y-62028306D01*
X52458077Y-62020729D01*
X52347619Y-61925016D01*
X52348495Y-61924005D01*
X52308061Y-61877339D01*
X52297959Y-61807065D01*
X52327454Y-61742485D01*
X52387181Y-61704103D01*
X52422676Y-61699000D01*
X52576469Y-61699000D01*
X52644590Y-61719002D01*
X52679682Y-61752730D01*
X52743801Y-61844302D01*
X52905698Y-62006199D01*
X52910206Y-62009356D01*
X52910209Y-62009358D01*
X53088741Y-62134367D01*
X53093250Y-62137524D01*
X53098232Y-62139847D01*
X53098237Y-62139850D01*
X53293047Y-62230691D01*
X53300757Y-62234286D01*
X53306065Y-62235708D01*
X53306067Y-62235709D01*
X53516598Y-62292121D01*
X53516600Y-62292121D01*
X53521913Y-62293545D01*
X53750000Y-62313500D01*
X53978087Y-62293545D01*
X53983400Y-62292121D01*
X53983402Y-62292121D01*
X54193933Y-62235709D01*
X54193935Y-62235708D01*
X54199243Y-62234286D01*
X54206953Y-62230691D01*
X54401763Y-62139850D01*
X54401768Y-62139847D01*
X54406750Y-62137524D01*
X54411259Y-62134367D01*
X54589791Y-62009358D01*
X54589794Y-62009356D01*
X54594302Y-62006199D01*
X54756199Y-61844302D01*
X54759359Y-61839790D01*
X54884367Y-61661259D01*
X54884368Y-61661257D01*
X54887524Y-61656750D01*
X54904829Y-61619639D01*
X54951746Y-61566354D01*
X55020023Y-61546893D01*
X55087983Y-61567435D01*
X55096770Y-61573735D01*
X55133042Y-61602176D01*
X55139967Y-61605303D01*
X55143015Y-61607149D01*
X55155680Y-61614373D01*
X55158836Y-61616065D01*
X55165058Y-61620438D01*
X55172140Y-61623199D01*
X55223750Y-61643321D01*
X55229815Y-61645870D01*
X55287208Y-61671784D01*
X55294684Y-61673169D01*
X55298129Y-61674249D01*
X55312122Y-61678236D01*
X55315579Y-61679123D01*
X55322656Y-61681883D01*
X55371895Y-61688365D01*
X55385115Y-61690106D01*
X55391629Y-61691138D01*
X55435178Y-61699209D01*
X55453529Y-61702610D01*
X55461109Y-61702173D01*
X55461110Y-61702173D01*
X55512513Y-61699209D01*
X55519766Y-61699000D01*
X57576469Y-61699000D01*
X57644590Y-61719002D01*
X57679682Y-61752730D01*
X57743801Y-61844302D01*
X57905698Y-62006199D01*
X57910206Y-62009356D01*
X57910209Y-62009358D01*
X58088741Y-62134367D01*
X58093250Y-62137524D01*
X58098232Y-62139847D01*
X58098237Y-62139850D01*
X58293047Y-62230691D01*
X58300757Y-62234286D01*
X58306065Y-62235708D01*
X58306067Y-62235709D01*
X58516598Y-62292121D01*
X58516600Y-62292121D01*
X58521913Y-62293545D01*
X58750000Y-62313500D01*
X58755475Y-62313021D01*
X58755476Y-62313021D01*
X58924289Y-62298252D01*
X58993893Y-62312241D01*
X59044886Y-62361641D01*
X59061076Y-62430767D01*
X59048658Y-62474971D01*
X59049563Y-62475324D01*
X59026687Y-62533999D01*
X59024135Y-62540070D01*
X58998216Y-62597476D01*
X58996832Y-62604942D01*
X58995746Y-62608409D01*
X58991769Y-62622370D01*
X58990876Y-62625850D01*
X58988118Y-62632922D01*
X58987127Y-62640450D01*
X58979898Y-62695362D01*
X58978867Y-62701869D01*
X58967390Y-62763796D01*
X58967827Y-62771376D01*
X58967827Y-62771377D01*
X58970792Y-62822797D01*
X58971001Y-62830050D01*
X58971001Y-63771966D01*
X58950999Y-63840087D01*
X58897343Y-63886580D01*
X58853990Y-63897645D01*
X58807240Y-63900989D01*
X58796921Y-63901727D01*
X58743884Y-63917300D01*
X58665330Y-63940365D01*
X58665328Y-63940366D01*
X58656684Y-63942904D01*
X58649105Y-63947775D01*
X58541309Y-64017051D01*
X58541306Y-64017053D01*
X58533729Y-64021923D01*
X58527828Y-64028733D01*
X58443918Y-64125569D01*
X58443916Y-64125572D01*
X58438016Y-64132381D01*
X58434272Y-64140579D01*
X58392298Y-64232490D01*
X58377300Y-64265330D01*
X58376018Y-64274245D01*
X58376018Y-64274246D01*
X58357139Y-64405552D01*
X58357138Y-64405559D01*
X58356500Y-64410000D01*
X58356500Y-66010000D01*
X58361727Y-66083079D01*
X58363631Y-66089562D01*
X58393061Y-66189794D01*
X58393061Y-66229736D01*
X58413713Y-66242778D01*
X58425144Y-66257922D01*
X58477051Y-66338691D01*
X58477053Y-66338694D01*
X58481923Y-66346271D01*
X58488733Y-66352172D01*
X58585569Y-66436082D01*
X58585572Y-66436084D01*
X58592381Y-66441984D01*
X58600579Y-66445728D01*
X58616573Y-66453032D01*
X58725330Y-66502700D01*
X58734245Y-66503982D01*
X58734246Y-66503982D01*
X58865552Y-66522861D01*
X58865559Y-66522862D01*
X58870000Y-66523500D01*
X60470000Y-66523500D01*
X60543079Y-66518273D01*
X60635817Y-66491043D01*
X60674670Y-66479635D01*
X60674672Y-66479634D01*
X60683316Y-66477096D01*
X60762706Y-66426075D01*
X60798691Y-66402949D01*
X60798694Y-66402947D01*
X60806271Y-66398077D01*
X60846048Y-66352172D01*
X60894666Y-66296064D01*
X61448490Y-66296064D01*
X61457784Y-66308078D01*
X61508992Y-66343934D01*
X61518487Y-66349417D01*
X61715943Y-66441491D01*
X61726239Y-66445239D01*
X61936690Y-66501630D01*
X61947477Y-66503532D01*
X62164525Y-66522521D01*
X62175475Y-66522521D01*
X62392523Y-66503532D01*
X62403310Y-66501630D01*
X62613761Y-66445239D01*
X62624057Y-66441491D01*
X62821513Y-66349417D01*
X62831008Y-66343934D01*
X62883050Y-66307494D01*
X62891426Y-66297015D01*
X62884861Y-66284525D01*
X63887479Y-66284525D01*
X63887479Y-66295475D01*
X63906468Y-66512523D01*
X63908370Y-66523310D01*
X63964761Y-66733761D01*
X63968509Y-66744057D01*
X64060583Y-66941513D01*
X64066066Y-66951008D01*
X64102506Y-67003050D01*
X64112985Y-67011426D01*
X64126430Y-67004359D01*
X64827979Y-66302811D01*
X64834355Y-66291132D01*
X65564408Y-66291132D01*
X65564539Y-66292966D01*
X65568790Y-66299580D01*
X66274294Y-67005083D01*
X66286064Y-67011510D01*
X66298078Y-67002216D01*
X66333934Y-66951008D01*
X66339417Y-66941513D01*
X66431491Y-66744057D01*
X66435239Y-66733761D01*
X66491630Y-66523310D01*
X66493532Y-66512523D01*
X66512521Y-66295475D01*
X66512521Y-66284525D01*
X66493532Y-66067477D01*
X66491630Y-66056690D01*
X66435239Y-65846239D01*
X66431491Y-65835943D01*
X66339417Y-65638487D01*
X66333934Y-65628992D01*
X66297494Y-65576950D01*
X66287015Y-65568574D01*
X66273570Y-65575641D01*
X65572021Y-66277189D01*
X65564408Y-66291132D01*
X64834355Y-66291132D01*
X64835592Y-66288868D01*
X64835461Y-66287034D01*
X64831210Y-66280420D01*
X64125706Y-65574917D01*
X64113936Y-65568490D01*
X64101922Y-65577784D01*
X64066066Y-65628992D01*
X64060583Y-65638487D01*
X63968509Y-65835943D01*
X63964761Y-65846239D01*
X63908370Y-66056690D01*
X63906468Y-66067477D01*
X63887479Y-66284525D01*
X62884861Y-66284525D01*
X62884359Y-66283570D01*
X62182811Y-65582021D01*
X62168868Y-65574408D01*
X62167034Y-65574539D01*
X62160420Y-65578790D01*
X61454917Y-66284294D01*
X61448490Y-66296064D01*
X60894666Y-66296064D01*
X60896082Y-66294431D01*
X60896084Y-66294428D01*
X60901984Y-66287619D01*
X60962700Y-66154670D01*
X60978666Y-66043622D01*
X61008159Y-65979041D01*
X61048602Y-65953050D01*
X61047139Y-65950267D01*
X61096430Y-65924359D01*
X61797979Y-65222811D01*
X61804355Y-65211132D01*
X62534408Y-65211132D01*
X62534539Y-65212966D01*
X62538790Y-65219580D01*
X63244294Y-65925083D01*
X63256064Y-65931510D01*
X63268078Y-65922216D01*
X63303934Y-65871008D01*
X63309417Y-65861513D01*
X63401491Y-65664057D01*
X63405239Y-65653761D01*
X63461630Y-65443310D01*
X63463532Y-65432523D01*
X63482521Y-65215475D01*
X63482521Y-65204525D01*
X63482387Y-65202985D01*
X64478574Y-65202985D01*
X64485641Y-65216430D01*
X65187189Y-65917979D01*
X65201132Y-65925592D01*
X65202966Y-65925461D01*
X65209580Y-65921210D01*
X65915083Y-65215706D01*
X65921510Y-65203936D01*
X65912216Y-65191922D01*
X65861008Y-65156066D01*
X65851513Y-65150583D01*
X65654057Y-65058509D01*
X65643761Y-65054761D01*
X65433310Y-64998370D01*
X65422523Y-64996468D01*
X65205475Y-64977479D01*
X65194525Y-64977479D01*
X64977477Y-64996468D01*
X64966690Y-64998370D01*
X64756239Y-65054761D01*
X64745943Y-65058509D01*
X64548487Y-65150583D01*
X64538992Y-65156066D01*
X64486950Y-65192506D01*
X64478574Y-65202985D01*
X63482387Y-65202985D01*
X63463532Y-64987477D01*
X63461630Y-64976690D01*
X63405239Y-64766239D01*
X63401491Y-64755943D01*
X63309417Y-64558487D01*
X63303934Y-64548992D01*
X63267494Y-64496950D01*
X63257015Y-64488574D01*
X63243570Y-64495641D01*
X62542021Y-65197189D01*
X62534408Y-65211132D01*
X61804355Y-65211132D01*
X61805592Y-65208868D01*
X61805461Y-65207034D01*
X61801210Y-65200420D01*
X61095706Y-64494917D01*
X61052379Y-64471259D01*
X61045818Y-64469832D01*
X60995610Y-64419636D01*
X60980512Y-64368227D01*
X60980271Y-64364850D01*
X60978273Y-64336921D01*
X60947610Y-64232490D01*
X60939635Y-64205330D01*
X60939634Y-64205328D01*
X60937096Y-64196684D01*
X60891393Y-64125569D01*
X60889733Y-64122985D01*
X61448574Y-64122985D01*
X61455641Y-64136430D01*
X62157189Y-64837979D01*
X62171132Y-64845592D01*
X62172966Y-64845461D01*
X62179580Y-64841210D01*
X62885083Y-64135706D01*
X62891510Y-64123936D01*
X62882216Y-64111922D01*
X62831008Y-64076066D01*
X62821513Y-64070583D01*
X62624057Y-63978509D01*
X62613761Y-63974761D01*
X62403310Y-63918370D01*
X62392523Y-63916468D01*
X62175475Y-63897479D01*
X62164525Y-63897479D01*
X61947477Y-63916468D01*
X61936690Y-63918370D01*
X61726239Y-63974761D01*
X61715943Y-63978509D01*
X61518487Y-64070583D01*
X61508992Y-64076066D01*
X61456950Y-64112506D01*
X61448574Y-64122985D01*
X60889733Y-64122985D01*
X60862949Y-64081309D01*
X60862947Y-64081306D01*
X60858077Y-64073729D01*
X60847762Y-64064791D01*
X60754431Y-63983918D01*
X60754428Y-63983916D01*
X60747619Y-63978016D01*
X60614670Y-63917300D01*
X60605755Y-63916018D01*
X60605754Y-63916018D01*
X60477068Y-63897516D01*
X60412488Y-63868022D01*
X60374104Y-63808296D01*
X60369000Y-63772798D01*
X60369000Y-63149725D01*
X60389002Y-63081604D01*
X60405905Y-63060630D01*
X61014130Y-62452405D01*
X61076442Y-62418379D01*
X61103225Y-62415500D01*
X61426000Y-62415500D01*
X61499079Y-62410273D01*
X61599803Y-62380698D01*
X61630670Y-62371635D01*
X61630672Y-62371634D01*
X61639316Y-62369096D01*
X61703135Y-62328082D01*
X61754691Y-62294949D01*
X61754694Y-62294947D01*
X61762271Y-62290077D01*
X61802048Y-62244172D01*
X61852082Y-62186431D01*
X61852084Y-62186428D01*
X61857984Y-62179619D01*
X61862758Y-62169166D01*
X61864381Y-62167293D01*
X61866600Y-62163840D01*
X61867096Y-62164159D01*
X61909250Y-62115510D01*
X61977370Y-62095507D01*
X62045491Y-62115508D01*
X62083370Y-62153386D01*
X62133051Y-62230691D01*
X62133053Y-62230694D01*
X62137923Y-62238271D01*
X62144733Y-62244172D01*
X62241569Y-62328082D01*
X62241572Y-62328084D01*
X62248381Y-62333984D01*
X62256579Y-62337728D01*
X62360548Y-62385209D01*
X62381330Y-62394700D01*
X62390245Y-62395982D01*
X62390246Y-62395982D01*
X62521552Y-62414861D01*
X62521559Y-62414862D01*
X62526000Y-62415500D01*
X63326000Y-62415500D01*
X63399079Y-62410273D01*
X63499803Y-62380698D01*
X63530670Y-62371635D01*
X63530672Y-62371634D01*
X63539316Y-62369096D01*
X63603135Y-62328082D01*
X63654691Y-62294949D01*
X63654694Y-62294947D01*
X63662271Y-62290077D01*
X63702048Y-62244172D01*
X63745101Y-62194487D01*
X63804827Y-62156104D01*
X63840325Y-62151000D01*
X64119309Y-62151000D01*
X64187430Y-62171002D01*
X64233923Y-62224658D01*
X64244027Y-62294932D01*
X64214533Y-62359512D01*
X64208404Y-62366095D01*
X64193801Y-62380698D01*
X64190644Y-62385206D01*
X64190642Y-62385209D01*
X64084304Y-62537076D01*
X64062476Y-62568250D01*
X64060153Y-62573232D01*
X64060150Y-62573237D01*
X64001677Y-62698634D01*
X63965714Y-62775757D01*
X63964292Y-62781065D01*
X63964291Y-62781067D01*
X63930656Y-62906593D01*
X63906455Y-62996913D01*
X63886500Y-63225000D01*
X63906455Y-63453087D01*
X63965714Y-63674243D01*
X63968036Y-63679224D01*
X63968037Y-63679225D01*
X64060150Y-63876763D01*
X64060153Y-63876768D01*
X64062476Y-63881750D01*
X64065632Y-63886257D01*
X64065633Y-63886259D01*
X64157215Y-64017051D01*
X64193801Y-64069302D01*
X64355698Y-64231199D01*
X64360206Y-64234356D01*
X64360209Y-64234358D01*
X64538741Y-64359367D01*
X64543250Y-64362524D01*
X64548232Y-64364847D01*
X64548237Y-64364850D01*
X64654704Y-64414496D01*
X64750757Y-64459286D01*
X64756065Y-64460708D01*
X64756067Y-64460709D01*
X64966598Y-64517121D01*
X64966600Y-64517121D01*
X64971913Y-64518545D01*
X65200000Y-64538500D01*
X65428087Y-64518545D01*
X65554974Y-64484545D01*
X65625948Y-64486234D01*
X65676679Y-64517156D01*
X71354948Y-70195425D01*
X71360802Y-70201691D01*
X71391995Y-70237449D01*
X71391998Y-70237452D01*
X71396990Y-70243174D01*
X71403205Y-70247542D01*
X71403206Y-70247543D01*
X71448520Y-70279391D01*
X71453805Y-70283316D01*
X71503366Y-70322177D01*
X71510289Y-70325303D01*
X71513341Y-70327151D01*
X71526016Y-70334380D01*
X71529165Y-70336068D01*
X71535382Y-70340438D01*
X71557966Y-70349243D01*
X71594059Y-70363315D01*
X71600140Y-70365871D01*
X71650610Y-70388659D01*
X71650616Y-70388661D01*
X71657533Y-70391784D01*
X71665000Y-70393168D01*
X71668415Y-70394238D01*
X71682487Y-70398247D01*
X71685905Y-70399125D01*
X71692980Y-70401883D01*
X71721983Y-70405701D01*
X71755440Y-70410106D01*
X71761954Y-70411138D01*
X71816385Y-70421226D01*
X71816386Y-70421226D01*
X71823853Y-70422610D01*
X71831433Y-70422173D01*
X71831434Y-70422173D01*
X71882837Y-70419209D01*
X71890090Y-70419000D01*
X72305300Y-70419000D01*
X72373421Y-70439002D01*
X72419914Y-70492658D01*
X72431300Y-70545000D01*
X72431300Y-70685200D01*
X72436527Y-70758279D01*
X72456688Y-70826940D01*
X72463606Y-70850502D01*
X72463606Y-70921498D01*
X72425222Y-70981225D01*
X72360642Y-71010718D01*
X72342710Y-71012000D01*
X58072691Y-71012000D01*
X58004570Y-70991998D01*
X57958077Y-70938342D01*
X57947973Y-70868068D01*
X57977467Y-70803488D01*
X57983596Y-70796905D01*
X58006199Y-70774302D01*
X58017419Y-70758279D01*
X58134367Y-70591259D01*
X58134368Y-70591257D01*
X58137524Y-70586750D01*
X58139847Y-70581768D01*
X58139850Y-70581763D01*
X58231963Y-70384225D01*
X58231964Y-70384224D01*
X58234286Y-70379243D01*
X58243748Y-70343933D01*
X58292121Y-70163402D01*
X58292121Y-70163400D01*
X58293545Y-70158087D01*
X58313500Y-69930000D01*
X58293545Y-69701913D01*
X58285537Y-69672028D01*
X58235709Y-69486067D01*
X58235708Y-69486065D01*
X58234286Y-69480757D01*
X58222773Y-69456067D01*
X58139850Y-69278237D01*
X58139847Y-69278232D01*
X58137524Y-69273250D01*
X58113351Y-69238727D01*
X58009358Y-69090209D01*
X58009356Y-69090206D01*
X58006199Y-69085698D01*
X57844302Y-68923801D01*
X57839794Y-68920644D01*
X57839791Y-68920642D01*
X57661259Y-68795633D01*
X57661257Y-68795632D01*
X57656750Y-68792476D01*
X57651768Y-68790153D01*
X57651763Y-68790150D01*
X57454225Y-68698037D01*
X57454224Y-68698036D01*
X57449243Y-68695714D01*
X57443935Y-68694292D01*
X57443933Y-68694291D01*
X57233402Y-68637879D01*
X57233400Y-68637879D01*
X57228087Y-68636455D01*
X57000000Y-68616500D01*
X56771913Y-68636455D01*
X56766600Y-68637879D01*
X56766598Y-68637879D01*
X56556067Y-68694291D01*
X56556065Y-68694292D01*
X56550757Y-68695714D01*
X56545776Y-68698036D01*
X56545775Y-68698037D01*
X56348237Y-68790150D01*
X56348232Y-68790153D01*
X56343250Y-68792476D01*
X56338743Y-68795632D01*
X56338741Y-68795633D01*
X56160209Y-68920642D01*
X56160206Y-68920644D01*
X56155698Y-68923801D01*
X55993801Y-69085698D01*
X55990644Y-69090206D01*
X55990642Y-69090209D01*
X55886649Y-69238727D01*
X55862476Y-69273250D01*
X55860153Y-69278232D01*
X55860150Y-69278237D01*
X55777227Y-69456067D01*
X55765714Y-69480757D01*
X55764292Y-69486065D01*
X55764291Y-69486067D01*
X55714463Y-69672028D01*
X55706455Y-69701913D01*
X55686500Y-69930000D01*
X55706455Y-70158087D01*
X55707879Y-70163400D01*
X55707879Y-70163402D01*
X55756253Y-70343933D01*
X55765714Y-70379243D01*
X55768036Y-70384224D01*
X55768037Y-70384225D01*
X55860150Y-70581763D01*
X55860153Y-70581768D01*
X55862476Y-70586750D01*
X55865632Y-70591257D01*
X55865633Y-70591259D01*
X55982582Y-70758279D01*
X55993801Y-70774302D01*
X56016404Y-70796905D01*
X56050430Y-70859217D01*
X56045365Y-70930032D01*
X56002818Y-70986868D01*
X55936298Y-71011679D01*
X55927309Y-71012000D01*
X50451986Y-71012000D01*
X50383865Y-70991998D01*
X50337372Y-70938342D01*
X50327268Y-70868068D01*
X50356762Y-70803488D01*
X50362891Y-70796905D01*
X50381919Y-70777877D01*
X50388975Y-70769469D01*
X50513934Y-70591009D01*
X50519417Y-70581513D01*
X50611491Y-70384057D01*
X50615239Y-70373761D01*
X50661398Y-70201497D01*
X50661062Y-70187401D01*
X50653120Y-70184000D01*
X49634002Y-70183999D01*
X49633996Y-70184000D01*
X49252000Y-70183999D01*
X49183879Y-70163997D01*
X49137386Y-70110341D01*
X49126000Y-70057999D01*
X49126000Y-69657885D01*
X49633999Y-69657885D01*
X49638474Y-69673124D01*
X49639864Y-69674329D01*
X49647547Y-69676000D01*
X50647971Y-69676001D01*
X50661502Y-69672028D01*
X50662731Y-69663479D01*
X50615239Y-69486238D01*
X50611493Y-69475946D01*
X50519417Y-69278487D01*
X50513934Y-69268991D01*
X50388975Y-69090531D01*
X50381919Y-69082123D01*
X50227877Y-68928081D01*
X50219469Y-68921025D01*
X50041009Y-68796066D01*
X50031513Y-68790583D01*
X49834057Y-68698509D01*
X49823761Y-68694761D01*
X49651497Y-68648602D01*
X49637401Y-68648938D01*
X49634000Y-68656880D01*
X49633999Y-69657885D01*
X49126000Y-69657885D01*
X49126001Y-68662029D01*
X49122028Y-68648498D01*
X49113479Y-68647269D01*
X48936238Y-68694761D01*
X48925946Y-68698507D01*
X48728487Y-68790583D01*
X48718991Y-68796066D01*
X48540531Y-68921025D01*
X48532123Y-68928081D01*
X48378081Y-69082123D01*
X48371025Y-69090531D01*
X48246066Y-69268991D01*
X48240583Y-69278487D01*
X48148509Y-69475943D01*
X48144757Y-69486250D01*
X48130983Y-69537654D01*
X48094032Y-69598276D01*
X48030171Y-69629298D01*
X47959676Y-69620869D01*
X47904930Y-69575665D01*
X47887570Y-69537654D01*
X47872325Y-69480757D01*
X47864286Y-69450757D01*
X47840944Y-69400699D01*
X47769850Y-69248237D01*
X47769847Y-69248232D01*
X47767524Y-69243250D01*
X47743828Y-69209408D01*
X47639358Y-69060209D01*
X47639356Y-69060206D01*
X47636199Y-69055698D01*
X47474302Y-68893801D01*
X47469794Y-68890644D01*
X47469791Y-68890642D01*
X47291259Y-68765633D01*
X47291257Y-68765632D01*
X47286750Y-68762476D01*
X47281768Y-68760153D01*
X47281763Y-68760150D01*
X47084225Y-68668037D01*
X47084224Y-68668036D01*
X47079243Y-68665714D01*
X47073935Y-68664292D01*
X47073933Y-68664291D01*
X46863402Y-68607879D01*
X46863400Y-68607879D01*
X46858087Y-68606455D01*
X46630000Y-68586500D01*
X46401913Y-68606455D01*
X46396600Y-68607879D01*
X46396598Y-68607879D01*
X46186067Y-68664291D01*
X46186065Y-68664292D01*
X46180757Y-68665714D01*
X46175776Y-68668036D01*
X46175775Y-68668037D01*
X45978237Y-68760150D01*
X45978232Y-68760153D01*
X45973250Y-68762476D01*
X45968743Y-68765632D01*
X45968741Y-68765633D01*
X45790209Y-68890642D01*
X45790206Y-68890644D01*
X45785698Y-68893801D01*
X45623801Y-69055698D01*
X45620644Y-69060206D01*
X45620642Y-69060209D01*
X45516172Y-69209408D01*
X45492476Y-69243250D01*
X45490153Y-69248232D01*
X45490150Y-69248237D01*
X45419056Y-69400699D01*
X45395714Y-69450757D01*
X45394292Y-69456064D01*
X45394291Y-69456067D01*
X45372430Y-69537654D01*
X45336455Y-69671913D01*
X45316500Y-69900000D01*
X45336455Y-70128087D01*
X45337879Y-70133400D01*
X45337879Y-70133402D01*
X45388462Y-70322177D01*
X45395714Y-70349243D01*
X45398036Y-70354224D01*
X45398037Y-70354225D01*
X45490150Y-70551763D01*
X45490153Y-70551768D01*
X45492476Y-70556750D01*
X45495632Y-70561257D01*
X45495633Y-70561259D01*
X45618949Y-70737372D01*
X45623801Y-70744302D01*
X45676404Y-70796905D01*
X45710430Y-70859217D01*
X45705365Y-70930032D01*
X45662818Y-70986868D01*
X45596298Y-71011679D01*
X45587309Y-71012000D01*
X40051986Y-71012000D01*
X39983865Y-70991998D01*
X39937372Y-70938342D01*
X39927268Y-70868068D01*
X39956762Y-70803488D01*
X39962891Y-70796905D01*
X40011919Y-70747877D01*
X40018975Y-70739469D01*
X40143934Y-70561009D01*
X40149417Y-70551513D01*
X40241491Y-70354057D01*
X40245239Y-70343761D01*
X40291398Y-70171497D01*
X40291062Y-70157401D01*
X40283120Y-70154000D01*
X39264002Y-70153999D01*
X39263996Y-70154000D01*
X38882000Y-70153999D01*
X38813879Y-70133997D01*
X38767386Y-70080341D01*
X38756000Y-70027999D01*
X38756000Y-69627885D01*
X39263999Y-69627885D01*
X39268474Y-69643124D01*
X39269864Y-69644329D01*
X39277547Y-69646000D01*
X40277971Y-69646001D01*
X40291502Y-69642028D01*
X40292731Y-69633479D01*
X40245239Y-69456238D01*
X40241493Y-69445946D01*
X40149417Y-69248487D01*
X40143934Y-69238991D01*
X40018975Y-69060531D01*
X40011919Y-69052123D01*
X39857877Y-68898081D01*
X39849469Y-68891025D01*
X39671009Y-68766066D01*
X39661513Y-68760583D01*
X39464057Y-68668509D01*
X39453761Y-68664761D01*
X39281497Y-68618602D01*
X39267401Y-68618938D01*
X39264000Y-68626880D01*
X39263999Y-69627885D01*
X38756000Y-69627885D01*
X38756001Y-68632029D01*
X38752028Y-68618498D01*
X38743479Y-68617269D01*
X38566238Y-68664761D01*
X38555946Y-68668507D01*
X38358487Y-68760583D01*
X38348991Y-68766066D01*
X38170531Y-68891025D01*
X38162123Y-68898081D01*
X38023095Y-69037109D01*
X37960783Y-69071135D01*
X37889968Y-69066070D01*
X37833132Y-69023523D01*
X37808321Y-68957003D01*
X37808000Y-68948014D01*
X37808000Y-67781986D01*
X37828002Y-67713865D01*
X37881658Y-67667372D01*
X37951932Y-67657268D01*
X38016512Y-67686762D01*
X38023095Y-67692891D01*
X38162123Y-67831919D01*
X38170531Y-67838975D01*
X38348991Y-67963934D01*
X38358487Y-67969417D01*
X38555943Y-68061491D01*
X38566239Y-68065239D01*
X38738503Y-68111398D01*
X38752599Y-68111062D01*
X38756000Y-68103120D01*
X38756000Y-68097971D01*
X39263999Y-68097971D01*
X39267972Y-68111502D01*
X39276521Y-68112731D01*
X39453762Y-68065239D01*
X39464054Y-68061493D01*
X39661513Y-67969417D01*
X39671009Y-67963934D01*
X39849469Y-67838975D01*
X39857877Y-67831919D01*
X40011919Y-67677877D01*
X40018975Y-67669469D01*
X40143934Y-67491009D01*
X40149417Y-67481513D01*
X40241491Y-67284057D01*
X40245239Y-67273761D01*
X40291398Y-67101497D01*
X40291062Y-67087401D01*
X40283120Y-67084000D01*
X39282115Y-67083999D01*
X39266876Y-67088474D01*
X39265671Y-67089864D01*
X39264000Y-67097547D01*
X39263999Y-68097971D01*
X38756000Y-68097971D01*
X38756001Y-67084000D01*
X38756000Y-67083996D01*
X38756000Y-66557885D01*
X39263999Y-66557885D01*
X39268474Y-66573124D01*
X39269864Y-66574329D01*
X39277547Y-66576000D01*
X40277971Y-66576001D01*
X40291502Y-66572028D01*
X40292731Y-66563479D01*
X40245239Y-66386238D01*
X40241493Y-66375946D01*
X40149417Y-66178487D01*
X40143934Y-66168991D01*
X40018975Y-65990531D01*
X40011919Y-65982123D01*
X39857877Y-65828081D01*
X39849469Y-65821025D01*
X39671009Y-65696066D01*
X39661513Y-65690583D01*
X39464057Y-65598509D01*
X39453761Y-65594761D01*
X39281497Y-65548602D01*
X39267401Y-65548938D01*
X39264000Y-65556880D01*
X39263999Y-66557885D01*
X38756000Y-66557885D01*
X38756001Y-65562029D01*
X38752028Y-65548498D01*
X38743479Y-65547269D01*
X38566238Y-65594761D01*
X38555946Y-65598507D01*
X38358487Y-65690583D01*
X38348991Y-65696066D01*
X38170531Y-65821025D01*
X38162123Y-65828081D01*
X38023095Y-65967109D01*
X37960783Y-66001135D01*
X37889968Y-65996070D01*
X37833132Y-65953523D01*
X37808321Y-65887003D01*
X37808000Y-65878014D01*
X37808000Y-57565786D01*
X37828002Y-57497665D01*
X37881658Y-57451172D01*
X37951932Y-57441068D01*
X38016512Y-57470562D01*
X38037213Y-57493516D01*
X38160638Y-57669786D01*
X38160642Y-57669791D01*
X38163801Y-57674302D01*
X38325698Y-57836199D01*
X38330206Y-57839356D01*
X38330209Y-57839358D01*
X38505559Y-57962139D01*
X38513250Y-57967524D01*
X38518232Y-57969847D01*
X38518237Y-57969850D01*
X38710034Y-58059286D01*
X38720757Y-58064286D01*
X38726065Y-58065708D01*
X38726067Y-58065709D01*
X38936598Y-58122121D01*
X38936600Y-58122121D01*
X38941913Y-58123545D01*
X39170000Y-58143500D01*
X39398087Y-58123545D01*
X39403400Y-58122121D01*
X39403402Y-58122121D01*
X39613933Y-58065709D01*
X39613935Y-58065708D01*
X39619243Y-58064286D01*
X39629966Y-58059286D01*
X39821763Y-57969850D01*
X39821768Y-57969847D01*
X39826750Y-57967524D01*
X39834441Y-57962139D01*
X40009791Y-57839358D01*
X40009794Y-57839356D01*
X40014302Y-57836199D01*
X40176199Y-57674302D01*
X40179362Y-57669786D01*
X40304367Y-57491259D01*
X40304368Y-57491257D01*
X40307524Y-57486750D01*
X40309847Y-57481768D01*
X40309850Y-57481763D01*
X40401963Y-57284225D01*
X40401964Y-57284224D01*
X40404286Y-57279243D01*
X40412003Y-57250445D01*
X40462121Y-57063402D01*
X40462121Y-57063400D01*
X40463545Y-57058087D01*
X40483500Y-56830000D01*
X40483063Y-56825000D01*
X40936500Y-56825000D01*
X40956455Y-57053087D01*
X40957879Y-57058400D01*
X40957879Y-57058402D01*
X41008607Y-57247718D01*
X41015714Y-57274243D01*
X41018036Y-57279224D01*
X41018037Y-57279225D01*
X41110150Y-57476763D01*
X41110153Y-57476768D01*
X41112476Y-57481750D01*
X41115632Y-57486257D01*
X41115633Y-57486259D01*
X41239315Y-57662895D01*
X41243801Y-57669302D01*
X41405698Y-57831199D01*
X41410206Y-57834356D01*
X41410209Y-57834358D01*
X41588741Y-57959367D01*
X41593250Y-57962524D01*
X41598232Y-57964847D01*
X41598237Y-57964850D01*
X41794137Y-58056199D01*
X41800757Y-58059286D01*
X41806065Y-58060708D01*
X41806067Y-58060709D01*
X42016598Y-58117121D01*
X42016600Y-58117121D01*
X42021913Y-58118545D01*
X42250000Y-58138500D01*
X42478087Y-58118545D01*
X42483400Y-58117121D01*
X42483402Y-58117121D01*
X42693933Y-58060709D01*
X42693935Y-58060708D01*
X42699243Y-58059286D01*
X42705863Y-58056199D01*
X42901763Y-57964850D01*
X42901768Y-57964847D01*
X42906750Y-57962524D01*
X42911259Y-57959367D01*
X43089791Y-57834358D01*
X43089794Y-57834356D01*
X43094302Y-57831199D01*
X43256199Y-57669302D01*
X43260686Y-57662895D01*
X43384367Y-57486259D01*
X43384368Y-57486257D01*
X43387524Y-57481750D01*
X43389847Y-57476768D01*
X43389850Y-57476763D01*
X43481963Y-57279225D01*
X43481964Y-57279224D01*
X43484286Y-57274243D01*
X43491394Y-57247718D01*
X43542121Y-57058402D01*
X43542121Y-57058400D01*
X43543545Y-57053087D01*
X43563500Y-56825000D01*
X43543545Y-56596913D01*
X43542121Y-56591598D01*
X43485709Y-56381067D01*
X43485708Y-56381065D01*
X43484286Y-56375757D01*
X43466293Y-56337170D01*
X43389850Y-56173237D01*
X43389847Y-56173232D01*
X43387524Y-56168250D01*
X43298172Y-56040642D01*
X43259358Y-55985209D01*
X43259356Y-55985206D01*
X43256199Y-55980698D01*
X43094302Y-55818801D01*
X43089794Y-55815644D01*
X43089791Y-55815642D01*
X42911259Y-55690633D01*
X42911257Y-55690632D01*
X42906750Y-55687476D01*
X42901768Y-55685153D01*
X42901763Y-55685150D01*
X42704225Y-55593037D01*
X42704224Y-55593036D01*
X42699243Y-55590714D01*
X42693935Y-55589292D01*
X42693933Y-55589291D01*
X42483402Y-55532879D01*
X42483400Y-55532879D01*
X42478087Y-55531455D01*
X42250000Y-55511500D01*
X42021913Y-55531455D01*
X42016600Y-55532879D01*
X42016598Y-55532879D01*
X41806067Y-55589291D01*
X41806065Y-55589292D01*
X41800757Y-55590714D01*
X41795776Y-55593036D01*
X41795775Y-55593037D01*
X41598237Y-55685150D01*
X41598232Y-55685153D01*
X41593250Y-55687476D01*
X41588743Y-55690632D01*
X41588741Y-55690633D01*
X41410209Y-55815642D01*
X41410206Y-55815644D01*
X41405698Y-55818801D01*
X41243801Y-55980698D01*
X41240644Y-55985206D01*
X41240642Y-55985209D01*
X41201828Y-56040642D01*
X41112476Y-56168250D01*
X41110153Y-56173232D01*
X41110150Y-56173237D01*
X41033707Y-56337170D01*
X41015714Y-56375757D01*
X41014292Y-56381065D01*
X41014291Y-56381067D01*
X40957879Y-56591598D01*
X40956455Y-56596913D01*
X40936500Y-56825000D01*
X40483063Y-56825000D01*
X40463545Y-56601913D01*
X40448893Y-56547231D01*
X40405709Y-56386067D01*
X40405708Y-56386065D01*
X40404286Y-56380757D01*
X40401963Y-56375775D01*
X40309850Y-56178237D01*
X40309847Y-56178232D01*
X40307524Y-56173250D01*
X40304023Y-56168250D01*
X40179358Y-55990209D01*
X40179356Y-55990206D01*
X40176199Y-55985698D01*
X40014302Y-55823801D01*
X40009794Y-55820644D01*
X40009791Y-55820642D01*
X39831259Y-55695633D01*
X39831257Y-55695632D01*
X39826750Y-55692476D01*
X39821768Y-55690153D01*
X39821763Y-55690150D01*
X39624225Y-55598037D01*
X39624224Y-55598036D01*
X39619243Y-55595714D01*
X39613935Y-55594292D01*
X39613933Y-55594291D01*
X39403402Y-55537879D01*
X39403400Y-55537879D01*
X39398087Y-55536455D01*
X39170000Y-55516500D01*
X38941913Y-55536455D01*
X38936600Y-55537879D01*
X38936598Y-55537879D01*
X38726067Y-55594291D01*
X38726065Y-55594292D01*
X38720757Y-55595714D01*
X38715776Y-55598036D01*
X38715775Y-55598037D01*
X38518237Y-55690150D01*
X38518232Y-55690153D01*
X38513250Y-55692476D01*
X38508743Y-55695632D01*
X38508741Y-55695633D01*
X38330209Y-55820642D01*
X38330206Y-55820644D01*
X38325698Y-55823801D01*
X38163801Y-55985698D01*
X38160643Y-55990208D01*
X38160638Y-55990214D01*
X38037213Y-56166484D01*
X37981756Y-56210813D01*
X37911137Y-56218122D01*
X37847776Y-56186092D01*
X37811791Y-56124890D01*
X37808000Y-56094214D01*
X37808000Y-54950000D01*
X43591500Y-54950000D01*
X43611455Y-55178087D01*
X43612879Y-55183400D01*
X43612879Y-55183402D01*
X43665498Y-55379775D01*
X43670714Y-55399243D01*
X43673036Y-55404224D01*
X43673037Y-55404225D01*
X43765150Y-55601763D01*
X43765153Y-55601768D01*
X43767476Y-55606750D01*
X43770632Y-55611257D01*
X43770633Y-55611259D01*
X43885748Y-55775660D01*
X43898801Y-55794302D01*
X44060698Y-55956199D01*
X44065206Y-55959356D01*
X44065209Y-55959358D01*
X44181295Y-56040642D01*
X44248250Y-56087524D01*
X44253232Y-56089847D01*
X44253237Y-56089850D01*
X44432062Y-56173237D01*
X44455757Y-56184286D01*
X44461065Y-56185708D01*
X44461067Y-56185709D01*
X44671598Y-56242121D01*
X44671600Y-56242121D01*
X44676913Y-56243545D01*
X44905000Y-56263500D01*
X45133087Y-56243545D01*
X45138400Y-56242121D01*
X45138402Y-56242121D01*
X45348933Y-56185709D01*
X45348935Y-56185708D01*
X45354243Y-56184286D01*
X45377938Y-56173237D01*
X45556763Y-56089850D01*
X45556768Y-56089847D01*
X45561750Y-56087524D01*
X45628705Y-56040642D01*
X45744791Y-55959358D01*
X45744794Y-55959356D01*
X45749302Y-55956199D01*
X45911199Y-55794302D01*
X45924253Y-55775660D01*
X46039367Y-55611259D01*
X46039368Y-55611257D01*
X46042524Y-55606750D01*
X46044847Y-55601768D01*
X46044850Y-55601763D01*
X46136963Y-55404225D01*
X46136964Y-55404224D01*
X46139286Y-55399243D01*
X46144503Y-55379775D01*
X46197121Y-55183402D01*
X46197121Y-55183400D01*
X46198545Y-55178087D01*
X46218500Y-54950000D01*
X46198545Y-54721913D01*
X46174386Y-54631750D01*
X46140709Y-54506067D01*
X46140708Y-54506065D01*
X46139286Y-54500757D01*
X46078354Y-54370087D01*
X46044850Y-54298237D01*
X46044847Y-54298232D01*
X46042524Y-54293250D01*
X46010220Y-54247115D01*
X45914358Y-54110209D01*
X45914356Y-54110206D01*
X45911199Y-54105698D01*
X45749302Y-53943801D01*
X45744794Y-53940644D01*
X45744791Y-53940642D01*
X45566259Y-53815633D01*
X45566257Y-53815632D01*
X45561750Y-53812476D01*
X45556768Y-53810153D01*
X45556763Y-53810150D01*
X45359225Y-53718037D01*
X45359224Y-53718036D01*
X45354243Y-53715714D01*
X45348935Y-53714292D01*
X45348933Y-53714291D01*
X45138402Y-53657879D01*
X45138400Y-53657879D01*
X45133087Y-53656455D01*
X44905000Y-53636500D01*
X44676913Y-53656455D01*
X44671600Y-53657879D01*
X44671598Y-53657879D01*
X44461067Y-53714291D01*
X44461065Y-53714292D01*
X44455757Y-53715714D01*
X44450776Y-53718036D01*
X44450775Y-53718037D01*
X44253237Y-53810150D01*
X44253232Y-53810153D01*
X44248250Y-53812476D01*
X44243743Y-53815632D01*
X44243741Y-53815633D01*
X44065209Y-53940642D01*
X44065206Y-53940644D01*
X44060698Y-53943801D01*
X43898801Y-54105698D01*
X43895644Y-54110206D01*
X43895642Y-54110209D01*
X43799780Y-54247115D01*
X43767476Y-54293250D01*
X43765153Y-54298232D01*
X43765150Y-54298237D01*
X43731646Y-54370087D01*
X43670714Y-54500757D01*
X43669292Y-54506065D01*
X43669291Y-54506067D01*
X43635614Y-54631750D01*
X43611455Y-54721913D01*
X43591500Y-54950000D01*
X37808000Y-54950000D01*
X37808000Y-52565786D01*
X37828002Y-52497665D01*
X37881658Y-52451172D01*
X37951932Y-52441068D01*
X38016512Y-52470562D01*
X38037213Y-52493516D01*
X38160638Y-52669786D01*
X38160642Y-52669791D01*
X38163801Y-52674302D01*
X38325698Y-52836199D01*
X38330206Y-52839356D01*
X38330209Y-52839358D01*
X38506109Y-52962524D01*
X38513250Y-52967524D01*
X38518232Y-52969847D01*
X38518237Y-52969850D01*
X38706277Y-53057534D01*
X38720757Y-53064286D01*
X38726065Y-53065708D01*
X38726067Y-53065709D01*
X38936598Y-53122121D01*
X38936600Y-53122121D01*
X38941913Y-53123545D01*
X39170000Y-53143500D01*
X39398087Y-53123545D01*
X39403400Y-53122121D01*
X39403402Y-53122121D01*
X39613933Y-53065709D01*
X39613935Y-53065708D01*
X39619243Y-53064286D01*
X39633723Y-53057534D01*
X39821763Y-52969850D01*
X39821768Y-52969847D01*
X39826750Y-52967524D01*
X39833891Y-52962524D01*
X40009791Y-52839358D01*
X40009794Y-52839356D01*
X40014302Y-52836199D01*
X40176199Y-52674302D01*
X40179362Y-52669786D01*
X40304367Y-52491259D01*
X40304368Y-52491257D01*
X40307524Y-52486750D01*
X40309847Y-52481768D01*
X40309850Y-52481763D01*
X40401963Y-52284225D01*
X40401964Y-52284224D01*
X40404286Y-52279243D01*
X40421589Y-52214670D01*
X40462121Y-52063402D01*
X40462121Y-52063400D01*
X40463545Y-52058087D01*
X40483500Y-51830000D01*
X40483063Y-51825000D01*
X40936500Y-51825000D01*
X40956455Y-52053087D01*
X40957879Y-52058400D01*
X40957879Y-52058402D01*
X41007970Y-52245341D01*
X41015714Y-52274243D01*
X41018036Y-52279224D01*
X41018037Y-52279225D01*
X41110150Y-52476763D01*
X41110153Y-52476768D01*
X41112476Y-52481750D01*
X41115632Y-52486257D01*
X41115633Y-52486259D01*
X41237849Y-52660801D01*
X41243801Y-52669302D01*
X41405698Y-52831199D01*
X41410206Y-52834356D01*
X41410209Y-52834358D01*
X41588741Y-52959367D01*
X41593250Y-52962524D01*
X41598232Y-52964847D01*
X41598237Y-52964850D01*
X41795775Y-53056963D01*
X41800757Y-53059286D01*
X41806065Y-53060708D01*
X41806067Y-53060709D01*
X42016598Y-53117121D01*
X42016600Y-53117121D01*
X42021913Y-53118545D01*
X42250000Y-53138500D01*
X42478087Y-53118545D01*
X42483400Y-53117121D01*
X42483402Y-53117121D01*
X42693933Y-53060709D01*
X42693935Y-53060708D01*
X42699243Y-53059286D01*
X42704225Y-53056963D01*
X42901763Y-52964850D01*
X42901768Y-52964847D01*
X42906750Y-52962524D01*
X42911259Y-52959367D01*
X43089791Y-52834358D01*
X43089794Y-52834356D01*
X43094302Y-52831199D01*
X43256199Y-52669302D01*
X43262152Y-52660801D01*
X43384367Y-52486259D01*
X43384368Y-52486257D01*
X43387524Y-52481750D01*
X43389847Y-52476768D01*
X43389850Y-52476763D01*
X43454976Y-52337098D01*
X43501893Y-52283813D01*
X43570170Y-52264352D01*
X43638130Y-52284894D01*
X43683366Y-52337098D01*
X43760150Y-52501763D01*
X43760153Y-52501768D01*
X43762476Y-52506750D01*
X43765632Y-52511257D01*
X43765633Y-52511259D01*
X43882526Y-52678199D01*
X43893801Y-52694302D01*
X44055698Y-52856199D01*
X44060206Y-52859356D01*
X44060209Y-52859358D01*
X44218009Y-52969850D01*
X44243250Y-52987524D01*
X44248232Y-52989847D01*
X44248237Y-52989850D01*
X44410918Y-53065709D01*
X44450757Y-53084286D01*
X44456065Y-53085708D01*
X44456067Y-53085709D01*
X44666598Y-53142121D01*
X44666600Y-53142121D01*
X44671913Y-53143545D01*
X44900000Y-53163500D01*
X45128087Y-53143545D01*
X45133400Y-53142121D01*
X45133402Y-53142121D01*
X45343933Y-53085709D01*
X45343935Y-53085708D01*
X45349243Y-53084286D01*
X45389082Y-53065709D01*
X45551763Y-52989850D01*
X45551768Y-52989847D01*
X45556750Y-52987524D01*
X45581991Y-52969850D01*
X45739791Y-52859358D01*
X45739794Y-52859356D01*
X45744302Y-52856199D01*
X45906199Y-52694302D01*
X45917475Y-52678199D01*
X46034367Y-52511259D01*
X46034368Y-52511257D01*
X46037524Y-52506750D01*
X46039847Y-52501768D01*
X46039850Y-52501763D01*
X46131963Y-52304225D01*
X46131964Y-52304224D01*
X46134286Y-52299243D01*
X46138421Y-52283813D01*
X46192121Y-52083402D01*
X46192121Y-52083400D01*
X46193545Y-52078087D01*
X46213500Y-51850000D01*
X46193545Y-51621913D01*
X46191524Y-51614369D01*
X46135709Y-51406067D01*
X46135708Y-51406065D01*
X46134286Y-51400757D01*
X46131963Y-51395775D01*
X46039850Y-51198237D01*
X46039847Y-51198232D01*
X46037524Y-51193250D01*
X46020019Y-51168250D01*
X45909358Y-51010209D01*
X45909356Y-51010206D01*
X45906199Y-51005698D01*
X45744302Y-50843801D01*
X45739794Y-50840644D01*
X45739791Y-50840642D01*
X45561259Y-50715633D01*
X45561257Y-50715632D01*
X45556750Y-50712476D01*
X45551768Y-50710153D01*
X45551763Y-50710150D01*
X45354225Y-50618037D01*
X45354224Y-50618036D01*
X45349243Y-50615714D01*
X45343935Y-50614292D01*
X45343933Y-50614291D01*
X45133402Y-50557879D01*
X45133400Y-50557879D01*
X45128087Y-50556455D01*
X44900000Y-50536500D01*
X44671913Y-50556455D01*
X44666600Y-50557879D01*
X44666598Y-50557879D01*
X44456067Y-50614291D01*
X44456065Y-50614292D01*
X44450757Y-50615714D01*
X44445776Y-50618036D01*
X44445775Y-50618037D01*
X44248237Y-50710150D01*
X44248232Y-50710153D01*
X44243250Y-50712476D01*
X44238743Y-50715632D01*
X44238741Y-50715633D01*
X44060209Y-50840642D01*
X44060206Y-50840644D01*
X44055698Y-50843801D01*
X43893801Y-51005698D01*
X43890644Y-51010206D01*
X43890642Y-51010209D01*
X43779981Y-51168250D01*
X43762476Y-51193250D01*
X43760153Y-51198232D01*
X43760150Y-51198237D01*
X43695024Y-51337902D01*
X43648107Y-51391187D01*
X43579830Y-51410648D01*
X43511870Y-51390106D01*
X43466634Y-51337902D01*
X43389850Y-51173237D01*
X43389847Y-51173232D01*
X43387524Y-51168250D01*
X43381801Y-51160077D01*
X43259358Y-50985209D01*
X43259356Y-50985206D01*
X43256199Y-50980698D01*
X43094302Y-50818801D01*
X43089794Y-50815644D01*
X43089791Y-50815642D01*
X42911259Y-50690633D01*
X42911257Y-50690632D01*
X42906750Y-50687476D01*
X42901768Y-50685153D01*
X42901763Y-50685150D01*
X42704225Y-50593037D01*
X42704224Y-50593036D01*
X42699243Y-50590714D01*
X42693935Y-50589292D01*
X42693933Y-50589291D01*
X42483402Y-50532879D01*
X42483400Y-50532879D01*
X42478087Y-50531455D01*
X42250000Y-50511500D01*
X42021913Y-50531455D01*
X42016600Y-50532879D01*
X42016598Y-50532879D01*
X41806067Y-50589291D01*
X41806065Y-50589292D01*
X41800757Y-50590714D01*
X41795776Y-50593036D01*
X41795775Y-50593037D01*
X41598237Y-50685150D01*
X41598232Y-50685153D01*
X41593250Y-50687476D01*
X41588743Y-50690632D01*
X41588741Y-50690633D01*
X41410209Y-50815642D01*
X41410206Y-50815644D01*
X41405698Y-50818801D01*
X41243801Y-50980698D01*
X41240644Y-50985206D01*
X41240642Y-50985209D01*
X41118199Y-51160077D01*
X41112476Y-51168250D01*
X41110153Y-51173232D01*
X41110150Y-51173237D01*
X41072385Y-51254225D01*
X41015714Y-51375757D01*
X41014292Y-51381065D01*
X41014291Y-51381067D01*
X40987863Y-51479696D01*
X40956455Y-51596913D01*
X40936500Y-51825000D01*
X40483063Y-51825000D01*
X40463545Y-51601913D01*
X40425790Y-51461009D01*
X40405709Y-51386067D01*
X40405708Y-51386065D01*
X40404286Y-51380757D01*
X40401963Y-51375775D01*
X40309850Y-51178237D01*
X40309847Y-51178232D01*
X40307524Y-51173250D01*
X40304023Y-51168250D01*
X40179358Y-50990209D01*
X40179356Y-50990206D01*
X40176199Y-50985698D01*
X40014302Y-50823801D01*
X40009794Y-50820644D01*
X40009791Y-50820642D01*
X39831259Y-50695633D01*
X39831257Y-50695632D01*
X39826750Y-50692476D01*
X39821768Y-50690153D01*
X39821763Y-50690150D01*
X39624225Y-50598037D01*
X39624224Y-50598036D01*
X39619243Y-50595714D01*
X39613935Y-50594292D01*
X39613933Y-50594291D01*
X39403402Y-50537879D01*
X39403400Y-50537879D01*
X39398087Y-50536455D01*
X39170000Y-50516500D01*
X38941913Y-50536455D01*
X38936600Y-50537879D01*
X38936598Y-50537879D01*
X38726067Y-50594291D01*
X38726065Y-50594292D01*
X38720757Y-50595714D01*
X38715776Y-50598036D01*
X38715775Y-50598037D01*
X38518237Y-50690150D01*
X38518232Y-50690153D01*
X38513250Y-50692476D01*
X38508743Y-50695632D01*
X38508741Y-50695633D01*
X38330209Y-50820642D01*
X38330206Y-50820644D01*
X38325698Y-50823801D01*
X38163801Y-50985698D01*
X38160643Y-50990208D01*
X38160638Y-50990214D01*
X38037213Y-51166484D01*
X37981756Y-51210813D01*
X37911137Y-51218122D01*
X37847776Y-51186092D01*
X37811791Y-51124890D01*
X37808000Y-51094214D01*
X37808000Y-48656064D01*
X38698490Y-48656064D01*
X38707784Y-48668078D01*
X38758992Y-48703934D01*
X38768487Y-48709417D01*
X38965943Y-48801491D01*
X38976239Y-48805239D01*
X39186690Y-48861630D01*
X39197477Y-48863532D01*
X39414525Y-48882521D01*
X39425475Y-48882521D01*
X39642523Y-48863532D01*
X39653310Y-48861630D01*
X39863761Y-48805239D01*
X39874057Y-48801491D01*
X40071513Y-48709417D01*
X40081008Y-48703934D01*
X40133050Y-48667494D01*
X40141426Y-48657015D01*
X40134359Y-48643570D01*
X39432811Y-47942021D01*
X39418868Y-47934408D01*
X39417034Y-47934539D01*
X39410420Y-47938790D01*
X38704917Y-48644294D01*
X38698490Y-48656064D01*
X37808000Y-48656064D01*
X37808000Y-47564525D01*
X38107479Y-47564525D01*
X38107479Y-47575475D01*
X38126468Y-47792523D01*
X38128370Y-47803310D01*
X38184761Y-48013761D01*
X38188509Y-48024057D01*
X38280583Y-48221513D01*
X38286066Y-48231008D01*
X38322506Y-48283050D01*
X38332985Y-48291426D01*
X38346430Y-48284359D01*
X39047979Y-47582811D01*
X39054355Y-47571132D01*
X39784408Y-47571132D01*
X39784539Y-47572966D01*
X39788790Y-47579580D01*
X40494294Y-48285083D01*
X40537621Y-48308741D01*
X40544182Y-48310168D01*
X40594390Y-48360364D01*
X40609488Y-48411772D01*
X40611727Y-48443079D01*
X40652904Y-48583316D01*
X40657775Y-48590895D01*
X40727051Y-48698691D01*
X40727053Y-48698694D01*
X40731923Y-48706271D01*
X40738733Y-48712172D01*
X40835569Y-48796082D01*
X40835572Y-48796084D01*
X40842381Y-48801984D01*
X40975330Y-48862700D01*
X40984245Y-48863982D01*
X40984246Y-48863982D01*
X41115552Y-48882861D01*
X41115559Y-48882862D01*
X41120000Y-48883500D01*
X42720000Y-48883500D01*
X42793079Y-48878273D01*
X42871165Y-48855345D01*
X42924670Y-48839635D01*
X42924672Y-48839634D01*
X42933316Y-48837096D01*
X42997135Y-48796082D01*
X43048691Y-48762949D01*
X43048694Y-48762947D01*
X43056271Y-48758077D01*
X43062172Y-48751267D01*
X43084932Y-48725000D01*
X43566500Y-48725000D01*
X43586455Y-48953087D01*
X43587879Y-48958400D01*
X43587879Y-48958402D01*
X43638879Y-49148733D01*
X43645714Y-49174243D01*
X43648036Y-49179224D01*
X43648037Y-49179225D01*
X43740150Y-49376763D01*
X43740153Y-49376768D01*
X43742476Y-49381750D01*
X43745632Y-49386257D01*
X43745633Y-49386259D01*
X43870562Y-49564676D01*
X43873801Y-49569302D01*
X44035698Y-49731199D01*
X44040206Y-49734356D01*
X44040209Y-49734358D01*
X44218741Y-49859367D01*
X44223250Y-49862524D01*
X44228232Y-49864847D01*
X44228237Y-49864850D01*
X44425775Y-49956963D01*
X44430757Y-49959286D01*
X44436065Y-49960708D01*
X44436067Y-49960709D01*
X44646598Y-50017121D01*
X44646600Y-50017121D01*
X44651913Y-50018545D01*
X44880000Y-50038500D01*
X45108087Y-50018545D01*
X45113400Y-50017121D01*
X45113402Y-50017121D01*
X45323933Y-49960709D01*
X45323935Y-49960708D01*
X45329243Y-49959286D01*
X45334225Y-49956963D01*
X45531763Y-49864850D01*
X45531768Y-49864847D01*
X45536750Y-49862524D01*
X45541259Y-49859367D01*
X45719791Y-49734358D01*
X45719794Y-49734356D01*
X45724302Y-49731199D01*
X45886199Y-49569302D01*
X45889439Y-49564676D01*
X46014367Y-49386259D01*
X46014368Y-49386257D01*
X46017524Y-49381750D01*
X46019847Y-49376768D01*
X46019850Y-49376763D01*
X46111963Y-49179225D01*
X46111964Y-49179224D01*
X46114286Y-49174243D01*
X46121122Y-49148733D01*
X46172121Y-48958402D01*
X46172121Y-48958400D01*
X46173545Y-48953087D01*
X46193500Y-48725000D01*
X46173545Y-48496913D01*
X46157315Y-48436341D01*
X46115709Y-48281067D01*
X46115708Y-48281065D01*
X46114286Y-48275757D01*
X46098625Y-48242172D01*
X46019850Y-48073237D01*
X46019847Y-48073232D01*
X46017524Y-48068250D01*
X45986580Y-48024057D01*
X45889358Y-47885209D01*
X45889356Y-47885206D01*
X45886199Y-47880698D01*
X45724302Y-47718801D01*
X45719794Y-47715644D01*
X45719791Y-47715642D01*
X45541259Y-47590633D01*
X45541257Y-47590632D01*
X45536750Y-47587476D01*
X45531768Y-47585153D01*
X45531763Y-47585150D01*
X45334225Y-47493037D01*
X45334224Y-47493036D01*
X45329243Y-47490714D01*
X45323935Y-47489292D01*
X45323933Y-47489291D01*
X45113402Y-47432879D01*
X45113400Y-47432879D01*
X45108087Y-47431455D01*
X44880000Y-47411500D01*
X44651913Y-47431455D01*
X44646600Y-47432879D01*
X44646598Y-47432879D01*
X44436067Y-47489291D01*
X44436065Y-47489292D01*
X44430757Y-47490714D01*
X44425776Y-47493036D01*
X44425775Y-47493037D01*
X44228237Y-47585150D01*
X44228232Y-47585153D01*
X44223250Y-47587476D01*
X44218743Y-47590632D01*
X44218741Y-47590633D01*
X44040209Y-47715642D01*
X44040206Y-47715644D01*
X44035698Y-47718801D01*
X43873801Y-47880698D01*
X43870644Y-47885206D01*
X43870642Y-47885209D01*
X43773420Y-48024057D01*
X43742476Y-48068250D01*
X43740153Y-48073232D01*
X43740150Y-48073237D01*
X43661375Y-48242172D01*
X43645714Y-48275757D01*
X43644292Y-48281065D01*
X43644291Y-48281067D01*
X43602685Y-48436341D01*
X43586455Y-48496913D01*
X43566500Y-48725000D01*
X43084932Y-48725000D01*
X43146082Y-48654431D01*
X43146084Y-48654428D01*
X43151984Y-48647619D01*
X43212700Y-48514670D01*
X43227369Y-48412646D01*
X43232861Y-48374448D01*
X43232862Y-48374441D01*
X43233500Y-48370000D01*
X43233500Y-46770000D01*
X43231209Y-46737965D01*
X55490212Y-46737965D01*
X55528304Y-46906993D01*
X55531387Y-46916833D01*
X55618636Y-47131700D01*
X55623279Y-47140891D01*
X55744454Y-47338632D01*
X55750532Y-47346936D01*
X55902374Y-47522227D01*
X55909736Y-47529437D01*
X56088159Y-47677566D01*
X56096606Y-47683481D01*
X56296830Y-47800482D01*
X56306117Y-47804932D01*
X56522769Y-47887663D01*
X56532662Y-47890537D01*
X56668248Y-47918122D01*
X56682300Y-47916927D01*
X56686000Y-47906581D01*
X56686001Y-46742115D01*
X56681526Y-46726876D01*
X56680136Y-46725671D01*
X56672453Y-46724000D01*
X55505180Y-46723999D01*
X55491649Y-46727972D01*
X55490212Y-46737965D01*
X43231209Y-46737965D01*
X43228273Y-46696921D01*
X43187096Y-46556684D01*
X43141393Y-46485569D01*
X43112949Y-46441309D01*
X43112947Y-46441306D01*
X43108077Y-46433729D01*
X43101267Y-46427828D01*
X43004431Y-46343918D01*
X43004428Y-46343916D01*
X42997619Y-46338016D01*
X42915175Y-46300365D01*
X42872864Y-46281042D01*
X42872863Y-46281042D01*
X42864670Y-46277300D01*
X42855755Y-46276018D01*
X42855754Y-46276018D01*
X42724448Y-46257139D01*
X42724441Y-46257138D01*
X42720000Y-46256500D01*
X41120000Y-46256500D01*
X41046921Y-46261727D01*
X40993884Y-46277300D01*
X40915330Y-46300365D01*
X40915328Y-46300366D01*
X40906684Y-46302904D01*
X40899105Y-46307775D01*
X40791309Y-46377051D01*
X40791306Y-46377053D01*
X40783729Y-46381923D01*
X40777828Y-46388733D01*
X40693918Y-46485569D01*
X40693916Y-46485572D01*
X40688016Y-46492381D01*
X40627300Y-46625330D01*
X40626018Y-46634245D01*
X40626018Y-46634246D01*
X40611334Y-46736378D01*
X40581841Y-46800959D01*
X40541398Y-46826950D01*
X40542861Y-46829733D01*
X40493570Y-46855641D01*
X39792021Y-47557189D01*
X39784408Y-47571132D01*
X39054355Y-47571132D01*
X39055592Y-47568868D01*
X39055461Y-47567034D01*
X39051210Y-47560420D01*
X38345706Y-46854917D01*
X38333936Y-46848490D01*
X38321922Y-46857784D01*
X38286066Y-46908992D01*
X38280583Y-46918487D01*
X38188509Y-47115943D01*
X38184761Y-47126239D01*
X38128370Y-47336690D01*
X38126468Y-47347477D01*
X38107479Y-47564525D01*
X37808000Y-47564525D01*
X37808000Y-46482985D01*
X38698574Y-46482985D01*
X38705641Y-46496430D01*
X39407189Y-47197979D01*
X39421132Y-47205592D01*
X39422966Y-47205461D01*
X39429580Y-47201210D01*
X40135083Y-46495706D01*
X40141510Y-46483936D01*
X40132216Y-46471922D01*
X40081008Y-46436066D01*
X40071513Y-46430583D01*
X39874057Y-46338509D01*
X39863761Y-46334761D01*
X39653310Y-46278370D01*
X39642523Y-46276468D01*
X39425475Y-46257479D01*
X39414525Y-46257479D01*
X39197477Y-46276468D01*
X39186690Y-46278370D01*
X38976239Y-46334761D01*
X38965943Y-46338509D01*
X38768487Y-46430583D01*
X38758992Y-46436066D01*
X38706950Y-46472506D01*
X38698574Y-46482985D01*
X37808000Y-46482985D01*
X37808000Y-45534000D01*
X37828002Y-45465879D01*
X37881658Y-45419386D01*
X37934000Y-45408000D01*
X55642614Y-45408000D01*
X55710735Y-45428002D01*
G37*
%TD.AperFunction*%
%TD*%
M02*
