%TF.GenerationSoftware,KiCad,Pcbnew,6.0.0+dfsg1-2*%
%TF.CreationDate,2022-01-11T21:45:23+02:00*%
%TF.ProjectId,gota-de-limon,676f7461-2d64-4652-9d6c-696d6f6e2e6b,rev?*%
%TF.SameCoordinates,Original*%
%TF.FileFunction,Copper,L2,Bot*%
%TF.FilePolarity,Positive*%
%FSLAX46Y46*%
G04 Gerber Fmt 4.6, Leading zero omitted, Abs format (unit mm)*
G04 Created by KiCad (PCBNEW 6.0.0+dfsg1-2) date 2022-01-11 21:45:23*
%MOMM*%
%LPD*%
G01*
G04 APERTURE LIST*
%TA.AperFunction,ComponentPad*%
%ADD10C,1.600000*%
%TD*%
%TA.AperFunction,ComponentPad*%
%ADD11O,1.600000X1.600000*%
%TD*%
%TA.AperFunction,ComponentPad*%
%ADD12R,2.200000X2.200000*%
%TD*%
%TA.AperFunction,ComponentPad*%
%ADD13O,2.200000X2.200000*%
%TD*%
%TA.AperFunction,ComponentPad*%
%ADD14R,1.930400X1.930400*%
%TD*%
%TA.AperFunction,ComponentPad*%
%ADD15O,1.930400X1.930400*%
%TD*%
%TA.AperFunction,ComponentPad*%
%ADD16R,1.600000X1.600000*%
%TD*%
%TA.AperFunction,ComponentPad*%
%ADD17R,2.540000X2.540000*%
%TD*%
%TA.AperFunction,ComponentPad*%
%ADD18O,2.540000X2.540000*%
%TD*%
%TA.AperFunction,ComponentPad*%
%ADD19R,1.800000X1.800000*%
%TD*%
%TA.AperFunction,ComponentPad*%
%ADD20C,1.800000*%
%TD*%
%TA.AperFunction,SMDPad,CuDef*%
%ADD21R,0.800000X0.900000*%
%TD*%
%TA.AperFunction,Conductor*%
%ADD22C,0.381000*%
%TD*%
G04 APERTURE END LIST*
D10*
%TO.P,R2,1*%
%TO.N,VCC*%
X52500000Y-48725000D03*
D11*
%TO.P,R2,2*%
%TO.N,Net-(R2-Pad2)*%
X44880000Y-48725000D03*
%TD*%
D10*
%TO.P,C7,1*%
%TO.N,Net-(C6-Pad2)*%
X39170000Y-51830000D03*
%TO.P,C7,2*%
%TO.N,Net-(C7-Pad2)*%
X39170000Y-56830000D03*
%TD*%
D12*
%TO.P,D2,1,K*%
%TO.N,VCC*%
X55360000Y-58110000D03*
D13*
%TO.P,D2,2,A*%
%TO.N,+9V*%
X55360000Y-50490000D03*
%TD*%
D14*
%TO.P,J3,1,PWR*%
%TO.N,+9V*%
X84680000Y-69720000D03*
D15*
%TO.P,J3,2,GND*%
%TO.N,GND*%
X87220000Y-69720000D03*
%TD*%
D10*
%TO.P,C9,1*%
%TO.N,Net-(C9-Pad1)*%
X42250000Y-56825000D03*
%TO.P,C9,2*%
%TO.N,Net-(C9-Pad2)*%
X42250000Y-51825000D03*
%TD*%
%TO.P,R5,1*%
%TO.N,Net-(R2-Pad2)*%
X44900000Y-51850000D03*
D11*
%TO.P,R5,2*%
%TO.N,Net-(C5-Pad2)*%
X52520000Y-51850000D03*
%TD*%
D10*
%TO.P,C6,1*%
%TO.N,Net-(C5-Pad2)*%
X58750000Y-61000000D03*
%TO.P,C6,2*%
%TO.N,Net-(C6-Pad2)*%
X53750000Y-61000000D03*
%TD*%
D16*
%TO.P,C1,1*%
%TO.N,VCC*%
X41920000Y-47570000D03*
D10*
%TO.P,C1,2*%
%TO.N,GND*%
X39420000Y-47570000D03*
%TD*%
%TO.P,C10,1*%
%TO.N,Net-(C10-Pad1)*%
X70200000Y-66290000D03*
%TO.P,C10,2*%
%TO.N,GND*%
X65200000Y-66290000D03*
%TD*%
D14*
%TO.P,J2,1,PWR*%
%TO.N,+9V*%
X59480000Y-46470000D03*
D15*
%TO.P,J2,2,GND*%
%TO.N,GND*%
X56940000Y-46470000D03*
%TD*%
D16*
%TO.P,C4,1*%
%TO.N,Net-(C4-Pad1)*%
X59670000Y-65210000D03*
D10*
%TO.P,C4,2*%
%TO.N,GND*%
X62170000Y-65210000D03*
%TD*%
D17*
%TO.P,RV2,1,1*%
%TO.N,Net-(R7-Pad1)*%
X50800000Y-63627000D03*
D18*
%TO.P,RV2,2,2*%
%TO.N,Net-(C7-Pad2)*%
X45720000Y-63627000D03*
%TO.P,RV2,3,3*%
%TO.N,Net-(C6-Pad2)*%
X40640000Y-63627000D03*
%TD*%
D17*
%TO.P,RV1,1,1*%
%TO.N,IN*%
X58674000Y-50800000D03*
D18*
%TO.P,RV1,2,2*%
%TO.N,Net-(C3-Pad2)*%
X63754000Y-50800000D03*
%TO.P,RV1,3,3*%
X68834000Y-50800000D03*
%TD*%
D10*
%TO.P,R1,1*%
%TO.N,IN*%
X58674000Y-53975000D03*
D11*
%TO.P,R1,2*%
%TO.N,GND*%
X66294000Y-53975000D03*
%TD*%
D10*
%TO.P,R6,1*%
%TO.N,Net-(C4-Pad1)*%
X57000000Y-69930000D03*
D11*
%TO.P,R6,2*%
%TO.N,GND*%
X49380000Y-69930000D03*
%TD*%
D14*
%TO.P,J1,1,IN*%
%TO.N,IN*%
X73910000Y-69720000D03*
D15*
%TO.P,J1,2,GND*%
%TO.N,GND*%
X76450000Y-69720000D03*
%TO.P,J1,3,SW*%
%TO.N,LED-*%
X78990000Y-69720000D03*
%TO.P,J1,4,OUT*%
%TO.N,OUT*%
X81530000Y-69720000D03*
%TD*%
D10*
%TO.P,R10,1*%
%TO.N,Net-(C8-Pad1)*%
X46630000Y-66830000D03*
D11*
%TO.P,R10,2*%
%TO.N,GND*%
X39010000Y-66830000D03*
%TD*%
D10*
%TO.P,R11,1*%
%TO.N,Net-(C9-Pad2)*%
X49370000Y-66870000D03*
D11*
%TO.P,R11,2*%
%TO.N,Net-(C10-Pad1)*%
X56990000Y-66870000D03*
%TD*%
D10*
%TO.P,C5,1*%
%TO.N,Net-(C2-Pad2)*%
X70200000Y-60150000D03*
%TO.P,C5,2*%
%TO.N,Net-(C5-Pad2)*%
X65200000Y-60150000D03*
%TD*%
%TO.P,R7,1*%
%TO.N,Net-(R7-Pad1)*%
X46630000Y-69900000D03*
D11*
%TO.P,R7,2*%
%TO.N,GND*%
X39010000Y-69900000D03*
%TD*%
D16*
%TO.P,C8,1*%
%TO.N,Net-(C8-Pad1)*%
X45350000Y-59275000D03*
D10*
%TO.P,C8,2*%
%TO.N,GND*%
X47850000Y-59275000D03*
%TD*%
%TO.P,R8,1*%
%TO.N,Net-(D1-Pad2)*%
X67250000Y-47000000D03*
D11*
%TO.P,R8,2*%
%TO.N,+9V*%
X74870000Y-47000000D03*
%TD*%
D10*
%TO.P,R9,1*%
%TO.N,Net-(R2-Pad2)*%
X52525000Y-54950000D03*
D11*
%TO.P,R9,2*%
%TO.N,Net-(C9-Pad1)*%
X44905000Y-54950000D03*
%TD*%
D17*
%TO.P,RV3,1,1*%
%TO.N,GND*%
X86995000Y-63627000D03*
D18*
%TO.P,RV3,2,2*%
%TO.N,OUT*%
X81915000Y-63627000D03*
%TO.P,RV3,3,3*%
%TO.N,Net-(C10-Pad1)*%
X76835000Y-63627000D03*
%TD*%
D10*
%TO.P,R3,1*%
%TO.N,Net-(R2-Pad2)*%
X58670000Y-57050000D03*
D11*
%TO.P,R3,2*%
%TO.N,Net-(C2-Pad2)*%
X66290000Y-57050000D03*
%TD*%
D10*
%TO.P,C2,1*%
%TO.N,IN*%
X65200000Y-63225000D03*
%TO.P,C2,2*%
%TO.N,Net-(C2-Pad2)*%
X70200000Y-63225000D03*
%TD*%
%TO.P,R4,1*%
%TO.N,Net-(C2-Pad2)*%
X71600000Y-50800000D03*
D11*
%TO.P,R4,2*%
%TO.N,GND*%
X79220000Y-50800000D03*
%TD*%
D16*
%TO.P,C3,1*%
%TO.N,Net-(C2-Pad2)*%
X70231000Y-56642000D03*
D10*
%TO.P,C3,2*%
%TO.N,Net-(C3-Pad2)*%
X70231000Y-54142000D03*
%TD*%
D19*
%TO.P,D1,1,K*%
%TO.N,LED-*%
X62500000Y-47000000D03*
D20*
%TO.P,D1,2,A*%
%TO.N,Net-(D1-Pad2)*%
X65040000Y-47000000D03*
%TD*%
D21*
%TO.P,Q1,1,B*%
%TO.N,Net-(C2-Pad2)*%
X62926000Y-61452000D03*
%TO.P,Q1,2,E*%
%TO.N,Net-(C4-Pad1)*%
X61026000Y-61452000D03*
%TO.P,Q1,3,C*%
%TO.N,Net-(C5-Pad2)*%
X61976000Y-59452000D03*
%TD*%
D22*
%TO.N,VCC*%
X55360000Y-52928058D02*
X52500000Y-50068058D01*
X52500000Y-50068058D02*
X52500000Y-48725000D01*
X55360000Y-58110000D02*
X55360000Y-52928058D01*
%TO.N,Net-(C2-Pad2)*%
X65659942Y-61452000D02*
X67020000Y-60091942D01*
X62926000Y-61452000D02*
X65659942Y-61452000D01*
X67020000Y-57780000D02*
X66290000Y-57050000D01*
X67020000Y-60091942D02*
X67020000Y-57780000D01*
%TO.N,IN*%
X73910000Y-69720000D02*
X71868058Y-69720000D01*
X71868058Y-69720000D02*
X65373058Y-63225000D01*
X65373058Y-63225000D02*
X65200000Y-63225000D01*
%TO.N,Net-(C4-Pad1)*%
X59670000Y-65210000D02*
X59670000Y-62808000D01*
X59670000Y-62808000D02*
X61026000Y-61452000D01*
%TO.N,Net-(C5-Pad2)*%
X61976000Y-59452000D02*
X64502000Y-59452000D01*
X52520000Y-51850000D02*
X51334499Y-53035501D01*
X51334499Y-56836765D02*
X55497734Y-61000000D01*
X64502000Y-59452000D02*
X65200000Y-60150000D01*
X55497734Y-61000000D02*
X58750000Y-61000000D01*
X58750000Y-61000000D02*
X60298000Y-59452000D01*
X51334499Y-53035501D02*
X51334499Y-56836765D01*
X60298000Y-59452000D02*
X61976000Y-59452000D01*
%TO.N,Net-(C6-Pad2)*%
X40640000Y-63627000D02*
X43267000Y-61000000D01*
X43267000Y-61000000D02*
X53750000Y-61000000D01*
%TD*%
%TA.AperFunction,Conductor*%
%TO.N,GND*%
G36*
X55710676Y-45428002D02*
G01*
X55757169Y-45481658D01*
X55767273Y-45551932D01*
X55746643Y-45605004D01*
X55657589Y-45735552D01*
X55652491Y-45744526D01*
X55554853Y-45954868D01*
X55551290Y-45964555D01*
X55489319Y-46188015D01*
X55487409Y-46198024D01*
X55490049Y-46212608D01*
X55502429Y-46216000D01*
X57068000Y-46216000D01*
X57136121Y-46236002D01*
X57182614Y-46289658D01*
X57194000Y-46342000D01*
X57194000Y-47904665D01*
X57198064Y-47918507D01*
X57211478Y-47920541D01*
X57242216Y-47916603D01*
X57252297Y-47914460D01*
X57474426Y-47847818D01*
X57484024Y-47844056D01*
X57692289Y-47742029D01*
X57701134Y-47736756D01*
X57870249Y-47616127D01*
X57937323Y-47592853D01*
X58006331Y-47609536D01*
X58055365Y-47660879D01*
X58060676Y-47672844D01*
X58061032Y-47673494D01*
X58064185Y-47681905D01*
X58151539Y-47798461D01*
X58268095Y-47885815D01*
X58404484Y-47936945D01*
X58466666Y-47943700D01*
X60493334Y-47943700D01*
X60555516Y-47936945D01*
X60691905Y-47885815D01*
X60808461Y-47798461D01*
X60864674Y-47723456D01*
X60921533Y-47680941D01*
X60992352Y-47675915D01*
X61054645Y-47709975D01*
X61088635Y-47772306D01*
X61091500Y-47799021D01*
X61091500Y-47948134D01*
X61098255Y-48010316D01*
X61149385Y-48146705D01*
X61236739Y-48263261D01*
X61353295Y-48350615D01*
X61489684Y-48401745D01*
X61551866Y-48408500D01*
X63448134Y-48408500D01*
X63510316Y-48401745D01*
X63646705Y-48350615D01*
X63763261Y-48263261D01*
X63850615Y-48146705D01*
X63875180Y-48081178D01*
X63917822Y-48024414D01*
X63984383Y-47999714D01*
X64053732Y-48014921D01*
X64073647Y-48028464D01*
X64205942Y-48138297D01*
X64229349Y-48157730D01*
X64429322Y-48274584D01*
X64645694Y-48357209D01*
X64650760Y-48358240D01*
X64650761Y-48358240D01*
X64703846Y-48369040D01*
X64872656Y-48403385D01*
X65002089Y-48408131D01*
X65098949Y-48411683D01*
X65098953Y-48411683D01*
X65104113Y-48411872D01*
X65109233Y-48411216D01*
X65109235Y-48411216D01*
X65183166Y-48401745D01*
X65333847Y-48382442D01*
X65338795Y-48380957D01*
X65338802Y-48380956D01*
X65550747Y-48317369D01*
X65555690Y-48315886D01*
X65560565Y-48313498D01*
X65759049Y-48216262D01*
X65759052Y-48216260D01*
X65763684Y-48213991D01*
X65952243Y-48079494D01*
X66116303Y-47916005D01*
X66119162Y-47912027D01*
X66178481Y-47873159D01*
X66249475Y-47872530D01*
X66304143Y-47904641D01*
X66405700Y-48006198D01*
X66410208Y-48009355D01*
X66410211Y-48009357D01*
X66431715Y-48024414D01*
X66593251Y-48137523D01*
X66598233Y-48139846D01*
X66598238Y-48139849D01*
X66757238Y-48213991D01*
X66800757Y-48234284D01*
X66806065Y-48235706D01*
X66806067Y-48235707D01*
X67016598Y-48292119D01*
X67016600Y-48292119D01*
X67021913Y-48293543D01*
X67250000Y-48313498D01*
X67478087Y-48293543D01*
X67483400Y-48292119D01*
X67483402Y-48292119D01*
X67693933Y-48235707D01*
X67693935Y-48235706D01*
X67699243Y-48234284D01*
X67742762Y-48213991D01*
X67901762Y-48139849D01*
X67901767Y-48139846D01*
X67906749Y-48137523D01*
X68068285Y-48024414D01*
X68089789Y-48009357D01*
X68089792Y-48009355D01*
X68094300Y-48006198D01*
X68256198Y-47844300D01*
X68293323Y-47791281D01*
X68346285Y-47715643D01*
X68387523Y-47656749D01*
X68389846Y-47651767D01*
X68389849Y-47651762D01*
X68481961Y-47454225D01*
X68481961Y-47454224D01*
X68484284Y-47449243D01*
X68494269Y-47411981D01*
X68542119Y-47233402D01*
X68542119Y-47233400D01*
X68543543Y-47228087D01*
X68563498Y-47000000D01*
X73556502Y-47000000D01*
X73576457Y-47228087D01*
X73577881Y-47233400D01*
X73577881Y-47233402D01*
X73625732Y-47411981D01*
X73635716Y-47449243D01*
X73638039Y-47454224D01*
X73638039Y-47454225D01*
X73730151Y-47651762D01*
X73730154Y-47651767D01*
X73732477Y-47656749D01*
X73773715Y-47715643D01*
X73826678Y-47791281D01*
X73863802Y-47844300D01*
X74025700Y-48006198D01*
X74030208Y-48009355D01*
X74030211Y-48009357D01*
X74051715Y-48024414D01*
X74213251Y-48137523D01*
X74218233Y-48139846D01*
X74218238Y-48139849D01*
X74377238Y-48213991D01*
X74420757Y-48234284D01*
X74426065Y-48235706D01*
X74426067Y-48235707D01*
X74636598Y-48292119D01*
X74636600Y-48292119D01*
X74641913Y-48293543D01*
X74870000Y-48313498D01*
X75098087Y-48293543D01*
X75103400Y-48292119D01*
X75103402Y-48292119D01*
X75313933Y-48235707D01*
X75313935Y-48235706D01*
X75319243Y-48234284D01*
X75362762Y-48213991D01*
X75521762Y-48139849D01*
X75521767Y-48139846D01*
X75526749Y-48137523D01*
X75688285Y-48024414D01*
X75709789Y-48009357D01*
X75709792Y-48009355D01*
X75714300Y-48006198D01*
X75876198Y-47844300D01*
X75913323Y-47791281D01*
X75966285Y-47715643D01*
X76007523Y-47656749D01*
X76009846Y-47651767D01*
X76009849Y-47651762D01*
X76101961Y-47454225D01*
X76101961Y-47454224D01*
X76104284Y-47449243D01*
X76114269Y-47411981D01*
X76162119Y-47233402D01*
X76162119Y-47233400D01*
X76163543Y-47228087D01*
X76183498Y-47000000D01*
X76163543Y-46771913D01*
X76151475Y-46726876D01*
X76105707Y-46556067D01*
X76105706Y-46556065D01*
X76104284Y-46550757D01*
X76095399Y-46531703D01*
X76009849Y-46348238D01*
X76009846Y-46348233D01*
X76007523Y-46343251D01*
X75876198Y-46155700D01*
X75714300Y-45993802D01*
X75709792Y-45990645D01*
X75709789Y-45990643D01*
X75606889Y-45918592D01*
X75526749Y-45862477D01*
X75521767Y-45860154D01*
X75521762Y-45860151D01*
X75324225Y-45768039D01*
X75324224Y-45768039D01*
X75319243Y-45765716D01*
X75313935Y-45764294D01*
X75313933Y-45764293D01*
X75103402Y-45707881D01*
X75103400Y-45707881D01*
X75098087Y-45706457D01*
X74870000Y-45686502D01*
X74641913Y-45706457D01*
X74636600Y-45707881D01*
X74636598Y-45707881D01*
X74426067Y-45764293D01*
X74426065Y-45764294D01*
X74420757Y-45765716D01*
X74415776Y-45768039D01*
X74415775Y-45768039D01*
X74218238Y-45860151D01*
X74218233Y-45860154D01*
X74213251Y-45862477D01*
X74133111Y-45918592D01*
X74030211Y-45990643D01*
X74030208Y-45990645D01*
X74025700Y-45993802D01*
X73863802Y-46155700D01*
X73732477Y-46343251D01*
X73730154Y-46348233D01*
X73730151Y-46348238D01*
X73644601Y-46531703D01*
X73635716Y-46550757D01*
X73634294Y-46556065D01*
X73634293Y-46556067D01*
X73588525Y-46726876D01*
X73576457Y-46771913D01*
X73556502Y-47000000D01*
X68563498Y-47000000D01*
X68543543Y-46771913D01*
X68531475Y-46726876D01*
X68485707Y-46556067D01*
X68485706Y-46556065D01*
X68484284Y-46550757D01*
X68475399Y-46531703D01*
X68389849Y-46348238D01*
X68389846Y-46348233D01*
X68387523Y-46343251D01*
X68256198Y-46155700D01*
X68094300Y-45993802D01*
X68089792Y-45990645D01*
X68089789Y-45990643D01*
X67986889Y-45918592D01*
X67906749Y-45862477D01*
X67901767Y-45860154D01*
X67901762Y-45860151D01*
X67704225Y-45768039D01*
X67704224Y-45768039D01*
X67699243Y-45765716D01*
X67693935Y-45764294D01*
X67693933Y-45764293D01*
X67483402Y-45707881D01*
X67483400Y-45707881D01*
X67478087Y-45706457D01*
X67250000Y-45686502D01*
X67021913Y-45706457D01*
X67016600Y-45707881D01*
X67016598Y-45707881D01*
X66806067Y-45764293D01*
X66806065Y-45764294D01*
X66800757Y-45765716D01*
X66795776Y-45768039D01*
X66795775Y-45768039D01*
X66598238Y-45860151D01*
X66598233Y-45860154D01*
X66593251Y-45862477D01*
X66513111Y-45918592D01*
X66410211Y-45990643D01*
X66410208Y-45990645D01*
X66405700Y-45993802D01*
X66301790Y-46097712D01*
X66239478Y-46131738D01*
X66168663Y-46126673D01*
X66119502Y-46093417D01*
X66007366Y-45970181D01*
X66007364Y-45970179D01*
X66003887Y-45966358D01*
X65999836Y-45963159D01*
X65999832Y-45963155D01*
X65826177Y-45826011D01*
X65826172Y-45826008D01*
X65822123Y-45822810D01*
X65817607Y-45820317D01*
X65817604Y-45820315D01*
X65623879Y-45713373D01*
X65623875Y-45713371D01*
X65619355Y-45710876D01*
X65614486Y-45709152D01*
X65614482Y-45709150D01*
X65455278Y-45652773D01*
X65397742Y-45611179D01*
X65371826Y-45545081D01*
X65385760Y-45475465D01*
X65435119Y-45424434D01*
X65497338Y-45408000D01*
X88366000Y-45408000D01*
X88434121Y-45428002D01*
X88480614Y-45481658D01*
X88492000Y-45534000D01*
X88492000Y-61728007D01*
X88471998Y-61796128D01*
X88418342Y-61842621D01*
X88352391Y-61853270D01*
X88316483Y-61849369D01*
X88309672Y-61849000D01*
X87267115Y-61849000D01*
X87251876Y-61853475D01*
X87250671Y-61854865D01*
X87249000Y-61862548D01*
X87249000Y-65386884D01*
X87253475Y-65402123D01*
X87254865Y-65403328D01*
X87262548Y-65404999D01*
X88309669Y-65404999D01*
X88316493Y-65404629D01*
X88352396Y-65400730D01*
X88422278Y-65413260D01*
X88474292Y-65461582D01*
X88492000Y-65525993D01*
X88492000Y-68603140D01*
X88471998Y-68671261D01*
X88418342Y-68717754D01*
X88348068Y-68727858D01*
X88283488Y-68698364D01*
X88272806Y-68687940D01*
X88231635Y-68642694D01*
X88224108Y-68635674D01*
X88042104Y-68491936D01*
X88033532Y-68486240D01*
X87830492Y-68374156D01*
X87821095Y-68369933D01*
X87602480Y-68292518D01*
X87592530Y-68289889D01*
X87491836Y-68271953D01*
X87478540Y-68273412D01*
X87474000Y-68287968D01*
X87474000Y-69848000D01*
X87453998Y-69916121D01*
X87400342Y-69962614D01*
X87348000Y-69974000D01*
X87092000Y-69974000D01*
X87023879Y-69953998D01*
X86977386Y-69900342D01*
X86966000Y-69848000D01*
X86966000Y-68286555D01*
X86962082Y-68273211D01*
X86947806Y-68271224D01*
X86882532Y-68281213D01*
X86872504Y-68283602D01*
X86652073Y-68355650D01*
X86642564Y-68359647D01*
X86436865Y-68466727D01*
X86428140Y-68472221D01*
X86292881Y-68573777D01*
X86226396Y-68598683D01*
X86157001Y-68583691D01*
X86106727Y-68533560D01*
X86099246Y-68517247D01*
X86098967Y-68516503D01*
X86095815Y-68508095D01*
X86008461Y-68391539D01*
X85891905Y-68304185D01*
X85755516Y-68253055D01*
X85693334Y-68246300D01*
X83666666Y-68246300D01*
X83604484Y-68253055D01*
X83468095Y-68304185D01*
X83351539Y-68391539D01*
X83264185Y-68508095D01*
X83213055Y-68644484D01*
X83206300Y-68706666D01*
X83206300Y-69325171D01*
X83186298Y-69393292D01*
X83132642Y-69439785D01*
X83062368Y-69449889D01*
X82997788Y-69420395D01*
X82958096Y-69355866D01*
X82931118Y-69248462D01*
X82929859Y-69243449D01*
X82833228Y-69021215D01*
X82750801Y-68893802D01*
X82704407Y-68822087D01*
X82704405Y-68822084D01*
X82701599Y-68817747D01*
X82538506Y-68638510D01*
X82348328Y-68488317D01*
X82267498Y-68443696D01*
X82140705Y-68373702D01*
X82140702Y-68373701D01*
X82136174Y-68371201D01*
X82000662Y-68323214D01*
X81912613Y-68292034D01*
X81912610Y-68292033D01*
X81907741Y-68290309D01*
X81902652Y-68289402D01*
X81902650Y-68289402D01*
X81800598Y-68271224D01*
X81669163Y-68247812D01*
X81575625Y-68246669D01*
X81432018Y-68244914D01*
X81432016Y-68244914D01*
X81426848Y-68244851D01*
X81187303Y-68281507D01*
X80956961Y-68356794D01*
X80742009Y-68468691D01*
X80737876Y-68471794D01*
X80737873Y-68471796D01*
X80552353Y-68611088D01*
X80548218Y-68614193D01*
X80380795Y-68789392D01*
X80365234Y-68812204D01*
X80310324Y-68857205D01*
X80239799Y-68865376D01*
X80176052Y-68834122D01*
X80162987Y-68819893D01*
X80161599Y-68817747D01*
X80156555Y-68812203D01*
X80001981Y-68642329D01*
X79998506Y-68638510D01*
X79808328Y-68488317D01*
X79727498Y-68443696D01*
X79600705Y-68373702D01*
X79600702Y-68373701D01*
X79596174Y-68371201D01*
X79460662Y-68323214D01*
X79372613Y-68292034D01*
X79372610Y-68292033D01*
X79367741Y-68290309D01*
X79362652Y-68289402D01*
X79362650Y-68289402D01*
X79260598Y-68271224D01*
X79129163Y-68247812D01*
X79035625Y-68246669D01*
X78892018Y-68244914D01*
X78892016Y-68244914D01*
X78886848Y-68244851D01*
X78647303Y-68281507D01*
X78416961Y-68356794D01*
X78202009Y-68468691D01*
X78197876Y-68471794D01*
X78197873Y-68471796D01*
X78012353Y-68611088D01*
X78008218Y-68614193D01*
X78004646Y-68617931D01*
X77863499Y-68765634D01*
X77840795Y-68789392D01*
X77837884Y-68793660D01*
X77837878Y-68793667D01*
X77824935Y-68812640D01*
X77770023Y-68857642D01*
X77699498Y-68865812D01*
X77635751Y-68834556D01*
X77621021Y-68818515D01*
X77617718Y-68814227D01*
X77461641Y-68642700D01*
X77454108Y-68635674D01*
X77272104Y-68491936D01*
X77263532Y-68486240D01*
X77060492Y-68374156D01*
X77051095Y-68369933D01*
X76832480Y-68292518D01*
X76822530Y-68289889D01*
X76721836Y-68271953D01*
X76708540Y-68273412D01*
X76704000Y-68287968D01*
X76704000Y-69848000D01*
X76683998Y-69916121D01*
X76630342Y-69962614D01*
X76578000Y-69974000D01*
X76322000Y-69974000D01*
X76253879Y-69953998D01*
X76207386Y-69900342D01*
X76196000Y-69848000D01*
X76196000Y-68286555D01*
X76192082Y-68273211D01*
X76177806Y-68271224D01*
X76112532Y-68281213D01*
X76102504Y-68283602D01*
X75882073Y-68355650D01*
X75872564Y-68359647D01*
X75666865Y-68466727D01*
X75658140Y-68472221D01*
X75522881Y-68573777D01*
X75456396Y-68598683D01*
X75387001Y-68583691D01*
X75336727Y-68533560D01*
X75329246Y-68517247D01*
X75328967Y-68516503D01*
X75325815Y-68508095D01*
X75238461Y-68391539D01*
X75121905Y-68304185D01*
X74985516Y-68253055D01*
X74923334Y-68246300D01*
X72896666Y-68246300D01*
X72834484Y-68253055D01*
X72698095Y-68304185D01*
X72581539Y-68391539D01*
X72494185Y-68508095D01*
X72443055Y-68644484D01*
X72436300Y-68706666D01*
X72436300Y-68895000D01*
X72416298Y-68963121D01*
X72362642Y-69009614D01*
X72310300Y-69021000D01*
X72209783Y-69021000D01*
X72141662Y-69000998D01*
X72120688Y-68984095D01*
X70784419Y-67647826D01*
X70750393Y-67585514D01*
X70755458Y-67514699D01*
X70798005Y-67457863D01*
X70820264Y-67444536D01*
X70856749Y-67427523D01*
X70948089Y-67363566D01*
X71039789Y-67299357D01*
X71039792Y-67299355D01*
X71044300Y-67296198D01*
X71206198Y-67134300D01*
X71255842Y-67063402D01*
X71334366Y-66951257D01*
X71337523Y-66946749D01*
X71339846Y-66941767D01*
X71339849Y-66941762D01*
X71431961Y-66744225D01*
X71431961Y-66744224D01*
X71434284Y-66739243D01*
X71454976Y-66662022D01*
X71492119Y-66523402D01*
X71492119Y-66523400D01*
X71493543Y-66518087D01*
X71513498Y-66290000D01*
X71493543Y-66061913D01*
X71491615Y-66054717D01*
X71435707Y-65846067D01*
X71435706Y-65846065D01*
X71434284Y-65840757D01*
X71382708Y-65730151D01*
X71339849Y-65638238D01*
X71339846Y-65638232D01*
X71337523Y-65633251D01*
X71233531Y-65484735D01*
X71209357Y-65450211D01*
X71209355Y-65450208D01*
X71206198Y-65445700D01*
X71044300Y-65283802D01*
X71039792Y-65280645D01*
X71039789Y-65280643D01*
X70961611Y-65225902D01*
X70856749Y-65152477D01*
X70851767Y-65150154D01*
X70851762Y-65150151D01*
X70654225Y-65058039D01*
X70654224Y-65058039D01*
X70649243Y-65055716D01*
X70643935Y-65054294D01*
X70643933Y-65054293D01*
X70433402Y-64997881D01*
X70433400Y-64997881D01*
X70428087Y-64996457D01*
X70200000Y-64976502D01*
X69971913Y-64996457D01*
X69966600Y-64997881D01*
X69966598Y-64997881D01*
X69756067Y-65054293D01*
X69756065Y-65054294D01*
X69750757Y-65055716D01*
X69745776Y-65058039D01*
X69745775Y-65058039D01*
X69548238Y-65150151D01*
X69548233Y-65150154D01*
X69543251Y-65152477D01*
X69438389Y-65225902D01*
X69360211Y-65280643D01*
X69360208Y-65280645D01*
X69355700Y-65283802D01*
X69193802Y-65445700D01*
X69190645Y-65450208D01*
X69190643Y-65450211D01*
X69132111Y-65533804D01*
X69062477Y-65633251D01*
X69052913Y-65653761D01*
X69045464Y-65669736D01*
X68998546Y-65723021D01*
X68930269Y-65742482D01*
X68862309Y-65721940D01*
X68842174Y-65705581D01*
X66542824Y-63406231D01*
X66508798Y-63343919D01*
X66506398Y-63306154D01*
X66513019Y-63230475D01*
X66513498Y-63225000D01*
X68886502Y-63225000D01*
X68906457Y-63453087D01*
X68907881Y-63458400D01*
X68907881Y-63458402D01*
X68940548Y-63580314D01*
X68965716Y-63674243D01*
X68968039Y-63679224D01*
X68968039Y-63679225D01*
X69060151Y-63876762D01*
X69060154Y-63876767D01*
X69062477Y-63881749D01*
X69120610Y-63964771D01*
X69178005Y-64046739D01*
X69193802Y-64069300D01*
X69355700Y-64231198D01*
X69360208Y-64234355D01*
X69360211Y-64234357D01*
X69370064Y-64241256D01*
X69543251Y-64362523D01*
X69548233Y-64364846D01*
X69548238Y-64364849D01*
X69745775Y-64456961D01*
X69750757Y-64459284D01*
X69756065Y-64460706D01*
X69756067Y-64460707D01*
X69966598Y-64517119D01*
X69966600Y-64517119D01*
X69971913Y-64518543D01*
X70200000Y-64538498D01*
X70428087Y-64518543D01*
X70433400Y-64517119D01*
X70433402Y-64517119D01*
X70643933Y-64460707D01*
X70643935Y-64460706D01*
X70649243Y-64459284D01*
X70654225Y-64456961D01*
X70851762Y-64364849D01*
X70851767Y-64364846D01*
X70856749Y-64362523D01*
X71029936Y-64241256D01*
X71039789Y-64234357D01*
X71039792Y-64234355D01*
X71044300Y-64231198D01*
X71206198Y-64069300D01*
X71221996Y-64046739D01*
X71279390Y-63964771D01*
X71337523Y-63881749D01*
X71339846Y-63876767D01*
X71339849Y-63876762D01*
X71431961Y-63679225D01*
X71431961Y-63679224D01*
X71434284Y-63674243D01*
X71459453Y-63580314D01*
X75052124Y-63580314D01*
X75052348Y-63584980D01*
X75052348Y-63584985D01*
X75054518Y-63630160D01*
X75064807Y-63844352D01*
X75077518Y-63908255D01*
X75110899Y-64076069D01*
X75116378Y-64103616D01*
X75117957Y-64108014D01*
X75117959Y-64108021D01*
X75184117Y-64292285D01*
X75205704Y-64352410D01*
X75207921Y-64356536D01*
X75282279Y-64494923D01*
X75330822Y-64585267D01*
X75333617Y-64589011D01*
X75333619Y-64589013D01*
X75416743Y-64700329D01*
X75488985Y-64797073D01*
X75492292Y-64800351D01*
X75492297Y-64800357D01*
X75591879Y-64899073D01*
X75676718Y-64983174D01*
X75680485Y-64985936D01*
X75680486Y-64985937D01*
X75778821Y-65058039D01*
X75889896Y-65139483D01*
X75894031Y-65141659D01*
X75894035Y-65141661D01*
X75999575Y-65197188D01*
X76123836Y-65262565D01*
X76216662Y-65294981D01*
X76367384Y-65347615D01*
X76373400Y-65349716D01*
X76377993Y-65350588D01*
X76628515Y-65398151D01*
X76628518Y-65398151D01*
X76633104Y-65399022D01*
X76765174Y-65404212D01*
X76892575Y-65409218D01*
X76892581Y-65409218D01*
X76897243Y-65409401D01*
X77160015Y-65380622D01*
X77164526Y-65379434D01*
X77164528Y-65379434D01*
X77411124Y-65314511D01*
X77411126Y-65314510D01*
X77415647Y-65313320D01*
X77458332Y-65294981D01*
X77654229Y-65210817D01*
X77654231Y-65210816D01*
X77658523Y-65208972D01*
X77883307Y-65069871D01*
X77948460Y-65014715D01*
X78081496Y-64902093D01*
X78081498Y-64902091D01*
X78085063Y-64899073D01*
X78259356Y-64700329D01*
X78333367Y-64585267D01*
X78377201Y-64517119D01*
X78402359Y-64478006D01*
X78510930Y-64236988D01*
X78582683Y-63982570D01*
X78616043Y-63720340D01*
X78618487Y-63627000D01*
X78615018Y-63580314D01*
X80132124Y-63580314D01*
X80132348Y-63584980D01*
X80132348Y-63584985D01*
X80134518Y-63630160D01*
X80144807Y-63844352D01*
X80157518Y-63908255D01*
X80190899Y-64076069D01*
X80196378Y-64103616D01*
X80197957Y-64108014D01*
X80197959Y-64108021D01*
X80264117Y-64292285D01*
X80285704Y-64352410D01*
X80287921Y-64356536D01*
X80362279Y-64494923D01*
X80410822Y-64585267D01*
X80413617Y-64589011D01*
X80413619Y-64589013D01*
X80496743Y-64700329D01*
X80568985Y-64797073D01*
X80572292Y-64800351D01*
X80572297Y-64800357D01*
X80671879Y-64899073D01*
X80756718Y-64983174D01*
X80760485Y-64985936D01*
X80760486Y-64985937D01*
X80858821Y-65058039D01*
X80969896Y-65139483D01*
X80974031Y-65141659D01*
X80974035Y-65141661D01*
X81079575Y-65197188D01*
X81203836Y-65262565D01*
X81296662Y-65294981D01*
X81447384Y-65347615D01*
X81453400Y-65349716D01*
X81457993Y-65350588D01*
X81708515Y-65398151D01*
X81708518Y-65398151D01*
X81713104Y-65399022D01*
X81845174Y-65404212D01*
X81972575Y-65409218D01*
X81972581Y-65409218D01*
X81977243Y-65409401D01*
X82240015Y-65380622D01*
X82244526Y-65379434D01*
X82244528Y-65379434D01*
X82491124Y-65314511D01*
X82491126Y-65314510D01*
X82495647Y-65313320D01*
X82538332Y-65294981D01*
X82734229Y-65210817D01*
X82734231Y-65210816D01*
X82738523Y-65208972D01*
X82963307Y-65069871D01*
X83028460Y-65014715D01*
X83114746Y-64941669D01*
X85217001Y-64941669D01*
X85217371Y-64948490D01*
X85222895Y-64999352D01*
X85226521Y-65014604D01*
X85271676Y-65135054D01*
X85280214Y-65150649D01*
X85356715Y-65252724D01*
X85369276Y-65265285D01*
X85471351Y-65341786D01*
X85486946Y-65350324D01*
X85607394Y-65395478D01*
X85622649Y-65399105D01*
X85673514Y-65404631D01*
X85680328Y-65405000D01*
X86722885Y-65405000D01*
X86738124Y-65400525D01*
X86739329Y-65399135D01*
X86741000Y-65391452D01*
X86741000Y-63899115D01*
X86736525Y-63883876D01*
X86735135Y-63882671D01*
X86727452Y-63881000D01*
X85235116Y-63881000D01*
X85219877Y-63885475D01*
X85218672Y-63886865D01*
X85217001Y-63894548D01*
X85217001Y-64941669D01*
X83114746Y-64941669D01*
X83161496Y-64902093D01*
X83161498Y-64902091D01*
X83165063Y-64899073D01*
X83339356Y-64700329D01*
X83413367Y-64585267D01*
X83457201Y-64517119D01*
X83482359Y-64478006D01*
X83590930Y-64236988D01*
X83662683Y-63982570D01*
X83696043Y-63720340D01*
X83698487Y-63627000D01*
X83679612Y-63373000D01*
X83679243Y-63368036D01*
X83679242Y-63368032D01*
X83678897Y-63363384D01*
X83676974Y-63354885D01*
X85217000Y-63354885D01*
X85221475Y-63370124D01*
X85222865Y-63371329D01*
X85230548Y-63373000D01*
X86722885Y-63373000D01*
X86738124Y-63368525D01*
X86739329Y-63367135D01*
X86741000Y-63359452D01*
X86741000Y-61867116D01*
X86736525Y-61851877D01*
X86735135Y-61850672D01*
X86727452Y-61849001D01*
X85680331Y-61849001D01*
X85673510Y-61849371D01*
X85622648Y-61854895D01*
X85607396Y-61858521D01*
X85486946Y-61903676D01*
X85471351Y-61912214D01*
X85369276Y-61988715D01*
X85356715Y-62001276D01*
X85280214Y-62103351D01*
X85271676Y-62118946D01*
X85226522Y-62239394D01*
X85222895Y-62254649D01*
X85217369Y-62305514D01*
X85217000Y-62312328D01*
X85217000Y-63354885D01*
X83676974Y-63354885D01*
X83620557Y-63105559D01*
X83605028Y-63065626D01*
X83526442Y-62863542D01*
X83526441Y-62863540D01*
X83524749Y-62859189D01*
X83505273Y-62825112D01*
X83395897Y-62633745D01*
X83393578Y-62629687D01*
X83229925Y-62422094D01*
X83063207Y-62265261D01*
X83040791Y-62244174D01*
X83037385Y-62240970D01*
X83000212Y-62215182D01*
X82824026Y-62092958D01*
X82824021Y-62092955D01*
X82820188Y-62090296D01*
X82791211Y-62076006D01*
X82587294Y-61975445D01*
X82587291Y-61975444D01*
X82583106Y-61973380D01*
X82526150Y-61955148D01*
X82373814Y-61906385D01*
X82331347Y-61892791D01*
X82145647Y-61862548D01*
X82075053Y-61851051D01*
X82075052Y-61851051D01*
X82070441Y-61850300D01*
X81938281Y-61848570D01*
X81810798Y-61846901D01*
X81810795Y-61846901D01*
X81806121Y-61846840D01*
X81544192Y-61882486D01*
X81539702Y-61883795D01*
X81539696Y-61883796D01*
X81442200Y-61912214D01*
X81290410Y-61956457D01*
X81286163Y-61958415D01*
X81286160Y-61958416D01*
X81221211Y-61988358D01*
X81050348Y-62067127D01*
X81022857Y-62085151D01*
X80833195Y-62209499D01*
X80833190Y-62209503D01*
X80829282Y-62212065D01*
X80769681Y-62265261D01*
X80644709Y-62376803D01*
X80632067Y-62388086D01*
X80463036Y-62591324D01*
X80325901Y-62817314D01*
X80324095Y-62821622D01*
X80324094Y-62821623D01*
X80231949Y-63041365D01*
X80223677Y-63061091D01*
X80222526Y-63065623D01*
X80222525Y-63065626D01*
X80211226Y-63110116D01*
X80158608Y-63317301D01*
X80132124Y-63580314D01*
X78615018Y-63580314D01*
X78599612Y-63373000D01*
X78599243Y-63368036D01*
X78599242Y-63368032D01*
X78598897Y-63363384D01*
X78540557Y-63105559D01*
X78525028Y-63065626D01*
X78446442Y-62863542D01*
X78446441Y-62863540D01*
X78444749Y-62859189D01*
X78425273Y-62825112D01*
X78315897Y-62633745D01*
X78313578Y-62629687D01*
X78149925Y-62422094D01*
X77983207Y-62265261D01*
X77960791Y-62244174D01*
X77957385Y-62240970D01*
X77920212Y-62215182D01*
X77744026Y-62092958D01*
X77744021Y-62092955D01*
X77740188Y-62090296D01*
X77711211Y-62076006D01*
X77507294Y-61975445D01*
X77507291Y-61975444D01*
X77503106Y-61973380D01*
X77446150Y-61955148D01*
X77293814Y-61906385D01*
X77251347Y-61892791D01*
X77065647Y-61862548D01*
X76995053Y-61851051D01*
X76995052Y-61851051D01*
X76990441Y-61850300D01*
X76858281Y-61848570D01*
X76730798Y-61846901D01*
X76730795Y-61846901D01*
X76726121Y-61846840D01*
X76464192Y-61882486D01*
X76459702Y-61883795D01*
X76459696Y-61883796D01*
X76362200Y-61912214D01*
X76210410Y-61956457D01*
X76206163Y-61958415D01*
X76206160Y-61958416D01*
X76141211Y-61988358D01*
X75970348Y-62067127D01*
X75942857Y-62085151D01*
X75753195Y-62209499D01*
X75753190Y-62209503D01*
X75749282Y-62212065D01*
X75689681Y-62265261D01*
X75564709Y-62376803D01*
X75552067Y-62388086D01*
X75383036Y-62591324D01*
X75245901Y-62817314D01*
X75244095Y-62821622D01*
X75244094Y-62821623D01*
X75151949Y-63041365D01*
X75143677Y-63061091D01*
X75142526Y-63065623D01*
X75142525Y-63065626D01*
X75131226Y-63110116D01*
X75078608Y-63317301D01*
X75052124Y-63580314D01*
X71459453Y-63580314D01*
X71492119Y-63458402D01*
X71492119Y-63458400D01*
X71493543Y-63453087D01*
X71513498Y-63225000D01*
X71493543Y-62996913D01*
X71492119Y-62991598D01*
X71435707Y-62781067D01*
X71435706Y-62781065D01*
X71434284Y-62775757D01*
X71399818Y-62701843D01*
X71339849Y-62573238D01*
X71339846Y-62573233D01*
X71337523Y-62568251D01*
X71237751Y-62425762D01*
X71209357Y-62385211D01*
X71209355Y-62385208D01*
X71206198Y-62380700D01*
X71044300Y-62218802D01*
X71039792Y-62215645D01*
X71039789Y-62215643D01*
X70879419Y-62103351D01*
X70856749Y-62087477D01*
X70851767Y-62085154D01*
X70851762Y-62085151D01*
X70654225Y-61993039D01*
X70654224Y-61993039D01*
X70649243Y-61990716D01*
X70643935Y-61989294D01*
X70643933Y-61989293D01*
X70433402Y-61932881D01*
X70433400Y-61932881D01*
X70428087Y-61931457D01*
X70200000Y-61911502D01*
X69971913Y-61931457D01*
X69966600Y-61932881D01*
X69966598Y-61932881D01*
X69756067Y-61989293D01*
X69756065Y-61989294D01*
X69750757Y-61990716D01*
X69745776Y-61993039D01*
X69745775Y-61993039D01*
X69548238Y-62085151D01*
X69548233Y-62085154D01*
X69543251Y-62087477D01*
X69520581Y-62103351D01*
X69360211Y-62215643D01*
X69360208Y-62215645D01*
X69355700Y-62218802D01*
X69193802Y-62380700D01*
X69190645Y-62385208D01*
X69190643Y-62385211D01*
X69162249Y-62425762D01*
X69062477Y-62568251D01*
X69060154Y-62573233D01*
X69060151Y-62573238D01*
X69000182Y-62701843D01*
X68965716Y-62775757D01*
X68964294Y-62781065D01*
X68964293Y-62781067D01*
X68907881Y-62991598D01*
X68906457Y-62996913D01*
X68886502Y-63225000D01*
X66513498Y-63225000D01*
X66493543Y-62996913D01*
X66492119Y-62991598D01*
X66435707Y-62781067D01*
X66435706Y-62781065D01*
X66434284Y-62775757D01*
X66399818Y-62701843D01*
X66339849Y-62573238D01*
X66339846Y-62573233D01*
X66337523Y-62568251D01*
X66237751Y-62425762D01*
X66209357Y-62385211D01*
X66209355Y-62385208D01*
X66206198Y-62380700D01*
X66044300Y-62218802D01*
X66046023Y-62217079D01*
X66012412Y-62166561D01*
X66011286Y-62095573D01*
X66048717Y-62035246D01*
X66056026Y-62029187D01*
X66068344Y-62019735D01*
X66073662Y-62015871D01*
X66125594Y-61980179D01*
X66166461Y-61934311D01*
X66171441Y-61929036D01*
X67494038Y-60606439D01*
X67500304Y-60600585D01*
X67537549Y-60568094D01*
X67543274Y-60563100D01*
X67579502Y-60511552D01*
X67583435Y-60506258D01*
X67593149Y-60493869D01*
X67622291Y-60456703D01*
X67625417Y-60449779D01*
X67627264Y-60446730D01*
X67634489Y-60434064D01*
X67636186Y-60430899D01*
X67640556Y-60424681D01*
X67663456Y-60365946D01*
X67665983Y-60359933D01*
X67691912Y-60302507D01*
X67693296Y-60295039D01*
X67694364Y-60291631D01*
X67698364Y-60277592D01*
X67699253Y-60274128D01*
X67702012Y-60267053D01*
X67703004Y-60259521D01*
X67710235Y-60204597D01*
X67711267Y-60198083D01*
X67720178Y-60150000D01*
X68886502Y-60150000D01*
X68906457Y-60378087D01*
X68907881Y-60383400D01*
X68907881Y-60383402D01*
X68957370Y-60568094D01*
X68965716Y-60599243D01*
X68968039Y-60604224D01*
X68968039Y-60604225D01*
X69060151Y-60801762D01*
X69060154Y-60801767D01*
X69062477Y-60806749D01*
X69193802Y-60994300D01*
X69355700Y-61156198D01*
X69360208Y-61159355D01*
X69360211Y-61159357D01*
X69438389Y-61214098D01*
X69543251Y-61287523D01*
X69548233Y-61289846D01*
X69548238Y-61289849D01*
X69745775Y-61381961D01*
X69750757Y-61384284D01*
X69756065Y-61385706D01*
X69756067Y-61385707D01*
X69966598Y-61442119D01*
X69966600Y-61442119D01*
X69971913Y-61443543D01*
X70200000Y-61463498D01*
X70428087Y-61443543D01*
X70433400Y-61442119D01*
X70433402Y-61442119D01*
X70643933Y-61385707D01*
X70643935Y-61385706D01*
X70649243Y-61384284D01*
X70654225Y-61381961D01*
X70851762Y-61289849D01*
X70851767Y-61289846D01*
X70856749Y-61287523D01*
X70961611Y-61214098D01*
X71039789Y-61159357D01*
X71039792Y-61159355D01*
X71044300Y-61156198D01*
X71206198Y-60994300D01*
X71337523Y-60806749D01*
X71339846Y-60801767D01*
X71339849Y-60801762D01*
X71431961Y-60604225D01*
X71431961Y-60604224D01*
X71434284Y-60599243D01*
X71442631Y-60568094D01*
X71492119Y-60383402D01*
X71492119Y-60383400D01*
X71493543Y-60378087D01*
X71513498Y-60150000D01*
X71493543Y-59921913D01*
X71451309Y-59764293D01*
X71435707Y-59706067D01*
X71435706Y-59706065D01*
X71434284Y-59700757D01*
X71420884Y-59672020D01*
X71339849Y-59498238D01*
X71339846Y-59498233D01*
X71337523Y-59493251D01*
X71221613Y-59327715D01*
X71209357Y-59310211D01*
X71209355Y-59310208D01*
X71206198Y-59305700D01*
X71044300Y-59143802D01*
X71039792Y-59140645D01*
X71039789Y-59140643D01*
X70913880Y-59052481D01*
X70856749Y-59012477D01*
X70851767Y-59010154D01*
X70851762Y-59010151D01*
X70654225Y-58918039D01*
X70654224Y-58918039D01*
X70649243Y-58915716D01*
X70643935Y-58914294D01*
X70643933Y-58914293D01*
X70433402Y-58857881D01*
X70433400Y-58857881D01*
X70428087Y-58856457D01*
X70200000Y-58836502D01*
X69971913Y-58856457D01*
X69966600Y-58857881D01*
X69966598Y-58857881D01*
X69756067Y-58914293D01*
X69756065Y-58914294D01*
X69750757Y-58915716D01*
X69745776Y-58918039D01*
X69745775Y-58918039D01*
X69548238Y-59010151D01*
X69548233Y-59010154D01*
X69543251Y-59012477D01*
X69486120Y-59052481D01*
X69360211Y-59140643D01*
X69360208Y-59140645D01*
X69355700Y-59143802D01*
X69193802Y-59305700D01*
X69190645Y-59310208D01*
X69190643Y-59310211D01*
X69178387Y-59327715D01*
X69062477Y-59493251D01*
X69060154Y-59498233D01*
X69060151Y-59498238D01*
X68979116Y-59672020D01*
X68965716Y-59700757D01*
X68964294Y-59706065D01*
X68964293Y-59706067D01*
X68948691Y-59764293D01*
X68906457Y-59921913D01*
X68886502Y-60150000D01*
X67720178Y-60150000D01*
X67721360Y-60143625D01*
X67721360Y-60143622D01*
X67722744Y-60136156D01*
X67719209Y-60074847D01*
X67719000Y-60067595D01*
X67719000Y-57808599D01*
X67719292Y-57800029D01*
X67722654Y-57750723D01*
X67722654Y-57750719D01*
X67723170Y-57743148D01*
X67721865Y-57735672D01*
X67721865Y-57735668D01*
X67712337Y-57681076D01*
X67711374Y-57674551D01*
X67704722Y-57619582D01*
X67704721Y-57619580D01*
X67703809Y-57612040D01*
X67701125Y-57604938D01*
X67700281Y-57601500D01*
X67696417Y-57587377D01*
X67695387Y-57583965D01*
X67694081Y-57576483D01*
X67691029Y-57569530D01*
X67691027Y-57569524D01*
X67668763Y-57518806D01*
X67666270Y-57512698D01*
X67663069Y-57504225D01*
X67656279Y-57486257D01*
X67646692Y-57460885D01*
X67646690Y-57460882D01*
X67644006Y-57453778D01*
X67639701Y-57447514D01*
X67638045Y-57444347D01*
X67630940Y-57431582D01*
X67629132Y-57428525D01*
X67626078Y-57421567D01*
X67603883Y-57392642D01*
X67578282Y-57326422D01*
X67581641Y-57288898D01*
X67581164Y-57288814D01*
X67582118Y-57283406D01*
X67583543Y-57278087D01*
X67603498Y-57050000D01*
X67583543Y-56821913D01*
X67581008Y-56812453D01*
X67525707Y-56606067D01*
X67525706Y-56606065D01*
X67524284Y-56600757D01*
X67487477Y-56521823D01*
X67429849Y-56398238D01*
X67429846Y-56398233D01*
X67427523Y-56393251D01*
X67336333Y-56263019D01*
X67299357Y-56210211D01*
X67299355Y-56210208D01*
X67296198Y-56205700D01*
X67134300Y-56043802D01*
X67129792Y-56040645D01*
X67129789Y-56040643D01*
X67050624Y-55985211D01*
X66946749Y-55912477D01*
X66941767Y-55910154D01*
X66941762Y-55910151D01*
X66744225Y-55818039D01*
X66744224Y-55818039D01*
X66739243Y-55815716D01*
X66733935Y-55814294D01*
X66733933Y-55814293D01*
X66523402Y-55757881D01*
X66523400Y-55757881D01*
X66518087Y-55756457D01*
X66290000Y-55736502D01*
X66061913Y-55756457D01*
X66056600Y-55757881D01*
X66056598Y-55757881D01*
X65846067Y-55814293D01*
X65846065Y-55814294D01*
X65840757Y-55815716D01*
X65835776Y-55818039D01*
X65835775Y-55818039D01*
X65638238Y-55910151D01*
X65638233Y-55910154D01*
X65633251Y-55912477D01*
X65529376Y-55985211D01*
X65450211Y-56040643D01*
X65450208Y-56040645D01*
X65445700Y-56043802D01*
X65283802Y-56205700D01*
X65280645Y-56210208D01*
X65280643Y-56210211D01*
X65243667Y-56263019D01*
X65152477Y-56393251D01*
X65150154Y-56398233D01*
X65150151Y-56398238D01*
X65092523Y-56521823D01*
X65055716Y-56600757D01*
X65054294Y-56606065D01*
X65054293Y-56606067D01*
X64998992Y-56812453D01*
X64996457Y-56821913D01*
X64976502Y-57050000D01*
X64996457Y-57278087D01*
X64997881Y-57283400D01*
X64997881Y-57283402D01*
X65054181Y-57493513D01*
X65055716Y-57499243D01*
X65058039Y-57504224D01*
X65058039Y-57504225D01*
X65150151Y-57701762D01*
X65150154Y-57701767D01*
X65152477Y-57706749D01*
X65177964Y-57743148D01*
X65278851Y-57887229D01*
X65283802Y-57894300D01*
X65445700Y-58056198D01*
X65450208Y-58059355D01*
X65450211Y-58059357D01*
X65453930Y-58061961D01*
X65633251Y-58187523D01*
X65638233Y-58189846D01*
X65638238Y-58189849D01*
X65799897Y-58265231D01*
X65840757Y-58284284D01*
X65846065Y-58285706D01*
X65846067Y-58285707D01*
X66056598Y-58342119D01*
X66056600Y-58342119D01*
X66061913Y-58343543D01*
X66067389Y-58344022D01*
X66067394Y-58344023D01*
X66152370Y-58351457D01*
X66205982Y-58356147D01*
X66272100Y-58382010D01*
X66313739Y-58439514D01*
X66321000Y-58481668D01*
X66321000Y-59116312D01*
X66300998Y-59184433D01*
X66247342Y-59230926D01*
X66177068Y-59241030D01*
X66112488Y-59211536D01*
X66105905Y-59205407D01*
X66044300Y-59143802D01*
X66039792Y-59140645D01*
X66039789Y-59140643D01*
X65913880Y-59052481D01*
X65856749Y-59012477D01*
X65851767Y-59010154D01*
X65851762Y-59010151D01*
X65654225Y-58918039D01*
X65654224Y-58918039D01*
X65649243Y-58915716D01*
X65643935Y-58914294D01*
X65643933Y-58914293D01*
X65433402Y-58857881D01*
X65433400Y-58857881D01*
X65428087Y-58856457D01*
X65200000Y-58836502D01*
X64971913Y-58856457D01*
X64957429Y-58860338D01*
X64886453Y-58858648D01*
X64866760Y-58849689D01*
X64866753Y-58849705D01*
X64860734Y-58846987D01*
X64860391Y-58846791D01*
X64859555Y-58846411D01*
X64856808Y-58844748D01*
X64844102Y-58837500D01*
X64840954Y-58835812D01*
X64834739Y-58831444D01*
X64776050Y-58808562D01*
X64770005Y-58806022D01*
X64712565Y-58780087D01*
X64705092Y-58778702D01*
X64701674Y-58777631D01*
X64687685Y-58773646D01*
X64684193Y-58772749D01*
X64677111Y-58769988D01*
X64669578Y-58768996D01*
X64669577Y-58768996D01*
X64614670Y-58761767D01*
X64608157Y-58760735D01*
X64553682Y-58750639D01*
X64553680Y-58750639D01*
X64546213Y-58749255D01*
X64538633Y-58749692D01*
X64538632Y-58749692D01*
X64484888Y-58752791D01*
X64477635Y-58753000D01*
X62887922Y-58753000D01*
X62819801Y-58732998D01*
X62787096Y-58702565D01*
X62744642Y-58645919D01*
X62739261Y-58638739D01*
X62622705Y-58551385D01*
X62486316Y-58500255D01*
X62424134Y-58493500D01*
X61527866Y-58493500D01*
X61465684Y-58500255D01*
X61329295Y-58551385D01*
X61212739Y-58638739D01*
X61207358Y-58645919D01*
X61164904Y-58702565D01*
X61108045Y-58745080D01*
X61064078Y-58753000D01*
X60326600Y-58753000D01*
X60318029Y-58752708D01*
X60261149Y-58748830D01*
X60199065Y-58759666D01*
X60192586Y-58760622D01*
X60130040Y-58768191D01*
X60122938Y-58770875D01*
X60119456Y-58771730D01*
X60105421Y-58775570D01*
X60101973Y-58776611D01*
X60094483Y-58777918D01*
X60087522Y-58780974D01*
X60087521Y-58780974D01*
X60036805Y-58803237D01*
X60030697Y-58805730D01*
X59990427Y-58820947D01*
X59971778Y-58827994D01*
X59965512Y-58832300D01*
X59962357Y-58833950D01*
X59949565Y-58841069D01*
X59946521Y-58842869D01*
X59939567Y-58845922D01*
X59933539Y-58850547D01*
X59933538Y-58850548D01*
X59889604Y-58884260D01*
X59884267Y-58888138D01*
X59840761Y-58918039D01*
X59832348Y-58923821D01*
X59827296Y-58929491D01*
X59827295Y-58929492D01*
X59791482Y-58969688D01*
X59786501Y-58974964D01*
X59089445Y-59672020D01*
X59027133Y-59706046D01*
X58980039Y-59706980D01*
X58978087Y-59706457D01*
X58972616Y-59705978D01*
X58972614Y-59705978D01*
X58755475Y-59686981D01*
X58750000Y-59686502D01*
X58521913Y-59706457D01*
X58516600Y-59707881D01*
X58516598Y-59707881D01*
X58306067Y-59764293D01*
X58306065Y-59764294D01*
X58300757Y-59765716D01*
X58295776Y-59768039D01*
X58295775Y-59768039D01*
X58098238Y-59860151D01*
X58098233Y-59860154D01*
X58093251Y-59862477D01*
X58008368Y-59921913D01*
X57910211Y-59990643D01*
X57910208Y-59990645D01*
X57905700Y-59993802D01*
X57743802Y-60155700D01*
X57740645Y-60160208D01*
X57740643Y-60160211D01*
X57679683Y-60247271D01*
X57624226Y-60291599D01*
X57576470Y-60301000D01*
X55839460Y-60301000D01*
X55771339Y-60280998D01*
X55750365Y-60264095D01*
X55419865Y-59933595D01*
X55385839Y-59871283D01*
X55390904Y-59800468D01*
X55433451Y-59743632D01*
X55499971Y-59718821D01*
X55508960Y-59718500D01*
X56508134Y-59718500D01*
X56570316Y-59711745D01*
X56706705Y-59660615D01*
X56823261Y-59573261D01*
X56910615Y-59456705D01*
X56961745Y-59320316D01*
X56968500Y-59258134D01*
X56968500Y-57050000D01*
X57356502Y-57050000D01*
X57376457Y-57278087D01*
X57377881Y-57283400D01*
X57377881Y-57283402D01*
X57434181Y-57493513D01*
X57435716Y-57499243D01*
X57438039Y-57504224D01*
X57438039Y-57504225D01*
X57530151Y-57701762D01*
X57530154Y-57701767D01*
X57532477Y-57706749D01*
X57557964Y-57743148D01*
X57658851Y-57887229D01*
X57663802Y-57894300D01*
X57825700Y-58056198D01*
X57830208Y-58059355D01*
X57830211Y-58059357D01*
X57833930Y-58061961D01*
X58013251Y-58187523D01*
X58018233Y-58189846D01*
X58018238Y-58189849D01*
X58179897Y-58265231D01*
X58220757Y-58284284D01*
X58226065Y-58285706D01*
X58226067Y-58285707D01*
X58436598Y-58342119D01*
X58436600Y-58342119D01*
X58441913Y-58343543D01*
X58670000Y-58363498D01*
X58898087Y-58343543D01*
X58903400Y-58342119D01*
X58903402Y-58342119D01*
X59113933Y-58285707D01*
X59113935Y-58285706D01*
X59119243Y-58284284D01*
X59160103Y-58265231D01*
X59321762Y-58189849D01*
X59321767Y-58189846D01*
X59326749Y-58187523D01*
X59506070Y-58061961D01*
X59509789Y-58059357D01*
X59509792Y-58059355D01*
X59514300Y-58056198D01*
X59676198Y-57894300D01*
X59681150Y-57887229D01*
X59782036Y-57743148D01*
X59807523Y-57706749D01*
X59809846Y-57701767D01*
X59809849Y-57701762D01*
X59901961Y-57504225D01*
X59901961Y-57504224D01*
X59904284Y-57499243D01*
X59905820Y-57493513D01*
X59962119Y-57283402D01*
X59962119Y-57283400D01*
X59963543Y-57278087D01*
X59983498Y-57050000D01*
X59963543Y-56821913D01*
X59961008Y-56812453D01*
X59905707Y-56606067D01*
X59905706Y-56606065D01*
X59904284Y-56600757D01*
X59867477Y-56521823D01*
X59809849Y-56398238D01*
X59809846Y-56398233D01*
X59807523Y-56393251D01*
X59716333Y-56263019D01*
X59679357Y-56210211D01*
X59679355Y-56210208D01*
X59676198Y-56205700D01*
X59514300Y-56043802D01*
X59509792Y-56040645D01*
X59509789Y-56040643D01*
X59430624Y-55985211D01*
X59326749Y-55912477D01*
X59321767Y-55910154D01*
X59321762Y-55910151D01*
X59124225Y-55818039D01*
X59124224Y-55818039D01*
X59119243Y-55815716D01*
X59113935Y-55814294D01*
X59113933Y-55814293D01*
X58903402Y-55757881D01*
X58903400Y-55757881D01*
X58898087Y-55756457D01*
X58670000Y-55736502D01*
X58441913Y-55756457D01*
X58436600Y-55757881D01*
X58436598Y-55757881D01*
X58226067Y-55814293D01*
X58226065Y-55814294D01*
X58220757Y-55815716D01*
X58215776Y-55818039D01*
X58215775Y-55818039D01*
X58018238Y-55910151D01*
X58018233Y-55910154D01*
X58013251Y-55912477D01*
X57909376Y-55985211D01*
X57830211Y-56040643D01*
X57830208Y-56040645D01*
X57825700Y-56043802D01*
X57663802Y-56205700D01*
X57660645Y-56210208D01*
X57660643Y-56210211D01*
X57623667Y-56263019D01*
X57532477Y-56393251D01*
X57530154Y-56398233D01*
X57530151Y-56398238D01*
X57472523Y-56521823D01*
X57435716Y-56600757D01*
X57434294Y-56606065D01*
X57434293Y-56606067D01*
X57378992Y-56812453D01*
X57376457Y-56821913D01*
X57356502Y-57050000D01*
X56968500Y-57050000D01*
X56968500Y-56961866D01*
X56961745Y-56899684D01*
X56910615Y-56763295D01*
X56823261Y-56646739D01*
X56706705Y-56559385D01*
X56570316Y-56508255D01*
X56508134Y-56501500D01*
X56185000Y-56501500D01*
X56116879Y-56481498D01*
X56070386Y-56427842D01*
X56059000Y-56375500D01*
X56059000Y-52956658D01*
X56059292Y-52948087D01*
X56062653Y-52898783D01*
X56063170Y-52891207D01*
X56052334Y-52829123D01*
X56051378Y-52822644D01*
X56043809Y-52760098D01*
X56041125Y-52752996D01*
X56040270Y-52749514D01*
X56036430Y-52735479D01*
X56035389Y-52732031D01*
X56034082Y-52724541D01*
X56027629Y-52709841D01*
X56008763Y-52666863D01*
X56006270Y-52660755D01*
X55986692Y-52608944D01*
X55986692Y-52608943D01*
X55984006Y-52601836D01*
X55979700Y-52595570D01*
X55978050Y-52592415D01*
X55970931Y-52579623D01*
X55969131Y-52576579D01*
X55966078Y-52569625D01*
X55954188Y-52554130D01*
X55927740Y-52519662D01*
X55923862Y-52514325D01*
X55892481Y-52468665D01*
X55892479Y-52468663D01*
X55888179Y-52462406D01*
X55842311Y-52421539D01*
X55837036Y-52416559D01*
X55684148Y-52263671D01*
X55650122Y-52201359D01*
X55655187Y-52130544D01*
X55697734Y-52073708D01*
X55743829Y-52052057D01*
X55829496Y-52031490D01*
X55858591Y-52024505D01*
X55863164Y-52022611D01*
X56087928Y-51929511D01*
X56087932Y-51929509D01*
X56092502Y-51927616D01*
X56308376Y-51795328D01*
X56500898Y-51630898D01*
X56665328Y-51438376D01*
X56667668Y-51434558D01*
X56723786Y-51391284D01*
X56794522Y-51385209D01*
X56857314Y-51418340D01*
X56892225Y-51480160D01*
X56895500Y-51508699D01*
X56895500Y-52118134D01*
X56902255Y-52180316D01*
X56953385Y-52316705D01*
X57040739Y-52433261D01*
X57157295Y-52520615D01*
X57293684Y-52571745D01*
X57355866Y-52578500D01*
X58004279Y-52578500D01*
X58072400Y-52598502D01*
X58118893Y-52652158D01*
X58128997Y-52722432D01*
X58099503Y-52787012D01*
X58057529Y-52818695D01*
X58022238Y-52835151D01*
X58022233Y-52835154D01*
X58017251Y-52837477D01*
X57951195Y-52883730D01*
X57834211Y-52965643D01*
X57834208Y-52965645D01*
X57829700Y-52968802D01*
X57667802Y-53130700D01*
X57664645Y-53135208D01*
X57664643Y-53135211D01*
X57634697Y-53177979D01*
X57536477Y-53318251D01*
X57534154Y-53323233D01*
X57534151Y-53323238D01*
X57442039Y-53520775D01*
X57439716Y-53525757D01*
X57438294Y-53531065D01*
X57438293Y-53531067D01*
X57388972Y-53715135D01*
X57380457Y-53746913D01*
X57360502Y-53975000D01*
X57380457Y-54203087D01*
X57381881Y-54208400D01*
X57381881Y-54208402D01*
X57404617Y-54293251D01*
X57439716Y-54424243D01*
X57442039Y-54429224D01*
X57442039Y-54429225D01*
X57534151Y-54626762D01*
X57534154Y-54626767D01*
X57536477Y-54631749D01*
X57539634Y-54636257D01*
X57656569Y-54803257D01*
X57667802Y-54819300D01*
X57829700Y-54981198D01*
X57834208Y-54984355D01*
X57834211Y-54984357D01*
X57912389Y-55039098D01*
X58017251Y-55112523D01*
X58022233Y-55114846D01*
X58022238Y-55114849D01*
X58192649Y-55194312D01*
X58224757Y-55209284D01*
X58230065Y-55210706D01*
X58230067Y-55210707D01*
X58440598Y-55267119D01*
X58440600Y-55267119D01*
X58445913Y-55268543D01*
X58674000Y-55288498D01*
X58902087Y-55268543D01*
X58907400Y-55267119D01*
X58907402Y-55267119D01*
X59117933Y-55210707D01*
X59117935Y-55210706D01*
X59123243Y-55209284D01*
X59155351Y-55194312D01*
X59325762Y-55114849D01*
X59325767Y-55114846D01*
X59330749Y-55112523D01*
X59435611Y-55039098D01*
X59513789Y-54984357D01*
X59513792Y-54984355D01*
X59518300Y-54981198D01*
X59680198Y-54819300D01*
X59691432Y-54803257D01*
X59808366Y-54636257D01*
X59811523Y-54631749D01*
X59813846Y-54626767D01*
X59813849Y-54626762D01*
X59905961Y-54429225D01*
X59905961Y-54429224D01*
X59908284Y-54424243D01*
X59943384Y-54293251D01*
X59957245Y-54241522D01*
X65011273Y-54241522D01*
X65058764Y-54418761D01*
X65062510Y-54429053D01*
X65154586Y-54626511D01*
X65160069Y-54636007D01*
X65285028Y-54814467D01*
X65292084Y-54822875D01*
X65446125Y-54976916D01*
X65454533Y-54983972D01*
X65632993Y-55108931D01*
X65642489Y-55114414D01*
X65839947Y-55206490D01*
X65850239Y-55210236D01*
X66022503Y-55256394D01*
X66036599Y-55256058D01*
X66040000Y-55248116D01*
X66040000Y-55242967D01*
X66548000Y-55242967D01*
X66551973Y-55256498D01*
X66560522Y-55257727D01*
X66737761Y-55210236D01*
X66748053Y-55206490D01*
X66945511Y-55114414D01*
X66955007Y-55108931D01*
X67133467Y-54983972D01*
X67141875Y-54976916D01*
X67295916Y-54822875D01*
X67302972Y-54814467D01*
X67427931Y-54636007D01*
X67433414Y-54626511D01*
X67525490Y-54429053D01*
X67529236Y-54418761D01*
X67575394Y-54246497D01*
X67575058Y-54232401D01*
X67567116Y-54229000D01*
X66566115Y-54229000D01*
X66550876Y-54233475D01*
X66549671Y-54234865D01*
X66548000Y-54242548D01*
X66548000Y-55242967D01*
X66040000Y-55242967D01*
X66040000Y-54247115D01*
X66035525Y-54231876D01*
X66034135Y-54230671D01*
X66026452Y-54229000D01*
X65026033Y-54229000D01*
X65012502Y-54232973D01*
X65011273Y-54241522D01*
X59957245Y-54241522D01*
X59966119Y-54208402D01*
X59966119Y-54208400D01*
X59967543Y-54203087D01*
X59972887Y-54142000D01*
X68917502Y-54142000D01*
X68937457Y-54370087D01*
X68996716Y-54591243D01*
X68999039Y-54596224D01*
X68999039Y-54596225D01*
X69091151Y-54793762D01*
X69091154Y-54793767D01*
X69093477Y-54798749D01*
X69110596Y-54823197D01*
X69221230Y-54981198D01*
X69224802Y-54986300D01*
X69370502Y-55132000D01*
X69404528Y-55194312D01*
X69399463Y-55265127D01*
X69356916Y-55321963D01*
X69320263Y-55339132D01*
X69320684Y-55340255D01*
X69184295Y-55391385D01*
X69067739Y-55478739D01*
X68980385Y-55595295D01*
X68929255Y-55731684D01*
X68922500Y-55793866D01*
X68922500Y-57490134D01*
X68929255Y-57552316D01*
X68980385Y-57688705D01*
X69067739Y-57805261D01*
X69184295Y-57892615D01*
X69320684Y-57943745D01*
X69382866Y-57950500D01*
X71079134Y-57950500D01*
X71141316Y-57943745D01*
X71277705Y-57892615D01*
X71394261Y-57805261D01*
X71481615Y-57688705D01*
X71532745Y-57552316D01*
X71539500Y-57490134D01*
X71539500Y-55793866D01*
X71532745Y-55731684D01*
X71481615Y-55595295D01*
X71394261Y-55478739D01*
X71277705Y-55391385D01*
X71141316Y-55340255D01*
X71142046Y-55338309D01*
X71089795Y-55308455D01*
X71056979Y-55245497D01*
X71063409Y-55174793D01*
X71091498Y-55132000D01*
X71237198Y-54986300D01*
X71240771Y-54981198D01*
X71351404Y-54823197D01*
X71368523Y-54798749D01*
X71370846Y-54793767D01*
X71370849Y-54793762D01*
X71462961Y-54596225D01*
X71462961Y-54596224D01*
X71465284Y-54591243D01*
X71524543Y-54370087D01*
X71544498Y-54142000D01*
X71524543Y-53913913D01*
X71472081Y-53718124D01*
X71466707Y-53698067D01*
X71466706Y-53698065D01*
X71465284Y-53692757D01*
X71442108Y-53643055D01*
X71370849Y-53490238D01*
X71370846Y-53490233D01*
X71368523Y-53485251D01*
X71248607Y-53313993D01*
X71240357Y-53302211D01*
X71240355Y-53302208D01*
X71237198Y-53297700D01*
X71075300Y-53135802D01*
X71070792Y-53132645D01*
X71070789Y-53132643D01*
X70969844Y-53061961D01*
X70887749Y-53004477D01*
X70882767Y-53002154D01*
X70882762Y-53002151D01*
X70685225Y-52910039D01*
X70685224Y-52910039D01*
X70680243Y-52907716D01*
X70674935Y-52906294D01*
X70674933Y-52906293D01*
X70464402Y-52849881D01*
X70464400Y-52849881D01*
X70459087Y-52848457D01*
X70231000Y-52828502D01*
X70002913Y-52848457D01*
X69997600Y-52849881D01*
X69997598Y-52849881D01*
X69787067Y-52906293D01*
X69787065Y-52906294D01*
X69781757Y-52907716D01*
X69776776Y-52910039D01*
X69776775Y-52910039D01*
X69579238Y-53002151D01*
X69579233Y-53002154D01*
X69574251Y-53004477D01*
X69492156Y-53061961D01*
X69391211Y-53132643D01*
X69391208Y-53132645D01*
X69386700Y-53135802D01*
X69224802Y-53297700D01*
X69221645Y-53302208D01*
X69221643Y-53302211D01*
X69213393Y-53313993D01*
X69093477Y-53485251D01*
X69091154Y-53490233D01*
X69091151Y-53490238D01*
X69019892Y-53643055D01*
X68996716Y-53692757D01*
X68995294Y-53698065D01*
X68995293Y-53698067D01*
X68989919Y-53718124D01*
X68937457Y-53913913D01*
X68917502Y-54142000D01*
X59972887Y-54142000D01*
X59987498Y-53975000D01*
X59967543Y-53746913D01*
X59959028Y-53715135D01*
X59955911Y-53703503D01*
X65012606Y-53703503D01*
X65012942Y-53717599D01*
X65020884Y-53721000D01*
X66021885Y-53721000D01*
X66037124Y-53716525D01*
X66038329Y-53715135D01*
X66040000Y-53707452D01*
X66040000Y-53702885D01*
X66548000Y-53702885D01*
X66552475Y-53718124D01*
X66553865Y-53719329D01*
X66561548Y-53721000D01*
X67561967Y-53721000D01*
X67575498Y-53717027D01*
X67576727Y-53708478D01*
X67529236Y-53531239D01*
X67525490Y-53520947D01*
X67433414Y-53323489D01*
X67427931Y-53313993D01*
X67302972Y-53135533D01*
X67295916Y-53127125D01*
X67141875Y-52973084D01*
X67133467Y-52966028D01*
X66955007Y-52841069D01*
X66945511Y-52835586D01*
X66748053Y-52743510D01*
X66737761Y-52739764D01*
X66565497Y-52693606D01*
X66551401Y-52693942D01*
X66548000Y-52701884D01*
X66548000Y-53702885D01*
X66040000Y-53702885D01*
X66040000Y-52707033D01*
X66036027Y-52693502D01*
X66027478Y-52692273D01*
X65850239Y-52739764D01*
X65839947Y-52743510D01*
X65642489Y-52835586D01*
X65632993Y-52841069D01*
X65454533Y-52966028D01*
X65446125Y-52973084D01*
X65292084Y-53127125D01*
X65285028Y-53135533D01*
X65160069Y-53313993D01*
X65154586Y-53323489D01*
X65062510Y-53520947D01*
X65058764Y-53531239D01*
X65012606Y-53703503D01*
X59955911Y-53703503D01*
X59909707Y-53531067D01*
X59909706Y-53531065D01*
X59908284Y-53525757D01*
X59905961Y-53520775D01*
X59813849Y-53323238D01*
X59813846Y-53323233D01*
X59811523Y-53318251D01*
X59713303Y-53177979D01*
X59683357Y-53135211D01*
X59683355Y-53135208D01*
X59680198Y-53130700D01*
X59518300Y-52968802D01*
X59513792Y-52965645D01*
X59513789Y-52965643D01*
X59396805Y-52883730D01*
X59330749Y-52837477D01*
X59325767Y-52835154D01*
X59325762Y-52835151D01*
X59290471Y-52818695D01*
X59237186Y-52771778D01*
X59217725Y-52703500D01*
X59238267Y-52635540D01*
X59292290Y-52589475D01*
X59343721Y-52578500D01*
X59992134Y-52578500D01*
X60054316Y-52571745D01*
X60190705Y-52520615D01*
X60307261Y-52433261D01*
X60394615Y-52316705D01*
X60445745Y-52180316D01*
X60452500Y-52118134D01*
X60452500Y-50753314D01*
X61971124Y-50753314D01*
X61971348Y-50757980D01*
X61971348Y-50757985D01*
X61975658Y-50847699D01*
X61983807Y-51017352D01*
X61993588Y-51066522D01*
X62028843Y-51243761D01*
X62035378Y-51276616D01*
X62036957Y-51281014D01*
X62036959Y-51281021D01*
X62098262Y-51451762D01*
X62124704Y-51525410D01*
X62126921Y-51529536D01*
X62194301Y-51654936D01*
X62249822Y-51758267D01*
X62252617Y-51762011D01*
X62252619Y-51762013D01*
X62405192Y-51966333D01*
X62407985Y-51970073D01*
X62411292Y-51973351D01*
X62411297Y-51973357D01*
X62553897Y-52114717D01*
X62595718Y-52156174D01*
X62599485Y-52158936D01*
X62599486Y-52158937D01*
X62756743Y-52274243D01*
X62808896Y-52312483D01*
X62813031Y-52314659D01*
X62813035Y-52314661D01*
X62936293Y-52379510D01*
X63042836Y-52435565D01*
X63137621Y-52468665D01*
X63287498Y-52521004D01*
X63292400Y-52522716D01*
X63296993Y-52523588D01*
X63547515Y-52571151D01*
X63547518Y-52571151D01*
X63552104Y-52572022D01*
X63684174Y-52577212D01*
X63811575Y-52582218D01*
X63811581Y-52582218D01*
X63816243Y-52582401D01*
X64079015Y-52553622D01*
X64083526Y-52552434D01*
X64083528Y-52552434D01*
X64330124Y-52487511D01*
X64330126Y-52487510D01*
X64334647Y-52486320D01*
X64345256Y-52481762D01*
X64573229Y-52383817D01*
X64573231Y-52383816D01*
X64577523Y-52381972D01*
X64752112Y-52273933D01*
X64798332Y-52245331D01*
X64798334Y-52245330D01*
X64802307Y-52242871D01*
X64867460Y-52187715D01*
X65000496Y-52075093D01*
X65000498Y-52075091D01*
X65004063Y-52072073D01*
X65178356Y-51873329D01*
X65196884Y-51844525D01*
X65318831Y-51654936D01*
X65321359Y-51651006D01*
X65429930Y-51409988D01*
X65501683Y-51155570D01*
X65521245Y-51001803D01*
X65534645Y-50896471D01*
X65534645Y-50896465D01*
X65535043Y-50893340D01*
X65537487Y-50800000D01*
X65534018Y-50753314D01*
X67051124Y-50753314D01*
X67051348Y-50757980D01*
X67051348Y-50757985D01*
X67055658Y-50847699D01*
X67063807Y-51017352D01*
X67073588Y-51066522D01*
X67108843Y-51243761D01*
X67115378Y-51276616D01*
X67116957Y-51281014D01*
X67116959Y-51281021D01*
X67178262Y-51451762D01*
X67204704Y-51525410D01*
X67206921Y-51529536D01*
X67274301Y-51654936D01*
X67329822Y-51758267D01*
X67332617Y-51762011D01*
X67332619Y-51762013D01*
X67485192Y-51966333D01*
X67487985Y-51970073D01*
X67491292Y-51973351D01*
X67491297Y-51973357D01*
X67633897Y-52114717D01*
X67675718Y-52156174D01*
X67679485Y-52158936D01*
X67679486Y-52158937D01*
X67836743Y-52274243D01*
X67888896Y-52312483D01*
X67893031Y-52314659D01*
X67893035Y-52314661D01*
X68016293Y-52379510D01*
X68122836Y-52435565D01*
X68217621Y-52468665D01*
X68367498Y-52521004D01*
X68372400Y-52522716D01*
X68376993Y-52523588D01*
X68627515Y-52571151D01*
X68627518Y-52571151D01*
X68632104Y-52572022D01*
X68764174Y-52577212D01*
X68891575Y-52582218D01*
X68891581Y-52582218D01*
X68896243Y-52582401D01*
X69159015Y-52553622D01*
X69163526Y-52552434D01*
X69163528Y-52552434D01*
X69410124Y-52487511D01*
X69410126Y-52487510D01*
X69414647Y-52486320D01*
X69425256Y-52481762D01*
X69653229Y-52383817D01*
X69653231Y-52383816D01*
X69657523Y-52381972D01*
X69832112Y-52273933D01*
X69878332Y-52245331D01*
X69878334Y-52245330D01*
X69882307Y-52242871D01*
X69947460Y-52187715D01*
X70080496Y-52075093D01*
X70080498Y-52075091D01*
X70084063Y-52072073D01*
X70258356Y-51873329D01*
X70269841Y-51855475D01*
X70395041Y-51660829D01*
X70448715Y-51614358D01*
X70518993Y-51604282D01*
X70583562Y-51633800D01*
X70593577Y-51643978D01*
X70593802Y-51644300D01*
X70755700Y-51806198D01*
X70760208Y-51809355D01*
X70760211Y-51809357D01*
X70826075Y-51855475D01*
X70943251Y-51937523D01*
X70948233Y-51939846D01*
X70948238Y-51939849D01*
X71144765Y-52031490D01*
X71150757Y-52034284D01*
X71156065Y-52035706D01*
X71156067Y-52035707D01*
X71366598Y-52092119D01*
X71366600Y-52092119D01*
X71371913Y-52093543D01*
X71600000Y-52113498D01*
X71828087Y-52093543D01*
X71833400Y-52092119D01*
X71833402Y-52092119D01*
X72043933Y-52035707D01*
X72043935Y-52035706D01*
X72049243Y-52034284D01*
X72055235Y-52031490D01*
X72251762Y-51939849D01*
X72251767Y-51939846D01*
X72256749Y-51937523D01*
X72373925Y-51855475D01*
X72439789Y-51809357D01*
X72439792Y-51809355D01*
X72444300Y-51806198D01*
X72606198Y-51644300D01*
X72613551Y-51633800D01*
X72734366Y-51461257D01*
X72737523Y-51456749D01*
X72739846Y-51451767D01*
X72739849Y-51451762D01*
X72831961Y-51254225D01*
X72831961Y-51254224D01*
X72834284Y-51249243D01*
X72842623Y-51218124D01*
X72883245Y-51066522D01*
X77937273Y-51066522D01*
X77984764Y-51243761D01*
X77988510Y-51254053D01*
X78080586Y-51451511D01*
X78086069Y-51461007D01*
X78211028Y-51639467D01*
X78218084Y-51647875D01*
X78372125Y-51801916D01*
X78380533Y-51808972D01*
X78558993Y-51933931D01*
X78568489Y-51939414D01*
X78765947Y-52031490D01*
X78776239Y-52035236D01*
X78948503Y-52081394D01*
X78962599Y-52081058D01*
X78966000Y-52073116D01*
X78966000Y-52067967D01*
X79474000Y-52067967D01*
X79477973Y-52081498D01*
X79486522Y-52082727D01*
X79663761Y-52035236D01*
X79674053Y-52031490D01*
X79871511Y-51939414D01*
X79881007Y-51933931D01*
X80059467Y-51808972D01*
X80067875Y-51801916D01*
X80221916Y-51647875D01*
X80228972Y-51639467D01*
X80353931Y-51461007D01*
X80359414Y-51451511D01*
X80451490Y-51254053D01*
X80455236Y-51243761D01*
X80501394Y-51071497D01*
X80501058Y-51057401D01*
X80493116Y-51054000D01*
X79492115Y-51054000D01*
X79476876Y-51058475D01*
X79475671Y-51059865D01*
X79474000Y-51067548D01*
X79474000Y-52067967D01*
X78966000Y-52067967D01*
X78966000Y-51072115D01*
X78961525Y-51056876D01*
X78960135Y-51055671D01*
X78952452Y-51054000D01*
X77952033Y-51054000D01*
X77938502Y-51057973D01*
X77937273Y-51066522D01*
X72883245Y-51066522D01*
X72892119Y-51033402D01*
X72892119Y-51033400D01*
X72893543Y-51028087D01*
X72913498Y-50800000D01*
X72893543Y-50571913D01*
X72885401Y-50541525D01*
X72881912Y-50528503D01*
X77938606Y-50528503D01*
X77938942Y-50542599D01*
X77946884Y-50546000D01*
X78947885Y-50546000D01*
X78963124Y-50541525D01*
X78964329Y-50540135D01*
X78966000Y-50532452D01*
X78966000Y-50527885D01*
X79474000Y-50527885D01*
X79478475Y-50543124D01*
X79479865Y-50544329D01*
X79487548Y-50546000D01*
X80487967Y-50546000D01*
X80501498Y-50542027D01*
X80502727Y-50533478D01*
X80455236Y-50356239D01*
X80451490Y-50345947D01*
X80359414Y-50148489D01*
X80353931Y-50138993D01*
X80228972Y-49960533D01*
X80221916Y-49952125D01*
X80067875Y-49798084D01*
X80059467Y-49791028D01*
X79881007Y-49666069D01*
X79871511Y-49660586D01*
X79674053Y-49568510D01*
X79663761Y-49564764D01*
X79491497Y-49518606D01*
X79477401Y-49518942D01*
X79474000Y-49526884D01*
X79474000Y-50527885D01*
X78966000Y-50527885D01*
X78966000Y-49532033D01*
X78962027Y-49518502D01*
X78953478Y-49517273D01*
X78776239Y-49564764D01*
X78765947Y-49568510D01*
X78568489Y-49660586D01*
X78558993Y-49666069D01*
X78380533Y-49791028D01*
X78372125Y-49798084D01*
X78218084Y-49952125D01*
X78211028Y-49960533D01*
X78086069Y-50138993D01*
X78080586Y-50148489D01*
X77988510Y-50345947D01*
X77984764Y-50356239D01*
X77938606Y-50528503D01*
X72881912Y-50528503D01*
X72835707Y-50356067D01*
X72835706Y-50356065D01*
X72834284Y-50350757D01*
X72831961Y-50345775D01*
X72739849Y-50148238D01*
X72739846Y-50148233D01*
X72737523Y-50143251D01*
X72606198Y-49955700D01*
X72444300Y-49793802D01*
X72439792Y-49790645D01*
X72439789Y-49790643D01*
X72349327Y-49727301D01*
X72256749Y-49662477D01*
X72251767Y-49660154D01*
X72251762Y-49660151D01*
X72054225Y-49568039D01*
X72054224Y-49568039D01*
X72049243Y-49565716D01*
X72043935Y-49564294D01*
X72043933Y-49564293D01*
X71833402Y-49507881D01*
X71833400Y-49507881D01*
X71828087Y-49506457D01*
X71600000Y-49486502D01*
X71371913Y-49506457D01*
X71366600Y-49507881D01*
X71366598Y-49507881D01*
X71156067Y-49564293D01*
X71156065Y-49564294D01*
X71150757Y-49565716D01*
X71145776Y-49568039D01*
X71145775Y-49568039D01*
X70948238Y-49660151D01*
X70948233Y-49660154D01*
X70943251Y-49662477D01*
X70850673Y-49727301D01*
X70760211Y-49790643D01*
X70760208Y-49790645D01*
X70755700Y-49793802D01*
X70593802Y-49955700D01*
X70593647Y-49955921D01*
X70535881Y-49994347D01*
X70464893Y-49995467D01*
X70404569Y-49958031D01*
X70389086Y-49936549D01*
X70314897Y-49806744D01*
X70314895Y-49806742D01*
X70312578Y-49802687D01*
X70148925Y-49595094D01*
X69956385Y-49413970D01*
X69916437Y-49386257D01*
X69743026Y-49265958D01*
X69743021Y-49265955D01*
X69739188Y-49263296D01*
X69734997Y-49261229D01*
X69506294Y-49148445D01*
X69506291Y-49148444D01*
X69502106Y-49146380D01*
X69445150Y-49128148D01*
X69292814Y-49079385D01*
X69250347Y-49065791D01*
X69107825Y-49042580D01*
X68994053Y-49024051D01*
X68994052Y-49024051D01*
X68989441Y-49023300D01*
X68857281Y-49021570D01*
X68729798Y-49019901D01*
X68729795Y-49019901D01*
X68725121Y-49019840D01*
X68463192Y-49055486D01*
X68458702Y-49056795D01*
X68458696Y-49056796D01*
X68362720Y-49084771D01*
X68209410Y-49129457D01*
X68205163Y-49131415D01*
X68205160Y-49131416D01*
X68140211Y-49161358D01*
X67969348Y-49240127D01*
X67965439Y-49242690D01*
X67752195Y-49382499D01*
X67752190Y-49382503D01*
X67748282Y-49385065D01*
X67744790Y-49388182D01*
X67568223Y-49545774D01*
X67551067Y-49561086D01*
X67382036Y-49764324D01*
X67244901Y-49990314D01*
X67243095Y-49994622D01*
X67243094Y-49994623D01*
X67145032Y-50228476D01*
X67142677Y-50234091D01*
X67141526Y-50238623D01*
X67141525Y-50238626D01*
X67116957Y-50335362D01*
X67077608Y-50490301D01*
X67051124Y-50753314D01*
X65534018Y-50753314D01*
X65525914Y-50644268D01*
X65518243Y-50541036D01*
X65518242Y-50541032D01*
X65517897Y-50536384D01*
X65459557Y-50278559D01*
X65452605Y-50260681D01*
X65365442Y-50036542D01*
X65365441Y-50036540D01*
X65363749Y-50032189D01*
X65356224Y-50019022D01*
X65266777Y-49862523D01*
X65232578Y-49802687D01*
X65068925Y-49595094D01*
X64876385Y-49413970D01*
X64836437Y-49386257D01*
X64663026Y-49265958D01*
X64663021Y-49265955D01*
X64659188Y-49263296D01*
X64654997Y-49261229D01*
X64426294Y-49148445D01*
X64426291Y-49148444D01*
X64422106Y-49146380D01*
X64365150Y-49128148D01*
X64212814Y-49079385D01*
X64170347Y-49065791D01*
X64027825Y-49042580D01*
X63914053Y-49024051D01*
X63914052Y-49024051D01*
X63909441Y-49023300D01*
X63777281Y-49021570D01*
X63649798Y-49019901D01*
X63649795Y-49019901D01*
X63645121Y-49019840D01*
X63383192Y-49055486D01*
X63378702Y-49056795D01*
X63378696Y-49056796D01*
X63282720Y-49084771D01*
X63129410Y-49129457D01*
X63125163Y-49131415D01*
X63125160Y-49131416D01*
X63060211Y-49161358D01*
X62889348Y-49240127D01*
X62885439Y-49242690D01*
X62672195Y-49382499D01*
X62672190Y-49382503D01*
X62668282Y-49385065D01*
X62664790Y-49388182D01*
X62488223Y-49545774D01*
X62471067Y-49561086D01*
X62302036Y-49764324D01*
X62164901Y-49990314D01*
X62163095Y-49994622D01*
X62163094Y-49994623D01*
X62065032Y-50228476D01*
X62062677Y-50234091D01*
X62061526Y-50238623D01*
X62061525Y-50238626D01*
X62036957Y-50335362D01*
X61997608Y-50490301D01*
X61971124Y-50753314D01*
X60452500Y-50753314D01*
X60452500Y-49481866D01*
X60445745Y-49419684D01*
X60394615Y-49283295D01*
X60307261Y-49166739D01*
X60190705Y-49079385D01*
X60054316Y-49028255D01*
X59992134Y-49021500D01*
X57355866Y-49021500D01*
X57293684Y-49028255D01*
X57157295Y-49079385D01*
X57040739Y-49166739D01*
X56953385Y-49283295D01*
X56902255Y-49419684D01*
X56895500Y-49481866D01*
X56894805Y-49481790D01*
X56872202Y-49545774D01*
X56816116Y-49589304D01*
X56745399Y-49595603D01*
X56682504Y-49562669D01*
X56668098Y-49546097D01*
X56667910Y-49545838D01*
X56665328Y-49541624D01*
X56534276Y-49388182D01*
X56504106Y-49352858D01*
X56500898Y-49349102D01*
X56308376Y-49184672D01*
X56092502Y-49052384D01*
X56087932Y-49050491D01*
X56087928Y-49050489D01*
X55863164Y-48957389D01*
X55863162Y-48957388D01*
X55858591Y-48955495D01*
X55773968Y-48935179D01*
X55617216Y-48897546D01*
X55617210Y-48897545D01*
X55612403Y-48896391D01*
X55360000Y-48876526D01*
X55107597Y-48896391D01*
X55102790Y-48897545D01*
X55102784Y-48897546D01*
X54946032Y-48935179D01*
X54861409Y-48955495D01*
X54856838Y-48957388D01*
X54856836Y-48957389D01*
X54632072Y-49050489D01*
X54632068Y-49050491D01*
X54627498Y-49052384D01*
X54411624Y-49184672D01*
X54219102Y-49349102D01*
X54054672Y-49541624D01*
X53922384Y-49757498D01*
X53920491Y-49762068D01*
X53920489Y-49762072D01*
X53827389Y-49986836D01*
X53825495Y-49991409D01*
X53815705Y-50032189D01*
X53797943Y-50106171D01*
X53762591Y-50167740D01*
X53699564Y-50200423D01*
X53628873Y-50193842D01*
X53586329Y-50165852D01*
X53336451Y-49915974D01*
X53302425Y-49853662D01*
X53307490Y-49782847D01*
X53343630Y-49731667D01*
X53344300Y-49731198D01*
X53506198Y-49569300D01*
X53509375Y-49564764D01*
X53564174Y-49486502D01*
X53637523Y-49381749D01*
X53639846Y-49376767D01*
X53639849Y-49376762D01*
X53731961Y-49179225D01*
X53731961Y-49179224D01*
X53734284Y-49174243D01*
X53746285Y-49129457D01*
X53792119Y-48958402D01*
X53792119Y-48958400D01*
X53793543Y-48953087D01*
X53813498Y-48725000D01*
X53793543Y-48496913D01*
X53792119Y-48491598D01*
X53735707Y-48281067D01*
X53735706Y-48281065D01*
X53734284Y-48275757D01*
X53713862Y-48231961D01*
X53639849Y-48073238D01*
X53639846Y-48073233D01*
X53637523Y-48068251D01*
X53506198Y-47880700D01*
X53344300Y-47718802D01*
X53339792Y-47715645D01*
X53339789Y-47715643D01*
X53188252Y-47609536D01*
X53156749Y-47587477D01*
X53151767Y-47585154D01*
X53151762Y-47585151D01*
X52954225Y-47493039D01*
X52954224Y-47493039D01*
X52949243Y-47490716D01*
X52943935Y-47489294D01*
X52943933Y-47489293D01*
X52733402Y-47432881D01*
X52733400Y-47432881D01*
X52728087Y-47431457D01*
X52500000Y-47411502D01*
X52271913Y-47431457D01*
X52266600Y-47432881D01*
X52266598Y-47432881D01*
X52056067Y-47489293D01*
X52056065Y-47489294D01*
X52050757Y-47490716D01*
X52045776Y-47493039D01*
X52045775Y-47493039D01*
X51848238Y-47585151D01*
X51848233Y-47585154D01*
X51843251Y-47587477D01*
X51811748Y-47609536D01*
X51660211Y-47715643D01*
X51660208Y-47715645D01*
X51655700Y-47718802D01*
X51493802Y-47880700D01*
X51362477Y-48068251D01*
X51360154Y-48073233D01*
X51360151Y-48073238D01*
X51286138Y-48231961D01*
X51265716Y-48275757D01*
X51264294Y-48281065D01*
X51264293Y-48281067D01*
X51207881Y-48491598D01*
X51206457Y-48496913D01*
X51186502Y-48725000D01*
X51206457Y-48953087D01*
X51207881Y-48958400D01*
X51207881Y-48958402D01*
X51253716Y-49129457D01*
X51265716Y-49174243D01*
X51268039Y-49179224D01*
X51268039Y-49179225D01*
X51360151Y-49376762D01*
X51360154Y-49376767D01*
X51362477Y-49381749D01*
X51435826Y-49486502D01*
X51490626Y-49564764D01*
X51493802Y-49569300D01*
X51655700Y-49731198D01*
X51660208Y-49734355D01*
X51660211Y-49734357D01*
X51747271Y-49795317D01*
X51791599Y-49850774D01*
X51801000Y-49898530D01*
X51801000Y-50039459D01*
X51800708Y-50048029D01*
X51796830Y-50104910D01*
X51798135Y-50112386D01*
X51798135Y-50112390D01*
X51807663Y-50166982D01*
X51808626Y-50173507D01*
X51816191Y-50236018D01*
X51818875Y-50243120D01*
X51819719Y-50246558D01*
X51823583Y-50260681D01*
X51824613Y-50264092D01*
X51825919Y-50271575D01*
X51828972Y-50278530D01*
X51851239Y-50329256D01*
X51853730Y-50335362D01*
X51859548Y-50350757D01*
X51875994Y-50394280D01*
X51880293Y-50400535D01*
X51881935Y-50403676D01*
X51889033Y-50416430D01*
X51890870Y-50419536D01*
X51893923Y-50426491D01*
X51898548Y-50432518D01*
X51898550Y-50432522D01*
X51932265Y-50476460D01*
X51936144Y-50481799D01*
X51954214Y-50508092D01*
X51976313Y-50575561D01*
X51958426Y-50644268D01*
X51903622Y-50693652D01*
X51863251Y-50712477D01*
X51804930Y-50753314D01*
X51680211Y-50840643D01*
X51680208Y-50840645D01*
X51675700Y-50843802D01*
X51513802Y-51005700D01*
X51510645Y-51010208D01*
X51510643Y-51010211D01*
X51498126Y-51028087D01*
X51382477Y-51193251D01*
X51380154Y-51198233D01*
X51380151Y-51198238D01*
X51292966Y-51385209D01*
X51285716Y-51400757D01*
X51284294Y-51406065D01*
X51284293Y-51406067D01*
X51228481Y-51614358D01*
X51226457Y-51621913D01*
X51206502Y-51850000D01*
X51206981Y-51855475D01*
X51225978Y-52072607D01*
X51226457Y-52078087D01*
X51226878Y-52079660D01*
X51219141Y-52149031D01*
X51192020Y-52189445D01*
X50860461Y-52521004D01*
X50854196Y-52526857D01*
X50811225Y-52564343D01*
X50798662Y-52582218D01*
X50775005Y-52615879D01*
X50771072Y-52621175D01*
X50736893Y-52664764D01*
X50736891Y-52664767D01*
X50732207Y-52670741D01*
X50729081Y-52677665D01*
X50727243Y-52680700D01*
X50719999Y-52693399D01*
X50718311Y-52696547D01*
X50713943Y-52702762D01*
X50695716Y-52749514D01*
X50691066Y-52761440D01*
X50688521Y-52767496D01*
X50662586Y-52824936D01*
X50661201Y-52832409D01*
X50660130Y-52835827D01*
X50656145Y-52849816D01*
X50655248Y-52853308D01*
X50652487Y-52860390D01*
X50651495Y-52867923D01*
X50651495Y-52867924D01*
X50644266Y-52922831D01*
X50643234Y-52929344D01*
X50635727Y-52969849D01*
X50631754Y-52991288D01*
X50632191Y-52998868D01*
X50632191Y-52998869D01*
X50635290Y-53052613D01*
X50635499Y-53059866D01*
X50635499Y-56808166D01*
X50635207Y-56816736D01*
X50631329Y-56873617D01*
X50632634Y-56881093D01*
X50632634Y-56881097D01*
X50642162Y-56935689D01*
X50643125Y-56942214D01*
X50650690Y-57004725D01*
X50653374Y-57011827D01*
X50654218Y-57015265D01*
X50658082Y-57029388D01*
X50659112Y-57032799D01*
X50660418Y-57040282D01*
X50663471Y-57047237D01*
X50685738Y-57097963D01*
X50688229Y-57104069D01*
X50710493Y-57162987D01*
X50714792Y-57169242D01*
X50716434Y-57172383D01*
X50723532Y-57185137D01*
X50725369Y-57188243D01*
X50728422Y-57195198D01*
X50733047Y-57201225D01*
X50733049Y-57201229D01*
X50766764Y-57245167D01*
X50770628Y-57250485D01*
X50806320Y-57302417D01*
X50811990Y-57307469D01*
X50811991Y-57307470D01*
X50852187Y-57343283D01*
X50857463Y-57348264D01*
X53155891Y-59646692D01*
X53189917Y-59709004D01*
X53184852Y-59779819D01*
X53142305Y-59836655D01*
X53120047Y-59849981D01*
X53098244Y-59860148D01*
X53098239Y-59860151D01*
X53093251Y-59862477D01*
X53008368Y-59921913D01*
X52910211Y-59990643D01*
X52910208Y-59990645D01*
X52905700Y-59993802D01*
X52743802Y-60155700D01*
X52740645Y-60160208D01*
X52740643Y-60160211D01*
X52679683Y-60247271D01*
X52624226Y-60291599D01*
X52576470Y-60301000D01*
X48970404Y-60301000D01*
X48902283Y-60280998D01*
X48855790Y-60227342D01*
X48845686Y-60157068D01*
X48867191Y-60102729D01*
X48983931Y-59936007D01*
X48989414Y-59926511D01*
X49081490Y-59729053D01*
X49085236Y-59718761D01*
X49141625Y-59508312D01*
X49143528Y-59497519D01*
X49162517Y-59280475D01*
X49162517Y-59269525D01*
X49143528Y-59052481D01*
X49141625Y-59041688D01*
X49085236Y-58831239D01*
X49081490Y-58820947D01*
X48989414Y-58623489D01*
X48983931Y-58613994D01*
X48947491Y-58561952D01*
X48937012Y-58553576D01*
X48923566Y-58560644D01*
X47939095Y-59545115D01*
X47876783Y-59579141D01*
X47805968Y-59574076D01*
X47760905Y-59545115D01*
X46775713Y-58559923D01*
X46733971Y-58537129D01*
X46723971Y-58534953D01*
X46673773Y-58484747D01*
X46658549Y-58431186D01*
X46658500Y-58430281D01*
X46658500Y-58426866D01*
X46651745Y-58364684D01*
X46600615Y-58228295D01*
X46570407Y-58187988D01*
X47128576Y-58187988D01*
X47135644Y-58201434D01*
X47837188Y-58902978D01*
X47851132Y-58910592D01*
X47852965Y-58910461D01*
X47859580Y-58906210D01*
X48565077Y-58200713D01*
X48571507Y-58188938D01*
X48562211Y-58176923D01*
X48511006Y-58141069D01*
X48501511Y-58135586D01*
X48304053Y-58043510D01*
X48293761Y-58039764D01*
X48083312Y-57983375D01*
X48072519Y-57981472D01*
X47855475Y-57962483D01*
X47844525Y-57962483D01*
X47627481Y-57981472D01*
X47616688Y-57983375D01*
X47406239Y-58039764D01*
X47395947Y-58043510D01*
X47198489Y-58135586D01*
X47188994Y-58141069D01*
X47136952Y-58177509D01*
X47128576Y-58187988D01*
X46570407Y-58187988D01*
X46513261Y-58111739D01*
X46396705Y-58024385D01*
X46260316Y-57973255D01*
X46198134Y-57966500D01*
X44501866Y-57966500D01*
X44439684Y-57973255D01*
X44303295Y-58024385D01*
X44186739Y-58111739D01*
X44099385Y-58228295D01*
X44048255Y-58364684D01*
X44041500Y-58426866D01*
X44041500Y-60123134D01*
X44041869Y-60126529D01*
X44041869Y-60126533D01*
X44045656Y-60161393D01*
X44033128Y-60231275D01*
X43984807Y-60283291D01*
X43920393Y-60301000D01*
X43295599Y-60301000D01*
X43287029Y-60300708D01*
X43237723Y-60297346D01*
X43237719Y-60297346D01*
X43230148Y-60296830D01*
X43222672Y-60298135D01*
X43222668Y-60298135D01*
X43168076Y-60307663D01*
X43161551Y-60308626D01*
X43106582Y-60315278D01*
X43106580Y-60315279D01*
X43099040Y-60316191D01*
X43091938Y-60318875D01*
X43088500Y-60319719D01*
X43074377Y-60323583D01*
X43070966Y-60324613D01*
X43063483Y-60325919D01*
X43056528Y-60328972D01*
X43005802Y-60351239D01*
X42999696Y-60353730D01*
X42940778Y-60375994D01*
X42934523Y-60380293D01*
X42931382Y-60381935D01*
X42918628Y-60389033D01*
X42915522Y-60390870D01*
X42908567Y-60393923D01*
X42902540Y-60398548D01*
X42902536Y-60398550D01*
X42858598Y-60432265D01*
X42853280Y-60436129D01*
X42801348Y-60471821D01*
X42796296Y-60477491D01*
X42796295Y-60477492D01*
X42760482Y-60517688D01*
X42755501Y-60522964D01*
X41360149Y-61918316D01*
X41297837Y-61952342D01*
X41232641Y-61949223D01*
X41186059Y-61934312D01*
X41056347Y-61892791D01*
X40870647Y-61862548D01*
X40800053Y-61851051D01*
X40800052Y-61851051D01*
X40795441Y-61850300D01*
X40663281Y-61848570D01*
X40535798Y-61846901D01*
X40535795Y-61846901D01*
X40531121Y-61846840D01*
X40269192Y-61882486D01*
X40264702Y-61883795D01*
X40264696Y-61883796D01*
X40167200Y-61912214D01*
X40015410Y-61956457D01*
X40011163Y-61958415D01*
X40011160Y-61958416D01*
X39946211Y-61988358D01*
X39775348Y-62067127D01*
X39747857Y-62085151D01*
X39558195Y-62209499D01*
X39558190Y-62209503D01*
X39554282Y-62212065D01*
X39494681Y-62265261D01*
X39369709Y-62376803D01*
X39357067Y-62388086D01*
X39188036Y-62591324D01*
X39050901Y-62817314D01*
X39049095Y-62821622D01*
X39049094Y-62821623D01*
X38956949Y-63041365D01*
X38948677Y-63061091D01*
X38947526Y-63065623D01*
X38947525Y-63065626D01*
X38936226Y-63110116D01*
X38883608Y-63317301D01*
X38857124Y-63580314D01*
X38857348Y-63584980D01*
X38857348Y-63584985D01*
X38859518Y-63630160D01*
X38869807Y-63844352D01*
X38882518Y-63908255D01*
X38915899Y-64076069D01*
X38921378Y-64103616D01*
X38922957Y-64108014D01*
X38922959Y-64108021D01*
X38989117Y-64292285D01*
X39010704Y-64352410D01*
X39012921Y-64356536D01*
X39087279Y-64494923D01*
X39135822Y-64585267D01*
X39138617Y-64589011D01*
X39138619Y-64589013D01*
X39221743Y-64700329D01*
X39293985Y-64797073D01*
X39297292Y-64800351D01*
X39297297Y-64800357D01*
X39396879Y-64899073D01*
X39481718Y-64983174D01*
X39485485Y-64985936D01*
X39485486Y-64985937D01*
X39583821Y-65058039D01*
X39694896Y-65139483D01*
X39699031Y-65141659D01*
X39699035Y-65141661D01*
X39804575Y-65197188D01*
X39928836Y-65262565D01*
X40021662Y-65294981D01*
X40172384Y-65347615D01*
X40178400Y-65349716D01*
X40182993Y-65350588D01*
X40433515Y-65398151D01*
X40433518Y-65398151D01*
X40438104Y-65399022D01*
X40570174Y-65404212D01*
X40697575Y-65409218D01*
X40697581Y-65409218D01*
X40702243Y-65409401D01*
X40965015Y-65380622D01*
X40969526Y-65379434D01*
X40969528Y-65379434D01*
X41216124Y-65314511D01*
X41216126Y-65314510D01*
X41220647Y-65313320D01*
X41263332Y-65294981D01*
X41459229Y-65210817D01*
X41459231Y-65210816D01*
X41463523Y-65208972D01*
X41688307Y-65069871D01*
X41753460Y-65014715D01*
X41886496Y-64902093D01*
X41886498Y-64902091D01*
X41890063Y-64899073D01*
X42064356Y-64700329D01*
X42138367Y-64585267D01*
X42182201Y-64517119D01*
X42207359Y-64478006D01*
X42315930Y-64236988D01*
X42387683Y-63982570D01*
X42421043Y-63720340D01*
X42423487Y-63627000D01*
X42404612Y-63373000D01*
X42404243Y-63368036D01*
X42404242Y-63368032D01*
X42403897Y-63363384D01*
X42345557Y-63105559D01*
X42343864Y-63101205D01*
X42343862Y-63101198D01*
X42320594Y-63041365D01*
X42314547Y-62970626D01*
X42348932Y-62906603D01*
X43519630Y-61735905D01*
X43581942Y-61701879D01*
X43608725Y-61699000D01*
X45096144Y-61699000D01*
X45164265Y-61719002D01*
X45210758Y-61772658D01*
X45220862Y-61842932D01*
X45191368Y-61907512D01*
X45131402Y-61945966D01*
X45099906Y-61955146D01*
X45099900Y-61955148D01*
X45095410Y-61956457D01*
X45091163Y-61958415D01*
X45091160Y-61958416D01*
X45026211Y-61988358D01*
X44855348Y-62067127D01*
X44827857Y-62085151D01*
X44638195Y-62209499D01*
X44638190Y-62209503D01*
X44634282Y-62212065D01*
X44574681Y-62265261D01*
X44449709Y-62376803D01*
X44437067Y-62388086D01*
X44268036Y-62591324D01*
X44130901Y-62817314D01*
X44129095Y-62821622D01*
X44129094Y-62821623D01*
X44036949Y-63041365D01*
X44028677Y-63061091D01*
X44027526Y-63065623D01*
X44027525Y-63065626D01*
X44016226Y-63110116D01*
X43963608Y-63317301D01*
X43937124Y-63580314D01*
X43937348Y-63584980D01*
X43937348Y-63584985D01*
X43939518Y-63630160D01*
X43949807Y-63844352D01*
X43962518Y-63908255D01*
X43995899Y-64076069D01*
X44001378Y-64103616D01*
X44002957Y-64108014D01*
X44002959Y-64108021D01*
X44069117Y-64292285D01*
X44090704Y-64352410D01*
X44092921Y-64356536D01*
X44167279Y-64494923D01*
X44215822Y-64585267D01*
X44218617Y-64589011D01*
X44218619Y-64589013D01*
X44301743Y-64700329D01*
X44373985Y-64797073D01*
X44377292Y-64800351D01*
X44377297Y-64800357D01*
X44476879Y-64899073D01*
X44561718Y-64983174D01*
X44565485Y-64985936D01*
X44565486Y-64985937D01*
X44663821Y-65058039D01*
X44774896Y-65139483D01*
X44779031Y-65141659D01*
X44779035Y-65141661D01*
X44884575Y-65197188D01*
X45008836Y-65262565D01*
X45101662Y-65294981D01*
X45252384Y-65347615D01*
X45258400Y-65349716D01*
X45262993Y-65350588D01*
X45513515Y-65398151D01*
X45513518Y-65398151D01*
X45518104Y-65399022D01*
X45650174Y-65404212D01*
X45777575Y-65409218D01*
X45777581Y-65409218D01*
X45782243Y-65409401D01*
X46045015Y-65380622D01*
X46057614Y-65377305D01*
X46128581Y-65379302D01*
X46187204Y-65419351D01*
X46214869Y-65484735D01*
X46202792Y-65554697D01*
X46154808Y-65607024D01*
X46142946Y-65613347D01*
X45978238Y-65690151D01*
X45978233Y-65690154D01*
X45973251Y-65692477D01*
X45911617Y-65735634D01*
X45790211Y-65820643D01*
X45790208Y-65820645D01*
X45785700Y-65823802D01*
X45623802Y-65985700D01*
X45620645Y-65990208D01*
X45620643Y-65990211D01*
X45573083Y-66058134D01*
X45492477Y-66173251D01*
X45490154Y-66178233D01*
X45490151Y-66178238D01*
X45412888Y-66343931D01*
X45395716Y-66380757D01*
X45394294Y-66386065D01*
X45394293Y-66386067D01*
X45357731Y-66522517D01*
X45336457Y-66601913D01*
X45316502Y-66830000D01*
X45336457Y-67058087D01*
X45337881Y-67063400D01*
X45337881Y-67063402D01*
X45357923Y-67138197D01*
X45395716Y-67279243D01*
X45398039Y-67284224D01*
X45398039Y-67284225D01*
X45490151Y-67481762D01*
X45490154Y-67481767D01*
X45492477Y-67486749D01*
X45523642Y-67531257D01*
X45611873Y-67657263D01*
X45623802Y-67674300D01*
X45785700Y-67836198D01*
X45790208Y-67839355D01*
X45790211Y-67839357D01*
X45837260Y-67872301D01*
X45973251Y-67967523D01*
X45978233Y-67969846D01*
X45978238Y-67969849D01*
X46174765Y-68061490D01*
X46180757Y-68064284D01*
X46186065Y-68065706D01*
X46186067Y-68065707D01*
X46396598Y-68122119D01*
X46396600Y-68122119D01*
X46401913Y-68123543D01*
X46630000Y-68143498D01*
X46858087Y-68123543D01*
X46863400Y-68122119D01*
X46863402Y-68122119D01*
X47073933Y-68065707D01*
X47073935Y-68065706D01*
X47079243Y-68064284D01*
X47085235Y-68061490D01*
X47281762Y-67969849D01*
X47281767Y-67969846D01*
X47286749Y-67967523D01*
X47422740Y-67872301D01*
X47469789Y-67839357D01*
X47469792Y-67839355D01*
X47474300Y-67836198D01*
X47636198Y-67674300D01*
X47648128Y-67657263D01*
X47736358Y-67531257D01*
X47767523Y-67486749D01*
X47769846Y-67481767D01*
X47769849Y-67481762D01*
X47861961Y-67284225D01*
X47861961Y-67284224D01*
X47864284Y-67279243D01*
X47872934Y-67246961D01*
X47909886Y-67186338D01*
X47973747Y-67155317D01*
X48044241Y-67163745D01*
X48098988Y-67208948D01*
X48116348Y-67246961D01*
X48130388Y-67299357D01*
X48135716Y-67319243D01*
X48138039Y-67324224D01*
X48138039Y-67324225D01*
X48230151Y-67521762D01*
X48230154Y-67521767D01*
X48232477Y-67526749D01*
X48305902Y-67631611D01*
X48348808Y-67692886D01*
X48363802Y-67714300D01*
X48525700Y-67876198D01*
X48530208Y-67879355D01*
X48530211Y-67879357D01*
X48608389Y-67934098D01*
X48713251Y-68007523D01*
X48718233Y-68009846D01*
X48718238Y-68009849D01*
X48907210Y-68097967D01*
X48920757Y-68104284D01*
X48926065Y-68105706D01*
X48926067Y-68105707D01*
X49136598Y-68162119D01*
X49136600Y-68162119D01*
X49141913Y-68163543D01*
X49370000Y-68183498D01*
X49598087Y-68163543D01*
X49603400Y-68162119D01*
X49603402Y-68162119D01*
X49813933Y-68105707D01*
X49813935Y-68105706D01*
X49819243Y-68104284D01*
X49832790Y-68097967D01*
X50021762Y-68009849D01*
X50021767Y-68009846D01*
X50026749Y-68007523D01*
X50131611Y-67934098D01*
X50209789Y-67879357D01*
X50209792Y-67879355D01*
X50214300Y-67876198D01*
X50376198Y-67714300D01*
X50391193Y-67692886D01*
X50434098Y-67631611D01*
X50507523Y-67526749D01*
X50509846Y-67521767D01*
X50509849Y-67521762D01*
X50601961Y-67324225D01*
X50601961Y-67324224D01*
X50604284Y-67319243D01*
X50609613Y-67299357D01*
X50662119Y-67103402D01*
X50662119Y-67103400D01*
X50663543Y-67098087D01*
X50683498Y-66870000D01*
X55676502Y-66870000D01*
X55696457Y-67098087D01*
X55697881Y-67103400D01*
X55697881Y-67103402D01*
X55750388Y-67299357D01*
X55755716Y-67319243D01*
X55758039Y-67324224D01*
X55758039Y-67324225D01*
X55850151Y-67521762D01*
X55850154Y-67521767D01*
X55852477Y-67526749D01*
X55925902Y-67631611D01*
X55968808Y-67692886D01*
X55983802Y-67714300D01*
X56145700Y-67876198D01*
X56150208Y-67879355D01*
X56150211Y-67879357D01*
X56228389Y-67934098D01*
X56333251Y-68007523D01*
X56338233Y-68009846D01*
X56338238Y-68009849D01*
X56527210Y-68097967D01*
X56540757Y-68104284D01*
X56546065Y-68105706D01*
X56546067Y-68105707D01*
X56756598Y-68162119D01*
X56756600Y-68162119D01*
X56761913Y-68163543D01*
X56990000Y-68183498D01*
X57218087Y-68163543D01*
X57223400Y-68162119D01*
X57223402Y-68162119D01*
X57433933Y-68105707D01*
X57433935Y-68105706D01*
X57439243Y-68104284D01*
X57452790Y-68097967D01*
X57641762Y-68009849D01*
X57641767Y-68009846D01*
X57646749Y-68007523D01*
X57751611Y-67934098D01*
X57829789Y-67879357D01*
X57829792Y-67879355D01*
X57834300Y-67876198D01*
X57996198Y-67714300D01*
X58011193Y-67692886D01*
X58054098Y-67631611D01*
X58127523Y-67526749D01*
X58129846Y-67521767D01*
X58129849Y-67521762D01*
X58197789Y-67376062D01*
X64478493Y-67376062D01*
X64487789Y-67388077D01*
X64538994Y-67423931D01*
X64548489Y-67429414D01*
X64745947Y-67521490D01*
X64756239Y-67525236D01*
X64966688Y-67581625D01*
X64977481Y-67583528D01*
X65194525Y-67602517D01*
X65205475Y-67602517D01*
X65422519Y-67583528D01*
X65433312Y-67581625D01*
X65643761Y-67525236D01*
X65654053Y-67521490D01*
X65851511Y-67429414D01*
X65861006Y-67423931D01*
X65913048Y-67387491D01*
X65921424Y-67377012D01*
X65914356Y-67363566D01*
X65212812Y-66662022D01*
X65198868Y-66654408D01*
X65197035Y-66654539D01*
X65190420Y-66658790D01*
X64484923Y-67364287D01*
X64478493Y-67376062D01*
X58197789Y-67376062D01*
X58221961Y-67324225D01*
X58221961Y-67324224D01*
X58224284Y-67319243D01*
X58229613Y-67299357D01*
X58282119Y-67103402D01*
X58282119Y-67103400D01*
X58283543Y-67098087D01*
X58303498Y-66870000D01*
X58283543Y-66641913D01*
X58251551Y-66522517D01*
X58225707Y-66426067D01*
X58225706Y-66426065D01*
X58224284Y-66420757D01*
X58213598Y-66397840D01*
X58203472Y-66331172D01*
X58175921Y-66310619D01*
X58162468Y-66288191D01*
X58129851Y-66218242D01*
X58129847Y-66218236D01*
X58127523Y-66213251D01*
X58054098Y-66108389D01*
X57999357Y-66030211D01*
X57999355Y-66030208D01*
X57996198Y-66025700D01*
X57834300Y-65863802D01*
X57829792Y-65860645D01*
X57829789Y-65860643D01*
X57751611Y-65805902D01*
X57646749Y-65732477D01*
X57641767Y-65730154D01*
X57641762Y-65730151D01*
X57444225Y-65638039D01*
X57444224Y-65638039D01*
X57439243Y-65635716D01*
X57433935Y-65634294D01*
X57433933Y-65634293D01*
X57223402Y-65577881D01*
X57223400Y-65577881D01*
X57218087Y-65576457D01*
X56990000Y-65556502D01*
X56761913Y-65576457D01*
X56756600Y-65577881D01*
X56756598Y-65577881D01*
X56546067Y-65634293D01*
X56546065Y-65634294D01*
X56540757Y-65635716D01*
X56535776Y-65638039D01*
X56535775Y-65638039D01*
X56338238Y-65730151D01*
X56338233Y-65730154D01*
X56333251Y-65732477D01*
X56228389Y-65805902D01*
X56150211Y-65860643D01*
X56150208Y-65860645D01*
X56145700Y-65863802D01*
X55983802Y-66025700D01*
X55980645Y-66030208D01*
X55980643Y-66030211D01*
X55925902Y-66108389D01*
X55852477Y-66213251D01*
X55850154Y-66218233D01*
X55850151Y-66218238D01*
X55776691Y-66375775D01*
X55755716Y-66420757D01*
X55754294Y-66426065D01*
X55754293Y-66426067D01*
X55728449Y-66522517D01*
X55696457Y-66641913D01*
X55676502Y-66870000D01*
X50683498Y-66870000D01*
X50663543Y-66641913D01*
X50631551Y-66522517D01*
X50605707Y-66426067D01*
X50605706Y-66426065D01*
X50604284Y-66420757D01*
X50583309Y-66375775D01*
X50509849Y-66218238D01*
X50509846Y-66218233D01*
X50507523Y-66213251D01*
X50434098Y-66108389D01*
X50379357Y-66030211D01*
X50379355Y-66030208D01*
X50376198Y-66025700D01*
X50214300Y-65863802D01*
X50209792Y-65860645D01*
X50209789Y-65860643D01*
X50131611Y-65805902D01*
X50026749Y-65732477D01*
X50021767Y-65730154D01*
X50021762Y-65730151D01*
X49840643Y-65645695D01*
X49787358Y-65598778D01*
X49767897Y-65530501D01*
X49788439Y-65462541D01*
X49842461Y-65416475D01*
X49893893Y-65405500D01*
X52118134Y-65405500D01*
X52180316Y-65398745D01*
X52316705Y-65347615D01*
X52433261Y-65260261D01*
X52520615Y-65143705D01*
X52571745Y-65007316D01*
X52578500Y-64945134D01*
X52578500Y-62308866D01*
X52571745Y-62246684D01*
X52520615Y-62110295D01*
X52433261Y-61993739D01*
X52342645Y-61925826D01*
X52300130Y-61868967D01*
X52295104Y-61798148D01*
X52329164Y-61735855D01*
X52391495Y-61701865D01*
X52418210Y-61699000D01*
X52576470Y-61699000D01*
X52644591Y-61719002D01*
X52679683Y-61752729D01*
X52711486Y-61798148D01*
X52743802Y-61844300D01*
X52905700Y-62006198D01*
X52910208Y-62009355D01*
X52910211Y-62009357D01*
X52979791Y-62058077D01*
X53093251Y-62137523D01*
X53098233Y-62139846D01*
X53098238Y-62139849D01*
X53295775Y-62231961D01*
X53300757Y-62234284D01*
X53306065Y-62235706D01*
X53306067Y-62235707D01*
X53516598Y-62292119D01*
X53516600Y-62292119D01*
X53521913Y-62293543D01*
X53750000Y-62313498D01*
X53978087Y-62293543D01*
X53983400Y-62292119D01*
X53983402Y-62292119D01*
X54193933Y-62235707D01*
X54193935Y-62235706D01*
X54199243Y-62234284D01*
X54204225Y-62231961D01*
X54401762Y-62139849D01*
X54401767Y-62139846D01*
X54406749Y-62137523D01*
X54520209Y-62058077D01*
X54589789Y-62009357D01*
X54589792Y-62009355D01*
X54594300Y-62006198D01*
X54756198Y-61844300D01*
X54789929Y-61796128D01*
X54855623Y-61702307D01*
X54887523Y-61656749D01*
X54889848Y-61651764D01*
X54889851Y-61651758D01*
X54904770Y-61619763D01*
X54951687Y-61566477D01*
X55019964Y-61547016D01*
X55087924Y-61567557D01*
X55096711Y-61573858D01*
X55132973Y-61602291D01*
X55139897Y-61605417D01*
X55142946Y-61607264D01*
X55155612Y-61614489D01*
X55158777Y-61616186D01*
X55164995Y-61620556D01*
X55223730Y-61643456D01*
X55229743Y-61645983D01*
X55287169Y-61671912D01*
X55294637Y-61673296D01*
X55298045Y-61674364D01*
X55312084Y-61678364D01*
X55315548Y-61679253D01*
X55322623Y-61682012D01*
X55330152Y-61683003D01*
X55330155Y-61683004D01*
X55385079Y-61690235D01*
X55391593Y-61691267D01*
X55446051Y-61701360D01*
X55446054Y-61701360D01*
X55453520Y-61702744D01*
X55461100Y-61702307D01*
X55461101Y-61702307D01*
X55514828Y-61699209D01*
X55522081Y-61699000D01*
X57576470Y-61699000D01*
X57644591Y-61719002D01*
X57679683Y-61752729D01*
X57711486Y-61798148D01*
X57743802Y-61844300D01*
X57905700Y-62006198D01*
X57910208Y-62009355D01*
X57910211Y-62009357D01*
X57979791Y-62058077D01*
X58093251Y-62137523D01*
X58098233Y-62139846D01*
X58098238Y-62139849D01*
X58295775Y-62231961D01*
X58300757Y-62234284D01*
X58306065Y-62235706D01*
X58306067Y-62235707D01*
X58516598Y-62292119D01*
X58516600Y-62292119D01*
X58521913Y-62293543D01*
X58750000Y-62313498D01*
X58755475Y-62313019D01*
X58755476Y-62313019D01*
X58924130Y-62298264D01*
X58993734Y-62312253D01*
X59044727Y-62361653D01*
X59060917Y-62430779D01*
X59048522Y-62474902D01*
X59049444Y-62475261D01*
X59026567Y-62533939D01*
X59024022Y-62539995D01*
X58998087Y-62597435D01*
X58996702Y-62604908D01*
X58995631Y-62608326D01*
X58991646Y-62622315D01*
X58990749Y-62625807D01*
X58987988Y-62632889D01*
X58986996Y-62640422D01*
X58986996Y-62640423D01*
X58979767Y-62695330D01*
X58978735Y-62701843D01*
X58968639Y-62756318D01*
X58967255Y-62763787D01*
X58967692Y-62771367D01*
X58967692Y-62771368D01*
X58970791Y-62825112D01*
X58971000Y-62832365D01*
X58971000Y-63775500D01*
X58950998Y-63843621D01*
X58897342Y-63890114D01*
X58845000Y-63901500D01*
X58821866Y-63901500D01*
X58759684Y-63908255D01*
X58623295Y-63959385D01*
X58506739Y-64046739D01*
X58419385Y-64163295D01*
X58368255Y-64299684D01*
X58361500Y-64361866D01*
X58361500Y-66058134D01*
X58368255Y-66120316D01*
X58371027Y-66127712D01*
X58371029Y-66127718D01*
X58394645Y-66190713D01*
X58398721Y-66246397D01*
X58422360Y-66261325D01*
X58428619Y-66269026D01*
X58448442Y-66295475D01*
X58506739Y-66373261D01*
X58623295Y-66460615D01*
X58759684Y-66511745D01*
X58821866Y-66518500D01*
X60518134Y-66518500D01*
X60580316Y-66511745D01*
X60716705Y-66460615D01*
X60833261Y-66373261D01*
X60891119Y-66296062D01*
X61448493Y-66296062D01*
X61457789Y-66308077D01*
X61508994Y-66343931D01*
X61518489Y-66349414D01*
X61715947Y-66441490D01*
X61726239Y-66445236D01*
X61936688Y-66501625D01*
X61947481Y-66503528D01*
X62164525Y-66522517D01*
X62175475Y-66522517D01*
X62392519Y-66503528D01*
X62403312Y-66501625D01*
X62613761Y-66445236D01*
X62624053Y-66441490D01*
X62821511Y-66349414D01*
X62831006Y-66343931D01*
X62883048Y-66307491D01*
X62891424Y-66297012D01*
X62890616Y-66295475D01*
X63887483Y-66295475D01*
X63906472Y-66512519D01*
X63908375Y-66523312D01*
X63964764Y-66733761D01*
X63968510Y-66744053D01*
X64060586Y-66941511D01*
X64066069Y-66951006D01*
X64102509Y-67003048D01*
X64112988Y-67011424D01*
X64126434Y-67004356D01*
X64827978Y-66302812D01*
X64834356Y-66291132D01*
X65564408Y-66291132D01*
X65564539Y-66292965D01*
X65568790Y-66299580D01*
X66274287Y-67005077D01*
X66286062Y-67011507D01*
X66298077Y-67002211D01*
X66333931Y-66951006D01*
X66339414Y-66941511D01*
X66431490Y-66744053D01*
X66435236Y-66733761D01*
X66491625Y-66523312D01*
X66493528Y-66512519D01*
X66512517Y-66295475D01*
X66512517Y-66284525D01*
X66493528Y-66067481D01*
X66491625Y-66056688D01*
X66435236Y-65846239D01*
X66431490Y-65835947D01*
X66339414Y-65638489D01*
X66333931Y-65628994D01*
X66297491Y-65576952D01*
X66287012Y-65568576D01*
X66273566Y-65575644D01*
X65572022Y-66277188D01*
X65564408Y-66291132D01*
X64834356Y-66291132D01*
X64835592Y-66288868D01*
X64835461Y-66287035D01*
X64831210Y-66280420D01*
X64125713Y-65574923D01*
X64113938Y-65568493D01*
X64101923Y-65577789D01*
X64066069Y-65628994D01*
X64060586Y-65638489D01*
X63968510Y-65835947D01*
X63964764Y-65846239D01*
X63908375Y-66056688D01*
X63906472Y-66067481D01*
X63887483Y-66284525D01*
X63887483Y-66295475D01*
X62890616Y-66295475D01*
X62884356Y-66283566D01*
X62182812Y-65582022D01*
X62168868Y-65574408D01*
X62167035Y-65574539D01*
X62160420Y-65578790D01*
X61454923Y-66284287D01*
X61448493Y-66296062D01*
X60891119Y-66296062D01*
X60920615Y-66256705D01*
X60971745Y-66120316D01*
X60977494Y-66067393D01*
X60978133Y-66061514D01*
X60978133Y-66061511D01*
X60978500Y-66058134D01*
X60978500Y-66054815D01*
X61002153Y-65987890D01*
X61048156Y-65952196D01*
X61047141Y-65950266D01*
X61058000Y-65944558D01*
X61058245Y-65944368D01*
X61058403Y-65944347D01*
X61096434Y-65924356D01*
X61797978Y-65222812D01*
X61804356Y-65211132D01*
X62534408Y-65211132D01*
X62534539Y-65212965D01*
X62538790Y-65219580D01*
X63244287Y-65925077D01*
X63256062Y-65931507D01*
X63268077Y-65922211D01*
X63303931Y-65871006D01*
X63309414Y-65861511D01*
X63401490Y-65664053D01*
X63405236Y-65653761D01*
X63461625Y-65443312D01*
X63463528Y-65432519D01*
X63482517Y-65215475D01*
X63482517Y-65204525D01*
X63482383Y-65202988D01*
X64478576Y-65202988D01*
X64485644Y-65216434D01*
X65187188Y-65917978D01*
X65201132Y-65925592D01*
X65202965Y-65925461D01*
X65209580Y-65921210D01*
X65915077Y-65215713D01*
X65921507Y-65203938D01*
X65912211Y-65191923D01*
X65861006Y-65156069D01*
X65851511Y-65150586D01*
X65654053Y-65058510D01*
X65643761Y-65054764D01*
X65433312Y-64998375D01*
X65422519Y-64996472D01*
X65205475Y-64977483D01*
X65194525Y-64977483D01*
X64977481Y-64996472D01*
X64966688Y-64998375D01*
X64756239Y-65054764D01*
X64745947Y-65058510D01*
X64548489Y-65150586D01*
X64538994Y-65156069D01*
X64486952Y-65192509D01*
X64478576Y-65202988D01*
X63482383Y-65202988D01*
X63463528Y-64987481D01*
X63461625Y-64976688D01*
X63405236Y-64766239D01*
X63401490Y-64755947D01*
X63309414Y-64558489D01*
X63303931Y-64548994D01*
X63267491Y-64496952D01*
X63257012Y-64488576D01*
X63243566Y-64495644D01*
X62542022Y-65197188D01*
X62534408Y-65211132D01*
X61804356Y-65211132D01*
X61805592Y-65208868D01*
X61805461Y-65207035D01*
X61801210Y-65200420D01*
X61095713Y-64494923D01*
X61053971Y-64472129D01*
X61043971Y-64469953D01*
X60993773Y-64419747D01*
X60978549Y-64366186D01*
X60978500Y-64365281D01*
X60978500Y-64361866D01*
X60971745Y-64299684D01*
X60920615Y-64163295D01*
X60890407Y-64122988D01*
X61448576Y-64122988D01*
X61455644Y-64136434D01*
X62157188Y-64837978D01*
X62171132Y-64845592D01*
X62172965Y-64845461D01*
X62179580Y-64841210D01*
X62885077Y-64135713D01*
X62891507Y-64123938D01*
X62882211Y-64111923D01*
X62831006Y-64076069D01*
X62821511Y-64070586D01*
X62624053Y-63978510D01*
X62613761Y-63974764D01*
X62403312Y-63918375D01*
X62392519Y-63916472D01*
X62175475Y-63897483D01*
X62164525Y-63897483D01*
X61947481Y-63916472D01*
X61936688Y-63918375D01*
X61726239Y-63974764D01*
X61715947Y-63978510D01*
X61518489Y-64070586D01*
X61508994Y-64076069D01*
X61456952Y-64112509D01*
X61448576Y-64122988D01*
X60890407Y-64122988D01*
X60833261Y-64046739D01*
X60716705Y-63959385D01*
X60580316Y-63908255D01*
X60518134Y-63901500D01*
X60495000Y-63901500D01*
X60426879Y-63881498D01*
X60380386Y-63827842D01*
X60369000Y-63775500D01*
X60369000Y-63149726D01*
X60389002Y-63081605D01*
X60405905Y-63060630D01*
X61019132Y-62447404D01*
X61081444Y-62413379D01*
X61108227Y-62410500D01*
X61474134Y-62410500D01*
X61536316Y-62403745D01*
X61672705Y-62352615D01*
X61789261Y-62265261D01*
X61819691Y-62224658D01*
X61875174Y-62150628D01*
X61932033Y-62108113D01*
X62002852Y-62103087D01*
X62065145Y-62137147D01*
X62076826Y-62150628D01*
X62132309Y-62224658D01*
X62162739Y-62265261D01*
X62279295Y-62352615D01*
X62415684Y-62403745D01*
X62477866Y-62410500D01*
X63374134Y-62410500D01*
X63436316Y-62403745D01*
X63572705Y-62352615D01*
X63689261Y-62265261D01*
X63737096Y-62201435D01*
X63793955Y-62158920D01*
X63837922Y-62151000D01*
X64119312Y-62151000D01*
X64187433Y-62171002D01*
X64233926Y-62224658D01*
X64244030Y-62294932D01*
X64214536Y-62359512D01*
X64208407Y-62366095D01*
X64193802Y-62380700D01*
X64190645Y-62385208D01*
X64190643Y-62385211D01*
X64162249Y-62425762D01*
X64062477Y-62568251D01*
X64060154Y-62573233D01*
X64060151Y-62573238D01*
X64000182Y-62701843D01*
X63965716Y-62775757D01*
X63964294Y-62781065D01*
X63964293Y-62781067D01*
X63907881Y-62991598D01*
X63906457Y-62996913D01*
X63886502Y-63225000D01*
X63906457Y-63453087D01*
X63907881Y-63458400D01*
X63907881Y-63458402D01*
X63940548Y-63580314D01*
X63965716Y-63674243D01*
X63968039Y-63679224D01*
X63968039Y-63679225D01*
X64060151Y-63876762D01*
X64060154Y-63876767D01*
X64062477Y-63881749D01*
X64120610Y-63964771D01*
X64178005Y-64046739D01*
X64193802Y-64069300D01*
X64355700Y-64231198D01*
X64360208Y-64234355D01*
X64360211Y-64234357D01*
X64370064Y-64241256D01*
X64543251Y-64362523D01*
X64548233Y-64364846D01*
X64548238Y-64364849D01*
X64745775Y-64456961D01*
X64750757Y-64459284D01*
X64756065Y-64460706D01*
X64756067Y-64460707D01*
X64966598Y-64517119D01*
X64966600Y-64517119D01*
X64971913Y-64518543D01*
X65200000Y-64538498D01*
X65428087Y-64518543D01*
X65433400Y-64517119D01*
X65433402Y-64517119D01*
X65554973Y-64484544D01*
X65625949Y-64486234D01*
X65676679Y-64517156D01*
X71353561Y-70194038D01*
X71359414Y-70200303D01*
X71396900Y-70243274D01*
X71403114Y-70247641D01*
X71448436Y-70279494D01*
X71453732Y-70283427D01*
X71497321Y-70317606D01*
X71497324Y-70317608D01*
X71503298Y-70322292D01*
X71510222Y-70325418D01*
X71513257Y-70327256D01*
X71525956Y-70334500D01*
X71529104Y-70336188D01*
X71535319Y-70340556D01*
X71594008Y-70363438D01*
X71600053Y-70365978D01*
X71657493Y-70391913D01*
X71664966Y-70393298D01*
X71668384Y-70394369D01*
X71682373Y-70398354D01*
X71685865Y-70399251D01*
X71692947Y-70402012D01*
X71700480Y-70403004D01*
X71700481Y-70403004D01*
X71755388Y-70410233D01*
X71761901Y-70411265D01*
X71816376Y-70421361D01*
X71816378Y-70421361D01*
X71823845Y-70422745D01*
X71831425Y-70422308D01*
X71831426Y-70422308D01*
X71885170Y-70419209D01*
X71892423Y-70419000D01*
X72310300Y-70419000D01*
X72378421Y-70439002D01*
X72424914Y-70492658D01*
X72436300Y-70545000D01*
X72436300Y-70733334D01*
X72443055Y-70795516D01*
X72445829Y-70802915D01*
X72460395Y-70841770D01*
X72465578Y-70912577D01*
X72431657Y-70974946D01*
X72369402Y-71009076D01*
X72342413Y-71012000D01*
X58072688Y-71012000D01*
X58004567Y-70991998D01*
X57958074Y-70938342D01*
X57947970Y-70868068D01*
X57977464Y-70803488D01*
X57983593Y-70796905D01*
X58006198Y-70774300D01*
X58014191Y-70762886D01*
X58076507Y-70673888D01*
X58137523Y-70586749D01*
X58139846Y-70581767D01*
X58139849Y-70581762D01*
X58231961Y-70384225D01*
X58231961Y-70384224D01*
X58234284Y-70379243D01*
X58237836Y-70365989D01*
X58292119Y-70163402D01*
X58292119Y-70163400D01*
X58293543Y-70158087D01*
X58313498Y-69930000D01*
X58293543Y-69701913D01*
X58285535Y-69672027D01*
X58235707Y-69486067D01*
X58235706Y-69486065D01*
X58234284Y-69480757D01*
X58139966Y-69278489D01*
X58139849Y-69278238D01*
X58139846Y-69278233D01*
X58137523Y-69273251D01*
X58006198Y-69085700D01*
X57844300Y-68923802D01*
X57839792Y-68920645D01*
X57839789Y-68920643D01*
X57693935Y-68818515D01*
X57656749Y-68792477D01*
X57651767Y-68790154D01*
X57651762Y-68790151D01*
X57454225Y-68698039D01*
X57454224Y-68698039D01*
X57449243Y-68695716D01*
X57443935Y-68694294D01*
X57443933Y-68694293D01*
X57233402Y-68637881D01*
X57233400Y-68637881D01*
X57228087Y-68636457D01*
X57000000Y-68616502D01*
X56771913Y-68636457D01*
X56766600Y-68637881D01*
X56766598Y-68637881D01*
X56556067Y-68694293D01*
X56556065Y-68694294D01*
X56550757Y-68695716D01*
X56545776Y-68698039D01*
X56545775Y-68698039D01*
X56348238Y-68790151D01*
X56348233Y-68790154D01*
X56343251Y-68792477D01*
X56306065Y-68818515D01*
X56160211Y-68920643D01*
X56160208Y-68920645D01*
X56155700Y-68923802D01*
X55993802Y-69085700D01*
X55862477Y-69273251D01*
X55860154Y-69278233D01*
X55860151Y-69278238D01*
X55860034Y-69278489D01*
X55765716Y-69480757D01*
X55764294Y-69486065D01*
X55764293Y-69486067D01*
X55714465Y-69672027D01*
X55706457Y-69701913D01*
X55686502Y-69930000D01*
X55706457Y-70158087D01*
X55707881Y-70163400D01*
X55707881Y-70163402D01*
X55762165Y-70365989D01*
X55765716Y-70379243D01*
X55768039Y-70384224D01*
X55768039Y-70384225D01*
X55860151Y-70581762D01*
X55860154Y-70581767D01*
X55862477Y-70586749D01*
X55923493Y-70673888D01*
X55985810Y-70762886D01*
X55993802Y-70774300D01*
X56016407Y-70796905D01*
X56050433Y-70859217D01*
X56045368Y-70930032D01*
X56002821Y-70986868D01*
X55936301Y-71011679D01*
X55927312Y-71012000D01*
X50451981Y-71012000D01*
X50383860Y-70991998D01*
X50337367Y-70938342D01*
X50327263Y-70868068D01*
X50356757Y-70803488D01*
X50362886Y-70796905D01*
X50381916Y-70777875D01*
X50388972Y-70769467D01*
X50513931Y-70591007D01*
X50519414Y-70581511D01*
X50611490Y-70384053D01*
X50615236Y-70373761D01*
X50661394Y-70201497D01*
X50661058Y-70187401D01*
X50653116Y-70184000D01*
X49252000Y-70184000D01*
X49183879Y-70163998D01*
X49137386Y-70110342D01*
X49126000Y-70058000D01*
X49126000Y-69657885D01*
X49634000Y-69657885D01*
X49638475Y-69673124D01*
X49639865Y-69674329D01*
X49647548Y-69676000D01*
X50647967Y-69676000D01*
X50661498Y-69672027D01*
X50662727Y-69663478D01*
X50615236Y-69486239D01*
X50611490Y-69475947D01*
X50519414Y-69278489D01*
X50513931Y-69268993D01*
X50388972Y-69090533D01*
X50381916Y-69082125D01*
X50227875Y-68928084D01*
X50219467Y-68921028D01*
X50041007Y-68796069D01*
X50031511Y-68790586D01*
X49834053Y-68698510D01*
X49823761Y-68694764D01*
X49651497Y-68648606D01*
X49637401Y-68648942D01*
X49634000Y-68656884D01*
X49634000Y-69657885D01*
X49126000Y-69657885D01*
X49126000Y-68662033D01*
X49122027Y-68648502D01*
X49113478Y-68647273D01*
X48936239Y-68694764D01*
X48925947Y-68698510D01*
X48728489Y-68790586D01*
X48718993Y-68796069D01*
X48540533Y-68921028D01*
X48532125Y-68928084D01*
X48378084Y-69082125D01*
X48371028Y-69090533D01*
X48246069Y-69268993D01*
X48240586Y-69278489D01*
X48148510Y-69475947D01*
X48144764Y-69486239D01*
X48130985Y-69537664D01*
X48094033Y-69598287D01*
X48030173Y-69629308D01*
X47959678Y-69620880D01*
X47904931Y-69575677D01*
X47887571Y-69537665D01*
X47872323Y-69480757D01*
X47864284Y-69450757D01*
X47783838Y-69278238D01*
X47769849Y-69248238D01*
X47769846Y-69248233D01*
X47767523Y-69243251D01*
X47694098Y-69138389D01*
X47639357Y-69060211D01*
X47639355Y-69060208D01*
X47636198Y-69055700D01*
X47474300Y-68893802D01*
X47469792Y-68890645D01*
X47469789Y-68890643D01*
X47366151Y-68818075D01*
X47286749Y-68762477D01*
X47281767Y-68760154D01*
X47281762Y-68760151D01*
X47084225Y-68668039D01*
X47084224Y-68668039D01*
X47079243Y-68665716D01*
X47073935Y-68664294D01*
X47073933Y-68664293D01*
X46863402Y-68607881D01*
X46863400Y-68607881D01*
X46858087Y-68606457D01*
X46630000Y-68586502D01*
X46401913Y-68606457D01*
X46396600Y-68607881D01*
X46396598Y-68607881D01*
X46186067Y-68664293D01*
X46186065Y-68664294D01*
X46180757Y-68665716D01*
X46175776Y-68668039D01*
X46175775Y-68668039D01*
X45978238Y-68760151D01*
X45978233Y-68760154D01*
X45973251Y-68762477D01*
X45893849Y-68818075D01*
X45790211Y-68890643D01*
X45790208Y-68890645D01*
X45785700Y-68893802D01*
X45623802Y-69055700D01*
X45620645Y-69060208D01*
X45620643Y-69060211D01*
X45565902Y-69138389D01*
X45492477Y-69243251D01*
X45490154Y-69248233D01*
X45490151Y-69248238D01*
X45476162Y-69278238D01*
X45395716Y-69450757D01*
X45394294Y-69456064D01*
X45394293Y-69456067D01*
X45356185Y-69598287D01*
X45336457Y-69671913D01*
X45316502Y-69900000D01*
X45336457Y-70128087D01*
X45337881Y-70133400D01*
X45337881Y-70133402D01*
X45391766Y-70334500D01*
X45395716Y-70349243D01*
X45398039Y-70354224D01*
X45398039Y-70354225D01*
X45490151Y-70551762D01*
X45490154Y-70551767D01*
X45492477Y-70556749D01*
X45516465Y-70591007D01*
X45616124Y-70733334D01*
X45623802Y-70744300D01*
X45676407Y-70796905D01*
X45710433Y-70859217D01*
X45705368Y-70930032D01*
X45662821Y-70986868D01*
X45596301Y-71011679D01*
X45587312Y-71012000D01*
X40051981Y-71012000D01*
X39983860Y-70991998D01*
X39937367Y-70938342D01*
X39927263Y-70868068D01*
X39956757Y-70803488D01*
X39962886Y-70796905D01*
X40011916Y-70747875D01*
X40018972Y-70739467D01*
X40143931Y-70561007D01*
X40149414Y-70551511D01*
X40241490Y-70354053D01*
X40245236Y-70343761D01*
X40291394Y-70171497D01*
X40291058Y-70157401D01*
X40283116Y-70154000D01*
X38882000Y-70154000D01*
X38813879Y-70133998D01*
X38767386Y-70080342D01*
X38756000Y-70028000D01*
X38756000Y-69627885D01*
X39264000Y-69627885D01*
X39268475Y-69643124D01*
X39269865Y-69644329D01*
X39277548Y-69646000D01*
X40277967Y-69646000D01*
X40291498Y-69642027D01*
X40292727Y-69633478D01*
X40245236Y-69456239D01*
X40241490Y-69445947D01*
X40149414Y-69248489D01*
X40143931Y-69238993D01*
X40018972Y-69060533D01*
X40011916Y-69052125D01*
X39857875Y-68898084D01*
X39849467Y-68891028D01*
X39671007Y-68766069D01*
X39661511Y-68760586D01*
X39464053Y-68668510D01*
X39453761Y-68664764D01*
X39281497Y-68618606D01*
X39267401Y-68618942D01*
X39264000Y-68626884D01*
X39264000Y-69627885D01*
X38756000Y-69627885D01*
X38756000Y-68632033D01*
X38752027Y-68618502D01*
X38743478Y-68617273D01*
X38566239Y-68664764D01*
X38555947Y-68668510D01*
X38358489Y-68760586D01*
X38348993Y-68766069D01*
X38170533Y-68891028D01*
X38162125Y-68898084D01*
X38023095Y-69037114D01*
X37960783Y-69071140D01*
X37889968Y-69066075D01*
X37833132Y-69023528D01*
X37808321Y-68957008D01*
X37808000Y-68948019D01*
X37808000Y-67781981D01*
X37828002Y-67713860D01*
X37881658Y-67667367D01*
X37951932Y-67657263D01*
X38016512Y-67686757D01*
X38023095Y-67692886D01*
X38162125Y-67831916D01*
X38170533Y-67838972D01*
X38348993Y-67963931D01*
X38358489Y-67969414D01*
X38555947Y-68061490D01*
X38566239Y-68065236D01*
X38738503Y-68111394D01*
X38752599Y-68111058D01*
X38756000Y-68103116D01*
X38756000Y-68097967D01*
X39264000Y-68097967D01*
X39267973Y-68111498D01*
X39276522Y-68112727D01*
X39453761Y-68065236D01*
X39464053Y-68061490D01*
X39661511Y-67969414D01*
X39671007Y-67963931D01*
X39849467Y-67838972D01*
X39857875Y-67831916D01*
X40011916Y-67677875D01*
X40018972Y-67669467D01*
X40143931Y-67491007D01*
X40149414Y-67481511D01*
X40241490Y-67284053D01*
X40245236Y-67273761D01*
X40291394Y-67101497D01*
X40291058Y-67087401D01*
X40283116Y-67084000D01*
X39282115Y-67084000D01*
X39266876Y-67088475D01*
X39265671Y-67089865D01*
X39264000Y-67097548D01*
X39264000Y-68097967D01*
X38756000Y-68097967D01*
X38756000Y-66557885D01*
X39264000Y-66557885D01*
X39268475Y-66573124D01*
X39269865Y-66574329D01*
X39277548Y-66576000D01*
X40277967Y-66576000D01*
X40291498Y-66572027D01*
X40292727Y-66563478D01*
X40245236Y-66386239D01*
X40241490Y-66375947D01*
X40149414Y-66178489D01*
X40143931Y-66168993D01*
X40018972Y-65990533D01*
X40011916Y-65982125D01*
X39857875Y-65828084D01*
X39849467Y-65821028D01*
X39671007Y-65696069D01*
X39661511Y-65690586D01*
X39464053Y-65598510D01*
X39453761Y-65594764D01*
X39281497Y-65548606D01*
X39267401Y-65548942D01*
X39264000Y-65556884D01*
X39264000Y-66557885D01*
X38756000Y-66557885D01*
X38756000Y-65562033D01*
X38752027Y-65548502D01*
X38743478Y-65547273D01*
X38566239Y-65594764D01*
X38555947Y-65598510D01*
X38358489Y-65690586D01*
X38348993Y-65696069D01*
X38170533Y-65821028D01*
X38162125Y-65828084D01*
X38023095Y-65967114D01*
X37960783Y-66001140D01*
X37889968Y-65996075D01*
X37833132Y-65953528D01*
X37808321Y-65887008D01*
X37808000Y-65878019D01*
X37808000Y-57565784D01*
X37828002Y-57497663D01*
X37881658Y-57451170D01*
X37951932Y-57441066D01*
X38016512Y-57470560D01*
X38037213Y-57493513D01*
X38112827Y-57601500D01*
X38163802Y-57674300D01*
X38325700Y-57836198D01*
X38330208Y-57839355D01*
X38330211Y-57839357D01*
X38398580Y-57887229D01*
X38513251Y-57967523D01*
X38518233Y-57969846D01*
X38518238Y-57969849D01*
X38710034Y-58059284D01*
X38720757Y-58064284D01*
X38726065Y-58065706D01*
X38726067Y-58065707D01*
X38936598Y-58122119D01*
X38936600Y-58122119D01*
X38941913Y-58123543D01*
X39170000Y-58143498D01*
X39398087Y-58123543D01*
X39403400Y-58122119D01*
X39403402Y-58122119D01*
X39613933Y-58065707D01*
X39613935Y-58065706D01*
X39619243Y-58064284D01*
X39629966Y-58059284D01*
X39821762Y-57969849D01*
X39821767Y-57969846D01*
X39826749Y-57967523D01*
X39941420Y-57887229D01*
X40009789Y-57839357D01*
X40009792Y-57839355D01*
X40014300Y-57836198D01*
X40176198Y-57674300D01*
X40307523Y-57486749D01*
X40309846Y-57481767D01*
X40309849Y-57481762D01*
X40401961Y-57284225D01*
X40401961Y-57284224D01*
X40404284Y-57279243D01*
X40411985Y-57250505D01*
X40462119Y-57063402D01*
X40462119Y-57063400D01*
X40463543Y-57058087D01*
X40483498Y-56830000D01*
X40483061Y-56825000D01*
X40936502Y-56825000D01*
X40956457Y-57053087D01*
X40957881Y-57058400D01*
X40957881Y-57058402D01*
X41008625Y-57247778D01*
X41015716Y-57274243D01*
X41018039Y-57279224D01*
X41018039Y-57279225D01*
X41110151Y-57476762D01*
X41110154Y-57476767D01*
X41112477Y-57481749D01*
X41243802Y-57669300D01*
X41405700Y-57831198D01*
X41410208Y-57834355D01*
X41410211Y-57834357D01*
X41417352Y-57839357D01*
X41593251Y-57962523D01*
X41598233Y-57964846D01*
X41598238Y-57964849D01*
X41795775Y-58056961D01*
X41800757Y-58059284D01*
X41806065Y-58060706D01*
X41806067Y-58060707D01*
X42016598Y-58117119D01*
X42016600Y-58117119D01*
X42021913Y-58118543D01*
X42250000Y-58138498D01*
X42478087Y-58118543D01*
X42483400Y-58117119D01*
X42483402Y-58117119D01*
X42693933Y-58060707D01*
X42693935Y-58060706D01*
X42699243Y-58059284D01*
X42704225Y-58056961D01*
X42901762Y-57964849D01*
X42901767Y-57964846D01*
X42906749Y-57962523D01*
X43082648Y-57839357D01*
X43089789Y-57834357D01*
X43089792Y-57834355D01*
X43094300Y-57831198D01*
X43256198Y-57669300D01*
X43387523Y-57481749D01*
X43389846Y-57476767D01*
X43389849Y-57476762D01*
X43481961Y-57279225D01*
X43481961Y-57279224D01*
X43484284Y-57274243D01*
X43491376Y-57247778D01*
X43542119Y-57058402D01*
X43542119Y-57058400D01*
X43543543Y-57053087D01*
X43563498Y-56825000D01*
X43543543Y-56596913D01*
X43532643Y-56556233D01*
X43485707Y-56381067D01*
X43485706Y-56381065D01*
X43484284Y-56375757D01*
X43431714Y-56263019D01*
X43389849Y-56173238D01*
X43389846Y-56173233D01*
X43387523Y-56168251D01*
X43256198Y-55980700D01*
X43094300Y-55818802D01*
X43089792Y-55815645D01*
X43089789Y-55815643D01*
X42918398Y-55695634D01*
X42906749Y-55687477D01*
X42901767Y-55685154D01*
X42901762Y-55685151D01*
X42704225Y-55593039D01*
X42704224Y-55593039D01*
X42699243Y-55590716D01*
X42693935Y-55589294D01*
X42693933Y-55589293D01*
X42483402Y-55532881D01*
X42483400Y-55532881D01*
X42478087Y-55531457D01*
X42250000Y-55511502D01*
X42021913Y-55531457D01*
X42016600Y-55532881D01*
X42016598Y-55532881D01*
X41806067Y-55589293D01*
X41806065Y-55589294D01*
X41800757Y-55590716D01*
X41795776Y-55593039D01*
X41795775Y-55593039D01*
X41598238Y-55685151D01*
X41598233Y-55685154D01*
X41593251Y-55687477D01*
X41581602Y-55695634D01*
X41410211Y-55815643D01*
X41410208Y-55815645D01*
X41405700Y-55818802D01*
X41243802Y-55980700D01*
X41112477Y-56168251D01*
X41110154Y-56173233D01*
X41110151Y-56173238D01*
X41068286Y-56263019D01*
X41015716Y-56375757D01*
X41014294Y-56381065D01*
X41014293Y-56381067D01*
X40967357Y-56556233D01*
X40956457Y-56596913D01*
X40936502Y-56825000D01*
X40483061Y-56825000D01*
X40463543Y-56601913D01*
X40460779Y-56591598D01*
X40405707Y-56386067D01*
X40405706Y-56386065D01*
X40404284Y-56380757D01*
X40401961Y-56375775D01*
X40309849Y-56178238D01*
X40309846Y-56178233D01*
X40307523Y-56173251D01*
X40176198Y-55985700D01*
X40014300Y-55823802D01*
X40009792Y-55820645D01*
X40009789Y-55820643D01*
X39918122Y-55756457D01*
X39826749Y-55692477D01*
X39821767Y-55690154D01*
X39821762Y-55690151D01*
X39624225Y-55598039D01*
X39624224Y-55598039D01*
X39619243Y-55595716D01*
X39613935Y-55594294D01*
X39613933Y-55594293D01*
X39403402Y-55537881D01*
X39403400Y-55537881D01*
X39398087Y-55536457D01*
X39170000Y-55516502D01*
X38941913Y-55536457D01*
X38936600Y-55537881D01*
X38936598Y-55537881D01*
X38726067Y-55594293D01*
X38726065Y-55594294D01*
X38720757Y-55595716D01*
X38715776Y-55598039D01*
X38715775Y-55598039D01*
X38518238Y-55690151D01*
X38518233Y-55690154D01*
X38513251Y-55692477D01*
X38421878Y-55756457D01*
X38330211Y-55820643D01*
X38330208Y-55820645D01*
X38325700Y-55823802D01*
X38163802Y-55985700D01*
X38160645Y-55990208D01*
X38160643Y-55990211D01*
X38037213Y-56166487D01*
X37981756Y-56210815D01*
X37911136Y-56218124D01*
X37847776Y-56186093D01*
X37811791Y-56124892D01*
X37808000Y-56094216D01*
X37808000Y-54950000D01*
X43591502Y-54950000D01*
X43611457Y-55178087D01*
X43612881Y-55183400D01*
X43612881Y-55183402D01*
X43654389Y-55338309D01*
X43670716Y-55399243D01*
X43673039Y-55404224D01*
X43673039Y-55404225D01*
X43765151Y-55601762D01*
X43765154Y-55601767D01*
X43767477Y-55606749D01*
X43770634Y-55611257D01*
X43871969Y-55755978D01*
X43898802Y-55794300D01*
X44060700Y-55956198D01*
X44065208Y-55959355D01*
X44065211Y-55959357D01*
X44102833Y-55985700D01*
X44248251Y-56087523D01*
X44253233Y-56089846D01*
X44253238Y-56089849D01*
X44432096Y-56173251D01*
X44455757Y-56184284D01*
X44461065Y-56185706D01*
X44461067Y-56185707D01*
X44671598Y-56242119D01*
X44671600Y-56242119D01*
X44676913Y-56243543D01*
X44905000Y-56263498D01*
X45133087Y-56243543D01*
X45138400Y-56242119D01*
X45138402Y-56242119D01*
X45348933Y-56185707D01*
X45348935Y-56185706D01*
X45354243Y-56184284D01*
X45377904Y-56173251D01*
X45556762Y-56089849D01*
X45556767Y-56089846D01*
X45561749Y-56087523D01*
X45707167Y-55985700D01*
X45744789Y-55959357D01*
X45744792Y-55959355D01*
X45749300Y-55956198D01*
X45911198Y-55794300D01*
X45938032Y-55755978D01*
X46039366Y-55611257D01*
X46042523Y-55606749D01*
X46044846Y-55601767D01*
X46044849Y-55601762D01*
X46136961Y-55404225D01*
X46136961Y-55404224D01*
X46139284Y-55399243D01*
X46155612Y-55338309D01*
X46197119Y-55183402D01*
X46197119Y-55183400D01*
X46198543Y-55178087D01*
X46218498Y-54950000D01*
X46198543Y-54721913D01*
X46197119Y-54716598D01*
X46140707Y-54506067D01*
X46140706Y-54506065D01*
X46139284Y-54500757D01*
X46136961Y-54495775D01*
X46044849Y-54298238D01*
X46044846Y-54298233D01*
X46042523Y-54293251D01*
X45911198Y-54105700D01*
X45749300Y-53943802D01*
X45744792Y-53940645D01*
X45744789Y-53940643D01*
X45666611Y-53885902D01*
X45561749Y-53812477D01*
X45556767Y-53810154D01*
X45556762Y-53810151D01*
X45359225Y-53718039D01*
X45359224Y-53718039D01*
X45354243Y-53715716D01*
X45348935Y-53714294D01*
X45348933Y-53714293D01*
X45138402Y-53657881D01*
X45138400Y-53657881D01*
X45133087Y-53656457D01*
X44905000Y-53636502D01*
X44676913Y-53656457D01*
X44671600Y-53657881D01*
X44671598Y-53657881D01*
X44461067Y-53714293D01*
X44461065Y-53714294D01*
X44455757Y-53715716D01*
X44450776Y-53718039D01*
X44450775Y-53718039D01*
X44253238Y-53810151D01*
X44253233Y-53810154D01*
X44248251Y-53812477D01*
X44143389Y-53885902D01*
X44065211Y-53940643D01*
X44065208Y-53940645D01*
X44060700Y-53943802D01*
X43898802Y-54105700D01*
X43767477Y-54293251D01*
X43765154Y-54298233D01*
X43765151Y-54298238D01*
X43673039Y-54495775D01*
X43670716Y-54500757D01*
X43669294Y-54506065D01*
X43669293Y-54506067D01*
X43612881Y-54716598D01*
X43611457Y-54721913D01*
X43591502Y-54950000D01*
X37808000Y-54950000D01*
X37808000Y-52565784D01*
X37828002Y-52497663D01*
X37881658Y-52451170D01*
X37951932Y-52441066D01*
X38016512Y-52470560D01*
X38037213Y-52493513D01*
X38158595Y-52666863D01*
X38163802Y-52674300D01*
X38325700Y-52836198D01*
X38330208Y-52839355D01*
X38330211Y-52839357D01*
X38404261Y-52891207D01*
X38513251Y-52967523D01*
X38518233Y-52969846D01*
X38518238Y-52969849D01*
X38713086Y-53060707D01*
X38720757Y-53064284D01*
X38726065Y-53065706D01*
X38726067Y-53065707D01*
X38936598Y-53122119D01*
X38936600Y-53122119D01*
X38941913Y-53123543D01*
X39170000Y-53143498D01*
X39398087Y-53123543D01*
X39403400Y-53122119D01*
X39403402Y-53122119D01*
X39613933Y-53065707D01*
X39613935Y-53065706D01*
X39619243Y-53064284D01*
X39626914Y-53060707D01*
X39821762Y-52969849D01*
X39821767Y-52969846D01*
X39826749Y-52967523D01*
X39935739Y-52891207D01*
X40009789Y-52839357D01*
X40009792Y-52839355D01*
X40014300Y-52836198D01*
X40176198Y-52674300D01*
X40181406Y-52666863D01*
X40281410Y-52524042D01*
X40307523Y-52486749D01*
X40309846Y-52481767D01*
X40309849Y-52481762D01*
X40401961Y-52284225D01*
X40401961Y-52284224D01*
X40404284Y-52279243D01*
X40428346Y-52189445D01*
X40462119Y-52063402D01*
X40462119Y-52063400D01*
X40463543Y-52058087D01*
X40483498Y-51830000D01*
X40483061Y-51825000D01*
X40936502Y-51825000D01*
X40956457Y-52053087D01*
X40957881Y-52058400D01*
X40957881Y-52058402D01*
X41013065Y-52264348D01*
X41015716Y-52274243D01*
X41018039Y-52279224D01*
X41018039Y-52279225D01*
X41110151Y-52476762D01*
X41110154Y-52476767D01*
X41112477Y-52481749D01*
X41185881Y-52586580D01*
X41240626Y-52664764D01*
X41243802Y-52669300D01*
X41405700Y-52831198D01*
X41410208Y-52834355D01*
X41410211Y-52834357D01*
X41445915Y-52859357D01*
X41593251Y-52962523D01*
X41598233Y-52964846D01*
X41598238Y-52964849D01*
X41689992Y-53007634D01*
X41800757Y-53059284D01*
X41806065Y-53060706D01*
X41806067Y-53060707D01*
X42016598Y-53117119D01*
X42016600Y-53117119D01*
X42021913Y-53118543D01*
X42250000Y-53138498D01*
X42478087Y-53118543D01*
X42483400Y-53117119D01*
X42483402Y-53117119D01*
X42693933Y-53060707D01*
X42693935Y-53060706D01*
X42699243Y-53059284D01*
X42810008Y-53007634D01*
X42901762Y-52964849D01*
X42901767Y-52964846D01*
X42906749Y-52962523D01*
X43054085Y-52859357D01*
X43089789Y-52834357D01*
X43089792Y-52834355D01*
X43094300Y-52831198D01*
X43256198Y-52669300D01*
X43259375Y-52664764D01*
X43314119Y-52586580D01*
X43387523Y-52481749D01*
X43389847Y-52476764D01*
X43389851Y-52476758D01*
X43454976Y-52337095D01*
X43501893Y-52283809D01*
X43570170Y-52264348D01*
X43638130Y-52284890D01*
X43683366Y-52337094D01*
X43760151Y-52501762D01*
X43760154Y-52501767D01*
X43762477Y-52506749D01*
X43820403Y-52589475D01*
X43889122Y-52687616D01*
X43893802Y-52694300D01*
X44055700Y-52856198D01*
X44060208Y-52859355D01*
X44060211Y-52859357D01*
X44127243Y-52906293D01*
X44243251Y-52987523D01*
X44248233Y-52989846D01*
X44248238Y-52989849D01*
X44410918Y-53065707D01*
X44450757Y-53084284D01*
X44456065Y-53085706D01*
X44456067Y-53085707D01*
X44666598Y-53142119D01*
X44666600Y-53142119D01*
X44671913Y-53143543D01*
X44900000Y-53163498D01*
X45128087Y-53143543D01*
X45133400Y-53142119D01*
X45133402Y-53142119D01*
X45343933Y-53085707D01*
X45343935Y-53085706D01*
X45349243Y-53084284D01*
X45389082Y-53065707D01*
X45551762Y-52989849D01*
X45551767Y-52989846D01*
X45556749Y-52987523D01*
X45672757Y-52906293D01*
X45739789Y-52859357D01*
X45739792Y-52859355D01*
X45744300Y-52856198D01*
X45906198Y-52694300D01*
X45910879Y-52687616D01*
X45979597Y-52589475D01*
X46037523Y-52506749D01*
X46039846Y-52501767D01*
X46039849Y-52501762D01*
X46131961Y-52304225D01*
X46131961Y-52304224D01*
X46134284Y-52299243D01*
X46163705Y-52189445D01*
X46192119Y-52083402D01*
X46192119Y-52083400D01*
X46193543Y-52078087D01*
X46213498Y-51850000D01*
X46193543Y-51621913D01*
X46191519Y-51614358D01*
X46135707Y-51406067D01*
X46135706Y-51406065D01*
X46134284Y-51400757D01*
X46127034Y-51385209D01*
X46039849Y-51198238D01*
X46039846Y-51198233D01*
X46037523Y-51193251D01*
X45921874Y-51028087D01*
X45909357Y-51010211D01*
X45909355Y-51010208D01*
X45906198Y-51005700D01*
X45744300Y-50843802D01*
X45739792Y-50840645D01*
X45739789Y-50840643D01*
X45615070Y-50753314D01*
X45556749Y-50712477D01*
X45551765Y-50710153D01*
X45551762Y-50710151D01*
X45354225Y-50618039D01*
X45354224Y-50618039D01*
X45349243Y-50615716D01*
X45343935Y-50614294D01*
X45343933Y-50614293D01*
X45133402Y-50557881D01*
X45133400Y-50557881D01*
X45128087Y-50556457D01*
X44900000Y-50536502D01*
X44671913Y-50556457D01*
X44666600Y-50557881D01*
X44666598Y-50557881D01*
X44456067Y-50614293D01*
X44456065Y-50614294D01*
X44450757Y-50615716D01*
X44445776Y-50618039D01*
X44445775Y-50618039D01*
X44248238Y-50710151D01*
X44248235Y-50710153D01*
X44243251Y-50712477D01*
X44184930Y-50753314D01*
X44060211Y-50840643D01*
X44060208Y-50840645D01*
X44055700Y-50843802D01*
X43893802Y-51005700D01*
X43890645Y-51010208D01*
X43890643Y-51010211D01*
X43878126Y-51028087D01*
X43762477Y-51193251D01*
X43760153Y-51198236D01*
X43760149Y-51198242D01*
X43695024Y-51337905D01*
X43648107Y-51391191D01*
X43579830Y-51410652D01*
X43511870Y-51390110D01*
X43466634Y-51337906D01*
X43389849Y-51173238D01*
X43389846Y-51173233D01*
X43387523Y-51168251D01*
X43307523Y-51054000D01*
X43259357Y-50985211D01*
X43259355Y-50985208D01*
X43256198Y-50980700D01*
X43094300Y-50818802D01*
X43089792Y-50815645D01*
X43089789Y-50815643D01*
X42946957Y-50715631D01*
X42906749Y-50687477D01*
X42901767Y-50685154D01*
X42901762Y-50685151D01*
X42704225Y-50593039D01*
X42704224Y-50593039D01*
X42699243Y-50590716D01*
X42693935Y-50589294D01*
X42693933Y-50589293D01*
X42483402Y-50532881D01*
X42483400Y-50532881D01*
X42478087Y-50531457D01*
X42250000Y-50511502D01*
X42021913Y-50531457D01*
X42016600Y-50532881D01*
X42016598Y-50532881D01*
X41806067Y-50589293D01*
X41806065Y-50589294D01*
X41800757Y-50590716D01*
X41795776Y-50593039D01*
X41795775Y-50593039D01*
X41598238Y-50685151D01*
X41598233Y-50685154D01*
X41593251Y-50687477D01*
X41553043Y-50715631D01*
X41410211Y-50815643D01*
X41410208Y-50815645D01*
X41405700Y-50818802D01*
X41243802Y-50980700D01*
X41240645Y-50985208D01*
X41240643Y-50985211D01*
X41192477Y-51054000D01*
X41112477Y-51168251D01*
X41110154Y-51173233D01*
X41110151Y-51173238D01*
X41033366Y-51337906D01*
X41015716Y-51375757D01*
X41014294Y-51381065D01*
X41014293Y-51381067D01*
X40995350Y-51451762D01*
X40956457Y-51596913D01*
X40936502Y-51825000D01*
X40483061Y-51825000D01*
X40463543Y-51601913D01*
X40419723Y-51438376D01*
X40405707Y-51386067D01*
X40405706Y-51386065D01*
X40404284Y-51380757D01*
X40401961Y-51375775D01*
X40309849Y-51178238D01*
X40309846Y-51178233D01*
X40307523Y-51173251D01*
X40224022Y-51054000D01*
X40179357Y-50990211D01*
X40179355Y-50990208D01*
X40176198Y-50985700D01*
X40014300Y-50823802D01*
X40009792Y-50820645D01*
X40009789Y-50820643D01*
X39906986Y-50748660D01*
X39826749Y-50692477D01*
X39821767Y-50690154D01*
X39821762Y-50690151D01*
X39624225Y-50598039D01*
X39624224Y-50598039D01*
X39619243Y-50595716D01*
X39613935Y-50594294D01*
X39613933Y-50594293D01*
X39403402Y-50537881D01*
X39403400Y-50537881D01*
X39398087Y-50536457D01*
X39170000Y-50516502D01*
X38941913Y-50536457D01*
X38936600Y-50537881D01*
X38936598Y-50537881D01*
X38726067Y-50594293D01*
X38726065Y-50594294D01*
X38720757Y-50595716D01*
X38715776Y-50598039D01*
X38715775Y-50598039D01*
X38518238Y-50690151D01*
X38518233Y-50690154D01*
X38513251Y-50692477D01*
X38433014Y-50748660D01*
X38330211Y-50820643D01*
X38330208Y-50820645D01*
X38325700Y-50823802D01*
X38163802Y-50985700D01*
X38160645Y-50990208D01*
X38160643Y-50990211D01*
X38037213Y-51166487D01*
X37981756Y-51210815D01*
X37911136Y-51218124D01*
X37847776Y-51186093D01*
X37811791Y-51124892D01*
X37808000Y-51094216D01*
X37808000Y-48656062D01*
X38698493Y-48656062D01*
X38707789Y-48668077D01*
X38758994Y-48703931D01*
X38768489Y-48709414D01*
X38965947Y-48801490D01*
X38976239Y-48805236D01*
X39186688Y-48861625D01*
X39197481Y-48863528D01*
X39414525Y-48882517D01*
X39425475Y-48882517D01*
X39642519Y-48863528D01*
X39653312Y-48861625D01*
X39863761Y-48805236D01*
X39874053Y-48801490D01*
X40071511Y-48709414D01*
X40081006Y-48703931D01*
X40133048Y-48667491D01*
X40141424Y-48657012D01*
X40134356Y-48643566D01*
X39432812Y-47942022D01*
X39418868Y-47934408D01*
X39417035Y-47934539D01*
X39410420Y-47938790D01*
X38704923Y-48644287D01*
X38698493Y-48656062D01*
X37808000Y-48656062D01*
X37808000Y-47575475D01*
X38107483Y-47575475D01*
X38126472Y-47792519D01*
X38128375Y-47803312D01*
X38184764Y-48013761D01*
X38188510Y-48024053D01*
X38280586Y-48221511D01*
X38286069Y-48231006D01*
X38322509Y-48283048D01*
X38332988Y-48291424D01*
X38346434Y-48284356D01*
X39047978Y-47582812D01*
X39054356Y-47571132D01*
X39784408Y-47571132D01*
X39784539Y-47572965D01*
X39788790Y-47579580D01*
X40494287Y-48285077D01*
X40536029Y-48307871D01*
X40546029Y-48310047D01*
X40596227Y-48360253D01*
X40611451Y-48413814D01*
X40611500Y-48414717D01*
X40611500Y-48418134D01*
X40618255Y-48480316D01*
X40669385Y-48616705D01*
X40756739Y-48733261D01*
X40873295Y-48820615D01*
X41009684Y-48871745D01*
X41071866Y-48878500D01*
X42768134Y-48878500D01*
X42830316Y-48871745D01*
X42966705Y-48820615D01*
X43083261Y-48733261D01*
X43089452Y-48725000D01*
X43566502Y-48725000D01*
X43586457Y-48953087D01*
X43587881Y-48958400D01*
X43587881Y-48958402D01*
X43633716Y-49129457D01*
X43645716Y-49174243D01*
X43648039Y-49179224D01*
X43648039Y-49179225D01*
X43740151Y-49376762D01*
X43740154Y-49376767D01*
X43742477Y-49381749D01*
X43815826Y-49486502D01*
X43870626Y-49564764D01*
X43873802Y-49569300D01*
X44035700Y-49731198D01*
X44040208Y-49734355D01*
X44040211Y-49734357D01*
X44088711Y-49768317D01*
X44223251Y-49862523D01*
X44228233Y-49864846D01*
X44228238Y-49864849D01*
X44415404Y-49952125D01*
X44430757Y-49959284D01*
X44436065Y-49960706D01*
X44436067Y-49960707D01*
X44646598Y-50017119D01*
X44646600Y-50017119D01*
X44651913Y-50018543D01*
X44880000Y-50038498D01*
X45108087Y-50018543D01*
X45113400Y-50017119D01*
X45113402Y-50017119D01*
X45323933Y-49960707D01*
X45323935Y-49960706D01*
X45329243Y-49959284D01*
X45344596Y-49952125D01*
X45531762Y-49864849D01*
X45531767Y-49864846D01*
X45536749Y-49862523D01*
X45671289Y-49768317D01*
X45719789Y-49734357D01*
X45719792Y-49734355D01*
X45724300Y-49731198D01*
X45886198Y-49569300D01*
X45889375Y-49564764D01*
X45944174Y-49486502D01*
X46017523Y-49381749D01*
X46019846Y-49376767D01*
X46019849Y-49376762D01*
X46111961Y-49179225D01*
X46111961Y-49179224D01*
X46114284Y-49174243D01*
X46126285Y-49129457D01*
X46172119Y-48958402D01*
X46172119Y-48958400D01*
X46173543Y-48953087D01*
X46193498Y-48725000D01*
X46173543Y-48496913D01*
X46172119Y-48491598D01*
X46115707Y-48281067D01*
X46115706Y-48281065D01*
X46114284Y-48275757D01*
X46093862Y-48231961D01*
X46019849Y-48073238D01*
X46019846Y-48073233D01*
X46017523Y-48068251D01*
X45886198Y-47880700D01*
X45724300Y-47718802D01*
X45719792Y-47715645D01*
X45719789Y-47715643D01*
X45568252Y-47609536D01*
X45536749Y-47587477D01*
X45531767Y-47585154D01*
X45531762Y-47585151D01*
X45334225Y-47493039D01*
X45334224Y-47493039D01*
X45329243Y-47490716D01*
X45323935Y-47489294D01*
X45323933Y-47489293D01*
X45113402Y-47432881D01*
X45113400Y-47432881D01*
X45108087Y-47431457D01*
X44880000Y-47411502D01*
X44651913Y-47431457D01*
X44646600Y-47432881D01*
X44646598Y-47432881D01*
X44436067Y-47489293D01*
X44436065Y-47489294D01*
X44430757Y-47490716D01*
X44425776Y-47493039D01*
X44425775Y-47493039D01*
X44228238Y-47585151D01*
X44228233Y-47585154D01*
X44223251Y-47587477D01*
X44191748Y-47609536D01*
X44040211Y-47715643D01*
X44040208Y-47715645D01*
X44035700Y-47718802D01*
X43873802Y-47880700D01*
X43742477Y-48068251D01*
X43740154Y-48073233D01*
X43740151Y-48073238D01*
X43666138Y-48231961D01*
X43645716Y-48275757D01*
X43644294Y-48281065D01*
X43644293Y-48281067D01*
X43587881Y-48491598D01*
X43586457Y-48496913D01*
X43566502Y-48725000D01*
X43089452Y-48725000D01*
X43170615Y-48616705D01*
X43221745Y-48480316D01*
X43228500Y-48418134D01*
X43228500Y-46737966D01*
X55490162Y-46737966D01*
X55528257Y-46907008D01*
X55531340Y-46916848D01*
X55618592Y-47131722D01*
X55623235Y-47140913D01*
X55744415Y-47338661D01*
X55750493Y-47346965D01*
X55902339Y-47522262D01*
X55909701Y-47529471D01*
X56088130Y-47677606D01*
X56096578Y-47683521D01*
X56296809Y-47800526D01*
X56306096Y-47804976D01*
X56522751Y-47887708D01*
X56532653Y-47890585D01*
X56668248Y-47918172D01*
X56682300Y-47916977D01*
X56686000Y-47906632D01*
X56686000Y-46742115D01*
X56681525Y-46726876D01*
X56680135Y-46725671D01*
X56672452Y-46724000D01*
X55505130Y-46724000D01*
X55491599Y-46727973D01*
X55490162Y-46737966D01*
X43228500Y-46737966D01*
X43228500Y-46721866D01*
X43221745Y-46659684D01*
X43170615Y-46523295D01*
X43083261Y-46406739D01*
X42966705Y-46319385D01*
X42830316Y-46268255D01*
X42768134Y-46261500D01*
X41071866Y-46261500D01*
X41009684Y-46268255D01*
X40873295Y-46319385D01*
X40756739Y-46406739D01*
X40669385Y-46523295D01*
X40618255Y-46659684D01*
X40611500Y-46721866D01*
X40611500Y-46725185D01*
X40587847Y-46792110D01*
X40541844Y-46827804D01*
X40542859Y-46829734D01*
X40532000Y-46835442D01*
X40531755Y-46835632D01*
X40531597Y-46835653D01*
X40493566Y-46855644D01*
X39792022Y-47557188D01*
X39784408Y-47571132D01*
X39054356Y-47571132D01*
X39055592Y-47568868D01*
X39055461Y-47567035D01*
X39051210Y-47560420D01*
X38345713Y-46854923D01*
X38333938Y-46848493D01*
X38321923Y-46857789D01*
X38286069Y-46908994D01*
X38280586Y-46918489D01*
X38188510Y-47115947D01*
X38184764Y-47126239D01*
X38128375Y-47336688D01*
X38126472Y-47347481D01*
X38107483Y-47564525D01*
X38107483Y-47575475D01*
X37808000Y-47575475D01*
X37808000Y-46482988D01*
X38698576Y-46482988D01*
X38705644Y-46496434D01*
X39407188Y-47197978D01*
X39421132Y-47205592D01*
X39422965Y-47205461D01*
X39429580Y-47201210D01*
X40135077Y-46495713D01*
X40141507Y-46483938D01*
X40132211Y-46471923D01*
X40081006Y-46436069D01*
X40071511Y-46430586D01*
X39874053Y-46338510D01*
X39863761Y-46334764D01*
X39653312Y-46278375D01*
X39642519Y-46276472D01*
X39425475Y-46257483D01*
X39414525Y-46257483D01*
X39197481Y-46276472D01*
X39186688Y-46278375D01*
X38976239Y-46334764D01*
X38965947Y-46338510D01*
X38768489Y-46430586D01*
X38758994Y-46436069D01*
X38706952Y-46472509D01*
X38698576Y-46482988D01*
X37808000Y-46482988D01*
X37808000Y-45534000D01*
X37828002Y-45465879D01*
X37881658Y-45419386D01*
X37934000Y-45408000D01*
X55642555Y-45408000D01*
X55710676Y-45428002D01*
G37*
%TD.AperFunction*%
%TD*%
M02*
